<?xml version="1.0" encoding="utf-8"?>
<!-- Generator: Adobe Illustrator 27.8.0, SVG Export Plug-In . SVG Version: 6.00 Build 0)  -->
<svg version="1.1" id="Calque_1" xmlns="http://www.w3.org/2000/svg" xmlns:xlink="http://www.w3.org/1999/xlink" x="0px" y="0px"
	 viewBox="0 0 1456 1174" style="enable-background:new 0 0 1456 1174;" xml:space="preserve">
<style type="text/css">
	.st0{fill:#F3764C;}
	.st1{fill:#869C80;}
	.st2{fill:#D59237;}
	.st3{fill:#558499;}
	.st4{fill:#3C5664;}
	.st5{fill:#273D4A;}
</style>
<g>
	<path class="st0" d="M889.7,624.3c-1-0.9-0.8-7.5,0.2-9.1c0.4-0.8,5.3-1.9,11.7-2.8c12.8-1.8,22.1-4,39.9-9.6
		c28.4-8.8,52.2-19.7,81.7-37.4c8.4-5.1,14.6-4,8.6,1.4c-3.2,2.9-14,12-19.6,16.5c-11.3,9-46.8,28.1-54.8,29.4c-1.9,0.3-3.7,1-4,1.4
		c-0.3,0.5-1.6,0.9-2.9,0.9c-1.4,0-8.8,1.8-16.5,4c-10.5,2.9-17.4,4.2-26.7,5C892.5,625.2,890.6,625.2,889.7,624.3L889.7,624.3z"/>
	<path class="st0" d="M1038.5,594.3c-1.1-0.3-3.9-2.5-6.2-4.9l-4.3-4.4h7c5.2,0,6.8-0.3,6.4-1.3c-0.2-0.7,0.8-1.7,2.6-2.4
		c2-0.8,2.8-1.6,2.4-2.6c-0.3-0.8-0.1-1.8,0.5-2.2c1.6-0.9,1.3-4.1-0.4-5.5c-2.5-2.1-1.7-3.3,1.8-2.6c1.7,0.4,6.9,1.1,11.4,1.5
		c10.8,1.1,17.3,5.6,17.6,12.2c0.2,2.8-0.3,3.5-4.1,5.6C1062.9,593.5,1047.3,596.4,1038.5,594.3L1038.5,594.3z"/>
	<path class="st0" d="M1008.2,563c-1.5-4.2-1.5-11.4-0.1-18.2c2.4-11.5,13-27.6,21.6-32.9c2.7-1.7,4-1.9,7.1-1.2
		c2.5,0.6,3.8,1.5,4,2.8c0.2,1.1,0.8,3,1.5,4.3c0.8,1.6,0.8,2.5,0.1,3c-0.6,0.4-1.7,1.8-2.4,3.2c-1.2,2.3-1.2,2.4,0.4,1.1
		c3.1-2.6,2.6-0.4-0.9,4.2c-2,2.6-4.3,4.7-5.2,4.7c-1.9,0-7.7,6.2-13,13.8c-2,2.9-4.2,5.1-4.9,4.8c-1.2-0.5-2.7,2.5-3.8,7.4
		c-0.3,1.4-1.1,3.4-1.9,4.4C1009.4,566.2,1009.2,566.1,1008.2,563z"/>
	<path class="st0" d="M1045,547.3c-1.2-0.8-2-2.6-2-4.1c0-2.2,1-3.3,5.6-6.1c5-3,6.2-3.3,11.2-2.9c4.2,0.4,6,1,7.4,2.8
		c2.3,2.9,2.2,4.9-0.5,8.1c-2,2.4-3,2.7-11,3.1C1049.3,548.5,1046.4,548.3,1045,547.3L1045,547.3z"/>
	<path class="st0" d="M806.8,479.8c4.9-4.7,8.3-10.2,5.7-9.2c-2.5,1-1.8-0.1,5-8.3c3.6-4.3,6.5-8.3,6.5-9c0-0.6,0.6-1.8,1.3-2.5
		c1.8-1.9,4.7-6.6,4.7-7.7c0-0.5,2.1-4.5,4.6-8.8c5.8-9.7,8-14.6,13.4-29.8c5.1-14.5,7.9-20.1,11.7-23.7c4-3.7,7.4-4.4,10.4-1.9
		c2.1,1.7,2.4,2.7,2.2,7.8c-0.2,9.3-7.6,29.4-16.3,44.3c-9.1,15.7-31,39.9-44.2,48.6C803.3,485.1,801.2,485.3,806.8,479.8
		L806.8,479.8z"/>
	<path class="st0" d="M921.8,474.5c1.6-3.2,10.4-11,16.1-14.5c5.9-3.6,17.4-7,24.1-7c2.5,0,6.4,0.9,8.7,1.9
		c10.2,4.7,7.7,14.3-4.5,17.1c-2.9,0.7-11.2,1.6-18.5,2c-7.2,0.5-14.7,1-16.5,1.2c-2.2,0.3-3.6-0.1-4.1-1c-0.7-1.2-1.2-1.2-3.6,0.4
		C920.8,476.4,920.7,476.4,921.8,474.5z"/>
	<path class="st0" d="M919,471.3c0-0.5,1.1-2,2.5-3.3s2.5-1.9,2.5-1.3c0,0.5-1.1,2-2.5,3.3S919,471.9,919,471.3z"/>
	<path class="st0" d="M515,464.3c-5.7-7.9-18.5-34-24.3-49.3c-4.8-12.8-10.6-33.5-12.7-45c-1.9-10.1-1.7-24.9,0.2-28.5l1.7-3
		l1.6,3.8c0.8,2.1,1.8,5.2,2.2,7c0.9,5.3,7.3,29.6,9.9,38.2c3.7,11.7,6.9,19.5,13.6,32.4c3.3,6.4,6.9,14.7,8,18.5
		c1,3.8,3.3,9.9,5.1,13.5c2.4,4.9,3.2,8,3.2,12.1c0,4.9-0.2,5.5-2.2,5.8C519.7,470,518.2,468.7,515,464.3L515,464.3z"/>
	<path class="st0" d="M914.5,457.7c-2.6-4-1.8-15.7,1.6-22.2c3.1-6.3,10.4-11.5,15.8-11.5c2,0,4.2,0.5,4.8,1.1
		c1.6,1.6-9.8,23.5-14.6,27.9c-2.1,1.9-4.3,4.4-4.8,5.4C916.3,460.2,916.2,460.2,914.5,457.7L914.5,457.7z"/>
	<path class="st0" d="M708.8,423.8c-1.3-3.9,6.1-27.5,13.1-42c5.1-10.5,17.2-29,17.8-27.2c0.2,0.5-0.3,3.2-1.1,5.8
		c-1.9,6.4-0.5,4.7,2.5-2.9c2.4-6.2,4.4-9.3,5.5-8.3c0.3,0.4,0.1,1.6-0.5,2.7s-1.6,4.2-2.1,6.9c-0.5,2.6-2.2,7.7-3.8,11.2
		c-7.3,15.9-21.2,51.1-21.2,53.6C719,425.4,709.4,425.6,708.8,423.8L708.8,423.8z"/>
	<path class="st0" d="M637.5,385.2c-0.7-16.4-0.6-16.9,2-25.7c1.5-5,3.4-9.7,4.2-10.6c0.8-1,1.2-2.6,0.8-4c-0.7-2.9,3.6-16.5,7-22.3
		c3.6-6,15.6-19.8,18.7-21.6c2.6-1.4,2.9-1.3,5.8,1.5c3.7,3.5,3.7,5.1,0.3,14c-3.7,9.8-6.3,13.7-16.2,24c-7.7,8.1-8.8,9.7-10.9,16.2
		c-1.3,4-2.9,7.9-3.7,8.6c-0.7,0.8-1.3,2.5-1.3,3.8c0.1,1.3-0.5,5.8-1.2,9.9s-1.2,11-1.1,15.3c0,6.9-0.2,7.7-1.8,7.7
		C638.4,402,638.2,400.7,637.5,385.2z M645,362c0-1.2,0.9-3.8,2-6c2.1-4.2,2.6-7,1.1-7c-1.2,0-2.1,2.3-3.6,9.3
		c-0.7,3.1-0.9,5.7-0.4,5.7S645,363.1,645,362z"/>
	<path class="st0" d="M579.1,397.3c-0.6-2.1-1.1-4.7-1.1-5.8c0-1.1-0.7-4-1.6-6.5c-1-2.9-1.5-7.3-1.3-12.5c0.1-4.4-0.3-9.1-0.8-10.5
		c-2.8-6.9-2-39.5,1.2-54c0.8-3.6,2.6-11.8,4-18.4c2.6-11.8,4.8-18.6,6.1-18.6c0.9,0-0.3,22.7-1.6,30.5c-1.4,8.4-2.5,32-2.4,51.5
		c0.1,16.4,1.8,30.5,4.9,39.2c1.1,3.3,1.1,4.1-0.1,5.3c-0.8,0.7-1.4,1.8-1.4,2.4s-1.1,1.1-2.5,1.1
		C580.6,401,579.9,400.3,579.1,397.3L579.1,397.3z"/>
	<path class="st0" d="M456.9,367.1c-3.1-3.1-8.4-7.8-11.8-10.4c-7.5-5.8-11.5-11.2-13.8-18.4c-1.5-4.9-1.6-5.8-0.3-8.1
		c2-3.4,6.2-4.7,10.9-3.4c5.2,1.6,20.1,14.8,22.8,20.2c2.8,5.5,3,8.2,0.6,7.3c-1.3-0.5-1.5-0.3-0.9,1.3c1.5,3.7,2,9.8,0.8,9
		c-1.6-1-1.4,0.5,0.3,2.8c2.4,3.2,1.7,4.1-1,1.2c-2.4-2.6-4.5-3.4-4.5-1.7c0,0.6,0.4,1.3,1,1.6c1.3,0.8,3.3,4.5,2.3,4.4
		C462.9,372.8,460,370.2,456.9,367.1z"/>
	<path class="st0" d="M490.1,345.6c-0.3-18.1-5.1-25.6-16.5-25.6c-2.3,0-3.9-0.8-5.7-2.7c-3.1-3.6-4.9-6.9-4.2-7.7
		c1.3-1.2,6.5-0.5,10.3,1.4c5.6,2.9,6.8,2.6,7.5-1.7c1.3-8.1,1.7-9.2,3-9.7c0.8-0.3,1.7-2.1,2-4c0.9-4.6,2.7-6,8.2-6.1
		c4.4-0.2,4.6-0.1,8.8,5.6c6.7,9.1,7.8,13.1,7.3,25.2c-0.6,12.7-3.4,20-9.6,24.4c-2.2,1.5-5.1,4.5-6.6,6.6c-1.5,2-3.1,3.7-3.6,3.7
		C490.6,355,490.2,350.8,490.1,345.6L490.1,345.6z"/>
	<path class="st0" d="M750.5,349.9c-0.3-0.4-0.1-1,0.4-1.3c0.4-0.3,1.1-1.8,1.4-3.4c0.4-1.9,2-3.9,4.8-5.8c4-2.7,4.1-2.9,1.8-3.4
		c-2.3-0.6-2.2-0.6,1.1-2.7c7.3-4.4,20.7-10.1,25.3-10.8c4.3-0.6,5.4-0.3,8.8,2.1c2.9,2,3.8,3.2,3.3,4.6c-0.3,1-0.2,1.8,0.3,1.7
		c3.7-0.6,4.4,2.4,1.7,6.7c-3.9,5.8-17.5,10.2-32.4,10.4c-2.5,0-7.1,0.6-10.3,1.4C753.6,350.1,750.7,350.4,750.5,349.9L750.5,349.9z
		"/>
	<path class="st0" d="M627.6,339.3c-8.2-12.9-7.1-32.2,2.3-37.7c2.9-1.7,3.3-1.7,5.6-0.2c3.6,2.4,4,5.6,1.7,15.9
		c-1.1,5.1-2.6,12.9-3.2,17.5C632.6,344.2,631.4,345.1,627.6,339.3L627.6,339.3z"/>
	<path class="st0" d="M737.9,332.9c-6.1-7.7-7.5-16.9-3.8-24.5c2.9-6.2,9.5-8.2,13.9-4.4c2.2,1.9,2.2,5-0.1,5
		c-0.7,0-0.9,1.2-0.5,3.5c0.7,3.3-1.6,17.7-3.4,22.3C742.7,337.9,741.6,337.6,737.9,332.9L737.9,332.9z"/>
	<path class="st0" d="M561.4,293.7c-2.2-2.5-5.8-5.4-8.1-6.5c-5.8-3-11.6-10.2-17-20.9c-5.1-10.3-6.3-16.5-4.4-24
		c3.3-13.1,7.5-15.3,18.8-10.2c2.4,1,4.6,1.9,5,1.9c1.5,0.1,5.3,3.8,5.3,5.2c0,0.8-0.5,0.6-1.1-0.6c-0.9-1.5-1.3-1.6-2-0.5
		c-1.9,3.1-0.7,9.9,1.7,9.9c2.5,0,3.8,5.2,3.5,14.5c-0.1,7.1,0.3,10.8,2.4,18.2c2.6,9.1,3,16.3,0.9,17
		C565.8,297.9,563.5,296.1,561.4,293.7L561.4,293.7z"/>
	<path class="st0" d="M592.3,288.3c-2.9-0.6-2.9-2,0.1-4.7c4-3.7,10.4-12.9,12.5-18.3c1.1-2.8,2.5-9,3.2-13.8
		c0.9-6.6,1.8-9.5,3.7-11.6c3-3.6,3.7-3.6,8.6,0.1c7.7,5.8,9.2,11.2,6,21.9c-1.2,4.1-2.9,6.7-8.2,11.9
		C607,285.1,598.8,289.7,592.3,288.3L592.3,288.3z"/>
	<path class="st0" d="M568,259.1c-1.3-6.4-0.8-12.2,1.5-15.8c1.4-2.1,11.3-8.3,13.3-8.3c3.1,0,3,3.7-0.4,14.2
		c-4,12.2-6.3,15.8-10.3,15.8C569.5,265,569.2,264.6,568,259.1z"/>
	<path class="st0" d="M604.5,249.1c-0.8-3.7-2.1-4.7-4.1-3c-1.7,1.4-1.6,1.4-3.9-3.1c-1-1.9-2-2.9-2.2-2.2c-0.8,2.1-2.1,1.3-3.2-2
		c-0.9-2.4-0.8-3.3,0.1-3.9c0.9-0.6,0.9-1.8,0-5.6c-0.7-2.6-1-6.1-0.6-7.8c1.6-8.1,21.4-14,21.4-6.4c0,1.1-1,3.9-2.2,6.2
		c-1.9,3.5-2.3,6.2-2.6,16.7C606.8,250.6,605.8,254.9,604.5,249.1z"/>
	<path class="st0" d="M575.1,213.2c-1.8-3.3-0.4-9.2,2.1-9.2c1.6,0,1.9,0.5,1.5,2.3c-0.3,1.2-1,3.8-1.5,5.7
		C576.4,215.4,576.4,215.5,575.1,213.2z"/>
</g>
<g>
	<path class="st1" d="M757.5,1081.8c-11.1-4.4-16.5-5.4-23.3-10.8c-6.8-7.5-46.4-7.5-55.7-11.4c-5.4-1-4.2,3.4-5,6.9
		c-4.5-0.2-16.4-0.3-18.9-1.7c-18.9-1.6-53.2-1.1-68.4-15.9c-12.5-8.6-25.8,3.2-35.2-6.5c-24.9-25.3-47.5-57.2-65-89.8
		c-1.7-6.5-5.3-9.2-6-15.7c-0.3-5.7-8-0.8-7-8.9c-1.6-8.9,11,9.8,13.9,11.5c-14.5-33.9-16.4-80.6-16.1-114.6
		c-2.8,8.1-2.1-5.3-3.7-5.4c-0.6,0.3-0.7,2.9-0.4,5.8c-0.4,14.5-11.5-55.2-15.7-55.8c-9.3-19.1-28.8-48.9-42.8-63
		c-17.1-11.4-10.1-21.5,6.6-13c26.6,12,57.1,71.2,58.7,106c1,9.6,2.4,11.7,2.5,3.5c0.1-9.5,4.8-59.2,5.3-25.5
		c9.4-72.7-18.5-100.2-48.3-135c11.3,1.5,29.5,13.9,35,23.6c25.3,7,38.2,51.2,42.5,78.4c11.4,81.1-17.2,72.1,9.6,181
		c10.4,29.2,20.2,59.2,43.4,75c0,0,9.1,6.1,9.1,6.1s-3.2-8.1-3.2-8.1c-59.8-143.6,22.8-242.2,99.1-355c0.9,15.1-11.7,31.3-31.2,59.2
		c-9.5,10.9-54.6,85-36.7,59.1c42.5-64.8,87.7-102.9,89.8-189.8c2.4,13.9,1.8,55.1-2.9,73.8c-5.6,23.6,1.3,2.9,4.6-13.3
		c2.2-10.7,2.9-12.6,2.9-7.8c-0.7,18.7-14.6,54.1-25.3,69.8C611.8,769.3,543.3,890,602.3,982c0.3-24,7.1-67.3,29-101.9
		c5.7-10.1,6-11.5,1-4.1c-9.5,13.1-22.4,43.5-29.2,60.1c-0.1-2.1,6.3-20.8,9.9-28.6c82.9-204.5,278.2-51.9,402.1-187.4
		c10.4-11.1,14.6-14.8,15.6-13.7c-4.5,19.8-26.5,47.8-48.7,62.8c-7.4,5.6-13.9,10.6-14.5,11.1c-2,2.3,16.8-9.7,20.4-10.7
		c-12.2,10.9-38.3,24-56.9,31.4c-39.7,20.9-122,8.9-171,21c25.5-1.4,73.9,0.7,100,4.4c-4.1,3.2-103.9-2.4-125.5,4
		c-16.6,5.7-45.5,22.7-58.5,34.3c-16.1,13.7-39.6,42.9-19.5,24.8c-4.9,3-22.8,30.2-10.8,15.1c30.6-34.2,94.9-55.8,137.8-39.7
		c4.5,2.3,2.9,2.7-2.7,0.7c-6.1-2.1-3.9,0,1.2,1.7c22.8,8.9,44.2,33.1,24.1,52.2c-17.8-92-166.2-13.3-178.1,50.5
		c-10.3,28.3-10.5-31.5-4.3-39.5C641,875.9,695.3,828.4,750,814c13.3-6.5-28.6,8.5-37.8,13.2c-66.2,29.9-109.2,105.5-100.6,176
		c52.5-56.2,114.9-31.6,169.4,7.8c8-8.3,27.9-24.1,34.7-24c1.9,1.3-15.2,9-13.7,9.5c20.5-13.4,71.1-5.8,91-18.8
		c10.6-4.3,33.3-29.7,15-4.9c-3.2,8.6-39.9,17.8-37,19.7c7.3,2.1,17.3,7.9,25.2,9.4c35.2-19.4,83.8-38.2,110.8-30.9
		c-24.2,0.8-3.6,3.1-32.6,8.4c-17.5,3.9-56.6,18.9-60.3,30.8c3.4,2.8,32.4,3.6,31.4,6.1c-5.3,2.4-30.3,0.5-40.7-2.4
		c-34.6,27.6-79.8,35.2-120.3,24c12.7,9.1,51.4,9.5,71.3,5.5c-15.5,7.7-50.5,8.2-71.1,0.9c-14.5-5.6-17.9,6.5-31,6.4
		c-14-1.3,2.6,9.9,6.5,15.3c4.4-0.1,18.1-0.2,16.8,2.6c-0.7,3.2-11.7-1.1-6.5,5.4C776.7,1086.4,764.8,1083.1,757.5,1081.8
		L757.5,1081.8z M729,1059c-18.3-15.7-45.7-38.2-66-21.9c0,0.5,2.1,0.9,4.7,0.9c16.3,1.4-23,3.9-5.5,5.5c9.1,2.9,26.9,5.5,33.4,10
		c-5.3-1.1-9.1-1.5-7.6-0.9C691.9,1056.6,744.9,1071.2,729,1059z M765.2,1045.7c11.6-6.1-10.1,1.7-10.2,2.5
		C755,1049.4,761.2,1047.9,765.2,1045.7z M757.4,1034.4c-21.1-26.8-93-58-123.1-19.7C732.4,984.4,696.8,1036.1,757.4,1034.4
		L757.4,1034.4z M850,1021.3c10.9-2.8,24.1-7.7,31.7-12.9c-18.9-6-63.9-13.5-79.7,6.4C789.3,1027.2,837.1,1025.3,850,1021.3z
		 M534.6,977.1c-8.6-14.8-22.5-43.1-27.1-60.7c-3.9-13.5-4.9-12.8-1.5,1.1C510,938.1,532.2,986.4,534.6,977.1z M534.3,964.5
		c-0.9-1.9-1.8-3.3-2.1-3.1C531.8,963.2,538.2,973.1,534.3,964.5z M641.5,901.7c6-12.5-9.8,13.5-11,19.3
		C630.8,922.4,641,901.4,641.5,901.7z M641.8,883.5c-0.5-0.5-6.7,8.9-7.4,11.2C634.1,896.6,643,882.6,641.8,883.5z M655.2,882
		c2.1-2.6,8.7-12.9,3.4-6.5C653.3,881.2,643.7,896.5,655.2,882z M677.9,857.3c0.8-3.3-8.1,5-7.9,6
		C670.4,864.5,677.8,857.1,677.9,857.3z"/>
	<path class="st1" d="M525,822c28.2-147.4-80.3-202.2-115.4-322.5c-2.2-15.8,13.9,42,14.9,33.5c-12.3-37-25.1-95.2-3.8-130.6
		c-17.3,88.2,64.2,189,97.8,237.4c-2.3-10.4-36.5-60.3-44.3-75.2c4.8,1.8,33.7,45.9,29.5,35c-5-6.9-0.8-7.1,0.3-3.6
		c1.2,2.1,11.5,14.1,13.6,20.3c-3.9,8-5.5-9.5-11.4-5.8c2.3,1.1,3.6,0.8,4,8C544.9,669.7,547.2,768.2,525,822z"/>
	<path class="st1" d="M714,599.9c0-3.8,10.3-12.5,22.5-18.8c4.4-2.3,7-3.9,5.8-3.6c-4.8,1.3-1.9-0.8,7-5.1
		c11.8-5.7,37.4-12.1,65.2-16.4c19.4-3,35.5-6.6,51.3-11.5c4.2-1.3,11.3-3.3,15.7-4.5s13.6-4.4,20.3-7.1c6.8-2.7,14.7-5.6,17.5-6.4
		c2.9-0.7,6.7-1.9,8.5-2.5c1.8-0.7,4.4-0.9,5.7-0.6c7.5,1.9-3.2,14.6-19.5,23.3c-28.8,15.4-55.5,23.8-108,33.7
		c-35,6.7-47.7,9.5-60.1,13.5c-11.1,3.6-14.1,3.9-8.4,0.9c9.7-5.1-2.6-1.9-20.3,5.3C714.3,601.2,714,601.2,714,599.9L714,599.9z
		 M754.5,573.9c3.4-1.6,3.5-1.8,1-1.2c-1.6,0.3-4.8,1.4-7,2.4c-3.4,1.5-3.5,1.7-1,1.2C749.2,576,752.3,574.9,754.5,573.9z
		 M933.7,524.4c-0.6-0.6-9.3,3.7-12.2,6.1c-1.1,0.9,1.3,0,5.4-2C930.9,526.5,934,524.6,933.7,524.4z"/>
	<path class="st1" d="M850.8,598.3c-3.3-0.8-2-3.3,1.7-3.3c2.8,0,3.5,0.4,3.5,2C856,599,854.6,599.3,850.8,598.3z"/>
	<path class="st1" d="M868,597c0-1.7,0.7-2,4.5-2c4.9,0,6.4,2.3,2.3,3.4C870.3,599.6,868,599.1,868,597z"/>
	<path class="st1" d="M880,596.1c0-1.7,0.6-2.1,3.4-2.1c1.9,0,7.2-0.9,11.8-2c9.9-2.4,13.8-2.5,13.8-0.6c0,1.4-13.3,4.9-23.7,6.2
		C880.4,598.2,880,598.1,880,596.1L880,596.1z"/>
	<path class="st1" d="M663.2,591.5c-2.6-5.4-2.7-6.2-0.6-4.4c1.7,1.4,4.4,6.2,4.4,7.9C667,597.3,665.3,595.7,663.2,591.5
		L663.2,591.5z"/>
	<path class="st1" d="M823.5,593c-1.4-0.6-1.5-0.9-0.5-1c0.8-0.1,2.5-0.3,3.8-0.6c1.5-0.3,2.2,0.1,2.2,1.1
		C829,594.1,826.6,594.3,823.5,593z"/>
	<path class="st1" d="M700,588.3c0-0.5,1.4-4.9,3.1-9.9c1.6-4.9,3.2-10.6,3.4-12.8c0.4-4.2,11.3-28,15.4-33.6
		c1.5-1.9,5.3-6.8,8.6-10.9c23.6-29.1,45.3-59,57.4-79.4c10.2-17.1,19-38.3,24.1-58.5c3.5-13.6,3.9-14.7,4.6-13.9
		c0.6,0.5-1.6,12.1-4.2,22.1c-2.8,10.9-1,10.2,3-1.2c4.4-12.4,6.6-14.5,6.6-6.2c0,2.8-0.4,5-1,5c-0.5,0-1,0.9-1,2
		c0,1-0.9,4.3-1.9,7.2c-1,2.9-2.1,7.1-2.4,9.3c-0.3,2.2-0.8,4.8-1.2,5.8c-0.6,1.3-0.2,1.7,1.5,1.7c2,0,2.2,0.4,1.7,2.9
		c-0.9,4.4-9.5,25.9-12.7,31.6c-12.8,23.1-18.3,32.6-24.9,42.5c-8.4,12.8-29.7,40.5-37.5,49c-2.8,3-8.6,9.7-12.9,14.8
		c-4.2,5-8.2,9.2-8.8,9.2s-0.7-0.6-0.4-1.2c0.3-0.7-0.4,0-1.7,1.7c-1.3,1.6-4.2,5-6.5,7.6c-2.4,2.5-5.6,7-7.1,9.9
		C702.5,587.9,700,590.5,700,588.3L700,588.3z M726,533.3c1.2-2,1.6-3.2,0.8-2.6c-1.7,1.5-5.4,7.8-4,7
		C723.3,537.3,724.8,535.3,726,533.3z M805.7,421.1c3.5-7.7,6.7-19.1,5.3-19.1c-0.4,0-1,1.7-1.4,3.8c-0.3,2-2.9,8.9-5.6,15.2
		c-6.4,14.5-6.7,15.3-4,11C801.3,430.1,803.8,425.2,805.7,421.1z"/>
	<path class="st1" d="M923,585.6c0-2.6,1.7-3.6,6.1-3.6c5,0,3.4,2.4-3.5,5C923.3,587.9,923,587.7,923,585.6z"/>
	<path class="st1" d="M882.5,583c2.7-1.2,3.5-1.2,3.5,0c0,0.6-1.2,1-2.7,0.9C880.8,583.9,880.7,583.8,882.5,583z"/>
	<path class="st1" d="M935,579.5c0-2,0.5-2.5,2.5-2.5c1.6,0,2.5-0.6,2.5-1.5s0.9-1.5,2.5-1.5c1.8,0,2.5-0.5,2.5-2s0.7-2,2.5-2
		c2,0,2.5-0.5,2.5-2.4c0-1.4,0.9-3.1,2-3.9c1.3-0.9,1.7-2,1.4-3.5c-0.5-1.9-1.1-2-5.5-1.5c-3.3,0.4-4.9,0.2-4.9-0.5
		c0-2.9,9.6-4.6,12.4-2.3c2.3,1.9,2.8,5.8,1.1,9c-2.2,4.4-17.5,16.9-20.7,17.1C935.3,582,935,580.9,935,579.5L935,579.5z"/>
	<path class="st1" d="M644.4,577.7c-3.9-3.1-7.5-5.5-36.2-24.1C576.3,533,546.6,507,531,486.1c-3.8-5.2-7-9.8-7-10.3
		c0-0.4,1.1-0.8,2.5-0.8c1.6,0,2.5,0.6,2.5,1.5c0,0.8,0.4,1.5,1,1.5c1.8,0-0.3-3.5-4.5-7.5c-2.8-2.6-4.6-5.5-5.5-8.5
		c-0.7-2.4-2.3-6.5-3.6-9s-3.2-7.7-4.2-11.5c-1-3.9-2.3-8-3-9.2c-1.3-2.4-1.6-7.3-0.4-7.3c0.4,0,3.3,4.3,6.5,9.5
		c18.1,29.6,39.8,53.2,70.8,76.7c6.2,4.8,16.4,12.6,22.4,17.3c6.1,4.7,13.7,10.7,17.1,13.3c6.6,5.1,11.9,11.6,10.9,13.3
		c-0.4,0.5,1.9,4.4,5,8.5C652.8,578.4,654.3,585.6,644.4,577.7L644.4,577.7z"/>
	<path class="st1" d="M899,578c0-1.2,3.3-3,5.4-3c0.9,0,1.6,0.9,1.6,2c0,1.6-0.7,2-3.5,2C900.6,579,899,578.6,899,578z"/>
	<path class="st1" d="M662.9,569.8c-1.9-4.5-8.1-15.5-13.9-24.5c-15.6-24.2-17.8-27.7-25.6-40.3c-3.9-6.3-9.1-14.6-11.4-18.5
		c-8.5-13.7-19.2-40.8-27.4-69.2c-1.4-5.1-1.4-5.3,0.5-5.3c2.2,0,2.6-3.6,1-8.6c-0.5-1.6-1.2-6.5-1.4-10.9l-0.5-8l1.3,4.8
		c0.7,2.7,1.6,5.1,1.9,5.5c0.9,0.9,0.7-2.4-0.9-15.3c-1.6-12.7-1.9-34.3-0.6-41c0.7-3.9,0.8-3.8,1.5,3c3.3,33.2,5.9,46.1,13.4,67
		c9.6,26.8,17.9,43.3,37.8,76c15.6,25.7,23.5,40.7,26.8,51.1c3.4,10.4,3.2,12-0.5,5.9c-6.8-11-6.1-8,1.8,7.2
		C672,559,672,559,672,568.2c-0.1,10.8-0.7,10.3-4.3-3.2c-2.6-9.9-6.4-19.6-7.2-18.8c-0.3,0.3,0.6,3.4,1.9,7
		c2,5.2,5.1,23.6,4.2,24.5C666.5,577.9,664.8,574.3,662.9,569.8L662.9,569.8z"/>
	<path class="st1" d="M684,571.8c0-3.5-0.5-8.1-1-10.3c-1.4-5.4-9.7-63.4-11-76.4c-2.3-23.3-0.7-61.4,3.4-82.1
		c5.1-25,5.8-27.3,8.9-28.8c1.8-0.9,3-2.6,3.8-5.5c1.4-5.4,7.3-22.1,9.3-26.7c1.9-4.3,4-7,5.4-7c0.5,0,1.3-1.1,1.6-2.5
		c0.5-1.8,1.3-2.5,3.1-2.5c1.5,0,2.3,0.5,2,1.3c-2.9,7.9-13.8,41.2-14.5,44.5c-0.6,2.3-1.8,9.5-2.7,16c-2.1,14-2.3,56.6-0.4,75.7
		c2.8,28.6,4.5,63.1,3.1,64c-0.6,0.3-1-0.1-1-0.9c0-0.9-0.4-1.6-0.9-1.6c-0.4,0-0.6,2.4-0.5,5.3c0.2,2.8,0.1,4.6-0.2,4
		c-1.4-3.1-2.1-0.5-2.7,10c-0.7,11.8-3.7,29.7-4.9,29.7C684.3,578,684,575.2,684,571.8L684,571.8z"/>
	<path class="st1" d="M741.9,556.1c4.6-4.1,7.2-7.2,6.7-7.9c-0.4-0.7-0.3-1.2,0.2-1.2s1.2-0.8,1.4-1.8c0.8-2.9,19.9-18.2,33.5-26.9
		c16.1-10.3,28.8-19.2,39.3-27.7c14.5-11.9,33.3-29.1,40.2-36.8c8.1-9,29-37,38.4-51.2c3.8-5.8,7.2-10.6,7.7-10.6
		c0.4,0,0.7,1.6,0.7,3.5s-0.4,3.5-0.8,3.5c-1,0-4.2,9.3-4.2,12.1c0,1.4,0.7,1.9,2.5,1.9c1.4,0,2.5,0.4,2.5,0.8
		c0,1.6-10.7,17.9-19.2,29.4c-4.6,6.2-9.3,12.5-10.4,13.9c-16,21.8-47.6,52.6-67.7,66.1c-8.3,5.6-21.7,14.1-28.2,18
		c-8.2,4.9-40.8,20.8-41.4,20.2c-0.3-0.2,1.1-2,2.9-3.9c4.8-5,2.8-4.3-3.3,1C734.4,565.7,733.8,563.6,741.9,556.1L741.9,556.1z"/>
	<path class="st1" d="M808.5,546.6c-1.8-1.3-1.6-1.5,2.3-3.5c2.3-1.2,4.2-1.7,4.2-1.1c0,0.5,1.6,1,3.5,1c4.9,0,4.7,2.7-0.2,3.5
		c-2.1,0.3-4.7,0.8-5.9,1C811.3,547.8,809.5,547.3,808.5,546.6L808.5,546.6z"/>
	<path class="st1" d="M823,543c0-1.6,0.7-2,3.5-2c4,0,4.9,2.4,1.3,3.4C824,545.4,823,545.1,823,543z"/>
	<path class="st1" d="M809.5,539.9c12.3-6.2,12.5-6.3,12.5-3.4c0,2.1-0.5,2.5-2.7,2.5c-1.6,0-5,1.1-7.7,2.5s-6.1,2.5-7.5,2.4
		C802.1,543.9,803.5,542.9,809.5,539.9z"/>
	<path class="st1" d="M831,540.5c0-1.9,0.5-2.5,2.1-2.5c1.1,0,2.7-0.7,3.5-1.5c1.7-1.6,8.4-2.1,8.4-0.5c0,1.1-2,2.2-8.9,4.9L831,543
		V540.5z"/>
	<path class="st1" d="M856,527.5c0-2.1,0.5-2.5,3-2.5c2.3,0,3-0.4,3-2s0.7-2,3.5-2c1.9,0,3.5,0.3,3.5,0.8c0,0.7-11.2,8.2-12.3,8.2
		C856.3,530,856,528.9,856,527.5z"/>
	<path class="st1" d="M839,528c0-0.5,2.4-2.2,5.3-3.6c2.8-1.5,7.6-4.2,10.5-6l5.2-3.4v3c0,2.5-0.4,3-2.5,3c-1.6,0-2.5,0.6-2.5,1.5
		s-0.9,1.5-2.5,1.5c-1.4,0-2.5,0.6-2.5,1.3c0,0.8-1.1,1.9-2.5,2.5C844.3,529.3,839,529.4,839,528z"/>
	<path class="st1" d="M871,518.1c0-2.4,0.4-3.1,1.9-3.1c1,0,2.1-0.9,2.4-2c0.3-1.1,1.4-2,2.5-2s2.2-0.9,2.5-2c0.3-1.3,1.4-2,3-2
		c1.9,0,2.6-0.6,2.9-2.2c0.2-1.8,1.1-2.4,3.5-2.6c2.8-0.3,3.2-0.7,3.5-3.5s0.7-3.2,3.7-3.5l3.3-0.3L898,498
		c-2.3,3.2-14.7,14.1-22.7,20.1l-4.3,3.1L871,518.1L871,518.1z"/>
	<path class="st1" d="M862,514.2c0-0.8,5.2-4.2,6.4-4.2c0.3,0,0.6,1.1,0.6,2.5c0,2.2-0.4,2.5-3.5,2.5C863.6,515,862,514.6,862,514.2
		z"/>
	<path class="st1" d="M518.5,505.9c-13.7-8.9-16.5-11.4-16.5-15.1c0-2.4-0.4-2.8-3-2.8c-1.6,0-3-0.4-3-0.8c0-0.5-1.9-2.9-4.2-5.3
		c-4.1-4.3-4.2-4.4-1.8-4.8c2-0.2,3.7,1,8.5,6.2c3.3,3.5,10.5,10,16,14.2C533.2,512.1,535.5,516.9,518.5,505.9L518.5,505.9z"/>
	<path class="st1" d="M952,506.6c0-0.6,10.9-8.9,13-10c0.8-0.4-1.2,1.8-4.5,4.8C955.4,506.2,952,508.2,952,506.6z"/>
	<path class="st1" d="M720,505.3c0-0.7,1.5-3.4,3.4-6c1.8-2.7,4.3-6.6,5.5-8.8c1.2-2.2,3.3-5.8,4.8-8c2.2-3.4,2.3-3.7,0.4-2.1
		c-1.1,1.1-2.1,1.7-2.1,1.3c0-1.2,4.4-8.7,5.2-8.7c0.4,0,0.9,2.1,0.9,4.8c0.1,2.6,0.4,3.7,0.6,2.5c0.2-1.3,1.1-2.3,1.9-2.3
		c0.8,0,1.4-0.9,1.4-2s0.7-2,1.5-2s1.5-0.9,1.5-2s0.5-2,1-2c0.6,0,1-0.7,1-1.5c0-0.9,0.9-1.5,2.5-1.5c1.4,0,2.5,0.4,2.5,0.9
		C752,471.3,720.1,508.6,720,505.3L720,505.3z M736,486.5c0-0.8-0.4-1.5-1-1.5c-0.5,0-1,0.7-1,1.5s0.5,1.5,1,1.5
		C735.6,488,736,487.3,736,486.5z"/>
	<path class="st1" d="M877.8,503.1c1.8-1.6,5.3-4.3,7.8-6l4.4-3.2v3c0,2.4-0.4,3.1-2,3.1c-1.1,0-2,0.7-2,1.5s-0.9,1.5-2,1.5
		s-2,0.7-2,1.5c0,1.1-1.1,1.5-3.7,1.5l-3.8-0.1L877.8,503.1z"/>
	<path class="st1" d="M595,500.5c-0.7-0.9-1.4-3.5-1.5-5.9l-0.1-4.4l3.7,4.5c2.1,2.6,3.5,5.2,3.2,6c-0.4,1-0.9,1.1-1.6,0.4
		c-1.4-1.4-3-1.4-2.2-0.1C597.5,502.5,596.4,502.2,595,500.5L595,500.5z"/>
	<path class="st1" d="M703.3,492.5c-0.8-1.6-1-12.9-0.4-26.2c0.1-1.7,1.9-1.6,3.7,0.1c1.6,1.7,1.8,8.7,0.4,14.8
		c-0.6,2.4-1.4,6.3-1.8,8.8C704.5,494,704.3,494.3,703.3,492.5L703.3,492.5z"/>
	<path class="st1" d="M651.1,486.8c-3.7-5-3.8-5.8-0.8-5.8c1.9,0,2.7,0.8,3.6,3.8c0.7,2,1.5,4.3,1.7,5
		C656.8,492.6,654,490.7,651.1,486.8z"/>
	<path class="st1" d="M593.6,485.2c-2.1-2.7-4.7-5.4-5.8-6.1c-2.2-1.4-2.1-0.9,1.4,4.2l1.9,2.7h-3c-2.4,0-3.1-0.4-3.1-1.9
		c0-1.1-0.4-2.2-0.9-2.5c-0.4-0.3-1.1-2.4-1.5-4.6c-0.3-2.2-1.1-4-1.6-4c-0.6,0-1-1.6-1-3.5c0-2.4-0.5-3.5-1.5-3.5
		c-0.8,0-1.5-0.6-1.5-1.4s-0.7-1.6-1.5-2c-1-0.3-1.5-1.9-1.5-4.2v-3.7l2.3,2.4c3.4,3.5,6.7,8.5,6.1,9.2c-0.7,0.7,4.7,8.8,9.2,13.9
		c4,4.4,6.8,8.7,6.2,9.3C597.6,489.7,595.7,487.8,593.6,485.2L593.6,485.2z"/>
	<path class="st1" d="M899.8,486c1.8-1.6,3.4-3,3.7-3s0.5,1.4,0.5,3c0,2.8-0.3,3-3.6,3h-3.7L899.8,486z"/>
	<path class="st1" d="M483.6,471.8c-2-2.6-2.2-3.4-1.1-3.6c0.8-0.2,1.5-1.2,1.5-2.3c0-3.3,1.9-2.1,4.5,3.1c3.1,6,3.1,6,0.1,6
		C487,475,485.2,473.8,483.6,471.8z"/>
	<path class="st1" d="M641.3,467.5c-1.1-3.3-1-3.5,1.3-3.5c2.1,0,2.4,0.5,2.4,3.5c0,2.2-0.5,3.5-1.3,3.5S641.9,469.4,641.3,467.5z"
		/>
	<path class="st1" d="M477.4,461.8c-4.6-8.4-4.7-8.8-1.9-8.8c2.2,0,2.5,0.4,2.5,3.5c0,2.8,0.4,3.5,2,3.5s2,0.7,2,3.5
		c0,1.9-0.4,3.5-0.8,3.5C480.7,467,479,464.6,477.4,461.8L477.4,461.8z"/>
	<path class="st1" d="M651,463.5c0-3.7,1.3-4.6,2.8-1.9c1.2,2.2,0.4,5.4-1.4,5.4C651.5,467,651,465.8,651,463.5L651,463.5z"/>
	<path class="st1" d="M752,462.5c0-2.8,0.4-3.5,2-3.5c1.5,0,2-0.7,2-2.9c0-4.2,1-6.1,3.1-6.1c1.5,0,1.9-0.7,1.9-3.5
		c0-1.9,0.5-3.5,1-3.5c0.6,0,1-0.7,1-1.5c0-3.2,2.3-6.5,4.6-6.5c2.1,0,2.3,0.2,1.3,2.8c-1.7,4.5-15.2,28.2-16.1,28.2
		C752.4,466,752,464.4,752,462.5z"/>
	<path class="st1" d="M560.7,459.1c-2.2-3.8-2.2-4.1,0.8-4.1c2.2,0,2.5,0.4,2.5,3.5C564,462.8,563,462.9,560.7,459.1z"/>
	<path class="st1" d="M647,455.5c0-4.3,1.4-4.5,3.5-0.5c2,3.8,1.9,4-1,4C647.3,459,647,458.6,647,455.5z"/>
	<path class="st1" d="M703,457.8c0-3,1.3-5.8,2.6-5.8c0.9,0,1.4,1.2,1.4,3.5c0,2.8-0.4,3.5-2,3.5C703.9,459,703,458.4,703,457.8z"/>
	<path class="st1" d="M567.6,448.9c-0.3-1.7-0.6-4.4-0.6-6s-0.4-2.9-1-2.9c-0.5,0-1-1.1-1-2.5s-0.4-2.5-1-2.5c-0.5,0-1-1.1-1-2.5
		s-0.4-2.5-1-2.5c-0.5,0-1-1.6-1-3.5c0-5.2,2.2-4.3,4.4,1.8c1,2.8,3.3,8.5,5.2,12.6s3.2,7.6,3,7.8c-0.2,0.3-0.7-0.5-1.1-1.6
		c-0.3-1.2-1-2.1-1.5-2.1s-0.2,1.6,0.6,3.5c1.4,3.4,1.4,3.5-1,3.5C568.8,452,568.1,451.3,567.6,448.9L567.6,448.9z"/>
	<path class="st1" d="M704,446.8c0-3,1.3-5.8,2.6-5.8c0.9,0,1.4,1.2,1.4,3.5c0,2.8-0.4,3.5-2,3.5C704.9,448,704,447.4,704,446.8z"/>
	<path class="st1" d="M748,445.3c0-2.3,4.7-12.3,5.7-12.3c1.6,0,1.7,4.1,0.1,9.1c-0.9,3.1-1.6,3.9-3.5,3.9
		C749.1,446,748,445.7,748,445.3z"/>
	<path class="st1" d="M643,441.5c0-4,2.4-4.9,3.4-1.2c1,3.7,0.7,4.7-1.4,4.7C643.4,445,643,444.3,643,441.5z"/>
	<path class="st1" d="M473,437.8c0-1.8-0.5-4-1-4.8c-0.7-1.1-1-0.4-1,2.8c0,2.9-0.4,4.2-1.4,4.2c-1.5,0-2.6-2.9-2.6-6.9
		c0-3.3,3.1-10.1,4.6-10.1s4.1,6.9,4.9,13.3c0.6,4.3,0.4,4.7-1.4,4.7C473.4,441,473,440.4,473,437.8z"/>
	<path class="st1" d="M633.6,436.8c-1-3.8-0.7-4.8,1.4-4.8c1.6,0,2,0.7,2,3.5C637,439.5,634.6,440.4,633.6,436.8z"/>
	<path class="st1" d="M640.6,432.3c-0.9-6-0.7-8.3,0.8-8.3c0.9,0,1.8,1.9,2.5,5c1.4,6.7,1.4,7-0.8,7
		C641.7,436,641.1,435,640.6,432.3z"/>
	<path class="st1" d="M545.6,429.1c-0.3-0.4-1-2-1.5-3.5c-1-2.4-0.8-2.6,1.4-2.6s2.5,0.4,2.5,3.5C548,429.8,546.8,431.1,545.6,429.1
		z"/>
	<path class="st1" d="M632.6,426.8c-0.3-1.3-0.6-4.2-0.6-6.5c0-3.6,0.3-4.3,2-4.3c1.8,0,2,0.7,2,6.5c0,4.9-0.3,6.5-1.4,6.5
		C633.9,429,633,428,632.6,426.8z"/>
	<path class="st1" d="M639,417.5c0-4,0.4-5.5,1.4-5.5c1.6,0,2.6,3,2.6,7.8c0,2.5-0.4,3.2-2,3.2C639.2,423,639,422.3,639,417.5z"/>
	<path class="st1" d="M772,419c0-1.1,0.5-5.1,1.2-9c1-5.8,1.5-7,3.1-7c1.7,0,1.8,0.5,1.3,3.8c-2,11.4-2.8,14.2-4.2,14.2
		C772.6,421,772,420.1,772,419L772,419z"/>
	<path class="st1" d="M558,416.5c0-4,2.4-4.9,3.4-1.2c1,3.7,0.7,4.7-1.4,4.7C558.4,420,558,419.3,558,416.5z"/>
	<path class="st1" d="M757,412.8c0-3,1.3-5.8,2.6-5.8c0.9,0,1.4,1.2,1.4,3.5c0,2.8-0.4,3.5-2,3.5C757.9,414,757,413.4,757,412.8z"/>
	<path class="st1" d="M538.9,407.3c-1.3-6.4-0.7-21.4,1.1-27.6c2.2-7.4,7.6-9.9,11.8-5.4c2.8,2.9,2.9,5.7,0.2,5.7c-1.3,0-2-0.7-2-2
		c0-1.1-0.6-2-1.2-2c-5.1,0.2-7.3,8.9-6.5,25.2c0.5,9.6,0.4,11.8-0.8,11.8C540.6,413,539.7,410.9,538.9,407.3z"/>
	<path class="st1" d="M632,407.8c0-5.7,0.9-8.8,2.6-8.8c1.1,0,1.4,1.6,1.4,6.5c0,5.8-0.2,6.5-2,6.5C632.3,412,632,411.3,632,407.8z"
		/>
	<path class="st1" d="M555,402.5c0-4,2.4-4.9,3.4-1.2c1,3.7,0.7,4.7-1.4,4.7C555.4,406,555,405.3,555,402.5z"/>
	<path class="st1" d="M758,402.8c0-3,1.3-5.8,2.6-5.8c0.9,0,1.4,1.2,1.4,3.5c0,2.8-0.4,3.5-2,3.5C758.9,404,758,403.4,758,402.8z"/>
	<path class="st1" d="M775,396.5c0-3.8,0.3-4.5,2-4.5c2.1,0,2.6,2.3,1.4,6.8C777.3,402.9,775,401.4,775,396.5z"/>
	<path class="st1" d="M633.5,390.3c1-8.4,1.5-10.3,3.1-10.3s1.7,1.2,0.8,9.9c-0.6,5.2-1,6.1-2.7,6.1
		C632.9,396,632.8,395.5,633.5,390.3L633.5,390.3z"/>
	<path class="st1" d="M760,394.8c0-3.3,4.4-16.9,6.1-18.7c2.5-2.7,7-2.7,9.4-0.1c1.8,2,1.7,2-1.3,2c-4,0-6.2,0.9-6.2,2.6
		c0,0.8-0.4,1.4-1,1.4c-0.5,0-1,0.9-1,1.9c0,1.1-0.5,4.2-1.2,7c-0.9,3.8-1.6,5.1-3,5.1C760.8,396,760,395.5,760,394.8L760,394.8z"/>
	<path class="st1" d="M552,384.5c0-4,2.4-4.9,3.4-1.2c1,3.7,0.7,4.7-1.4,4.7C552.4,388,552,387.3,552,384.5z"/>
	<path class="st1" d="M775,382.5c0-4,2.4-4.9,3.4-1.2c1,3.7,0.7,4.7-1.4,4.7C775.4,386,775,385.3,775,382.5z"/>
	<path class="st1" d="M462.8,374.5c-0.3-1.4-0.1-2.5,0.3-2.5c0.5,0,0.9,1.1,0.9,2.5s-0.2,2.5-0.4,2.5
		C463.4,377,463,375.9,462.8,374.5z"/>
</g>
<g>
	<path class="st2" d="M861.3,623c-1.3-0.5-2.3-1.3-2.3-1.8c0-1.5,10.1-2.8,23.9-3.1c1.6-0.1,2.1-0.5,1.8-1.6c-0.8-2-0.2-2.2,7.8-2.8
		c3.9-0.3,6-0.3,4.7,0c-2.4,0.5-5.9,6-4.5,7.3c1.9,1.9,24.1-1,38-5c7.7-2.1,15-4.1,16.3-4.3c2.7-0.4,3.2-0.6,10.5-3.1
		c2.8-1,7.5-2.4,10.5-3.2c9.1-2.3,11.3-3.2,20-7.9c4.6-2.5,8.5-4.3,8.7-4.2c0.6,0.6-17.8,10.4-27.7,14.8c-11,4.9-21,8.1-21,6.8
		c0-0.5-0.5-0.9-1.1-0.9c-0.5,0-0.8,0.4-0.5,0.9c0.4,0.5-0.2,0.7-1.1,0.5c-1-0.3-3.8,0.2-6.3,1.1c-2.5,0.9-9.4,2.7-15.5,4.1
		c-9.8,2.3-13.7,2.6-35.5,3C873.5,623.8,862.6,623.6,861.3,623L861.3,623z"/>
	<path class="st2" d="M1030,587c-1.4-1.1-2-2-1.4-2s1.9,0.9,2.9,2C1033.8,589.5,1033.2,589.5,1030,587z"/>
	<path class="st2" d="M989,584.4c3-1.4,7.1-3.5,9-4.6l3.5-2l-2.5,2.1c-2.8,2.4-9.1,5.5-13,6.5C984.6,586.7,986,585.8,989,584.4z"/>
	<path class="st2" d="M1012.1,582.8c0.2-0.2,1.8-1.4,3.4-2.8l3-2.5l-2.4,2.8c-1.4,1.5-2.9,2.7-3.4,2.7
		C1012.1,583,1011.9,582.9,1012.1,582.8z"/>
	<path class="st2" d="M1019.9,575.7c1.6-2,7.1-6.1,7.1-5.4c0,0.3-1.9,2-4.2,3.8C1020.4,576,1019.1,576.7,1019.9,575.7L1019.9,575.7z
		"/>
	<path class="st2" d="M901,551.1c0-1.3,4.4-4.2,11.5-7.6c5.6-2.7,15.3-11,14.7-12.7c-0.1-0.5,0.4-0.7,1.1-0.5c0.6,0.1,1.1-0.4,1-1
		c-0.2-0.7,0.2-1.3,0.8-1.3c0.7,0,2.1-0.9,3.3-2.1c1.2-1.1,6.8-5.2,12.6-9c14.7-9.6,22.1-15.7,40.9-33.7
		c15.1-14.5,19.5-18.3,17.7-15.3c-0.4,0.6-0.3,1.1,0.3,1.1c0.5,0,1.2-0.4,1.6-1c0.3-0.5,2-1.9,3.8-3.2l3.2-2.3l-3,4
		c-6.4,8.7-18,22.9-23.4,28.7c-15,16.3-51.6,41.5-78.7,54.3C902.7,552.2,901,552.5,901,551.1L901,551.1z"/>
	<path class="st2" d="M890.5,539c-0.6-1,1.7-2.4,5.8-3.4c2-0.5,2.7-0.3,2.7,0.9c0,0.8-1.2,1.7-2.7,2.1c-1.6,0.3-3.3,0.7-4,0.9
		S890.8,539.5,890.5,539z"/>
	<path class="st2" d="M905,533c0-0.4,6.2-3.8,13.8-7.5c12.9-6.4,19.6-10.3,33.5-19.7c3.3-2.2,6.1-3.7,6.3-3.5
		c0.6,0.6-13.2,13-19.3,17.4c-2.6,1.9-7.8,5-11.4,6.8C918.9,531.1,905,535,905,533L905,533z"/>
	<path class="st2" d="M1039.2,526.8c0.1-1.5,0.9-2.5,2-2.5c1.5-0.2,1.6,0.2,0.8,1.7C1040.4,529,1039,529.4,1039.2,526.8z"/>
	<path class="st2" d="M540.9,486.9c-2.1-2.3-2.6-3.5-1.9-4.4c0.5-0.6,0.6-1.6,0.2-2c-0.4-0.5-0.1-0.5,0.6-0.1c0.7,0.4,1,1.2,0.7,1.7
		s0,0.7,0.7,0.4c1.6-0.5,6.2,5.1,5.3,6.5C545.4,490.7,543.9,490.1,540.9,486.9z"/>
	<path class="st2" d="M528.8,482.3c-1.7-2-14.5-18.9-16.1-21.3c-0.5-0.8,0.7,0.2,2.8,2.3c2.5,2.6,4,3.6,4.7,2.9
		c1.2-1.2-0.4-6.9-3.4-12.1c-1-1.8-3-7-4.3-11.5c-1.3-4.4-3.3-10.6-4.4-13.6c-1.2-3-2.1-6.3-2.1-7.3s-1.2-4-2.6-6.8
		s-2.3-5.3-2.1-5.5c0.2-0.3,2.8,4.4,5.7,10.3c2.9,5.8,6.5,12.8,8,15.3c1.5,2.6,3.1,5.8,3.4,7.1c0.7,2.2,0.6,2.2-1.1-0.3
		c-1.6-2.6-3.3-3.7-3.3-2.2c0,0.8,2.3,6.1,6.6,15.1c1.9,4,3.4,7.6,3.4,8.1s2,2.7,4.3,4.8c2.4,2.1,5,5.4,5.8,7.2
		c0.8,1.7,1.8,3.2,2.2,3.2c0.5,0,0.5,0.5,0.2,1c-0.4,0.6-1.1,0.8-1.6,0.5c-0.5-0.4-0.9,0.1-0.9,1c0,1.2-0.6,1.5-2,1
		c-1.5-0.5-1.8-0.3-1.4,0.9C531.4,484.5,530.7,484.4,528.8,482.3L528.8,482.3z"/>
	<path class="st2" d="M805,482.7c0-0.6,0.9-1.8,2-2.5c1.6-1,2-1,2,0.1c0,0.6-0.9,1.8-2,2.5C805.4,483.8,805,483.8,805,482.7z"/>
	<path class="st2" d="M908,481.2c0-2.1,0.6-3.5,1.7-3.9c0.9-0.4,4.2-3,7.2-6c3.1-2.9,5.9-5.3,6.4-5.3c1.8,0,0.2,2.2-7.3,10.1
		C908,484.5,908,484.5,908,481.2L908,481.2z"/>
	<path class="st2" d="M1032.5,478.9c-12.2-1.6-11.5-3.9,2-6.5c9.8-1.9,10.8-2.3,11-5.3c0.1-1.1,0.8-2.8,1.7-3.8c0.9-1,2.1-3.7,2.7-6
		c0.8-3,2-4.7,3.9-5.7c1.6-0.8,4.9-3.6,7.5-6.2c4.5-4.7,4.7-4.7,6.6-3c1.8,1.7,2.3,1.7,10.5-0.4c8.1-2.1,8.8-2.1,11.1-0.6
		c1.4,0.9,2.5,2.3,2.5,3c0,2-4,6.8-5.4,6.3c-0.6-0.2-2.4,0.2-4,1c-1.9,1-4.6,1.4-7.8,1.1c-4.5-0.5-7.2,0.6-5.1,2.1
		c2.3,1.6,5.3,6.6,5.3,9c0,1.4-1.3,4.9-2.8,7.6c-2.3,4.3-3.4,5.2-7.7,6.7C1058.9,480.1,1044.6,480.4,1032.5,478.9L1032.5,478.9z"/>
	<path class="st2" d="M914.4,457.5c-0.9-1.4-1.4-2.8-1.1-3.1c0.3-0.3,0.8,0.4,1.2,1.5c0.4,1.2,1.2,1.8,2.1,1.4c1-0.4,1.2,0,0.8,1.1
		C916.6,460.5,916.3,460.4,914.4,457.5z"/>
	<path class="st2" d="M1041,444.1c0-0.5,1.1-1.8,2.5-2.8c1.5-1,3.1-3.8,4-6.5l1.4-4.7l-4.3,4.4c-4.5,4.8-7.2,5.8-6.3,2.5
		c0.3-1,0-2.1-0.6-2.3c-0.6-0.2,0.3-3,2.1-6.9c1.7-3.7,3.4-7.9,3.8-9.5c0.8-3.4,5.9-13.7,8.6-17.5c1.1-1.6,2.7-2.8,3.7-2.8
		s2.6-0.9,3.6-2s2.2-2,2.6-2c0.5,0,2.5,1.8,4.5,4c4.7,5,9.6,15.5,6.4,13.5c-0.6-0.3-1,0.5-1,1.9c0,1.3,0.5,2.6,1.2,2.8
		c1.8,0.6-0.9,6.6-3.8,8.5c-1.3,0.8-3.8,3.8-5.6,6.6c-3.8,6.1-6.9,9.1-12,11.8C1048,445.1,1041,445.7,1041,444.1L1041,444.1z"/>
	<path class="st2" d="M892.6,437.3c1.5-2.7,3.7-5.9,4.9-7.3c3.2-3.5,7.8-11.1,7.1-11.7c-0.3-0.3-1.1,0.6-1.7,2.1
		c-0.7,1.4-2.3,3.3-3.6,4.1c-2.2,1.4-2.3,1.4-2.3-0.5c0-1.1,0.7-2.3,1.5-2.6c0.8-0.4,1.2-1,0.9-1.6c-0.3-0.5-0.2-1.7,0.2-2.6
		c1.2-2.8,1.3-3.4,2.4-9.6c1.2-6.7,5.2-14.4,15.3-29.6c3.8-5.7,9.2-14.7,12-20c2.7-5.2,6.1-11,7.5-12.8c2.2-3.1,2.5-3.2,3.8-1.5
		c1.7,2.3,1.8,5.3,0.1,7.8c-0.7,1.1-3.1,6.5-5.2,12c-5.7,14.5-19,40.4-27.5,53.6c-4.1,6.3-7.8,11.6-8.2,11.7
		c-0.5,0.2-0.8,0.8-0.8,1.3c0,1.1-7.8,11.9-8.5,11.9C890.2,442,891.2,439.9,892.6,437.3L892.6,437.3z"/>
	<path class="st2" d="M886.8,440.3c-2.3-0.6-2.2-1.1,0.2-5c1.1-1.8,2.7-3.3,3.7-3.3c0.9,0,2.5-0.7,3.5-1.7c1-0.9,1.8-1.1,1.8-0.6
		c0,0.6-0.7,1.3-1.5,1.7c-0.8,0.3-1.5,1.4-1.5,2.5c0,1.2-1.1,2.8-2.5,3.7c-1.4,0.9-2.2,2-1.9,2.5s0.4,0.8,0.2,0.8
		C888.6,440.8,887.7,440.6,886.8,440.3z"/>
	<path class="st2" d="M1007.3,430c0.4-8.5,1.1-11.8,3.4-17.4c3.8-9,6.5-10.5,17.3-9.7l7.5,0.6l0.8,6c0.7,5.1,0.6,6.1-0.9,7.2
		c-1,0.8-1.9,2.1-1.9,3.1c0,0.9-0.9,2.9-2,4.3c-2.2,2.8-11.7,9.9-13.2,9.9c-0.5,0-2,1.1-3.3,2.5c-1.6,1.7-2.7,2.2-3.4,1.5
		c-0.6-0.6-1.6-0.4-2.9,0.8C1006.7,440.5,1006.7,440.4,1007.3,430L1007.3,430z"/>
	<path class="st2" d="M593.3,430.1c-0.3-1.3-1.1-1.7-2.4-1.4c-1,0.3-1.9,0.3-1.9,0.1c0-0.3-1.6-4.9-3.5-10.4
		c-3.5-9.6-9.7-33.7-10.9-41.9c-0.8-6-1.5-14.8-2-27c-0.4-9.2-0.3-10.1,0.5-5.5c1.3,7.6,4.3,16.3,5.7,16.8c0.9,0.3,1.2-1.8,1.2-7.4
		c0-11.7,0.7-8.5,1.3,6.1c0.3,7.2,0.3,12,0,10.8c-0.2-1.3-0.8-2.3-1.2-2.3c-1.6,0-2,1.3-1,3.3c0.8,1.4,0.8,1.8-0.1,1.2
		c-1.6-1-1,8.4,0.8,11.3c2.5,3.9,3.4,2.5,2.8-4.5l-0.5-6.8l1.4,7.4c0.8,4.1,2.5,11.1,3.8,15.5c1.4,4.5,3.1,11.4,3.8,15.5
		s2.1,9,3.2,11c1,2,2.3,5.1,2.7,6.9c0.7,2.8,0.5,3.2-1.2,3.2C594.7,432,593.6,431.2,593.3,430.1L593.3,430.1z M583.7,394.2
		c1.7-1.8,1.7-3.4-0.3-5.8c-0.8-1-1.3-1.4-1-0.7c0.4,0.6,0.2,1.3-0.3,1.5c-1.1,0.4-2.2,6.8-1.4,8.2c0.4,0.6,0.9,0.4,1.1-0.4
		C582.1,396.2,582.9,394.9,583.7,394.2L583.7,394.2z"/>
	<path class="st2" d="M808.8,425.3c0.2-2.1,0.8-4.2,1.2-4.8c0.4-0.5,0.8-2.8,0.9-5c0.2-5.2,0.5-7.3,1.4-8.1c0.4-0.4,0.7-2.1,0.7-3.8
		c0-1.7,0.9-5.5,2-8.4s2-6.1,2-7.2s0.5-2,1-2c0.6,0,1-1.4,1-3.1c0-4.1,6.5-27,9-31.6c1.1-2.1,2-4.3,2-5s0.4-1.3,0.9-1.3
		s1.7-3.3,2.7-7.2c3.2-12.4,2.8-3.6-0.6,16.4c-5.3,30.8-15.1,67.8-18.1,67.8c-0.4,0-0.6,0.7-0.3,1.5c0.4,0.9,0,1.5-1,1.5
		c-0.8,0-2,0.9-2.6,2C809.3,430.1,808.4,429.4,808.8,425.3L808.8,425.3z"/>
	<path class="st2" d="M715,424.7c0-2.6,0.4-3.3,2-3.4c2.1-0.2,2.4,0.7,1.4,4.5C717.4,429.3,715,428.5,715,424.7z"/>
	<path class="st2" d="M996.5,411.7c-3.8-5.9-2.7-14.3,3.1-23.4c3.8-6,6-6.6,8.1-2.2c0.7,1.5,2.4,3.4,3.8,4.3c1.8,1.2,2.5,2.5,2.5,5
		c0,2.8-1.2,4.5-7.7,11c-4.2,4.2-7.8,7.6-7.9,7.6C998.2,414,997.4,413,996.5,411.7L996.5,411.7z"/>
	<path class="st2" d="M680.5,381.8c1.8-11.8,10.7-40.6,16.5-53.3c5.2-11.6,11.6-23.6,17.3-32.5c7-10.8,19.9-26.8,20.5-25.2
		c0.2,0.6-0.1,2-0.7,3.1c-1.6,2.8-1.4,3.3,0.9,2.1c3.1-1.7,2.4,0.4-1.9,5.4c-4.4,5-10.5,17.3-17.9,35.6
		c-6.3,15.8-10.1,23.9-10.1,22.1c-0.1-1.7-3.2,2.2-5,6.4c-1.9,4.3-7.7,21.2-9.1,26.3c-0.8,3-1.8,4.6-3.5,5.2c-1.3,0.5-3.3,2.7-4.5,5
		c-1.1,2.2-2.3,4-2.6,4S680.1,384.1,680.5,381.8z"/>
	<path class="st2" d="M459.4,369.2c-1.6-1.5-3.6-3.6-4.4-4.7c-1.4-1.9-1.4-1.9,0.6-0.2c1.1,0.9,2.5,1.7,3,1.7c1.1,0.1,4.8,5,4.2,5.6
		C462.5,371.8,461,370.8,459.4,369.2L459.4,369.2z"/>
	<path class="st2" d="M946.6,371.2c-0.3-0.6,1-2,2.9-3.2c4.2-2.6,4.5-3.5,0.8-2.5c-2.4,0.5-2.1,0.1,1.7-2.6
		c8.4-6,11.1-9.1,10.5-11.9c-0.4-2.1,0.2-3,3.8-5.3c2.3-1.6,5.7-3.9,7.6-5.3c1.9-1.3,5.2-2.9,7.4-3.5c3.9-1,4-1,8.2,3.6
		c5.2,5.6,7,12.5,3.4,12.5c-0.6,0-0.7-0.4-0.4-1c1.5-2.4-2.1-0.6-8.3,4.1C971.3,365.9,948.9,374.9,946.6,371.2L946.6,371.2z"/>
	<path class="st2" d="M741.1,367c0-0.3,0.6-2.7,1.4-5.5c0.8-3,1.4-4,1.4-2.5C743.9,361,741.3,368.7,741.1,367L741.1,367z"/>
	<path class="st2" d="M490,354.1c0-1.8,2.3-3.5,3.3-2.4c0.7,0.6-1.5,4.3-2.5,4.3C490.3,356,490,355.1,490,354.1z"/>
	<path class="st2" d="M743.1,355.1c-0.9-0.6-1-1.1-0.2-1.5c0.6-0.4,0.9-1.1,0.6-1.5c-0.2-0.5,0.7-1.9,2-3.1c2.9-2.8,3.1-2.1,0.8,2.3
		c-0.9,1.8-1.6,3.5-1.5,4C745.1,356.2,744.8,356.2,743.1,355.1L743.1,355.1z"/>
	<path class="st2" d="M916.1,348c-3.1-5.2-4.2-9.5-4.8-19.2c-0.9-14.6,2.7-28.8,8.1-32.3c1.4-0.9,4.2-1.7,6.2-1.8
		c2.9-0.1,4.2,0.5,6.4,3c3.4,3.8,6.4,13.4,5.7,18.2c-1.5,10.3-5.5,20.9-10.2,26.6c-1.5,1.9-1.6,1.9-1-1.2c1.2-6.2-1.9-3.1-6.6,6.7
		l-1.7,3.4L916.1,348L916.1,348z"/>
	<path class="st2" d="M647.3,348.8c-1.2-0.6-2.4-1.9-2.6-3c-0.4-1.5-0.3-1.7,0.8-0.8c0.8,0.7,1.8,0.9,2.3,0.7c1.5-1,3.5,1,2.6,2.5
		C649.7,349.4,649,349.5,647.3,348.8L647.3,348.8z"/>
	<path class="st2" d="M957.8,345.5c-1.2-1.5-1.8-4.2-1.8-7.7c0-5.5-1.8-17.7-4.5-30.8c-1.8-9.1-1.9-11.8-0.3-17c1-3.1,1.7-3.9,3-3.4
		c1.6,0.5,1.7,0.2,0.8-2c-0.8-2.2-0.7-2.6,0.8-2.6c0.9,0,2.6,0.7,3.6,1.5c3,2.3,3.7,1.8,3-1.7c-1.1-5.9-1-6.3,1.6-6.4
		c3.4-0.3,7.5,3.8,9.7,9.5c1.4,3.6,1.8,7.5,1.8,17.6c-0.1,12.5-0.2,13.4-3.7,22.5c-2,5.2-3.8,10-4,10.5c-0.6,1.8-7.3,12.4-7.8,12.4
		C959.7,347.9,958.7,346.9,957.8,345.5L957.8,345.5z"/>
	<path class="st2" d="M581.2,335c0-1.9,0.2-2.7,0.5-1.7c0.2,0.9,0.2,2.5,0,3.5C581.4,337.7,581.2,336.9,581.2,335z"/>
	<path class="st2" d="M846.8,332.7c2.7-2.9,2.8-4,0.2-3.2c-1.6,0.5-1.1-0.7,2.4-5.7c2.5-3.5,5.8-10.1,7.5-14.7
		c4-11,7.4-16.5,11.9-19.6c17.4-11.8,15.4,19.8-2.3,36.4c-7.3,6.8-11.8,9.1-17.6,9.1h-4.2L846.8,332.7L846.8,332.7z"/>
	<path class="st2" d="M658,314c1.2-1.7,4.4-5.4,7.2-8.3c4-4.2,3.6-3.6-1.8,3.1C656.6,317.1,654,319.6,658,314L658,314z"/>
	<path class="st2" d="M818.8,312.5c-5.3-2.8-7.6-5.7-12.1-15.2c-2.9-6.4-3.1-7.5-3.1-17.8c0-9.2,0.4-11.8,2.2-15.7
		c2.8-5.8,7.4-9.8,11.3-9.8c4.5,0,10.4,3.5,13,7.7c2,3.3,2.3,5,2.2,13.1c0,5.5-0.5,9.8-1.2,10.5c-0.6,0.6-1.1,3.1-1.1,5.5
		c0,3.9-0.2,4.3-2,3.7c-1.1-0.4-2-0.2-2,0.4c0,1.9-1.8,1.2-2.6-1.1c-1.2-3.8-2.5,0.4-1.3,4.6c0.6,2,0.7,4.6,0.4,5.6
		c-0.4,1.3,0.2,3.4,1.4,5.4C827.8,315.6,826.4,316.4,818.8,312.5L818.8,312.5z"/>
	<path class="st2" d="M463.5,311c-0.3-0.5,0.1-1.3,1-1.6c2.2-0.9,2.9,0.1,1.1,1.5C464.6,311.7,464,311.8,463.5,311z"/>
	<path class="st2" d="M845.4,284.9c-1.2-1.9-0.8-14.6,0.5-17.6c1.6-3.6,6.7-7.7,8.7-6.9c3.7,1.4,6,15.8,3.3,20.8
		C856,284.7,847,287.4,845.4,284.9z"/>
	<path class="st2" d="M584.1,272.7c1.7-3.2,1.9-3.3,1.9-1c0,1.2-0.7,2.3-1.5,2.7C583.2,274.9,583.1,274.6,584.1,272.7z"/>
	<path class="st2" d="M712.9,266c-3.5-7.3-7.6-17.7-8.8-22.2c-2-7-1-17.2,2.1-24c4.4-9.4,10.5-10.2,14.3-1.8
		c2.4,5.4,1.6,24.5-1.3,29.3c-2,3.1-3.9,11.5-4.4,18.7l-0.3,3.5L712.9,266z"/>
	<path class="st2" d="M760,268.6c0-0.1,1.4-1.8,3-3.6c3.3-3.7,3.9-5.5,1.4-4.6c-1.4,0.5-1.6,0.1-1.1-2.3c0.8-3.9-1.5-4.7-5.9-2
		c-3,1.8-3.4,1.9-3.4,0.4c0-1.1-0.5-1.5-1.6-1.1c-2.4,0.9,1.9-4.6,6.8-8.8c5.3-4.6,11.2-7.4,17.1-8.2c6.7-0.9,9.2,1,10.7,8.2
		c2.2,10.3-2,14.9-17.5,19.4C764.3,267.5,760,268.7,760,268.6z"/>
	<path class="st2" d="M728,256.4c0-12.1,4.8-27.6,11.4-36.7c6-8.5,16.4-18,23.9-21.7c4.8-2.4,7.3-3,12.4-3c5.6,0,6.3,0.2,6.3,1.9
		c0,1.1,0.5,2.3,1,2.6c1.6,1,1.2,2.5-0.5,1.8c-0.9-0.3-2.2,0.2-2.9,1.3c-1.2,1.6-1.1,2,0.5,3.2c3.7,2.6,2.3,5.3-7.8,15
		c-8.6,8.3-18.6,15.2-20,13.9c-0.2-0.3,0.1-1.5,0.7-2.7c1.4-2.6,0.5-3.8-1.8-2.4c-2.6,1.6-11.9,13.4-14.2,17.9
		c-1.1,2.2-3.6,6-5.5,8.4l-3.5,4.4L728,256.4L728,256.4z"/>
	<path class="st2" d="M567.3,253.5c0-2.2,0.2-3,0.4-1.7c0.2,1.2,0.2,3,0,4C567.4,256.7,567.2,255.7,567.3,253.5z"/>
	<path class="st2" d="M591.6,240.4c-0.9-2.4-0.7-2.7,0.9-1c1.7,1.7,1.9,2.6,0.6,2.6C592.6,242,591.9,241.3,591.6,240.4z"/>
	<path class="st2" d="M574.7,206.8c1.1-4.2,4.3-5.1,4.3-1.2c0,1.5-0.4,2.3-1,1.9c-0.6-0.4-1.7-0.2-2.5,0.5
		C574.4,208.9,574.3,208.7,574.7,206.8z"/>
</g>
<g>
	<path class="st3" d="M653,755.7c-0.3-1.2,13.4-19.7,7.5-13.7c-1.9,1.4-4.8,4.5-6.6,6.5c10.1-17.6,30-34.5,46.9-45
		c3.1-6.5,24.1-19.6,43.8-25c16.8-3.7,71.5-15.6,74.6,6.9c-67.3,10.9-97.8,15.6-152.4,62.9C676.8,727.4,659.8,748.8,653,755.7z"/>
	<path class="st3" d="M573.8,729c12.2-54.7-26.1-118.7-46.8-160.6c24.7-11.2,52.1,54.5,59.5,78.4c4.7,18.6,0.7,9.4-2.1,2.2
		c-0.7,0,0.1,6.4,1,7.9c2.7,0,1.2,51.7,3.7,31.9c2.6-6.5-2.2,45.2-3.7,34.7c0.7-5.4,1.9-23.6,3.3-26.1c-2.2-7.4-5.6,31.7-8,33
		c-2.4,5.4-2.6-8.6-7.7,10.1C573,740.5,573.8,729,573.8,729z"/>
	<path class="st3" d="M526.7,665.3c-5.3-18.2-7.1-23.4-9.8-29.3c-1.7-3.5-2.6-6.6-2-6.8c0.5-0.2-0.6-3-2.5-6.4
		c-1.9-3.3-3.4-6.4-3.4-6.9c0-0.4-0.6-0.6-1.2-0.4c-0.8,0.3-4.3-4.3-8.8-11.7c-4.1-6.7-9.9-15.8-12.7-20.2c-6.1-9.2-7-13.1-1.7-7.1
		c2,2.2,4.7,5.8,6.2,8c4.8,7.1,14.5,19.6,14.9,19.1c0.2-0.2-1-2.6-2.6-5.4c-3.1-5-3.8-7.2-2.2-7.2c1.9,0,20.2,30.2,32.3,53.5
		c8.5,16.2,8.2,15.5,5.3,15.5c-2,0-2.5-0.5-2.5-2.5c0-1.4-0.6-2.5-1.3-2.5c-0.8,0-2.4-2.3-3.8-5.2c-2.3-4.9-5.9-9.8-7.3-9.8
		c-0.9,0-0.8,2.8,0.2,3.2c1.1,0.5,7.2,21.3,7.2,24.8C531,673.1,528.5,671.5,526.7,665.3L526.7,665.3z"/>
	<path class="st3" d="M889,664.9c-4.8-0.5-17.3-2.7-24.7-4.6c-7.4-1.9-9.7-3.4,5.9-2.3c16.5,0.8,32.9-0.9,50.7-5.3
		c17.8-4.4,37-11.6,59.1-21.9c28.8-10.3,16.1,2.5-8.7,15.7C946.4,659.7,909.3,673.3,889,664.9z"/>
	<path class="st3" d="M847.5,597.9c-9.7-1.3-22.5-4.2-23.1-5.1c-0.5-0.8-0.1-0.9,6.6-1.4c25.4-2,51.4-7,60.8-11.8
		c1.5-0.7,6.5-2.6,11.2-4.1s16.7-6.7,26.6-11.6c10-4.9,18.9-8.9,19.8-8.9c0.9,0,1.6,0.8,1.6,1.8c0,1.2-4.9,4.1-17.8,10.4
		c-9.7,4.8-20.4,9.5-23.7,10.6s-9.4,3.4-13.5,5.1c-8.7,3.7-23.6,7.5-36.8,9.2c-5.1,0.7-9.2,1.6-9.2,2.1c0,0.4,5.4,0.8,12,0.8
		c9.6,0,12,0.3,12,1.4c0,0.7-1,1.6-2.2,2C868.7,599.2,854.8,598.9,847.5,597.9L847.5,597.9z"/>
	<path class="st3" d="M878,596.2c0-1.7,1.2-2.1,8.8-3.2c16.3-2.3,16.2-2.3,16.2-0.7s-9.2,4.1-19.2,5.2
		C878.5,598.1,878,598,878,596.2z"/>
	<path class="st3" d="M906,591c0-1.6,0.7-2,3.5-2c4,0,4.9,2.4,1.3,3.4C907,593.4,906,593.1,906,591z"/>
	<path class="st3" d="M915,588.6c0-2.6,3.9-4.6,9.1-4.6c1.7,0,2.9-0.5,2.9-1.3c0-0.7,1.6-2.1,3.5-3c3.9-1.9,9.5-2.3,9.5-0.7
		c0,1-14.3,8.1-21.1,10.5C915.1,590.9,915,590.9,915,588.6z"/>
	<path class="st3" d="M848.5,587c-0.4-0.6,1.6-1,5.2-0.9c4.2,0,5.2,0.3,3.8,0.9C854.7,588.2,849.2,588.2,848.5,587z"/>
	<path class="st3" d="M940.3,577.4c-1.9-1.9-1.7-7.4,0.2-7.4c0.8,0,1.5-0.7,1.5-1.5c0-1.2,1.3-1.5,6-1.5c4.8,0,5.8,0.3,5.4,1.5
		c-0.5,1.1-6.1,6.1-10.9,9.6C942,578.5,940.9,578.2,940.3,577.4L940.3,577.4z"/>
	<path class="st3" d="M807,545.9c0-0.5,2.5-2.1,5.5-3.5c9.6-4.4,5.5-3.6-5.7,1.1c-1.1,0.4-1.8,0.3-1.8-0.3c0-1.3,14.8-8.6,29-14.2
		c11.6-4.6,16.6-7.5,34.8-19.7L881,501v4.5c0,3.4,0.4,4.5,1.6,4.5c0.8,0,1.3,0.4,0.9,0.9c-0.9,1.5-16.5,13.1-17.6,13.1
		c-0.5,0-0.9-1.1-0.9-2.5c0-1.5,0.6-2.5,1.4-2.5c0.8,0,1.6-0.7,2-1.5c0.3-0.8,1-1.5,1.6-1.5c1.2,0,4-2.4,4-3.4
		c0-0.9-5.3,1.7-7.3,3.5c-0.9,0.9-3,2.2-4.5,3s-3.3,2-4,2.7c-0.7,0.6-2,1.2-2.8,1.2s-1.4,0.4-1.4,1c0,0.5-1.1,1.2-2.5,1.6
		c-1.4,0.3-2.5,1-2.5,1.4c0,0.5-3.7,2.3-8.2,4c-14.4,5.5-17.8,7.2-17.8,8.7c0,1.1,0.6,1.3,2.3,0.8c1.2-0.3,3.3-0.9,4.7-1.2
		s2.7-0.9,3-1.3c0.8-1.3,14.1-7,16.1-7c1.1,0,1.9-0.7,1.9-1.5c0-1,1.1-1.5,3.5-1.5c1.9,0,3.5,0.4,3.5,0.8c0,2.4-24.5,13.9-35.5,16.7
		C815.7,547.2,807,547.5,807,545.9z"/>
	<path class="st3" d="M516.5,502c-0.4-0.6-1-0.8-1.5-0.5c-3.7,2.3-20.2-13.7-32.4-31.5c-5.5-8-12.4-22.6-14.2-30.2
		c-1.5-6.2-1.5-6.9,0.1-11.2c1-2.6,2.2-4.9,2.6-5.2c1.6-0.9,3.8,4.1,4.9,11.1c1.5,9.4,4.9,19.4,11,31.7
		c5.6,11.4,13.8,21.1,26.3,30.8c3.7,3,6.7,5.5,6.7,5.7C520,503.5,517.1,502.9,516.5,502L516.5,502z"/>
	<path class="st3" d="M597.7,500.2c-0.5-0.7-1.3-1-1.8-0.6c-1.4,0.8-3.8-2.6-3.2-4.6c0.4-1.3,0.3-1.3-0.5-0.1
		c-1.4,2-10.8-7.7-21.7-22.4c-7.8-10.5-17.5-25.4-17.5-26.8c0-0.4,1.1-0.7,2.5-0.7c1.9,0,2.9,0.9,4.3,3.8c0.9,2,2,3.8,2.5,4
		c0.4,0.2,0.7,0.8,0.7,1.4c0,0.5,0.7,1.6,1.5,2.4c0.8,0.9,1.5,2.4,1.5,3.5c0,1,0.7,1.9,1.5,1.9s1.5,0.6,1.5,1.4s0.7,1.6,1.5,2
		c0.8,0.3,1.5,1.5,1.5,2.6s0.7,2,1.5,2s1.5,0.7,1.5,1.5s0.5,1.5,1,1.5c0.6,0,1,0.9,1,2s0.7,2,1.5,2c2.6,0,1.7-4.5-1.5-7.5
		c-2.2-2.1-3-3.8-3-6.2c0-1.8-0.4-3.3-1-3.3c-0.5,0-1-1.1-1-2.5s-0.6-2.5-1.3-2.5c-1.9,0-5.4-8.8-6.1-15.5c-0.4-3.3-1.1-6.1-1.6-6.3
		c-0.6-0.2-1-1.5-1-2.8s-0.4-2.4-0.9-2.4c-1.1,0-5.1-15.8-5.1-20c0-5.2,2.7-3.7,4,2.3c2.1,10.1,9.8,31.8,12.1,34.1
		c0.5,0.6,0.9,1.4,0.9,2c0,0.5-0.7,0.1-1.6-1c-1.4-1.8-1.5-1.8-0.8,0.6c1.1,4.2,3.4,8.2,8,14.1c2.4,3.1,4.1,5.9,3.8,6.2
		c-0.9,0.9,4.2,9,8.6,13.6c2.2,2.3,4,4.7,4,5.4c0,0.6-2-1.1-4.5-3.8c-2.4-2.8-4.4-4.5-4.5-3.8c0,0.6,2.9,5.5,6.5,10.8
		c3.6,5.4,6.5,10.5,6.3,11.4C598.5,501.1,598.3,501.2,597.7,500.2L597.7,500.2z"/>
	<path class="st3" d="M888,498.1c0-3.3,3.4-6.1,7.5-6.1c2.1,0,2.5,0.5,2.5,2.8c0,3.7-2.8,6.2-6.8,6.2C888.3,501,888,500.7,888,498.1
		z"/>
	<path class="st3" d="M733.4,483.3c1.4-2,2.3-3.9,2-4.2c-0.3-0.3-0.9,0.1-1.4,0.9c-2,3.2-0.8-0.1,4.9-12.5
		c3.2-7.2,6.6-15.5,7.6-18.5s2.1-5.7,2.5-6s1.5-2.7,2.3-5.5c0.9-2.7,2-6.3,2.6-8c0.6-1.6,1.3-4.7,1.6-6.7c0.9-5.8,3.5-5.1,3.5,1
		c0,5.8-3.6,16.7-11.9,36c-3.3,7.8-6.1,14.4-6.1,14.7c0,0.3,1.4,0.5,3.1,0.5h3.2l-2.6,3.3c-1.4,1.7-3,3.1-3.6,3
		c-0.6-0.2-1.8,1.1-2.6,2.7c-1.2,2.3-2.2,3-4.6,3h-3L733.4,483.3L733.4,483.3z"/>
	<path class="st3" d="M647.5,481.3c-3-4.7-8-18.1-10.5-28.8c-2.5-10-2.5-10.5,0-10.5c1.2,0,2,0.7,2,1.8c0,0.9,1.6,6.9,3.6,13.3
		c3.2,10.1,3.9,11.6,5.5,11.2c1.9-0.5,2.7-4.3,0.9-4.3c-0.5,0-1-1.6-1-3.5s-0.4-3.5-1-3.5c-0.5,0-1-1.6-1-3.5c0-2.4,0.5-3.5,1.5-3.5
		c0.8,0,1.5,0.6,1.5,1.3c0,0.6,1.1,3.3,2.5,5.9s2.5,5.7,2.5,7s0.6,4.1,1.4,6.3c0.7,2.2,1.6,5.8,2,8c0.6,3.9,0.6,3.9-0.8,1.5
		c-1.7-2.9-2.1-1.4-0.6,2.4c1.4,3.8,0.4,3.2-2-1.1l-2-3.8l0.6,3.8c0.5,3,0.3,3.7-1,3.7C650.7,485,648.9,483.3,647.5,481.3
		L647.5,481.3z"/>
	<path class="st3" d="M748,468.9c0-3.1,2.7-8.9,4.2-8.9c0.4,0,0.8-0.7,0.8-1.5c0-0.9,0.9-1.5,2.5-1.5c1.4,0,2.5,0.3,2.5,0.6
		c0,1.2-8.5,14.4-9.2,14.4C748.3,472,748,470.6,748,468.9z"/>
	<path class="st3" d="M705,465.5c0-0.8-0.4-1.5-1-1.5c-1.1,0-1.3-5.2-0.4-8.7c0.7-2.6,3.4-3.2,3.4-0.8c0,0.8,0.7,1.5,1.5,1.5
		c1.8,0,1.8,0.8,0.4,6.6C707.8,466.7,705,468.9,705,465.5z"/>
	<path class="st3" d="M704.6,444.1c0.3-3.2,1.2-8.5,1.8-11.7c1.1-5.7,1.3-5.9,4.5-6.2l3.3-0.3l-0.6,4.8c-0.4,2.6-0.9,6.9-1.2,9.6
		c-0.5,3.8-1,4.7-2.5,4.7c-1.4,0-1.9,0.7-1.9,2.5c0,1.9-0.5,2.5-2,2.5C704,450,703.9,449.6,704.6,444.1L704.6,444.1z"/>
	<path class="st3" d="M762,444.5c0-3.1,0.3-3.5,2.6-3.5c1.4,0,2.4,0.3,2.2,0.8C763.3,449.1,762,449.8,762,444.5z"/>
	<path class="st3" d="M549.5,439c-2-3.8-1.9-4,1-4c2.2,0,2.5,0.4,2.5,3.5C553,442.8,551.6,443,549.5,439z"/>
	<path class="st3" d="M633.6,434.8c-1-6.4-1.7-24.4-1-26.1c0.3-0.9,1.2-1.7,1.9-1.7c1.1,0,2.5,14.3,2.5,26.8
		C637,439,634.4,439.8,633.6,434.8L633.6,434.8z"/>
	<path class="st3" d="M767,434.2c0-1.6,0.8-5.3,1.9-8.3c1-3,2.1-7.1,2.5-9.1c0.5-2.9,1.2-3.8,2.8-3.8c1.8,0,1.9,0.4,1.3,3.8
		c-0.3,2-1.9,7.3-3.3,11.6C769.4,436.8,767,439.4,767,434.2z"/>
	<path class="st3" d="M757,414.3c0-3.4,1.2-6.3,2.6-6.3c1,0,1.4,1.3,1.4,4c0,3.3-0.3,4-2,4C757.8,416,757,415.3,757,414.3z"/>
	<path class="st3" d="M538.9,406.8c-0.1-2.4-0.1-9.3,0-11c0-1,0.8-1.8,1.6-1.8c1.2,0,1.5,1.4,1.5,7s-0.3,7-1.5,7
		C539.7,408,539,407.4,538.9,406.8z"/>
	<path class="st3" d="M554,400.3c0-3.2-2.7-18.1-3.6-19.4c-0.3-0.5-1.6-0.9-3-0.9c-2.1,0-2.4-0.5-2.4-3.5c0-3.2,0.2-3.5,3-3.5
		c4.2,0,5.8,3,8.1,15.6c2.4,13.5,2.4,14.4-0.1,14.4C554.5,403,554,402.3,554,400.3z"/>
	<path class="st3" d="M633,396.3c0-3.4,1.2-6.3,2.6-6.3c1,0,1.4,1.3,1.4,4c0,3.3-0.3,4-2,4C633.8,398,633,397.3,633,396.3z"/>
	<path class="st3" d="M775,392.6c0-2.9-0.3-7.4-0.6-10c-0.6-4.3-0.9-4.6-3.5-4.6c-3.5,0-4-2.5-0.7-3.3c5.1-1.4,8.8,4.6,8.8,14.3
		c0,5.9-0.9,9-2.6,9C775.4,398,775,396.5,775,392.6z"/>
	<path class="st3" d="M761,391.9c0-3.2,2.4-9.9,3.6-9.9c1.5,0,1.8,2.8,0.8,7.9c-0.5,2.1-1.2,3.1-2.5,3.1
		C761.8,393,761,392.5,761,391.9L761,391.9z"/>
</g>
<g>
	<path class="st4" d="M531.6,902.8c-0.3-1.8-1.1-6.9-1.7-11.3c-1.4-10.5-1.6-11-3.3-9.6c-2.1,1.8-2.6-2.9-2.6-25.8
		c0-20.4,1.2-34.7,4.5-51.6c1.4-7.8,3.2-20.4,5.7-41.5c1.9-15.7,1.6-57.9-0.5-70.5c-2.4-14.2-10.1-41.8-14.8-53
		c-4.6-10.8-27.7-50.2-36.4-62c-1.2-1.6-3-4.3-4-6c-1.5-2.6-1.2-2.4,2,1c2.1,2.2,5.4,6.3,7.5,9c12.1,16.3,17.9,24.4,19.6,27.3
		c1,1.7,2.4,3.2,3.1,3.2s1.3-0.2,1.3-0.5c0-0.2-2.5-4.1-5.5-8.7c-5.4-8.1-6.2-9.8-4.7-9.8c0.9,0,13.5,19.8,18.7,29.5
		c2.1,3.9,4.6,8.2,5.7,9.7c1,1.4,1.8,3.4,1.8,4.3c0,1,0.6,2.3,1.4,2.9c1.5,1.2,12.3,21.9,17.5,33.6c7.6,17.1,12.1,35.9,12.4,51.9
		c0.1,8.7-0.9,28.8-1.9,37.1c-1.4,11.6-5.5,30.1-7.8,35.5c-1,2.2-2.2,6.2-2.7,8.9s-1.6,6.2-2.4,7.9c-0.8,1.6-1.7,4.5-2.1,6.6
		c-0.3,2-1.7,9-3,15.5c-5.3,25.7-6.6,36.4-6.5,53.4C533,905.7,532.6,909.2,531.6,902.8L531.6,902.8z M518.9,622.9
		c-6.2-11-5.8-10.4-6.4-9.7c-0.6,0.5,0.8,3.1,7.3,14.1C525.3,636.7,524.6,633.1,518.9,622.9L518.9,622.9z"/>
	<path class="st4" d="M599,883.6c0-21.4,8-43.4,25.3-69.1c13.2-19.7,43-47.9,61.4-58.2c15-8.3,35.3-16,69.8-26.2
		c26-7.7,38.1-10.4,47-10.6c4.4-0.1,22.9-1.4,41-2.9c18.2-1.4,39.1-3.1,46.5-3.7c7.4-0.6,14-1.5,14.6-2c1.5-1.3,19.9-4.9,24.3-4.8
		c7.3,0.1,0.7,1.7-40.9,9.8c-8.5,1.6-24.4,4.2-35.3,5.6c-23.5,3.1-47.3,7.2-49.6,8.5c-1.4,0.8-1.3,0.9,0.5,1c1.2,0,7.9-0.9,15-1.9
		c7.1-1.1,25.5-3.2,40.8-4.6c36-3.3,56.4-7.3,86.9-16.7c26.4-8.1,44.4-18,69.7-38.2c5.8-4.6,9.7-7.1,10.1-6.4c0.4,0.6,1,0.1,1.4-1.3
		c0.4-1.3,2.7-4.6,5-7.4c2.3-2.7,5.2-6.5,6.4-8.3c2.4-3.5,4.9-3.5,3,0c-3.5,6.5-25.3,29.8-27.9,29.8c-0.4,0-1,0.7-1.4,1.5
		c-0.3,0.8-0.1,1.5,0.3,1.5c1.2,0,11.4-8.2,17.4-13.9c2.6-2.5,4.5-3.9,4.2-2.9c-0.6,1.6-16.4,15.8-22.4,20.2
		c-1.6,1.2-5.3,3.9-8.2,6.1c-12,9-34.7,22.2-45.2,26.4c-11.8,4.7-41.6,13.9-49.3,15.2c-3.8,0.6-7.6,1.3-8.4,1.6
		c-2.6,0.8,1.5,2.4,4.7,1.8c1.5-0.3,5.3-0.8,8.3-1.1s7.5-1.2,10-2c2.5-0.9,5.4-1.7,6.5-1.8s3.4-0.8,5-1.5c2.7-1.2,11.9-4.5,25-9.1
		c2.8-1,6.4-2.1,8-2.4c2.8-0.7,2.8-0.6,1,0.7c-3.7,2.5-21.8,9.5-40.7,15.6c-26.1,8.5-48.5,12.8-89.5,17.1
		c-47,4.9-89.6,14.4-113.3,25.3c-25.4,11.6-25.7,11.7-21,7.8c1.9-1.6,3.2-3.2,2.9-3.6c-1.2-1.2-29.2,16.7-38.9,24.8
		c-10.9,9.1-33.7,33.2-40,42.2c-9,12.9-13.6,21.4-19,35.3c-1.8,4.5-3.7,8.2-4.1,8.2c-2,0-2.5,0.2-4.6,1.6L599,892L599,883.6
		L599,883.6z M1008.5,682.5l3-2.5l-4.2,1.7c-2.2,1-3.9,2.1-3.6,2.5C1004.4,685.4,1005.3,685.1,1008.5,682.5z"/>
	<path class="st4" d="M659.1,746.6c1.9-2.6,4.2-5.4,5.2-6.1c1.1-0.8,1.4-1.5,0.8-1.9c-0.6-0.4-2.9,1-5.3,3.1c-5,4.4-3.3,1.7,2.7-4.3
		c2.2-2.2,6.8-7.2,10.3-11.2s6.8-7.2,7.4-7.2c0.6,0-1.3,2.5-4.1,5.5c-3.1,3.2-4.9,6-4.5,6.7c0.4,0.6,0.3,0.8-0.4,0.5
		c-0.5-0.4-2.2,0.7-3.6,2.4c-2.1,2.4-2.4,3.4-1.5,4.5s-0.1,2.6-4.6,7.1l-5.7,5.8L659.1,746.6L659.1,746.6z"/>
	<path class="st4" d="M670.4,742.5c0.3-2.5,1.6-4.8,1.6-2.7c0,1.3,5.1-2.2,18.5-12.3c14.5-11,36.8-23.7,49.1-27.9
		c9-3,7.9-1.6-1.6,2.3c-21.7,8.8-39.9,20.2-64.2,40.2l-3.7,3L670.4,742.5L670.4,742.5z"/>
	<path class="st4" d="M573.4,733.5c0.3-0.9,0.9-5.8,1.2-11c0.4-5.2,1.1-9.5,1.5-9.5c0.9,0,0.4,11.7-0.7,18.3c-0.3,2-1,3.7-1.6,3.7
		S573.1,734.3,573.4,733.5z"/>
	<path class="st4" d="M579.3,728.8c0.1-2.1,0.5-3.8,1-3.8c0.9,0,0.8,3-0.3,5.5C579.3,732,579.2,731.6,579.3,728.8z"/>
	<path class="st4" d="M580.5,721.8c0.4-1.3,0.9-3.8,1.2-5.6c0.5-3,2.3-5.6,2.3-3.3c0,3.1-2.3,11.1-3.2,11.1
		C580.2,724,580.1,723.1,580.5,721.8z"/>
	<path class="st4" d="M697.3,707c1.4-1.1,2.9-2,3.4-2c1,0.1-3.9,3.9-5.1,4C695.1,709,695.9,708.1,697.3,707L697.3,707z"/>
	<path class="st4" d="M703.4,703.1c0.4-0.6,1.6-1.6,2.8-2.2c1.5-0.8,1.8-0.8,1.4,0c-0.4,0.6-1.6,1.6-2.8,2.2
		C703.3,703.9,703,703.9,703.4,703.1z"/>
	<path class="st4" d="M576,694c0-1.6,0.4-3,0.8-3c0.5,0,0.7,1.4,0.4,3c-0.2,1.7-0.6,3-0.8,3S576,695.7,576,694z"/>
	<path class="st4" d="M712.9,693.3c2.7-2,8.1-4.5,8.1-3.8c0,0.3-2.4,1.6-5.2,3C712.8,693.9,711.5,694.3,712.9,693.3L712.9,693.3z"/>
	<path class="st4" d="M801,687c2.5-0.8,8.7-1.3,7.9-0.6c-0.2,0.2-2.6,0.6-5.4,0.9C800.1,687.7,799.3,687.6,801,687L801,687z"/>
	<path class="st4" d="M586.3,681c0-3.6,0.2-5,0.4-3.2c0.2,1.7,0.2,4.7,0,6.5C586.5,686,586.3,684.6,586.3,681z"/>
	<path class="st4" d="M574.6,675.8c-3.8-19.7-13.1-42.8-27.5-67.8c-3.3-5.8-6.1-11.2-6.1-12s3.2,4.2,7.1,11
		c17.5,31,26.1,53,28.5,73.1C577.6,688,576.5,685.8,574.6,675.8z"/>
	<path class="st4" d="M766.5,674.9c2.2-0.4,5.8-0.8,8-0.7l4,0.1l-4.5,0.8c-2.5,0.4-6.1,0.7-8,0.7h-3.5L766.5,674.9L766.5,674.9z"/>
	<path class="st4" d="M784.8,673.3c1.8-0.2,4.5-0.2,6,0s0,0.4-3.3,0.4S783,673.5,784.8,673.3z"/>
	<path class="st4" d="M887.8,663.9c-4.3-0.4-11.3-1.4-15.5-2.4c-13.2-3-14.5-3.5-6.4-2.9c4,0.3,8.5,1,10,1.5c1.4,0.6,4,0.8,5.8,0.4
		c1.7-0.3,3.4-0.1,3.8,0.4c0.3,0.6,4.2,0.9,9.5,0.7c5-0.1,9,0,9,0.3C904,663.4,894.9,664.5,887.8,663.9L887.8,663.9z"/>
	<path class="st4" d="M923.5,663.1c5-1.1,9.2-1.7,9.4-1.6c0.6,0.6-7.2,2.3-12.9,2.9C916,664.8,916.9,664.4,923.5,663.1L923.5,663.1z
		"/>
	<path class="st4" d="M896.1,658.6c0.9-0.8,9.9-1.2,9.9-0.4c0,0.4-2.3,0.8-5.2,0.8C898,659,895.9,658.8,896.1,658.6L896.1,658.6z"/>
	<path class="st4" d="M969.3,647.7c1-0.6,4.6-3,8-5.2c6.6-4.2,17.3-14.2,16.3-15.2c-0.6-0.6-6.8,1.6-7.6,2.8
		c-0.7,0.9-20.4,9.4-24,10.3c-3,0.8-2.3,0.4,17.6-8.9c14.7-6.8,16.4-7.4,16.4-5.2c0,4.5-16.6,18.5-25.5,21.6
		C968,648.8,967.8,648.7,969.3,647.7L969.3,647.7z"/>
	<path class="st4" d="M950,644.7c0-0.3,1.5-1,3.2-1.6c1.8-0.6,2.8-0.7,2.3-0.2C954.3,643.9,950,645.4,950,644.7z"/>
	<path class="st4" d="M576.7,623.8c-0.9-2.3-1.5-4.3-1.3-4.5s1.1,1.5,2,3.8s1.5,4.3,1.3,4.5S577.6,626.1,576.7,623.8z"/>
	<path class="st4" d="M561.2,595.3c-3-4.4-3.6-5.7-2.5-5c1.2,0.7,5.5,7.7,4.8,7.7C563.3,598,562.3,596.8,561.2,595.3z"/>
	<path class="st4" d="M846.9,597.6c-0.2-0.2-4.4-1.1-9.3-1.9c-14.9-2.6-13.6-3.6,6.8-5.2c17-1.3,37.3-5.7,48.6-10.6
		c4.1-1.7,10.2-4,13.5-5.1s14.2-5.9,24.1-10.9c10-4.9,19.3-8.9,20.7-8.9c3,0,5.7,3.3,5.7,7c0,3.6-11.8,14.6-20.5,19.2
		c-22,11.5-46,16.8-76.4,16.8C853.1,598,847.1,597.8,846.9,597.6L846.9,597.6z"/>
	<path class="st4" d="M539.3,592.8c-1.9-2.5-10.5-20-10-20.4c0.3-0.3,3,4.3,6.2,10.1c3.1,5.9,5.4,10.9,5.2,11.1
		C540.5,593.9,539.8,593.5,539.3,592.8L539.3,592.8z"/>
	<path class="st4" d="M556,588.2c0-0.4-4.4-5.3-9.7-10.9c-5.4-5.6-9.1-9.7-8.3-9.3c1.9,1.1,11.8,10.6,15,14.5
		c5.1,6.2,5.3,6.5,4.1,6.5C556.5,589,556,588.6,556,588.2z"/>
	<path class="st4" d="M810,545.5c0-0.2,2.3-1.6,5-3c2.8-1.4,5-3,5-3.5c0-1.4-1.1-1.3-5.5,0.6c-2,0.8-3.9,1.3-4.2,1.1
		c-0.6-0.7,10.9-6.1,23.2-10.9c5.5-2.2,12.7-5.6,16-7.6c8.9-5.3,26.4-17,31-20.7c6.9-5.6,16.3-11.5,18.2-11.5c1.3,0,0.9,0.6-1.4,2.3
		c-4.6,3.1-5.2,5.4-0.7,2.7c1.9-1.2,3.7-2,4-1.7c0.9,0.9-9.9,11.8-18.6,18.7c-19.7,15.5-37.5,25.8-54.2,31.4
		C821.2,545.7,810,547,810,545.5L810,545.5z"/>
	<path class="st4" d="M600,501.9c-1.9-1.6-3.9-2.9-4.6-2.9c-1.7,0-16-15.3-23-24.5c-16.8-22.2-26.3-40.5-31.4-60.3
		c-3.3-13.2-2.3-34.6,2-39.8c1.7-1.9,6.4-1.8,8.2,0.4c2.2,2.5,3.4,7,5.8,21.7c2.3,14.1,5.7,27.4,9.1,35.1c1.2,2.7,2.1,6.3,2.1,7.9
		c-0.1,3.4,4.7,14.3,8.6,19.4c1.4,1.9,2,3.1,1.4,2.7c-2.1-1.3-1.3,2,0.9,4c1.2,1,4,4.6,6.2,7.9l4,6l-3.3-3c-3.1-2.8-3.2-2.9-2-0.5
		c2.6,4.9,11.2,17.4,15.7,22.7c2.5,2.9,4.4,5.5,4.2,5.7S601.9,503.5,600,501.9L600,501.9z"/>
	<path class="st4" d="M723.6,500.3c1-1.6,3.2-5.3,4.9-8.3c1.8-3,4.6-7.6,6.3-10.1c3.5-5.2,4.1-6.8,1.5-4.8c-1.4,1.2-1.6,1.2-1.1-0.1
		c0.4-0.8,3.9-8.9,7.9-18c11.3-26.1,12.3-29.5,14.9-51c1-9,5.1-25.3,7.4-29.8c1.4-2.6,2.2-3.2,5-3.2c2.1,0,4,0.8,5.2,2.1
		c1.7,1.9,1.9,3.7,1.9,15.8c0,19.7-3,32.1-12,50.2c-10.2,20.5-20.1,35.3-33.8,50.6C723.6,502.7,720.1,505.6,723.6,500.3L723.6,500.3
		z"/>
	<path class="st4" d="M502.4,492.8c-3.5-3.3-8.3-8.6-10.6-11.7c-2.3-3.1-5.2-6.7-6.4-8.1c-2.6-2.9-8-12.3-11.7-20.3
		c-4.2-9.1-1.6-6.5,3,3.1c3.6,7.4,11.3,19.7,11.3,18c0-0.3-1.6-4-3.5-8.2c-1.9-4.3-3.5-8.2-3.5-8.9c0.1-1.5,9,17.1,9,18.6
		c0,0.6,1.2,2.2,2.8,3.5c1.5,1.3,2.1,2.1,1.5,1.7c-3.3-1.6-0.6,2.2,7,10c4.6,4.7,8.2,8.5,7.9,8.5C509,499,505.9,496.2,502.4,492.8
		L502.4,492.8z"/>
	<path class="st4" d="M505.3,492.3c-3.8-3.8-4.9-5-2.4-2.8s6.2,5.3,8.1,6.8c1.9,1.5,3,2.7,2.4,2.7S509.2,496,505.3,492.3
		L505.3,492.3z"/>
	<path class="st4" d="M703.3,469.3c0.9-25.7,5.1-52.1,6.7-41.3l0.5,3.5l1.8-3.5l1.8-3.5l-0.5,4c-0.3,2.2-1,6.3-1.6,9
		c-0.5,2.8-1.2,8-1.5,11.6c-0.2,3.6-1.1,9.5-2,13c-0.8,3.5-1.5,9.4-1.5,13c0,8.6-0.8,12.6-2.8,13.4
		C702.9,489,702.8,486.9,703.3,469.3z"/>
	<path class="st4" d="M902.5,484c3.1-3.3,4.5-3.8,4.5-1.7c0,1.9-3.3,4.7-5.5,4.7C899.9,487,900,486.6,902.5,484z"/>
	<path class="st4" d="M646.3,477.7c-3.1-5.1-9-24-10.8-34.4c-3-17.2-3-50.6,0.1-62.9c0.9-3.4,2-3,2.2,0.9c0.3,7.9,2.1,26.7,2.6,27.5
		c0.3,0.5,1,5.1,1.6,10.2c1.3,11.7,5.7,31.3,8.1,36.4c1,2.1,1.6,4.3,1.3,4.7c-0.3,0.5,0,0.9,0.5,0.9c0.6,0,1.1,1.1,1.1,2.4
		c0,1.4,0.4,3.5,0.9,4.8c1.9,5.3,2.1,7.5,0.6,7.5c-0.8,0-1.5-0.6-1.5-1.2c0-0.7-0.7-1.8-1.5-2.5c-1.3-1.1-1.4-0.8-0.9,2.1
		c0.3,1.9,0.8,4,1,4.8c0.3,0.8-0.1,1.1-1,0.8c-0.8-0.3-1.6-0.1-1.8,0.5S647.4,479.7,646.3,477.7L646.3,477.7z"/>
	<path class="st4" d="M476.7,445.3c-1.4-4.3-2.8-9.7-3-12.1s-0.9-4.8-1.6-5.5c-0.6-0.6-1.1-1.7-1.1-2.5c0-1.1,0.3-1.2,1.4-0.3
		c0.8,0.7,2,4.4,2.6,8.4c0.7,4,2.1,9.9,3.1,13.2c1,3.2,1.7,6.1,1.5,6.3C479.4,453,478.1,449.6,476.7,445.3z"/>
</g>
<g>
	<path class="st5" d="M530.7,895.3c-0.8-5.4-1.1-10.2-0.7-10.8c0.4-0.5,1-2.1,1.2-3.5s0.7,3.3,1,10.5c0.4,7.1,0.6,13.1,0.4,13.3
		C532.4,904.9,531.6,900.7,530.7,895.3z"/>
	<path class="st5" d="M600.3,889.3c-0.8-0.3-1.3-2.4-1.3-5.6c0-10.1,5.4-34.7,7.2-32.9c0.5,0.5,0.1,3.3-1.1,6.8
		c-3.1,9.1-4.1,14.4-3,17c0.6,1.7,0.5,2.4-0.4,2.4c-0.8,0-1.3,2-1.5,5.5c-0.2,4.3,0,5.5,1.2,5.5c0.8,0,1.7-0.6,1.9-1.2
		c0.4-1,0.6-1,0.6,0c0.1,0.6,0.6,1.2,1.2,1.2c0.5,0,0.8-0.4,0.4-0.9c-0.3-0.5,0-1.3,0.6-1.6c0.7-0.5,1,0,0.7,1.1
		c-0.2,1.1-1,1.9-1.8,1.9s-1.9,0.3-2.5,0.6C602,889.5,600.9,889.5,600.3,889.3L600.3,889.3z"/>
	<path class="st5" d="M605.5,883c-0.8-1.3,0.4-3.2,1.5-2.5c1,0.6,2.2-2.3,1.4-3.6c-0.3-0.5-0.1-0.9,0.4-0.9c0.9,0,8.2-13.9,8.2-15.7
		c0.1-1.2,4-5.7,4.5-5.1c0.2,0.2-1.1,2.9-2.9,5.9c-1.8,3-4.5,8.6-6.1,12.4C608.5,883.5,607,885.5,605.5,883L605.5,883z"/>
	<path class="st5" d="M524.5,864.6c-0.8-17.7-0.2-30.2,2.2-46.6c1.6-11.3,3.8-17.6,2.9-8c-0.3,3-0.9,6.9-1.2,8.5
		c-1.6,8.4-2.1,19.1-2,39.7c0,12.6-0.2,22.8-0.5,22.8C525.5,881,524.9,873.6,524.5,864.6z"/>
	<path class="st5" d="M531.4,873c0.3-1.4,0.8-5.2,1.1-8.5c1-10.8,2.8-20.5,3.7-21.1c1.6-1-2.9,29.7-4.6,31.3
		C531.2,875.1,531.1,874.4,531.4,873z"/>
	<path class="st5" d="M626.7,847.4c-1.2-2,15.3-21.7,28-33.4c16.9-15.5,17.6-16.1,22.3-18.8c2.5-1.4,5.4-3.3,6.5-4.2
		c1.1-1,3-2.3,4.3-2.9c4.4-2.3,2-0.2-5.5,5c-10.3,6.9-16.5,12.2-29.8,25.4c-10.2,10.1-21.4,23-24.1,27.8
		C627.8,847.4,627,847.9,626.7,847.4L626.7,847.4z"/>
	<path class="st5" d="M609.6,841c2.7-7.8,7.4-15.7,19.3-32.5c5-7.1,27.8-31.1,28.7-30.2c0.3,0.2-2.1,3.1-5.3,6.4
		c-7.1,7.3-16.5,18-17.7,20.2c-0.5,0.9-1.8,2.5-2.9,3.6c-1,1.1-3.3,4-5,6.5s-4.1,5.7-5.3,7.3c-1.3,1.5-4.4,6.9-6.9,12
		C609.2,844.8,607.5,847.2,609.6,841L609.6,841z"/>
	<path class="st5" d="M540.2,821c0-1.6,0.3-3.2,0.8-3.5s0.8,0.8,0.8,2.5C541.7,824,540.3,824.8,540.2,821z"/>
	<path class="st5" d="M630,815.4c0-0.6,0.7-1.9,1.5-3c0.8-1,1.4-1.4,1.4-0.9c0,0.6-0.6,1.9-1.4,2.9C630.7,815.5,630,815.9,630,815.4
		z"/>
	<path class="st5" d="M636.7,806.3c-0.6-1,3.1-4.8,3.9-4c0.3,0.2-0.4,1.5-1.4,2.7C638.2,806.3,637,806.9,636.7,806.3z"/>
	<path class="st5" d="M552.1,781.7c0.8-4.7,1.9-11.6,2.4-16.3c0.1-1.7,0.6-5.1,1.1-7.5c0.4-2.4,0.8-5.2,0.9-6.1
		c0.2-2.7,1.5-3.5,1.5-1c0,3.6-3,25.5-4.2,30C552.4,786.4,551,787.1,552.1,781.7L552.1,781.7z"/>
	<path class="st5" d="M533.5,776.5c1-12.5,1.5-15.2,3-15.2c1.1,0,1.2,0.5,0.3,2c-0.6,1.1-1.2,5-1.3,8.6s-0.8,7.7-1.4,9.1
		C533.2,783,533.1,782.2,533.5,776.5L533.5,776.5z"/>
	<path class="st5" d="M706.5,781.7c2.1-1.5,14.8-7.6,21.8-10.4c2-0.8,3.7-1.9,3.7-2.4s1.1-0.9,2.5-0.9c1.3,0,4.2-0.7,6.3-1.5
		c5.9-2.4,25.2-7.3,25.2-6.4c0,0.5-1.9,1.3-4.2,1.9c-12.5,3.2-30.8,9.6-40.9,14.3c-6.3,3-12.6,5.8-14,6.2
		C704.6,783.2,704.6,783.1,706.5,781.7L706.5,781.7z"/>
	<path class="st5" d="M701,780.2c0-0.5,1.2-1.4,2.6-2c1.4-0.7,2.3-0.8,1.9-0.2C704.6,779.5,701,781.2,701,780.2z"/>
	<path class="st5" d="M659,777.5c0-0.8,1.1-1.9,8-7.6c8-6.7,16.3-12,27-17.4c13.8-7,23.1-10.2,70-24.6c11.3-3.5,31.8-8.1,33.4-7.6
		c0.6,0.2-4.1,1.6-10.4,3.1c-31.6,7.6-74.2,21.7-91.3,30.2c-7.2,3.5-13.4,6.8-13.7,7.3c-0.3,0.4-1.6,1.4-3,2.1
		c-2.3,1.2-8.3,5.7-16.7,12.5C660.5,777,659,777.9,659,777.5z"/>
	<path class="st5" d="M536.1,754.1c0.4-3.1,0.8-8.5,0.9-12.1c0.1-4.7,0.4-5.8,0.9-4c0.4,1.4,0.7,4.5,0.6,7c-0.2,2.5-0.3,6.6-0.4,9.1
		c-0.1,2.8-0.6,4.9-1.4,5.2C535.7,759.7,535.6,758.5,536.1,754.1z"/>
	<path class="st5" d="M699,755c0-0.5,0.7-1,1.5-1s1.5,0.5,1.5,1c0,0.6-0.7,1-1.5,1S699,755.6,699,755z"/>
	<path class="st5" d="M789.6,755c0.5-0.5,3.2-1.2,5.9-1.5c3.4-0.3,4.2-0.2,2.5,0.3C793.3,755.4,788.5,756.1,789.6,755z"/>
	<path class="st5" d="M813.3,751.3c0.7-1,5.2-2.2,11.2-2.8c1.7-0.2,5.7-0.7,9-1.1c3.3-0.4,6.9-0.7,8-0.7s4.9-0.4,8.5-0.9
		s8.1-1.1,10.1-1.2c2-0.2,4.2-0.6,4.8-1.1c0.7-0.4,4.9-0.9,9.2-1.1c4.4-0.1,8.4-0.6,8.9-0.9c0.5-0.3,2.4-0.8,4.2-1
		c10.1-1.4,12.8-1.7,12.8-1.2c0,0.4-7.4,1.9-30,5.8c-3,0.5-10,1.3-15.5,1.9c-23.1,2.2-38.2,3.9-39.9,4.6
		C813.3,752.1,812.9,752,813.3,751.3z"/>
	<path class="st5" d="M918.4,733.5c1.1-0.8,3-1.5,4.3-1.5s2.3-0.4,2.3-0.8c0-0.5,2.9-1.4,6.4-2c3.5-0.7,9.1-2.5,12.3-4.1
		c7.4-3.7,20.8-8.4,22.3-7.9c1.6,0.5-16.3,7.6-33.3,13.2C918.2,735.2,915.3,735.9,918.4,733.5z"/>
	<path class="st5" d="M810,730.9c3.9-0.9,22.3-3.5,31.5-4.3c36.2-3.5,48.9-5,60-7.1c13.2-2.5,17.4-3,12-1.4c-7,2.1-40.3,7.4-53,8.4
		c-3.8,0.3-11,1-16,1.6c-4.9,0.5-11.2,1.2-14,1.5c-2.7,0.3-7.7,1-11,1.5s-7.6,0.8-9.5,0.8l-3.5-0.1L810,730.9z"/>
	<path class="st5" d="M806,727.1c0.8-0.6,1.8-0.7,2.3-0.4c1,0.6,6.7-1.6,6.7-2.7c0-0.3,2.1-0.7,4.8-0.8c4.9-0.1,16.4-1.5,26.7-3.2
		c3.3-0.6,10.5-1.4,16-1.9c10-0.9,13.5-1.7,13.5-3c0-0.4,2.7-0.8,6-0.8s6,0.3,6,0.7c0,1-14.4,3.4-41.5,7c-8.2,1.1-20.2,2.8-26.5,4
		C807.1,728.2,803.7,728.5,806,727.1L806,727.1z"/>
	<path class="st5" d="M917.2,727.6c0.9-1.1,10-3.7,9.4-2.7c-0.3,0.5-1.8,1.1-3.3,1.4c-1.6,0.3-3.7,0.9-4.8,1.3
		C917.4,728,916.8,728,917.2,727.6L917.2,727.6z"/>
	<path class="st5" d="M928,723.9c0-0.5,0.4-0.9,0.9-0.9s1.7-0.3,2.7-0.7c1.1-0.4,1.5-0.3,1.1,0.4C931.8,724.1,928,725.1,928,723.9z"
		/>
	<path class="st5" d="M803.3,722.2c-1.8-1.1,10.4-3.1,29.7-4.7c17.6-1.6,22.6-1.8,21.9-1c-0.6,0.5-15.6,2.3-25.9,3
		c-7.2,0.5-19.8,2.2-23,3.1C805.2,722.8,803.9,722.6,803.3,722.2L803.3,722.2z"/>
	<path class="st5" d="M934.6,722.2c-0.6-0.5,4.8-2.7,15.9-6.3c7.7-2.5,24.6-10.9,25.2-12.6c0.3-0.7,1.2-1.3,1.9-1.3
		c0.8,0,3.3-0.9,5.5-2.1c2.3-1.1,4.3-1.8,4.5-1.6c0.6,0.6-17.6,11.4-24.4,14.4C955.2,716.3,935.3,722.9,934.6,722.2L934.6,722.2z"/>
	<path class="st5" d="M927,714.1c1.4-0.5,8.1-2.6,15-4.6c10.8-3.2,21.9-7.3,35-13.3c1.9-0.8,4-1.7,4.5-2c0.6-0.2-0.1,0.5-1.5,1.7
		c-2.4,2-25.1,12.1-27.1,12.1c-0.6,0-5.2,1.3-10.2,2.9C934.2,713.6,920.7,716.3,927,714.1L927,714.1z"/>
	<path class="st5" d="M536.2,710c0-1.9,0.2-2.7,0.5-1.7c0.2,0.9,0.2,2.5,0,3.5C536.4,712.7,536.2,711.9,536.2,710z"/>
	<path class="st5" d="M910,710c0-0.9,4.3-1.8,11.5-2.6c2.7-0.3,5.6-0.7,6.3-1c0.7-0.2,1.1,0,0.8,0.5C927.7,708.4,910,711.3,910,710z
		"/>
	<path class="st5" d="M555.1,703c-0.8-3.3-1.1-6.3-0.8-6.6c0.6-0.7,3,10.2,2.5,11.7C556.6,708.7,555.8,706.4,555.1,703L555.1,703z"
		/>
	<path class="st5" d="M534.8,697.5c-0.6-6-4.7-26.4-6.4-31.7c-0.3-1-0.1-1.8,0.4-1.8c0.8,0,4.4,11.9,4.7,15.5c0,0.6,0.6,4.2,1.3,8.1
		c0.7,3.9,1.2,9.3,1,12C535.5,704.3,535.5,704.3,534.8,697.5z"/>
	<path class="st5" d="M551.6,689.5c-2.2-7.1-6.5-15.7-6.6-13.2c0,1.9-1.5,2.3-2.6,0.5c-0.4-0.6-0.3-0.8,0.3-0.5
		c0.6,0.4,1.1-0.3,1.1-1.7c0-2.1-0.4-2.3-2.3-1.6c-2,0.7-2.2,0.5-2.2-1.7c0-1.3,0.6-2.7,1.3-3c2.3-0.8,1.6-2.6-0.8-2
		c-1.9,0.5-2,0.5-0.6-1c1.4-1.4,1.2-2.2-2.2-8.7c-2.1-3.9-4.1-8.2-4.4-9.6c-0.4-1.4,1.1,0.9,3.4,5c5.8,10.7,10,19.7,10,21.4
		c0,0.8,0.7,2.2,1.6,3c1.8,1.9,6.6,15.2,6.2,17.4C553.6,694.7,552.7,692.7,551.6,689.5L551.6,689.5z"/>
	<path class="st5" d="M992.5,687.5c1.1-0.9,2.9-2.1,4-2.6l2-1l-2,1.6c-1.1,0.9-2.9,2.1-4,2.6l-2,1L992.5,687.5z"/>
	<path class="st5" d="M1012,681.7c0-0.3,4.2-4,9.3-8.2c5.4-4.5,6.9-5.5,3.7-2.5C1018.7,677,1012,682.4,1012,681.7z"/>
	<path class="st5" d="M1015.3,672.3c0-1,1.2-2.7,2.6-3.8c7.3-5.6,16.9-15.8,22.8-24.4c0.2-0.2,0.6-0.1,0.9,0.2
		c2.1,2.1-18.6,25.8-21.7,25c-0.5-0.2-0.8,0.3-0.6,1c0.1,0.6-0.4,1.1-1,1c-0.7-0.2-1.2,0.2-1,0.8c0.1,0.6-0.3,1.3-0.9,1.6
		C1015.8,673.9,1015.3,673.3,1015.3,672.3L1015.3,672.3z"/>
	<path class="st5" d="M524.5,654c-0.4-1.2-0.5-2.4-0.2-2.7c0.3-0.2,0.8,0.5,1.2,1.7s0.5,2.4,0.2,2.7
		C525.4,655.9,524.9,655.2,524.5,654z"/>
	<path class="st5" d="M515.3,632.1c-7.9-15.9-14.7-27.5-27.8-47.6c-6.2-9.4-7.5-11.8-4.7-8.8c2.2,2.3,6,7.3,8.6,11
		c2.6,3.8,5.9,8.4,7.4,10.2c1.5,1.9,2,3.1,1.2,2.7c-0.8-0.4-0.6,0,0.5,0.9s1.9,2.3,1.7,3.2c-0.2,0.8,0.1,1.2,0.7,0.8
		c0.7-0.4,1.1,0.3,1.1,1.7c0,1.9,0.2,2,1.1,0.8s1-1.2,0.5,0.4c-0.4,1,0.2,3.2,1.3,5c5.9,9.7,16.9,33.3,15.9,34.1
		C522.6,646.6,519.2,640.1,515.3,632.1L515.3,632.1z"/>
	<path class="st5" d="M521.5,627c-0.9-1.6-1.3-3-1.1-3c0.3,0,1.2,1.4,2.1,3c0.9,1.7,1.3,3,1.1,3C523.3,630,522.4,628.7,521.5,627z"
		/>
	<path class="st5" d="M509.3,606.3c-1.6-2.1-4-5.6-5.2-7.8l-2.3-4l3.1,3.5c1.7,1.9,3.1,4.1,3.1,4.8c0,0.6,0.4,1.2,0.8,1.2
		s1.6,1.4,2.5,3C513.8,611.1,512.8,610.8,509.3,606.3z"/>
	<path class="st5" d="M850.5,597c-2.1-0.5-0.6-0.8,5-0.8c4.4,0,9.4,0.4,11,0.8c2.1,0.5,0.6,0.8-5,0.8
		C857.1,597.8,852.2,597.4,850.5,597z"/>
	<path class="st5" d="M837,595c-2.1-0.7-1.7-0.8,2-0.9c2.5,0,5.2,0.4,6,0.9C846.9,596.2,840.8,596.2,837,595z"/>
	<path class="st5" d="M884,595.1c1.4-0.4,5.4-1.1,9-1.4c11.4-1.1,31-7.7,45.4-15.2c1.6-0.9,3-1.4,3.3-1.2c0.6,0.7-12.4,7.2-21,10.6
		c-8.6,3.4-27.7,7.8-34.7,7.9C882.4,595.9,882,595.7,884,595.1L884,595.1z"/>
	<path class="st5" d="M828,593c0-0.5,1.6-1,3.6-1c2.1,0,3.3,0.4,2.9,1c-0.3,0.6-1.9,1-3.6,1C829.3,594,828,593.6,828,593z"/>
	<path class="st5" d="M857,589.8c0-0.4,1.4-0.8,3-0.8c1.7,0,3,0.2,3,0.4s-1.3,0.6-3,0.8C858.4,590.5,857,590.3,857,589.8z"/>
	<path class="st5" d="M874,586.5c6.3-1.6,8.1-1.8,6-0.6c-0.8,0.5-3.7,1.2-6.5,1.5l-5,0.6L874,586.5z"/>
	<path class="st5" d="M888,582.7c1.4-0.7,6.3-2.8,11-4.6c20.8-8.1,31.7-13,42-18.8c4.9-2.8,10.4-4.5,12.2-3.8
		c2.4,0.9,3.9,5.1,2.9,7.8c-1.2,3-7.4,9.7-9.1,9.7c-0.7,0,0.6-1.9,2.9-4.1c2.3-2.3,4.4-5.2,4.7-6.5c0.8-3-1.1-5.4-4.1-5.4
		c-2,0-14.3,5.7-15.5,7.1c-0.7,0.9-21.5,10-30.5,13.4c-3.8,1.5-9.2,3.5-11.9,4.6C887.1,584.3,884.2,584.6,888,582.7L888,582.7z"/>
	<path class="st5" d="M943.1,574.4c0.6-0.7,1.6-1.1,2.1-0.8c1.1,0.7,0.3,1.7-1.8,2C942.2,575.8,942.1,575.5,943.1,574.4z"/>
	<path class="st5" d="M827.6,542.1c0.5-0.5,2.7-1.4,4.8-2.1c6.2-2,21-9.6,27.3-14c9.2-6.5,16.3-10.9,16.3-10.2c0,0.8-12,9.2-21,14.7
		C844.2,537.1,823.6,545.8,827.6,542.1L827.6,542.1z"/>
	<path class="st5" d="M821.3,535.4c4.4-2.4,22.9-9.6,23.4-9.1c0.2,0.3-0.9,0.9-2.4,1.5s-7.3,2.9-12.7,5.1
		C819.2,537.2,816.6,538,821.3,535.4z"/>
	<path class="st5" d="M851,522.6c0-0.4,13.4-9.5,17.8-12c2.7-1.6,1,0.2-3.5,3.6C860.3,517.9,851,523.4,851,522.6z"/>
	<path class="st5" d="M877.6,513.5c0.3-0.8,1-1.5,1.4-1.5c0.5,0,4.8-3.8,9.7-8.5c10.5-10.2,14.4-12.8,8.4-5.6
		C892.5,503.4,876.6,516.1,877.6,513.5L877.6,513.5z"/>
	<path class="st5" d="M871,509.7c0-0.2,1.6-1.7,3.6-3.2c2-1.6,3.5-2.3,3.3-1.6C877.5,506.1,871,510.6,871,509.7L871,509.7z"/>
	<path class="st5" d="M599.4,501.2c-1.8-1.5-5.1-4-7.4-5.7c-5.4-3.8-13.8-13.3-22.9-26c-15.2-21-24.1-39.2-28.3-58.3
		c-1.9-8.8-2-10.8-1.1-21.1c1.4-14.9,4.7-19.7,10.7-15.8c2.4,1.6,4.3,8.8,6.7,25.2c1.3,9.7,5.3,25,7.9,30.8c2.1,4.6,2.5,6.7,1.2,6.7
		c-0.5,0-0.9-0.6-1-1.2c0-0.7-1.2-4.7-2.7-8.8c-4-11-7.4-25.3-8.5-35.5c-1.7-15.1-1.8-15.4-5.4-16.4c-4-1-5.1-0.1-6.5,5.4
		c-1.3,5.3-1.5,25.7-0.2,29.9c0.5,1.7,1.7,5.8,2.6,9.1c4.8,17.2,24.8,50.6,40.6,67.7c8.2,8.9,13.4,12.8,8.1,6
		c-1.8-2.2-3.2-4.5-3.2-5.1s-0.4-1.1-1-1.1c-0.5,0-1-0.5-1-1.2c0-0.6-0.7-2-1.7-3c-0.9-1-1.4-2-1.1-2.3c0.3-0.3,2.3,2,4.4,5.2
		c2.1,3.2,6,8.4,8.7,11.6C603.8,503.7,604.2,505.2,599.4,501.2L599.4,501.2z"/>
	<path class="st5" d="M724.7,499c1.6-2.5,4.4-7.1,6.3-10.2c1.8-3.1,3.8-5.5,4.2-5.2c0.5,0.3,0.4,1.2-0.3,2c-0.6,0.8-1,1.7-0.7,1.9
		c0.2,0.3,2.1-1.7,4.1-4.3c2-2.6,4.8-6,6.2-7.7c1.4-1.6,3.5-4.4,4.6-6.2c2.6-4.2,3.6-4.4,1.2-0.2c-3.4,5.7-14.2,19.4-21.3,26.9
		C722.8,502.5,722.2,502.9,724.7,499L724.7,499z"/>
	<path class="st5" d="M880.6,502.1c0.5-0.5,3.8-2.9,7.3-5.5s9.8-7.8,14-11.7c7.8-7.3,11.3-7.8,4.5-0.7c-3.9,4.1-13.7,11.8-15,11.8
		c-0.4,0-2.9,1.6-5.5,3.5C881.4,502.7,878.2,504.3,880.6,502.1L880.6,502.1z"/>
	<path class="st5" d="M704.3,487.2c-1.3-0.8-0.6-5.2,0.8-5.2c0.5,0,0.9,1.4,0.9,3C706,488.3,706,488.3,704.3,487.2z"/>
	<path class="st5" d="M640.8,461.8c-5.7-17.8-7.8-33.6-7.3-55.8c0.3-13.2,3.6-38.4,4.3-32.6c0.2,1.6-0.2,5.8-0.8,9.5
		c-0.7,3.6-1.4,14.5-1.5,24.1c-0.3,15.3,0.1,22.3,1.9,35.5c0.9,6.4,3.7,17.7,5,20.3c1.4,2.8,3.2,10.2,2.4,10.2
		C644.6,473,642.8,467.9,640.8,461.8L640.8,461.8z"/>
	<path class="st5" d="M649.6,468.1c-0.4-0.5-0.2-2,0.3-3.3c0.9-2.1,0.9-2,0.8,0.9C650.5,469.3,650.4,469.5,649.6,468.1z"/>
	<path class="st5" d="M743.5,459.5c1.8-4.2,3.6-7.9,4-8.3c0.5-0.4,0.5,0.2,0,1.3c-0.4,1.1-1.8,4.7-3,8c-1.2,3.2-2.7,6.1-3.3,6.3
		C740.6,467,741.6,463.7,743.5,459.5z"/>
	<path class="st5" d="M761.2,447.2c9.2-18.4,13.3-31.1,14-43c0.3-5.4,1.8-7.4,1.8-2.3c0,4.4-3.7,21.5-6.3,29
		c-2.3,6.4-15.9,32.5-17.6,33.5C752.7,464.7,756.3,457,761.2,447.2z"/>
	<path class="st5" d="M704.3,460.5c0-2.2,0.2-3,0.4-1.7c0.2,1.2,0.2,3,0,4C704.4,463.7,704.2,462.7,704.3,460.5z"/>
	<path class="st5" d="M573.5,456.9c-2.3-4.3-1.4-4.5,1.3-0.3c1.2,1.9,1.8,3.4,1.2,3.4C575.5,460,574.3,458.6,573.5,456.9z"/>
	<path class="st5" d="M645.3,449c-1.5-7.9-1.8-8.9-3.7-16.5c-2.1-8.5-2.9-18.2-1.6-19c0.7-0.4,1-0.1,0.9,0.6
		c-0.4,2,0.9,9.8,3.7,22.6c1.4,6.2,2.4,12.9,2.2,15C646.5,455.2,646.4,454.9,645.3,449L645.3,449z"/>
	<path class="st5" d="M705.1,449.4c-0.2-6.3,3.4-26.2,4.5-25.1c0.3,0.3-0.2,4-1.1,8.3c-0.9,4.4-1.9,10.8-2.4,14.4
		C705.4,452.3,705.2,452.7,705.1,449.4L705.1,449.4z"/>
	<path class="st5" d="M569.2,449.1c-1.2-1.7-1.8-3.2-1.3-3.6c1.1-0.6,1.6,0.1,3,3.9C572.2,452.7,571.9,452.7,569.2,449.1z"/>
	<path class="st5" d="M754.1,433.3c0.6-1.6,1.5-5.5,2-8.8c3.2-22.6,4.1-28,6.3-36.4c1.5-5.6,3.3-10.3,4.5-11.5
		c1.2-1.1,2.1-1.5,2.1-0.8s-0.4,1.2-0.9,1.2c-1,0-3.1,6-5.1,14.5c-0.6,2.8-1.4,5.9-1.7,7s-0.9,5.8-1.3,10.5c-1.1,12.5-4.4,27-6.1,27
		C753.4,436,753.5,434.8,754.1,433.3L754.1,433.3z"/>
	<path class="st5" d="M712.2,431c0-0.8,0.4-2.6,0.8-4c0.6-2,0.8-2.1,0.8-0.5c0,1.1-0.3,2.9-0.8,4C712.5,431.7,712.2,431.9,712.2,431
		z"/>
	<path class="st5" d="M776.5,390.8c0.4-4,0.9-7.5,1.1-7.7c0.2-0.2,0.4,3,0.4,7.2c0,4.9-0.4,7.7-1.1,7.7
		C776.2,398,776,395.7,776.5,390.8z"/>
	<path class="st5" d="M638.2,389c0-1.9,0.2-2.7,0.5-1.7c0.2,0.9,0.2,2.5,0,3.5C638.4,391.7,638.2,390.9,638.2,389z"/>
</g>
<path class="st1" d="M733.5,1120c-122.9-5.4-223-34.3-313.5-90.3c-61.6-38.1-122.2-98.5-160-159.2c-39.1-62.8-63.9-130.3-75.5-205.4
	c-5.6-36.4-7.8-86.1-5.5-122.6c3.1-48.1,6.9-73.9,16.1-111c4.3-17.2,4.7-18.5,11.9-40.5c10-30.2,28.1-69.5,45-97.5
	c45-74.5,111.3-138.9,185.1-179.8C465.2,98.1,488.4,87.2,513,78c60.9-22.8,124.9-36,198.5-41c16-1.1,87-1.6,91.6-0.6
	c1.3,0.3,7.1,0.8,12.9,1.1c24,1.4,72.3,7,99,11.6c22.1,3.7,62.2,11.8,80.5,16.3c57.6,13.9,74.1,18,89.5,22c9.6,2.5,19.5,5.1,22,5.9
	l4.5,1.3l0.7,12.4c1.8,30.7,12.1,113.4,18.8,150.5c3,16.5,12,73.6,12,76c0,1.9-1,2.4-8.2,3.8c-4.6,0.9-13.9,2.8-20.7,4.2
	c-7,1.5-12.7,2.3-13.2,1.8s-4.5-10.1-8.8-21.3c-13.1-34-22.4-53.6-35.3-75c-31.9-52.6-79.2-95.1-136.4-122.6
	c-18.5-9-29.3-13.1-48.8-19c-32.3-9.6-61.5-14.9-96.1-17.5c-20.2-1.4-60.6-0.6-82.4,1.7C593.3,100.1,515,138.6,456,206
	c-32.4,37-60.5,87.6-78.4,141.4c-9.5,28.4-19.9,70.5-23,93.1c-6.5,47.6-7.1,57.7-7,110c0,46,0.1,47.4,4.9,88
	c5.1,43.7,13.6,80.8,27.9,122.3c9.4,27.4,15.2,41.5,25.4,62c20.2,40.3,40.9,71.3,70.4,105.3c8.4,9.7,10.2,12.4,9.3,13.9
	c-0.4,0.6-0.1,0.9,0.7,0.8c0.7-0.2,1.3,0.4,1.3,1.3c0,0.9,0.8,2.3,1.7,3.2c0.9,0.9,1.9,3,2.3,4.7c0.4,1.6,1,3,1.4,3s2.3,3.3,4.1,7.3
	c6.7,14.3,20,35.3,27.7,43.7c1.7,1.9,5.5,6.3,8.2,9.8c2.8,3.5,5.1,6,5.1,5.6s1.1,0.8,2.5,2.7c3.2,4.2,12.5,13.2,13.2,12.5
	c0.3-0.2-0.4-1.3-1.4-2.3s-2.5-2.8-3.3-3.8c-1.4-1.9-1.4-1.9,0.5-0.5c1.1,0.8,4.6,4.3,7.8,7.7c3.5,3.6,6.7,6.1,7.8,6
	c1.7-0.1,1.7-0.3,0.2-1.9c-0.9-1-2-1.8-2.5-1.8s-1.9-0.9-3.1-2.1c-1.7-1.5-1.8-1.9-0.4-1.4c1,0.4,1.7,0.2,1.7-0.4s-0.4-1.1-1-1.1
	c-0.5,0-1-0.4-1-0.9s2.2,0.1,4.9,1.4c2.7,1.4,6.1,2.7,7.5,3.1c1.4,0.3,2.6,1,2.6,1.6c0,0.5-1,0.6-2.2,0.2c-1.3-0.3-1.9-0.3-1.5,0.2
	s2.5,0.9,4.5,0.9c4.6,0.1,12.2,2.4,14.4,4.5c3.3,3,21.9,11.7,26.5,12.3c1.2,0.2,2.6,0.6,2.9,1c1.3,1.3,2.6,0.7,2-0.9
	c-0.5-1.3,0.1-1.2,2.7,0.5c3.1,1.9,4.4,2,15.8,1.5c9.6-0.5,13.4-0.2,16.8,0.9c4,1.4,4.5,1.4,7.5-0.4c6.2-3.8,10.2-5.2,14.6-5
	c2.5,0.1,5.5,0.2,6.7,0.3c1.4,0,2,0.5,1.6,1.4c-0.6,1.7,0.2,1.8,2.9,0.3c1.4-0.7,2.7-0.8,4.2-0.1c1.1,0.5,10.9,2.3,21.6,4
	c18.8,3,19.6,3.2,22.2,6.1c1.5,1.7,3.4,3.1,4.1,3.1c0.7,0,1.7,0.4,2.3,0.8c2.4,2.1,19.5,8.2,23,8.2h2.4l-2.8-5.7
	c-1.5-3.2-3.1-6.1-3.7-6.5c-1.2-0.9-0.8-0.9,20-0.8c31,0.1,61.3-2.7,91.1-8.5c78.1-15.3,140.5-51.7,189.5-110.5
	c7.3-8.7,25.5-33.5,33.4-45.5c11.2-16.9,28.5-47.6,41.2-72.8c7.1-14.1,11.9-22.7,12.6-22.4s6.2,2.5,12.2,5
	c17,6.9,26.7,11.8,26.1,13.4c-0.3,0.8-1.3,4.2-2.1,7.6c-0.9,3.4-2.6,9.8-3.9,14.2s-3.1,10.7-4,14c-3.9,14.2-12.8,44.9-16.1,55.5
	c-2,6.3-5.4,17.6-7.6,25s-6.4,20.9-9.3,30c-9,27.6-25.7,79.3-27,83.4l-1.2,3.9l-23.5,7.8c-63.2,20.8-111.7,32.1-188.4,43.8
	C855.3,1118.5,784.6,1122.3,733.5,1120L733.5,1120z M670.5,1063c0.4-0.6-0.5-1-2-1s-2.4,0.4-2,1c0.3,0.6,1.2,1,2,1
	S670.2,1063.6,670.5,1063z"/>
</svg>
