<?xml version="1.0" encoding="utf-8"?>
<!DOCTYPE svg PUBLIC "-//W3C//DTD SVG 1.0//EN" "http://www.w3.org/TR/2001/REC-SVG-20010904/DTD/svg10.dtd">
<svg version="1.0" xmlns="http://www.w3.org/2000/svg" width="1040px" height="1090px" viewBox="0 0 1040 1090" preserveAspectRatio="xMidYMid meet">
 <g fill="#fdfdfc">
  <path d="M0 545 l0 -545 520 0 520 0 0 545 0 545 -520 0 -520 0 0 -545z m542.25 469.70 c-0.55 -0.40 -4.50 -3.05 -8.75 -5.90 -7.95 -5.30 -16.85 -11.35 -20.05 -13.70 -1 -0.75 -3.70 -2.70 -6 -4.30 -5.60 -3.95 -12.45 -9.10 -16.55 -12.35 -13.60 -10.95 -26.90 -22 -31.25 -26.05 -3.45 -3.20 -3.15 -3.20 -8 -0.75 -6.10 3.10 -38.30 16.30 -47.65 19.60 -3.95 1.35 -21.45 7.65 -24 8.60 -1 0.35 1.05 1.20 16.25 6.85 12.35 4.60 22.65 8.15 27.50 9.50 1.40 0.35 5.65 1.60 9.50 2.70 9.05 2.65 24.55 6.30 34 8.10 6.40 1.20 20.20 3.60 24.50 4.30 10.70 1.70 30 3.35 46.50 3.85 2.20 0.10 4.25 0.20 4.50 0.25 0.30 0 0.05 -0.30 -0.50 -0.70z m63.15 -2.70 c5.40 -0.80 11 -1.70 12.35 -1.95 1.40 -0.25 5.90 -1 10 -1.75 13.65 -2.35 32.45 -7 48.25 -11.85 11.65 -3.55 25.10 -8.20 30.60 -10.50 3.25 -1.35 6 -2.45 6.15 -2.45 0.15 0 4.85 -1.95 10.40 -4.30 8.60 -3.70 22.70 -10.55 24 -11.70 0.20 -0.20 -1.15 -0.75 -3 -1.25 -6.50 -1.75 -33.90 -11 -40.50 -13.65 -1.30 -0.55 -5.20 -2.05 -8.65 -3.35 -6.35 -2.45 -21.50 -8.75 -26.50 -11.10 -1.50 -0.70 -4.30 -2 -6.25 -2.90 l-3.45 -1.65 -2.25 3.30 c-1.20 1.85 -2.80 4.05 -3.50 4.85 -0.70 0.85 -1.95 2.40 -2.80 3.45 -0.80 1.10 -2.30 2.90 -3.25 4.05 -0.95 1.20 -2.35 2.90 -3.10 3.80 -6.55 8.25 -9 11.30 -15.35 18.95 -4 4.80 -10.35 12 -14.05 16 -5.95 6.40 -11.65 12.70 -17.40 19.25 -0.95 1.10 -2.65 2.95 -3.80 4.15 l-2 2.10 2.10 0 c1.15 0 6.55 -0.65 12 -1.50z m-9.35 -28.25 c2.75 -2.95 12.75 -14.25 15.50 -17.55 0.40 -0.55 4 -4.65 7.90 -9.20 6.30 -7.25 11.05 -13.35 20.30 -25.80 1.40 -1.85 2.65 -3.65 2.90 -4 0.35 -0.60 -0.95 -1.35 -12.65 -7.60 -3.40 -1.80 -10.40 -5.85 -16.15 -9.30 -4.50 -2.75 -23.70 -15.45 -28.15 -18.65 -1.95 -1.40 -5.75 -4.15 -8.40 -6.15 l-4.90 -3.60 -2.55 1.80 c-18.25 12.80 -40.55 27 -59.10 37.55 -3.30 1.85 -6.80 3.85 -7.75 4.40 -3.85 2.25 -16.60 9.10 -22.75 12.20 -3.55 1.80 -6.65 3.40 -6.85 3.60 -0.45 0.40 16.20 14.75 23.50 20.30 3.40 2.55 7.50 5.60 9.40 7 1.20 0.80 5.25 3.85 9.05 6.70 14 10.55 15.40 11.55 25.55 18.05 5.75 3.65 14.90 9.25 17.60 10.70 1.25 0.65 4.25 2.45 6.65 3.95 l4.40 2.80 11.60 -11.85 c6.40 -6.50 13.10 -13.40 14.90 -15.35z m-226.55 -17.70 c5.75 -1.95 17.50 -6.15 31.75 -11.35 7.50 -2.75 16.50 -6.40 26 -10.45 2.75 -1.20 6.45 -2.75 8.25 -3.50 1.80 -0.75 4.20 -1.80 5.35 -2.40 l2.10 -1.05 -9.35 -9.55 c-10.85 -11 -18.80 -19.65 -25.80 -27.80 l-4.90 -5.80 -19.10 -0.30 c-21.90 -0.35 -27.50 -0.75 -50.05 -3.40 -9.05 -1.10 -28.05 -4.70 -35.50 -6.70 -2.45 -0.70 -8.20 -2.25 -12.75 -3.50 -9.05 -2.50 -28.45 -8.90 -34.75 -11.55 -2.20 -0.90 -7.25 -2.90 -11.25 -4.50 -8.50 -3.30 -19.35 -8.10 -26.60 -11.75 -3.15 -1.55 -4.85 -2.20 -4.35 -1.65 0.45 0.55 2.30 2.75 4.15 4.95 7.95 9.45 10.60 12.45 17.85 20.20 8.30 8.90 20.50 20.50 30.70 29.30 3.50 3.05 7.65 6.60 9.15 7.90 13.90 11.95 46.65 34.95 60.35 42.35 2.20 1.15 5.80 3.20 8 4.50 2.20 1.30 7.30 4.05 11.35 6.15 l7.40 3.75 3.10 -0.95 c1.70 -0.55 5.70 -1.85 8.90 -2.90z m393.45 -12.45 c0.45 -0.90 5.35 -17.20 6.85 -22.85 0.45 -1.65 1.20 -4.45 1.70 -6.25 0.50 -1.80 1.85 -6.95 3 -11.50 1.15 -4.55 2.65 -10.25 3.35 -12.75 4.75 -17.50 7.10 -29.55 12.20 -63.50 0.30 -1.90 0.75 -4.60 0.95 -5.95 l0.40 -2.45 -3.05 0.35 c-1.70 0.15 -6.80 0.55 -11.35 0.80 -4.55 0.30 -10.85 0.75 -14 1 -7.15 0.60 -20.45 0.60 -32.15 0 -4.95 -0.25 -9.25 -0.30 -9.60 -0.20 -0.35 0.15 -1.05 1.20 -1.55 2.35 -1.80 3.90 -13.05 26.10 -15.95 31.35 -1.60 2.90 -3.80 6.95 -4.90 9 -1.05 2.05 -2.25 4.10 -2.60 4.50 -0.35 0.40 -1.50 2.35 -2.55 4.25 -1.85 3.35 -6.80 11.05 -19.05 29.60 -3.10 4.70 -5.65 8.70 -5.65 8.85 0 1.05 35.70 16.05 44.75 18.80 1.10 0.35 2.70 0.90 3.50 1.30 2.45 1.10 26.10 8.80 37 12.05 1.40 0.45 3.40 1.05 4.50 1.45 2.75 0.90 3.65 0.85 4.20 -0.20z m24.30 -9.20 c1.65 -1.20 4.70 -3.30 6.75 -4.60 2.05 -1.35 7.75 -5.40 12.65 -9 4.85 -3.60 9.50 -7 10.25 -7.55 9.85 -7.20 31.65 -26.50 43.10 -38.20 10.60 -10.85 26.25 -28.10 30.20 -33.30 1.05 -1.35 2.45 -3.15 3.10 -4 1.90 -2.45 4 -5.25 6.95 -9.25 1.55 -2.05 4.45 -6 6.50 -8.75 3.85 -5.15 17.65 -25.60 18.75 -27.65 0.30 -0.65 0.50 -1.30 0.40 -1.40 -0.20 -0.20 -7.15 1.70 -11.40 3.10 -3.35 1.15 -30.95 8.60 -37 10 -22.60 5.25 -43.15 9.10 -65.25 12.15 -2.20 0.30 -4.20 0.80 -4.45 1.05 -0.25 0.25 -0.75 3.45 -1.15 7.10 -0.85 8.55 -3.35 25.40 -4.95 33.40 -0.70 3.45 -1.80 9.05 -2.45 12.50 -0.65 3.45 -1.95 9.75 -2.95 14 -1 4.25 -2.65 11.25 -3.60 15.50 -1.70 7.25 -9.15 35.10 -10 37.20 -0.30 0.80 -0.20 0.85 0.60 0.40 0.55 -0.30 2.30 -1.50 3.95 -2.70z m-319.90 -18.70 c11.65 -6 24.20 -12.75 26.40 -14.20 1.10 -0.75 3.20 -1.95 4.60 -2.70 2.30 -1.15 20.05 -11.55 24.40 -14.30 4.30 -2.70 33.15 -22.10 37.25 -25.05 14.55 -10.35 38.75 -29.60 47.35 -37.60 1.90 -1.75 5.90 -5.25 8.90 -7.85 7.65 -6.55 12.75 -11.40 34.25 -32.60 1.50 -1.50 5.35 -5.50 8.55 -8.95 3.20 -3.40 7.70 -8.10 9.95 -10.45 2.25 -2.35 4.80 -5.10 5.65 -6.20 1.50 -1.90 1.50 -1.90 0.30 -1.55 -0.65 0.20 -2.65 1.15 -4.45 2.10 -8.55 4.50 -20.35 9.60 -31.50 13.55 -15.75 5.65 -29.20 9.85 -36.50 11.45 -36.55 7.75 -60.45 10.50 -96.40 11 -22.75 0.30 -33.50 -0.20 -54.85 -2.65 -4.30 -0.50 -19.30 -2.65 -23.75 -3.45 -2.35 -0.40 -6.95 -1.20 -10.25 -1.80 -12.20 -2.10 -28.20 -5.60 -32.75 -7.10 -2.25 -0.80 -13.45 -4.10 -16.25 -4.85 -0.80 -0.20 -4.25 -1.20 -7.65 -2.25 -3.40 -1 -6.25 -1.75 -6.40 -1.65 -0.95 1 16.75 37.10 24.80 50.40 6.75 11.20 17.40 27.70 22.90 35.45 8.95 12.60 26.15 33.35 37.20 44.95 4.65 4.85 20.30 20.10 20.60 20.10 0.10 0 3.55 -1.70 7.65 -3.80z m188.15 -16.05 c4.45 -5.95 16.60 -24.80 23 -35.65 3.65 -6.20 7.35 -12.50 8.25 -14 6.85 -11.50 18.80 -35.55 24.60 -49.50 5.55 -13.40 9.50 -23.20 10.15 -25.25 0.35 -1.10 1.80 -5.15 3.30 -9 5.20 -13.75 13.55 -43.75 17.15 -61.70 0.60 -2.85 1.05 -5.50 1.05 -5.95 0 -0.45 -1.45 1.20 -3.25 3.70 -6.55 9.05 -9.60 13.15 -16.25 21.65 -8.30 10.70 -9.05 11.65 -12.60 15.90 -1.55 1.85 -5.15 6.25 -8 9.70 -2.85 3.45 -7.30 8.65 -9.90 11.55 -2.60 2.90 -8.30 9.20 -12.60 13.95 -7.15 7.95 -34.35 35.30 -43.45 43.70 -14 12.95 -38.80 33.90 -48.65 41.05 l-1.40 1 7.95 6.15 c10.65 8.15 23.20 16.45 35.15 23.35 3 1.70 22.55 11.95 23.30 12.20 0.05 0 1 -1.30 2.20 -2.85z m-268.20 -36.25 c-20.30 -28.65 -38.90 -62.45 -50 -90.90 -1.55 -4 -3.25 -8.25 -3.75 -9.45 -0.90 -2.40 -1.95 -3.20 -6.55 -4.90 -12.30 -4.65 -37.45 -16.30 -50.55 -23.40 -23.60 -12.85 -58.20 -35.65 -76.25 -50.30 l-3.55 -2.90 -2.05 10.60 c-1.15 5.85 -2.40 12.75 -2.80 15.35 -0.45 2.60 -1.10 6.90 -1.55 9.50 -3.65 22.85 -5.40 45.95 -5.45 71.25 l-0.05 18 6 4 c19.10 12.65 55.50 30.20 79.25 38.05 15.25 5.10 37.85 10.95 50.75 13.20 21.95 3.80 45.95 6.30 61.90 6.45 l7.90 0.05 -3.25 -4.60z m385.20 -59.60 c41.45 -2.90 79.55 -9.70 125.75 -22.40 5.40 -1.45 20.80 -6.30 21.10 -6.60 0.25 -0.25 -18.45 -11.45 -31.35 -18.85 -5.85 -3.30 -21.40 -12.30 -44.25 -25.55 -3.55 -2.05 -11.80 -6.80 -18.25 -10.50 -6.45 -3.70 -15.90 -9.15 -20.95 -12.10 -5.05 -2.90 -9.25 -5.30 -9.40 -5.30 -0.15 0 -3.90 -2.10 -8.35 -4.70 -4.40 -2.60 -10.70 -6.20 -13.95 -8 -3.25 -1.85 -6.95 -4 -8.20 -4.85 -1.30 -0.80 -2.55 -1.45 -2.75 -1.45 -0.20 0 -0.40 0.65 -0.40 1.45 0 3.65 -3.90 26.50 -6 35.30 -4.30 18 -6.65 26.25 -12.15 42.75 -3.45 10.30 -8.20 23.60 -10.60 29.50 -2.40 5.90 -4.45 11 -4.60 11.35 -0.10 0.30 0.30 0.70 0.95 0.85 2.25 0.50 32.30 -0.15 43.40 -0.90z m-604 -29.85 c0.90 -15.20 3.80 -47.75 5 -55.70 0.25 -1.65 0.95 -6.35 1.50 -10.50 0.55 -4.10 1.35 -9.30 1.75 -11.50 0.40 -2.20 1.65 -8.85 2.75 -14.75 1.10 -5.90 2 -11.20 2 -11.85 0 -0.60 -0.45 -1.40 -0.95 -1.75 -1.40 -1 -17.20 -15.60 -24.45 -22.65 -9.40 -9.05 -36.75 -39.25 -47.80 -52.65 -1.60 -2 -3.05 -3.60 -3.20 -3.60 -0.80 0 2.65 27.40 5.45 43 3.40 18.80 12.40 52.80 18.60 70 1.85 5.15 7.90 19.95 10.60 26 9.50 21.30 13.35 29.20 19.20 39.45 5 8.75 8.75 15 8.95 14.80 0.05 -0.05 0.35 -3.80 0.60 -8.30z m343.15 2.70 c1.75 -0.25 1.10 -0.55 -7.25 -2.95 -18 -5.20 -30.30 -10.35 -50.15 -21.05 -13.55 -7.35 -20.30 -11.85 -39.80 -26.75 -4.25 -3.25 -10.40 -7.95 -13.70 -10.45 -13.80 -10.55 -32.95 -26.60 -47.85 -40.15 -4.20 -3.80 -9.55 -8.65 -11.90 -10.75 -4.30 -3.85 -6.80 -6.20 -20.20 -18.80 -4.10 -3.85 -7.70 -7.15 -8.10 -7.40 -1.20 -0.70 -24.95 -25.60 -32.95 -34.60 -4.40 -4.90 -10.35 -11.55 -13.25 -14.70 -5.55 -6.10 -15.30 -17.70 -21.45 -25.40 -2 -2.55 -3.90 -4.50 -4.15 -4.35 -1.15 0.70 -14.65 30.35 -20.40 44.70 -6.10 15.25 -11.45 30.85 -15.55 45.20 -4.05 14.25 -4 13.85 -1.65 15.60 1.05 0.80 4.75 3.70 8.20 6.45 10.20 8.10 30.15 22.55 38.75 28.05 27.60 17.70 60.05 34.30 90.95 46.40 7.40 2.90 11.70 4.40 27.80 9.60 13.45 4.30 32.45 9.15 46 11.70 3.15 0.60 7.10 1.40 8.75 1.80 5.45 1.25 26.25 4.30 41.25 6 14.35 1.60 41.55 2.70 46.65 1.85z m-145.30 -112.50 c-0.15 -0.25 -1.80 -3 -3.70 -6.15 -1.95 -3.15 -4.30 -7.20 -5.25 -9 -3.65 -6.65 -7.90 -14.50 -12 -22 -6.40 -11.65 -19.90 -39.65 -23.40 -48.50 -1 -2.60 -2.65 -6.55 -3.60 -8.75 -7.75 -17.60 -12.50 -30 -17.65 -45.50 -4.40 -13.35 -10.05 -31.45 -11.50 -36.75 -0.50 -1.80 -1.30 -4.60 -1.80 -6.25 -1.15 -3.80 -5.70 -22.55 -6.45 -26.50 -0.30 -1.65 -1.65 -8.60 -3.05 -15.50 -1.35 -6.85 -3.15 -16.65 -4 -21.75 -0.80 -5.10 -1.65 -9.65 -1.85 -10.15 -0.30 -0.75 -1.40 -0.25 -8.30 3.90 -8.15 4.90 -15.25 9.65 -20.55 13.75 -1.65 1.25 -3.55 2.65 -4.25 3.10 -0.70 0.45 -1.95 1.45 -2.85 2.20 -0.85 0.80 -2.85 2.35 -4.40 3.45 -1.55 1.10 -4.90 3.70 -7.40 5.80 -2.55 2.05 -5.90 4.70 -7.50 5.90 -4.40 3.25 -14.30 11.60 -17.05 14.45 l-2.45 2.50 1.90 3.45 c4.05 7.30 8.90 15.45 12.05 20.30 6.05 9.25 7.90 12.20 12.40 19.45 10.80 17.40 23.05 33.95 43.30 58.60 0.95 1.20 2.70 3.35 3.90 4.80 8.80 10.90 21.45 24.85 29.40 32.55 2.20 2.10 5.75 5.70 8 8 5.85 6.15 32.15 31.60 37.70 36.50 2.60 2.30 7.25 6.60 10.30 9.55 5.90 5.75 10.85 9.90 10.05 8.55z m-177.20 -20.65 c3.75 -14.25 15.35 -46.65 21.10 -58.75 0.65 -1.40 1.75 -4.05 2.45 -5.90 1.60 -4.25 3.45 -8.15 10.85 -23.05 3.25 -6.60 5.95 -12.30 5.95 -12.70 0 -0.40 -1.05 -2 -2.35 -3.60 -1.35 -1.60 -4.60 -6.10 -7.30 -10.05 -2.65 -3.95 -6.90 -10.10 -9.30 -13.70 -6.85 -9.95 -13.50 -20.85 -21.05 -34.50 -2 -3.55 -3.80 -6.70 -4 -6.95 -0.25 -0.20 -3.20 2.45 -6.60 5.95 -3.40 3.55 -8.30 8.60 -10.90 11.25 -11.55 11.80 -20.05 21.05 -24.15 26.20 -2.45 3.05 -5.30 6.45 -6.35 7.55 -2.05 2.20 -12.15 14.70 -15 18.60 -1 1.30 -4.70 6.25 -8.30 10.90 -3.55 4.70 -6.65 8.75 -6.85 9.10 -0.25 0.35 0.70 1.85 2.30 3.75 1.45 1.75 4.45 5.25 6.60 7.85 2.20 2.55 4.70 5.50 5.50 6.55 2.25 2.80 10.55 12.55 12.20 14.35 0.80 0.85 4.85 5.45 8.95 10.25 7.80 9.10 43.55 44.70 44.15 44 0.20 -0.20 1.15 -3.40 2.10 -7.10z m146.90 -80.40 c-1.40 -14.85 -1.15 -53.50 0.45 -71.10 0.25 -2.90 0.75 -8.05 1 -11.50 1.10 -12.70 4.50 -37.65 7.50 -55.25 1.75 -10.20 2.90 -16.10 7 -35.50 1.70 -8.10 3.80 -16.05 8.30 -31.75 6.60 -23 11.45 -37.10 21.20 -62.20 11 -28.30 29.80 -66.25 45.25 -91.30 4 -6.55 7.30 -12.15 7.15 -12.25 -0.15 -0.10 -6 -1.70 -17.15 -4.70 -4.60 -1.25 -12.35 -3.10 -23 -5.55 -6.50 -1.50 -19.30 -4.15 -24.25 -5 -3.15 -0.50 -8.05 -1.40 -10.90 -1.95 -2.85 -0.55 -7.35 -1.35 -10 -1.80 -2.65 -0.45 -6.75 -1.10 -9.10 -1.50 -11.15 -1.90 -30.60 -4.35 -31 -3.90 -1.20 1.45 -9.90 35.50 -14.50 56.90 -4.65 21.60 -7.90 45.05 -10.05 72.75 -0.85 10.75 -1.10 41.70 -0.45 53.25 0.95 17.30 3.35 41.90 5.25 54.25 0.40 2.60 1.30 8.60 2 13.25 2.25 15.10 5.75 32.05 10.70 52 4.80 19.45 12.30 42.95 20.45 64.25 5.70 14.85 8.25 21.30 10.60 26.75 1.40 3.30 2.80 6.65 3.10 7.50 0.90 2.35 1.05 0.65 0.45 -5.65z m-225.70 -31.10 c9.30 -12.30 17.60 -22.20 32.90 -39.30 11.70 -13.10 14.55 -16.05 24.60 -25.70 5.05 -4.80 9.05 -8.95 8.95 -9.25 -0.15 -0.25 -2.70 -5.65 -5.70 -12 -7.10 -14.90 -10.40 -22.40 -14.70 -33.50 -3.55 -9.10 -14.60 -41.85 -15.20 -45.05 -0.15 -0.95 -0.45 -1.70 -0.65 -1.70 -0.15 0 -0.90 1.65 -1.65 3.65 -1.25 3.45 -7.35 19.75 -10.50 28.10 -2.55 6.75 -9.20 28.65 -11.30 37.25 -6.90 28.10 -11.95 63.55 -12.85 89.75 -0.15 4.70 -0.40 10.30 -0.50 12.50 l-0.25 4 1.25 -1.50 c0.70 -0.80 3.20 -4.10 5.60 -7.25z m261.50 -111.75 c4.40 -8.10 13.30 -22.75 17.35 -28.70 13.60 -19.75 17 -24.45 27.50 -37.55 9.15 -11.50 13.40 -16.60 16.80 -20.30 1.50 -1.65 5.20 -5.80 8.25 -9.25 5.40 -6.10 25.40 -26.40 33.75 -34.25 14.60 -13.70 43.25 -37 58.60 -47.70 l3.85 -2.65 -2.35 -1.55 c-12.95 -8.50 -43.20 -23.75 -63.85 -32.10 -6.80 -2.80 -18.20 -7.05 -20.75 -7.80 -0.80 -0.25 -3.75 4.10 -11.10 16.35 -5.35 9 -13.05 22.60 -15.15 26.75 -0.75 1.50 -2.40 4.65 -3.65 7 -5.35 9.80 -14.95 30.35 -20.20 43.25 -8.65 21.20 -9.80 24.20 -15.20 40 -8.60 25.15 -11.70 36.25 -18.65 66.50 -2.10 9.05 -6.30 30.65 -7.55 38.75 -0.60 3.70 -1.15 7.45 -1.30 8.25 -0.15 0.85 2.20 -3.20 5.20 -9 3 -5.75 6.80 -12.95 8.45 -16z m-174.50 19.45 c11.40 -9.95 21.55 -17.75 38.75 -29.85 13.95 -9.80 24 -16.50 28.40 -19 1.80 -1 3.75 -2.25 4.35 -2.70 1.15 -1 1.20 0.35 -0.30 -16.15 -0.90 -9.55 -2.05 -34.15 -2.05 -43.35 l0 -8.60 -1.35 0.25 c-1.90 0.35 -14.45 2.55 -19.65 3.50 -14.35 2.50 -46.25 9.70 -60.50 13.60 -26.80 7.40 -32 9 -32 9.80 0 1.20 2.40 10.45 5 19.05 3.75 12.50 8.90 26.90 14.70 41 0.90 2.20 1.95 4.80 2.30 5.75 2.75 7.50 14.50 33.10 15.05 32.90 0.20 -0.10 3.50 -2.85 7.30 -6.20z m598.90 -39.80 c6.35 -3.70 14.10 -8.15 17.25 -9.90 3.15 -1.75 7.65 -4.35 10 -5.75 2.35 -1.40 7.05 -4.10 10.50 -6 7.50 -4.15 27.25 -15.50 29 -16.75 0.70 -0.45 3.60 -2.15 6.50 -3.75 10.55 -5.80 56.75 -32 57.40 -32.50 0.05 -0.05 -4.30 -1.70 -9.75 -3.65 -9.85 -3.50 -22.20 -7.50 -37.90 -12.25 -2.05 -0.65 -22.15 -5.65 -29.50 -7.35 -4 -0.95 -27.60 -5.05 -37.40 -6.55 -24.25 -3.60 -50.65 -5.45 -77.80 -5.45 -9.70 0 -18.75 0.15 -20.10 0.30 l-2.40 0.30 4 7.60 c13.55 25.55 28.10 58.50 36.20 81.80 1.55 4.55 3.45 9.95 4.25 12 1.40 3.70 4.20 12.55 6.75 21.30 l1.35 4.55 10.10 -5.60 c5.50 -3.10 15.25 -8.65 21.55 -12.35z m-57.95 -10 c-4.70 -13 -13.60 -35.10 -18.50 -46 -3.70 -8.30 -21.90 -45.20 -24.35 -49.35 l-1.55 -2.70 -3.55 0.30 c-2 0.20 -9.45 1.10 -16.60 2.10 -7.15 0.95 -16.35 2.20 -20.50 2.80 -16.60 2.25 -31.20 4.85 -47.25 8.50 -15.85 3.60 -35.50 8.90 -35.50 9.55 0 0.20 1.85 0.40 4.15 0.40 19.65 0.05 40.30 3.60 62.35 10.75 26.20 8.50 46.55 19.25 67.25 35.45 12.25 9.60 15.75 12.70 25.25 22.35 5.65 5.70 10.30 10.40 10.35 10.40 0.05 0.05 -0.65 -2.05 -1.55 -4.55z m-296 -39.35 c1.60 -1.55 23.65 -13.35 32.45 -17.40 1.95 -0.85 5.85 -2.70 8.75 -4.05 17.90 -8.40 15.75 -7.50 41.50 -16.95 21.55 -7.90 50.10 -16.30 72.25 -21.25 1.40 -0.30 5.10 -1.20 8.25 -1.95 11.75 -2.90 35.90 -7 53 -9 2.35 -0.25 8.60 -1.05 13.90 -1.70 5.30 -0.70 10.30 -1.25 11.10 -1.25 l1.50 0 -1.05 -2.10 c-0.60 -1.20 -1.90 -3.40 -2.95 -4.90 -1 -1.50 -3.60 -5.65 -5.75 -9.25 -5.50 -9.20 -9.65 -15.60 -15.40 -23.65 -1.30 -1.85 -3.75 -5.35 -5.45 -7.85 -2.70 -3.95 -7.70 -10.75 -14 -19 -1.05 -1.35 -2.90 -3.60 -4.10 -4.95 l-2.20 -2.50 -2.40 0.95 c-4.95 1.85 -22.05 10.80 -35.60 18.55 -4.45 2.60 -8.25 4.70 -8.40 4.70 -0.15 0 -1.75 1 -3.60 2.20 -1.85 1.20 -6.15 3.90 -9.60 6.05 -3.45 2.15 -8.40 5.35 -11 7.15 -2.60 1.80 -8.10 5.55 -12.25 8.35 -6.50 4.40 -11.25 7.85 -28.75 21 -4.50 3.40 -17.45 14.25 -21.75 18.25 -1.90 1.80 -5.75 5.30 -8.50 7.75 -13.45 11.95 -35.70 34.75 -45.65 46.75 -2.65 3.15 -5.05 5.90 -5.30 6.10 -0.40 0.25 -0.40 0.40 0 0.40 0.25 0 0.70 -0.20 1 -0.45z m-269.80 -27.30 c4.55 -1.20 9.60 -2.55 11.25 -3 8.50 -2.30 24 -5.75 48.50 -10.75 8.50 -1.75 26.30 -4.75 31.10 -5.25 1.70 -0.20 3.30 -0.60 3.55 -0.90 0.25 -0.35 0.65 -3.05 0.80 -6.10 1.15 -19.40 4.50 -47.10 7.60 -62.95 2.80 -14.35 4.50 -22.60 6.30 -30.05 1.10 -4.65 2.15 -9.30 2.40 -10.25 0.55 -2.50 4 -15.35 4.35 -16.35 1.05 -2.70 -27.95 21.10 -42.20 34.65 -11.55 11 -32 33.30 -40.15 43.90 -1.25 1.60 -3.15 4.05 -4.30 5.50 -10.95 13.80 -30.75 44.10 -40.15 61.40 l-2.05 3.80 2.35 -0.70 c1.35 -0.40 6.10 -1.75 10.65 -2.95z m755.95 -16.85 c-1.75 -3.25 -14.10 -22.20 -17.70 -27.15 -6.75 -9.25 -15.10 -20.35 -17.95 -23.75 -23.60 -28.50 -43.30 -47.95 -70.50 -69.80 -12.95 -10.40 -28.65 -22.05 -29.10 -21.55 -0.15 0.15 1.20 4.90 3.80 13.10 2.15 6.95 6.25 22.15 8.25 30.50 0.90 3.85 2.10 8.90 2.70 11.25 2.10 8.90 6.60 29.10 7.55 34.30 0.60 3 1.50 7.60 2 10.20 0.55 2.60 1.35 7.25 1.80 10.25 0.40 3.05 0.95 5.70 1.15 5.90 0.25 0.25 4.35 1.05 9.10 1.85 17.25 2.80 24.80 4.25 31.95 6 22.55 5.50 37.15 9.70 53.75 15.30 7.45 2.50 13.55 4.60 13.65 4.65 0.05 0 -0.15 -0.45 -0.45 -1.05z m-125.45 -29.85 c0 -0.25 -0.55 -3.50 -1.20 -7.15 -0.70 -3.65 -1.60 -8.90 -2.05 -11.65 -1.25 -7.70 -4.40 -21.30 -8.75 -38 -1.10 -4.10 -2.55 -9.95 -3.30 -13 -0.70 -3 -2.20 -8.75 -3.25 -12.75 -1.10 -4 -2.45 -8.95 -3 -11 -0.55 -2.05 -1.75 -6.10 -2.65 -9 -0.95 -2.90 -2.65 -8.25 -3.80 -11.90 -1.20 -3.70 -2.45 -6.80 -2.85 -6.95 -1.15 -0.45 -28.20 6.70 -36.30 9.65 -1.90 0.65 -5.05 1.65 -7 2.15 -14.45 3.90 -31.40 9.30 -44.10 14.05 -8.15 3.05 -17.85 6.75 -20 7.70 -0.80 0.40 -4.50 1.95 -8.10 3.55 -3.65 1.60 -6.65 3 -6.65 3.15 0 0.15 1.85 2.75 4.15 5.80 2.30 3.05 5.05 6.80 6.10 8.30 1.10 1.50 3.85 5.35 6.20 8.50 2.35 3.15 6.65 9.40 9.55 13.85 2.90 4.45 7.75 11.75 10.80 16.25 3.05 4.50 7.55 11.55 9.95 15.65 2.45 4.15 5 8.30 5.65 9.25 l1.15 1.70 31.60 -0.15 c30.95 -0.10 43.40 0.30 58.35 1.90 5.40 0.60 9.50 0.60 9.50 0.10z m-246.10 -49.65 c1.85 -1.15 4.05 -2.60 4.85 -3.20 2.10 -1.50 16.55 -10.20 25.50 -15.30 9.20 -5.25 16.55 -9.20 27.15 -14.55 4.45 -2.25 8.10 -4.30 8.10 -4.55 0 -1.15 -11.05 -14.10 -28.25 -33.10 -12.85 -14.25 -51.35 -52.70 -59.05 -59 l-2.35 -1.95 -3.30 3.55 c-1.80 1.95 -6.35 6.80 -10.05 10.75 -10.10 10.75 -11.05 11.85 -23.25 26.50 -13.55 16.30 -25.50 31.75 -32.90 42.50 l-3.30 4.85 6.35 2.35 c6.35 2.40 14.95 5.95 26.60 11.10 16.55 7.25 44.20 21.85 55 28.95 2.60 1.75 4.90 3.15 5.15 3.20 0.20 0 1.90 -0.95 3.75 -2.10z m88.90 -47.85 c3.25 -1.35 9.55 -3.95 13.95 -5.75 12.40 -5.20 40.20 -15.50 48.65 -18.05 8.40 -2.50 32.65 -9.30 41.50 -11.55 3.05 -0.80 5.60 -1.60 5.60 -1.75 0 -0.65 -26.60 -13.60 -36.85 -18 -28.10 -12 -65.15 -22.70 -96.40 -27.90 -23.85 -4 -46.65 -6.20 -61.20 -5.95 l-8.20 0.15 6.20 5.55 c12.55 11.20 42.60 42.05 55.50 57 3.15 3.60 10 11.55 15.20 17.60 5.25 6.10 9.65 11.10 9.80 11.10 0.15 0 2.95 -1.10 6.25 -2.45z m-196.35 -10 c17.80 -25.55 36.70 -48.95 57.50 -71.35 1.80 -1.95 3.85 -4.10 4.50 -4.85 l1.25 -1.35 -3.25 0.25 c-15 1.30 -39.35 5.05 -48.45 7.50 -1.50 0.40 -5.55 1.40 -9 2.25 -5.80 1.40 -14.50 3.65 -26 6.70 -11.70 3.10 -34 11.15 -50.15 18.05 -10.15 4.40 -28.40 13.45 -38.60 19.25 -11.35 6.45 -12.70 7.20 -12.60 7.35 0.05 0.05 4.95 0.75 10.85 1.60 11 1.55 25.50 4 31.75 5.35 1.95 0.40 6.90 1.40 11.10 2.20 15.95 3.10 32.10 6.90 55.40 13 0.85 0.20 3.20 0.95 5.25 1.70 2.05 0.70 3.90 1.20 4.10 1.15 0.15 -0.05 3.05 -4 6.35 -8.80z"/>
 </g>
 <g fill="#d6b05b">
  <path d="M588 1014.80 c0 -0.70 0 -0.70 5.55 -6.85 2.10 -2.30 5.80 -6.45 8.25 -9.20 2.45 -2.75 7.50 -8.25 11.20 -12.25 3.70 -4 10.05 -11.20 14.05 -16 6.35 -7.65 8.80 -10.70 15.35 -18.95 0.75 -0.90 2.15 -2.60 3.10 -3.80 0.95 -1.15 2.45 -2.95 3.25 -4 0.85 -1.05 2.20 -2.75 3 -3.75 0.85 -1 2.40 -3.20 3.50 -4.90 1.10 -1.65 2.40 -3.15 2.95 -3.30 0.50 -0.15 2.85 0.65 5.25 1.80 8.25 3.85 9.35 4.35 18.05 8.05 4.80 2.05 11.55 4.75 15 6.10 3.45 1.30 7.35 2.80 8.65 3.35 1.35 0.50 7.30 2.65 13.25 4.75 9.85 3.40 14.95 5.10 28.85 9.50 2.50 0.75 4.50 1.60 4.50 1.80 0 0.75 -16.40 8.95 -26.85 13.40 -5.70 2.45 -10.50 4.45 -10.65 4.45 -0.15 0 -2.90 1.10 -6.15 2.45 -5.50 2.30 -18.95 6.95 -30.60 10.50 -15.55 4.80 -33.45 9.25 -46.75 11.55 -4.40 0.80 -9.90 1.75 -12.25 2.20 -7.85 1.35 -21.70 3.25 -26.10 3.50 -3.40 0.20 -4.40 0.10 -4.40 -0.40z"/>
  <path d="M760.75 956.25 c-0.25 -0.10 -2.20 -0.65 -4.25 -1.25 -2.05 -0.60 -4.30 -1.25 -5 -1.50 -0.70 -0.20 -4.60 -1.45 -8.75 -2.75 -10.30 -3.20 -25.20 -8.15 -27 -8.95 -0.80 -0.40 -2.40 -0.95 -3.50 -1.30 -6.75 -2.05 -35.20 -13.70 -42.85 -17.55 -1.60 -0.80 -2.90 -1.70 -2.90 -2 0 -0.85 0.85 -2.25 6.75 -11.20 12.85 -19.55 17.15 -26.20 18.95 -29.50 1.05 -1.90 2.20 -3.85 2.55 -4.25 0.35 -0.40 1.55 -2.45 2.60 -4.50 1.10 -2.05 3.30 -6.10 4.90 -9 2.90 -5.25 14.15 -27.40 15.95 -31.40 1.20 -2.60 2 -2.85 7.70 -2.40 2.35 0.20 10.15 0.45 17.30 0.55 12.40 0.20 15.40 0.05 39.05 -1.75 9.85 -0.75 10.75 -0.70 10.75 0.40 0 0.90 -0.50 4.40 -2.25 15.85 -0.45 2.75 -1.15 7.25 -1.55 10 -2.55 17.20 -5.95 33.60 -9.85 48 -0.70 2.50 -2.20 8.20 -3.35 12.75 -1.15 4.55 -2.50 9.70 -3 11.50 -0.50 1.80 -1.25 4.60 -1.70 6.25 -1.45 5.60 -5.90 20.50 -6.65 22.40 -0.60 1.50 -1 1.85 -2.10 1.80 -0.70 0 -1.50 -0.10 -1.80 -0.20z"/>
  <path d="M779.35 951.70 c-0.15 -0.15 0.30 -1.90 0.95 -3.85 1.80 -5.10 8.75 -30.65 10.90 -39.85 0.95 -4.25 2.60 -11.25 3.60 -15.50 1 -4.25 2.30 -10.55 2.95 -14 0.65 -3.45 1.75 -9.05 2.45 -12.50 0.65 -3.45 1.80 -10.20 2.50 -15 0.75 -4.80 1.45 -9.35 1.60 -10.10 0.35 -1.80 1.70 -1.85 1.70 -0.10 0 2.30 -3 21.45 -4.70 29.95 -0.70 3.30 -1.50 7.45 -1.80 9.25 -0.35 1.80 -1.25 6.05 -2.05 9.50 -0.80 3.45 -2.45 10.75 -3.70 16.25 -3 13.15 -8.95 35.45 -10.95 41.15 -0.65 1.80 -0.65 2.10 -0.05 2.10 0.45 0 0.75 -0.50 0.75 -1.25 0 -0.80 0.30 -1.25 0.75 -1.25 0.40 0 0.75 -0.20 0.75 -0.50 0 -0.25 0.35 -0.50 0.75 -0.50 0.40 0 0.75 -0.20 0.75 -0.50 0 -0.25 0.45 -0.50 1 -0.50 0.55 0 1 -0.35 1 -0.75 0 -0.55 0.55 -0.75 1.85 -0.75 1.85 0 1.85 0 0.90 0.95 -1.05 1 -9.05 6.65 -10.65 7.50 -0.55 0.30 -1.10 0.40 -1.25 0.25z"/>
  <path d="M793 941.25 c0 -1.10 0.20 -1.25 1.75 -1.25 2.15 0 2.20 0.50 0.30 1.65 -1.90 1.10 -2.05 1.10 -2.05 -0.40z"/>
  <path d="M797.50 938.55 c0 -1.05 0.25 -1.55 0.75 -1.55 0.40 0 0.75 -0.20 0.75 -0.50 0 -0.25 0.45 -0.50 1 -0.50 0.55 0 1 -0.35 1 -0.75 0 -0.40 0.45 -0.75 1 -0.75 0.55 0 1 -0.35 1 -0.75 0 -0.50 0.55 -0.75 1.75 -0.75 1.55 0 1.75 -0.15 1.75 -1.25 0 -0.90 0.25 -1.25 1 -1.25 0.55 0 1 -0.35 1 -0.75 0 -0.50 0.55 -0.75 1.75 -0.75 1.55 0 1.75 -0.15 1.75 -1.25 0 -0.90 0.25 -1.25 1 -1.25 0.55 0 1 -0.35 1 -0.75 0 -0.55 0.55 -0.75 1.80 -0.75 0.95 0 1.65 0.20 1.50 0.45 -0.15 0.25 -4.40 3.45 -9.40 7.10 -5.05 3.65 -9.45 6.85 -9.75 7.10 -0.50 0.35 -0.65 0.10 -0.65 -1.10z"/>
  <path d="M818 923.25 c0 -1.05 0.25 -1.25 1.50 -1.25 1.25 0 1.50 -0.20 1.50 -1.25 0 -0.90 0.25 -1.25 1 -1.25 0.55 0 1 -0.35 1 -0.75 0 -0.50 0.50 -0.75 1.50 -0.75 1.25 0 1.50 -0.20 1.50 -1.25 0 -1.05 0.25 -1.25 1.45 -1.25 1.25 0 1.50 -0.20 1.65 -1.35 0.10 -1.15 0.40 -1.45 1.75 -1.55 1.30 -0.15 1.60 -0.40 1.75 -1.50 0.10 -1.10 0.45 -1.40 1.75 -1.50 1.30 -0.15 1.60 -0.40 1.75 -1.50 0.15 -1.15 0.40 -1.35 2.05 -1.50 1.70 -0.15 1.85 -0.30 1.85 -1.65 0 -1.35 0.15 -1.45 1.90 -1.45 l1.85 0.05 -1.25 1.10 c-9.80 8.65 -23.35 19.85 -24.05 19.85 -0.25 0 -0.45 -0.55 -0.45 -1.25z"/>
  <path d="M643.50 909.80 c-14.20 -7.35 -29 -16 -29 -16.90 0 -0.25 0.80 -0.40 1.75 -0.40 0.95 0 1.75 0.20 1.75 0.45 0 0.25 0.55 0.60 1.25 0.75 0.70 0.20 1.25 0.55 1.25 0.80 0 0.30 0.30 0.50 0.70 0.50 0.40 0 0.80 0.15 0.90 0.40 0.10 0.20 1.40 1 2.90 1.80 1.50 0.80 2.85 1.60 3 1.75 0.35 0.45 7.05 4 16.40 8.70 4.45 2.25 8.10 4.35 8.10 4.60 0 0.35 0.75 0.45 1.80 0.35 l1.80 -0.20 -0.85 1.30 c-0.50 0.70 -1.10 1.25 -1.45 1.25 -0.30 -0.05 -4.95 -2.35 -10.30 -5.15z"/>
  <path d="M657 908.80 c0 -1.45 0.20 -1.80 1 -1.80 0.80 0 1 -0.35 1 -1.50 0 -0.80 0.25 -1.50 0.50 -1.50 0.30 0 0.50 -0.35 0.50 -0.75 0 -0.40 0.25 -0.75 0.50 -0.75 0.30 0 0.50 -0.35 0.50 -0.75 0 -0.40 0.25 -0.75 0.50 -0.75 0.30 0 0.50 -0.35 0.50 -0.75 0 -0.40 0.25 -0.75 0.50 -0.75 0.30 0 0.50 -0.35 0.50 -0.75 0 -0.40 0.25 -0.75 0.50 -0.75 0.30 0 0.50 -0.35 0.50 -0.75 0 -0.40 0.25 -0.75 0.50 -0.75 0.30 0 0.50 -0.35 0.50 -0.75 0 -0.40 0.25 -0.75 0.50 -0.75 0.30 0 0.50 -0.35 0.50 -0.75 0 -0.40 0.25 -0.75 0.50 -0.75 0.30 0 0.50 -0.35 0.50 -0.75 0 -0.40 0.20 -0.75 0.45 -0.75 0.25 0 0.60 -0.55 0.75 -1.25 0.20 -0.70 0.55 -1.25 0.80 -1.25 0.30 0 0.50 -0.35 0.50 -0.75 0 -0.40 0.25 -0.75 0.50 -0.75 0.30 0 0.50 -0.35 0.50 -0.75 0 -0.40 0.20 -0.75 0.45 -0.75 0.25 0 0.60 -0.55 0.75 -1.25 0.20 -0.70 0.55 -1.25 0.80 -1.25 0.30 0 0.50 -0.35 0.50 -0.75 0 -0.40 0.35 -0.75 0.75 -0.75 0.45 0 0.75 -0.45 0.75 -1.25 0 -0.80 0.30 -1.25 0.75 -1.25 0.45 0 0.75 -0.45 0.75 -1.20 0 -0.70 0.35 -1.55 0.75 -2 0.40 -0.40 0.75 -0.95 0.75 -1.25 0 -0.30 0.35 -0.55 0.75 -0.55 0.40 0 0.75 -0.45 0.75 -1 0 -1.20 1.05 -3.50 1.60 -3.50 0.20 0 0.40 -0.35 0.40 -0.75 0 -0.40 0.35 -0.75 0.75 -0.75 0.45 0 0.75 -0.45 0.75 -1.20 0 -0.70 0.30 -1.55 0.70 -1.90 0.35 -0.40 0.85 -1.20 1 -1.80 0.20 -0.65 0.80 -1.10 1.35 -1.10 0.75 0 0.95 -0.35 0.95 -1.75 0 -0.95 0.25 -1.75 0.50 -1.75 0.30 0 0.50 -0.35 0.50 -0.75 0 -0.40 0.25 -0.75 0.50 -0.75 0.30 0 0.50 -0.45 0.50 -1 0 -0.55 0.15 -1 0.40 -1 0.20 0 0.75 -1 1.25 -2.25 0.55 -1.25 1.15 -2.25 1.40 -2.25 0.25 0 0.45 -0.25 0.45 -0.60 0 -0.80 5.05 -10.60 5.60 -10.80 0.20 -0.10 0.40 -0.50 0.40 -0.90 0 -0.40 0.25 -0.70 0.50 -0.70 0.30 0 0.50 -0.45 0.50 -1 0 -1.20 2.05 -5.50 2.60 -5.50 0.20 0 0.40 -0.45 0.40 -1 0 -0.55 0.25 -1 0.50 -1 0.30 0 0.50 -0.45 0.50 -0.95 0 -0.55 0.35 -1.30 0.75 -1.75 0.40 -0.40 0.75 -1.10 0.75 -1.50 0 -0.50 0.45 -0.80 1.30 -0.80 0.70 0 1.20 0.15 1.10 0.40 -0.10 0.20 -0.80 1.60 -1.50 3.10 -5.90 12.40 -13 26 -17.15 33 -0.90 1.50 -4.90 8.25 -8.90 15 -6.95 11.75 -20.75 33.05 -21.85 33.75 -0.30 0.20 -0.50 -0.35 -0.50 -1.45z"/>
  <path d="M844.50 901.05 c0 -1.45 0.15 -1.55 1.80 -1.55 1.95 0 1.90 0.45 -0.30 2 l-1.50 1.05 0 -1.50z"/>
  <path d="M609.40 890.05 c-4.65 -3.05 -5.05 -3.55 -2.70 -3.55 1 0 1.80 0.25 1.80 0.50 0 0.30 0.35 0.50 0.75 0.50 0.40 0 0.75 0.45 0.75 1 0 0.70 0.35 1 1.20 1 2 0 2.80 0.55 2.80 1.80 0 0.65 -0.20 1.20 -0.40 1.20 -0.20 0 -2.10 -1.10 -4.20 -2.45z"/>
  <path d="M856.10 890.25 c0.15 -1.85 0.25 -2 1.80 -2.15 1.35 -0.15 1.60 -0.35 1.60 -1.55 0 -1.65 0.80 -2.55 2.35 -2.55 0.90 0 1.15 -0.30 1.15 -1.25 0 -1.05 0.25 -1.25 1.55 -1.25 l1.50 0 -1 1.40 c-0.55 0.75 -2.85 3.15 -5.05 5.35 l-4.05 4 0.15 -2z"/>
  <path d="M600.65 883.95 c-1.45 -1.10 -2.65 -2.10 -2.65 -2.20 0 -0.15 0.80 -0.25 1.75 -0.25 1.20 0 1.75 0.25 1.75 0.75 0 0.40 0.45 0.75 1 0.75 0.80 0 1 0.35 1 1.50 0 0.85 -0.05 1.50 -0.10 1.50 -0.10 0 -1.35 -0.90 -2.75 -2.05z"/>
  <path d="M593.50 878.50 l-1.75 -1.45 1.90 -0.05 c1.75 0 1.85 0.10 1.85 1.50 0 0.85 -0.05 1.50 -0.15 1.50 -0.05 0 -0.90 -0.65 -1.85 -1.50z"/>
  <path d="M370.50 879.15 c-4.40 -0.25 -6 -0.65 -6 -1.40 0 -0.60 1.95 -0.65 12.75 -0.40 9.50 0.25 12.75 0.15 12.75 -0.25 0 -0.35 -0.20 -0.60 -0.50 -0.60 -0.25 0 -0.50 -0.35 -0.50 -0.75 0 -0.40 -0.20 -0.75 -0.50 -0.75 -0.25 0 -0.50 -0.45 -0.50 -1 0 -0.55 -0.35 -1 -0.75 -1 -0.40 0 -0.75 -0.20 -0.75 -0.50 0 -0.25 -0.45 -0.95 -1 -1.50 -0.55 -0.55 -1 -1.45 -1 -2 0 -0.55 -0.35 -1 -0.75 -1 -0.40 0 -0.75 -0.20 -0.75 -0.45 0 -0.30 -0.55 -1.10 -1.30 -1.90 -1.50 -1.65 -11.40 -17 -12.60 -19.55 -0.45 -1 -1 -1.95 -1.20 -2.10 -0.75 -0.60 -11.80 -20.50 -16.15 -29.10 -4.40 -8.70 -5.70 -12.40 -4.25 -12.40 0.25 0 2.30 3.65 4.55 8.15 6.35 12.65 18.30 33.70 25.30 44.55 1.80 2.70 6.15 9.10 9.70 14.15 3.60 5.10 6.35 9.40 6.20 9.60 -0.35 0.30 -18.15 0.50 -22.75 0.20z"/>
  <path d="M350.75 877.45 c-17.35 -2 -33.75 -4.60 -42.75 -6.75 -24.20 -5.75 -36.80 -9.55 -53.25 -15.95 -12.70 -4.95 -42.25 -18.75 -42.25 -19.75 0 -0.30 0.60 -0.50 1.40 -0.50 1.70 -0.05 15.55 6.55 15.60 7.40 0 0.35 0.65 0.60 1.50 0.60 1.55 0 6.60 2.25 6.90 3.05 0.10 0.25 0.60 0.45 1.15 0.45 0.55 0 2.25 0.65 3.85 1.45 2.95 1.50 4.95 2.30 15.85 6.45 15.45 5.95 34.75 11.55 53.35 15.60 8 1.70 22.55 4.10 32.40 5.25 12.95 1.55 14.85 1.75 16.90 1.75 1.75 0 2.10 0.15 2.10 1 0 0.85 -0.30 1 -2.35 0.95 -1.35 -0.05 -6 -0.45 -10.40 -1z"/>
  <path d="M871 874.80 c0 -1.65 0.10 -1.80 1.55 -1.80 l1.50 0 -1.05 1.50 c-1.55 2.20 -2 2.25 -2 0.30z"/>
  <path d="M875 870.50 c0 -2 1.80 -4 3.60 -4 1.30 0 1.40 -0.15 1.40 -1.80 0 -1.35 0.25 -1.85 1 -2.05 0.55 -0.15 1 -0.70 1 -1.25 0 -0.55 0.45 -1.10 1 -1.25 0.55 -0.15 1 -0.60 1 -0.95 0 -0.40 0.35 -0.70 0.75 -0.70 0.40 0 0.75 -0.35 0.75 -0.75 0 -0.75 5.25 -7.30 6.10 -7.65 0.20 -0.10 0.40 -0.45 0.40 -0.80 0 -0.75 1.80 -2.30 2.75 -2.30 0.50 0 0.75 -0.50 0.75 -1.50 0 -1.25 0.20 -1.50 1.25 -1.50 1.05 0 1.25 -0.25 1.25 -1.50 0 -0.80 0.25 -1.50 0.50 -1.50 0.30 0 0.50 -0.35 0.50 -0.75 0 -0.45 0.35 -0.90 0.75 -1.05 0.40 -0.20 0.75 -0.60 0.75 -1 0 -0.40 0.25 -0.70 0.50 -0.70 0.30 0 0.50 -0.35 0.50 -0.75 0 -0.40 0.45 -0.75 1 -0.75 0.75 0 1 -0.35 1 -1.25 0 -0.65 0.30 -1.40 0.65 -1.60 0.35 -0.20 0.90 -1 1.20 -1.75 0.35 -0.80 0.95 -1.40 1.40 -1.40 0.40 0 0.75 -0.45 0.75 -1 0 -0.80 0.35 -1 1.55 -1 l1.50 0 -2.35 3.40 c-1.30 1.85 -2.85 3.90 -3.45 4.60 -0.60 0.70 -2.15 2.70 -3.40 4.50 -2.45 3.35 -4.50 6.15 -6.55 8.75 -0.65 0.85 -2 2.60 -3.05 3.95 -2.10 2.75 -16.20 18.80 -16.55 18.80 -0.10 0 -0.20 -0.65 -0.20 -1.50z"/>
  <path d="M584.50 870.85 c0 -0.45 0.95 -1.50 2.15 -2.40 8.30 -6.50 22.15 -17.70 27.60 -22.40 6.20 -5.35 6.50 -5.55 6.65 -4.30 0.20 1.65 -1.15 3.25 -2.75 3.25 -0.75 0 -1.15 0.30 -1.15 0.90 0 1.10 -0.95 2.10 -2 2.10 -0.40 0 -1 0.50 -1.25 1.15 -0.35 0.75 -1 1.15 -2.10 1.25 -1.35 0.15 -1.65 0.35 -1.65 1.40 0 0.95 -0.25 1.20 -1.25 1.20 -0.85 0 -1.25 0.25 -1.25 0.90 0 1.15 -0.95 2.10 -2.05 2.10 -0.45 0 -0.95 0.45 -1.10 1 -0.15 0.60 -0.70 1 -1.30 1 -0.60 0 -1.05 0.30 -1.05 0.75 0 0.40 -0.40 0.75 -0.95 0.75 -0.50 0 -1.05 0.45 -1.20 1 -0.15 0.55 -0.65 1.15 -1.20 1.35 -0.50 0.15 -1.10 0.60 -1.30 1 -0.20 0.35 -0.95 0.65 -1.60 0.65 -0.90 0 -1.25 0.25 -1.25 1 0 0.65 -0.35 1 -1 1 -0.55 0 -1 0.35 -1 0.75 0 0.45 -0.45 0.75 -1.25 0.75 -0.90 0 -1.25 0.25 -1.25 1 0 0.60 -0.35 1 -0.90 1 -0.45 0 -1.10 0.50 -1.35 1.15 -0.60 1.30 -3.25 1.90 -3.25 0.70z"/>
  <path d="M804.70 837.10 c0.15 -1.05 0.45 -3.85 0.60 -6.25 0.20 -2.40 0.60 -4.70 0.90 -5.10 0.35 -0.45 2.15 -0.95 4.55 -1.30 21.55 -2.95 42.65 -6.90 65.25 -12.15 5.95 -1.40 33.60 -8.85 37 -9.95 3.70 -1.25 9.30 -2.85 9.95 -2.85 0.30 0 0.55 0.40 0.55 0.90 0 0.70 -1.30 1.25 -6.20 2.75 -3.40 1 -6.75 1.85 -7.45 1.85 -0.70 0 -1.35 0.20 -1.45 0.40 -0.05 0.25 -2.50 1.05 -5.40 1.85 -14.95 4 -17.85 4.75 -19.10 4.75 -0.80 0 -1.40 0.20 -1.40 0.45 0 0.20 -1.05 0.65 -2.35 0.90 -3.15 0.70 -20.25 4.45 -25.65 5.65 -7.85 1.75 -26.05 4.90 -37.50 6.50 -4.25 0.60 -8.10 1.30 -8.55 1.55 -0.65 0.30 -1 1.85 -1.45 6.20 -0.60 5.15 -0.75 5.75 -1.65 5.75 -0.85 0 -0.95 -0.25 -0.65 -1.90z"/>
  <path d="M627.40 834.65 c2.35 -2.30 2.60 -2.40 2.60 -0.70 0 1.45 -0.10 1.55 -1.75 1.55 -1.65 0 -1.70 -0.05 -0.85 -0.85z"/>
  <path d="M202 829.55 c-10.80 -6.15 -18.70 -11.60 -18.90 -12.95 -0.15 -1 0 -1.15 1 -1 0.65 0.10 1.35 0.65 1.65 1.30 0.25 0.60 0.90 1.10 1.35 1.10 0.50 0 0.90 0.25 0.90 0.50 0 0.30 0.35 0.50 0.75 0.50 0.40 0 0.75 0.25 0.75 0.50 0 0.30 0.35 0.50 0.75 0.50 0.40 0 0.75 0.35 0.75 0.75 0 0.45 0.45 0.75 1.25 0.75 0.70 0 1.25 0.25 1.25 0.50 0 0.30 0.35 0.50 0.75 0.50 0.40 0 0.75 0.25 0.75 0.50 0 0.30 0.35 0.50 0.75 0.50 0.40 0 0.75 0.20 0.75 0.40 0 0.20 0.80 0.70 1.75 1.05 0.95 0.35 1.75 0.95 1.75 1.35 0 0.40 0.45 0.70 0.95 0.70 1.50 0 2.55 0.55 2.55 1.30 0 0.40 0.50 0.70 1.25 0.70 0.90 0 1.25 0.25 1.25 1 0 0.80 0.35 1 1.75 1 1.55 0 1.75 0.15 1.75 1.25 0 0.70 -0.15 1.25 -0.35 1.20 -0.25 0 -3.45 -1.75 -7.15 -3.90z"/>
  <path d="M632.75 829.70 c1.90 -1.65 2 -1.70 2.15 -0.70 0.30 1.90 -0.25 2.50 -2.25 2.50 l-1.90 0 2 -1.80z"/>
  <path d="M910.50 825.80 c0 -1 0.25 -1.80 0.50 -1.80 0.30 0 0.50 -0.35 0.50 -0.75 0 -0.40 0.25 -0.75 0.50 -0.75 0.30 0 0.50 -0.35 0.50 -0.75 0 -0.40 0.35 -0.75 0.75 -0.75 0.40 0 0.75 -0.45 0.75 -1 0 -0.55 0.25 -1 0.50 -1 0.30 0 0.50 -0.35 0.50 -0.75 0 -0.40 0.25 -0.75 0.50 -0.75 0.30 0 0.50 -0.35 0.50 -0.75 0 -0.40 0.25 -0.75 0.50 -0.75 0.30 0 0.50 -0.35 0.50 -0.75 0 -0.40 0.45 -0.75 1 -0.75 0.80 0 1 -0.35 1 -1.50 0 -0.80 0.25 -1.50 0.50 -1.50 0.30 0 0.50 -0.35 0.50 -0.75 0 -0.40 0.25 -0.75 0.50 -0.75 0.30 0 0.50 -0.35 0.50 -0.75 0 -0.40 0.35 -0.75 0.75 -0.75 0.45 0 0.75 -0.45 0.75 -1.25 0 -0.75 0.30 -1.25 0.70 -1.25 0.35 0 0.80 -0.65 1 -1.50 0.20 -1.05 0.55 -1.50 1.30 -1.50 0.75 0 1 -0.35 1 -1.45 0 -2.25 0.50 -3.05 1.80 -3.05 0.65 0 1.20 0.15 1.20 0.30 0 1.20 -16.65 26.85 -18.25 28.20 -0.65 0.55 -0.75 0.35 -0.75 -1.20z"/>
  <path d="M641 821.90 c3.65 -3.45 3.75 -3.55 3.90 -2.25 0.25 2.05 -3.70 5.85 -6 5.85 l-1.65 0 3.75 -3.60z"/>
  <path d="M708 819.35 c0 -1 0.35 -2.10 0.75 -2.55 0.40 -0.40 0.75 -1.20 0.75 -1.75 0 -0.60 0.25 -1.05 0.50 -1.05 0.30 0 0.50 -0.50 0.50 -1.10 0 -1.65 0.70 -2.50 1.90 -2.30 0.95 0.15 0.95 0.35 -1.05 5.10 -2.25 5.35 -3.35 6.55 -3.35 3.65z"/>
  <path d="M648.50 814.75 c0.95 -0.95 1.75 -1.75 1.85 -1.75 0.10 0 0.15 0.80 0.15 1.75 0 1.70 -0.05 1.75 -1.85 1.75 l-1.85 0 1.70 -1.75z"/>
  <path d="M712.50 808.35 c0 -1 0.35 -2.10 0.75 -2.55 0.40 -0.40 0.75 -1.20 0.75 -1.75 0 -0.55 0.35 -1.30 0.75 -1.75 0.40 -0.40 0.75 -1.20 0.75 -1.75 0 -0.60 0.25 -1.05 0.50 -1.05 0.30 0 0.50 -0.55 0.50 -1.20 0 -0.70 0.35 -1.55 0.75 -2 0.40 -0.40 0.75 -1.20 0.75 -1.75 0 -0.80 0.30 -1.05 1.25 -1.05 l1.25 0 -0.85 2.15 c-3 7.50 -6 14.05 -6.55 14.25 -0.40 0.10 -0.60 -0.40 -0.60 -1.55z"/>
  <path d="M660.30 802.75 c1.90 -2.10 3.95 -4.10 4.60 -4.55 1.05 -0.70 1.10 -0.65 1.10 0.65 0 1.65 -2.25 4.15 -3.80 4.15 -0.90 0 -1.15 0.30 -1.30 1.65 -0.15 1.45 -0.30 1.60 -2.10 1.75 l-1.95 0.15 3.45 -3.80z"/>
  <path d="M344.60 800.25 c-0.35 -0.70 -0.60 -1.65 -0.60 -2.05 0 -0.45 -0.35 -1.10 -0.75 -1.50 -0.85 -0.85 -1.05 -4.20 -0.25 -4.20 0.30 0 1.25 1.50 2.05 3.40 2.60 5.70 2.60 5.60 1.25 5.60 -0.75 0 -1.35 -0.45 -1.70 -1.25z"/>
  <path d="M183 791.40 c0 -7.75 0.25 -9.40 1.30 -9.40 0.55 0 0.70 1.55 0.70 8.25 0 7.90 -0.05 8.25 -1 8.25 -0.95 0 -1 -0.35 -1 -7.10z"/>
  <path d="M163.40 789.10 c-9.80 -16.30 -13.60 -23.70 -25.15 -49.60 -2.45 -5.45 -8.65 -20.60 -10.35 -25.25 -3.20 -8.85 -12.40 -40.05 -12.40 -42.10 0 -0.35 0.40 -0.65 0.90 -0.65 0.70 0 1.05 0.65 1.50 2.55 0.35 1.40 0.60 3.05 0.60 3.70 0 0.65 0.20 1.25 0.45 1.35 0.50 0.15 3.55 11.25 3.55 12.85 0 0.50 0.20 1.05 0.40 1.15 0.25 0.10 1.05 2.20 1.80 4.65 2.45 8 8.75 24.75 13.95 37 6 14.05 18.75 40.65 20.20 42.15 0.30 0.35 0.85 1.40 1.20 2.35 0.35 0.95 0.80 1.75 1 1.75 0.20 0 0.65 0.80 1 1.75 0.35 0.95 0.85 1.75 1.05 1.75 0.20 0 0.40 0.55 0.40 1.25 0 0.80 0.30 1.25 0.75 1.25 0.40 0 0.75 0.25 0.75 0.55 0 0.30 0.35 0.85 0.75 1.25 0.40 0.45 0.75 1.30 0.75 2 0 0.75 0.30 1.20 0.75 1.20 0.50 0 0.75 0.55 0.75 1.75 0 0.95 -0.15 1.75 -0.35 1.75 -0.25 0 -2.15 -2.85 -4.25 -6.40z"/>
  <path d="M720 790.30 c0 -1.60 0.15 -1.80 1.25 -1.80 1.20 0 1.25 0.05 0.60 1.60 -0.95 2.30 -1.85 2.40 -1.85 0.20z"/>
  <path d="M339.80 789.35 c-0.45 -1.15 -0.80 -2.50 -0.80 -3 0 -0.45 -0.20 -0.85 -0.50 -0.85 -0.25 0 -0.50 -0.45 -0.50 -1.05 0 -0.55 -0.35 -1.35 -0.75 -1.75 -0.40 -0.45 -0.75 -1.45 -0.75 -2.25 0 -0.80 -0.20 -1.45 -0.50 -1.45 -0.25 0 -0.50 -0.80 -0.50 -1.80 0 -2.95 1.05 -1.75 3.25 3.85 1.15 2.85 2.60 6.40 3.15 7.85 l1.10 2.60 -1.20 0 c-0.90 0 -1.35 -0.45 -2 -2.15z"/>
  <path d="M674.50 788.50 c1.55 -2.20 2 -2.25 2 -0.30 0 1.65 -0.10 1.80 -1.55 1.80 l-1.50 0 1.05 -1.50z"/>
  <path d="M490.40 788.15 c-0.50 -0.10 -0.90 -0.55 -0.90 -0.95 0 -0.60 1.90 -0.70 11.65 -0.75 l11.60 0 -5 -1.50 c-11.40 -3.40 -15.30 -4.65 -21 -6.80 -8.80 -3.30 -18.25 -7.70 -18.25 -8.45 0 -0.40 -0.55 -0.70 -1.25 -0.70 -1.65 0 -7.75 -3.05 -7.75 -3.85 0 -0.35 -0.45 -0.65 -1 -0.65 -1.20 0 -5.50 -2.05 -5.50 -2.60 0 -0.20 -0.45 -0.40 -1 -0.40 -0.55 0 -1 -0.20 -1 -0.40 0 -0.20 -0.80 -0.70 -1.75 -1.05 -0.95 -0.35 -1.75 -0.80 -1.75 -1.05 0 -0.20 -0.55 -0.55 -1.25 -0.70 -0.90 -0.25 -1.25 -0.65 -1.25 -1.55 0 -1.50 0.25 -1.55 2.40 -0.25 2.95 1.80 14.60 8.05 21.10 11.25 14.95 7.50 30.55 13.10 48.75 17.55 3.05 0.70 5.75 1.45 6 1.60 0.65 0.40 -2.80 1.05 -5.70 1.05 -1.50 0.05 -2.40 -0.20 -2.85 -0.80 -0.60 -0.80 -0.65 -0.80 -0.70 -0.10 0 0.45 -0.50 0.95 -1.10 1.15 -1.30 0.35 -21.20 0.30 -22.50 -0.05z"/>
  <path d="M481.90 787.65 c-0.50 -0.10 -0.90 -0.55 -0.90 -0.95 0 -0.55 0.85 -0.70 3.75 -0.70 3.40 0 3.75 0.10 3.75 1 0 0.90 -0.30 1 -2.85 0.95 -1.60 -0.05 -3.30 -0.15 -3.75 -0.30z"/>
  <path d="M471.75 787.15 c-0.80 -0.10 -4.65 -0.50 -8.50 -0.95 -13.55 -1.45 -35.40 -4.60 -41 -5.90 -1.65 -0.40 -5.60 -1.20 -8.75 -1.80 -13.55 -2.55 -32.55 -7.40 -46 -11.70 -16.10 -5.20 -20.40 -6.70 -27.80 -9.60 -15.85 -6.20 -44.20 -19.15 -44.20 -20.20 0 -0.95 3 -0.50 5.65 0.80 1.45 0.75 2.70 1.50 2.75 1.75 0.10 0.25 0.60 0.45 1.15 0.45 0.50 0 0.95 0.35 0.95 0.75 0 0.50 0.55 0.75 1.75 0.75 0.95 0 1.75 0.20 1.75 0.45 0 0.25 0.70 0.60 1.50 0.80 0.85 0.20 1.50 0.65 1.50 1.05 0 0.45 0.50 0.70 1.40 0.70 1.45 0 6.80 2.15 16.40 6.55 7.05 3.20 24.60 9.60 35.70 13 2.90 0.90 5.35 1.75 5.50 1.95 0.15 0.20 0.95 0.45 1.75 0.60 0.85 0.15 6.05 1.50 11.60 3.05 11.10 3.10 12.55 3.40 28.15 6.60 21.75 4.45 42.60 7.55 58.90 8.85 6.80 0.50 7.60 0.70 7.60 1.50 0 0.80 -0.40 0.90 -3.10 0.85 -1.75 -0.05 -3.80 -0.20 -4.65 -0.30z"/>
  <path d="M678.45 784.15 c0.55 -0.80 2.50 -2.95 4.25 -4.90 l3.25 -3.50 0.05 1.80 c0 1.90 -1.20 3.45 -2.65 3.45 -0.55 0 -0.85 0.40 -0.85 1.15 0 1.55 -2 3.35 -3.70 3.35 l-1.35 0 1 -1.35z"/>
  <path d="M183.50 777.40 c0 -3.35 0.45 -4.90 1.30 -4.90 0.55 0 0.70 0.90 0.70 3.75 0 3.40 -0.10 3.75 -1 3.75 -0.85 0 -1 -0.35 -1 -2.60z"/>
  <path d="M725 776.30 c0 -1 0.25 -1.80 0.50 -1.80 0.30 0 0.50 -0.35 0.50 -0.80 0 -1.25 3.10 -10.45 3.60 -10.60 0.20 -0.10 0.40 -0.80 0.40 -1.50 0 -2.35 0.55 -3.60 1.55 -3.60 0.55 0 0.95 0.25 0.95 0.55 0 0.90 -3.80 12.90 -5.10 16.15 -1.40 3.55 -2.40 4.20 -2.40 1.60z"/>
  <path d="M169 773 c0 -2.15 0.15 -2.50 1 -2.50 0.75 0 1 0.35 1 1.40 0 2.10 -0.55 3.60 -1.30 3.60 -0.50 0 -0.70 -0.70 -0.70 -2.50z"/>
  <path d="M334 773.75 c0 -0.70 -0.20 -1.25 -0.50 -1.25 -0.25 0 -0.50 -0.45 -0.50 -1 0 -0.55 -0.35 -1 -0.75 -1 -0.40 0 -0.75 -0.20 -0.75 -0.40 0 -0.20 -1 -0.65 -2.25 -1 -3.30 -0.90 -16.75 -6.65 -16.75 -7.15 0 -0.25 -0.45 -0.45 -1 -0.45 -1.25 0 -7.50 -2.50 -7.50 -3 0 -0.20 -0.65 -0.50 -1.45 -0.65 -0.80 -0.15 -1.80 -0.65 -2.20 -1.10 -0.45 -0.40 -1.15 -0.75 -1.55 -0.75 -0.45 0 -0.80 -0.35 -0.80 -0.75 0 -0.50 -0.50 -0.75 -1.35 -0.75 -1.95 0 -2.75 -0.65 -2.55 -1.95 0.15 -1.05 0.40 -1 6.15 1.85 5.25 2.55 27.25 12.10 27.95 12.10 0.55 0 5.75 2.50 6 2.90 0.15 0.20 0.70 1.55 1.25 3 l1.05 2.60 -1.25 0 c-1 0 -1.25 -0.25 -1.25 -1.25z"/>
  <path d="M688 773.65 c0.40 -0.50 2.40 -2.80 4.50 -5.10 2.05 -2.30 4.35 -4.90 5.10 -5.75 l1.35 -1.55 0.05 1.90 c0 1.65 -0.15 1.85 -1.25 1.85 -1 0 -1.25 0.25 -1.25 1.35 0 1.80 -2.30 4.15 -4.05 4.15 -1.25 0 -1.40 0.20 -1.55 1.90 -0.15 1.70 -0.30 1.85 -1.85 2 -1.60 0.15 -1.70 0.10 -1.05 -0.75z"/>
  <path d="M184 768.65 c0 -2.65 0.50 -4.15 1.30 -4.15 0.50 0 0.70 0.80 0.70 3 0 2.65 -0.10 3 -1 3 -0.80 0 -1 -0.35 -1 -1.85z"/>
  <path d="M169.50 767.25 c0 -1.90 0.15 -2.25 1 -2.25 1.05 0 1.30 1.15 0.70 3.40 -0.55 2.05 -1.70 1.30 -1.70 -1.15z"/>
  <path d="M170 762.60 c0 -1.10 0.15 -3.65 0.30 -5.75 0.30 -3.35 0.45 -3.85 1.30 -3.85 0.95 0 0.95 0.25 0.65 4.40 -0.40 5.80 -0.70 7.10 -1.55 7.10 -0.50 0 -0.70 -0.60 -0.70 -1.90z"/>
  <path d="M184.75 758.65 c0.35 -5.55 2.70 -24.85 4 -32.90 0.40 -2.45 1.05 -6.85 1.50 -9.75 0.50 -2.90 1.30 -7.45 1.80 -10.15 0.50 -2.70 0.95 -5 0.95 -5.15 0 -0.10 0.35 -0.20 0.75 -0.20 1 0 0.95 0.80 -0.50 9.40 -3.50 20.10 -6.75 45.05 -6.75 51.75 0 2.05 -0.15 2.35 -1.05 2.35 -1.05 0 -1.05 -0.10 -0.70 -5.35z"/>
  <path d="M701.55 757.90 c0.60 -0.85 2.50 -3.20 4.15 -5.15 8.75 -10.45 14.60 -17.75 22.20 -27.90 2.85 -3.75 5.25 -6.85 5.35 -6.85 0.15 0 0.25 0.80 0.25 1.75 0 1.20 -0.25 1.75 -0.75 1.75 -0.40 0 -0.75 0.45 -0.75 1 0 0.55 -0.20 1 -0.50 1 -0.25 0 -0.50 0.35 -0.50 0.75 0 0.40 -0.35 0.75 -0.75 0.75 -0.40 0 -0.75 0.45 -0.75 1 0 0.65 -0.35 1 -1 1 -0.75 0 -1 0.35 -1 1.25 0 0.70 -0.20 1.25 -0.45 1.25 -0.25 0 -0.55 0.45 -0.70 1 -0.15 0.55 -0.60 1 -1.05 1 -0.45 0 -0.80 0.40 -0.80 1 0 0.55 -0.35 1 -0.75 1 -0.45 0 -0.75 0.45 -0.75 1.05 0 0.60 -0.40 1.15 -1 1.30 -0.55 0.15 -1 0.70 -1 1.20 0 0.55 -0.30 0.95 -0.70 0.95 -0.40 0 -0.80 0.50 -0.90 1.15 -0.10 0.70 -0.55 1.15 -1.25 1.25 -0.85 0.15 -1.15 0.50 -1.15 1.40 0 0.70 -0.35 1.35 -0.75 1.50 -0.40 0.20 -0.75 0.60 -0.75 1 0 0.40 -0.45 0.70 -1 0.70 -0.75 0 -1 0.35 -1 1.20 0 0.70 -0.50 1.65 -1.15 2.15 -0.65 0.50 -1.30 1.30 -1.50 1.80 -0.15 0.45 -0.80 0.85 -1.35 0.85 -0.70 0 -1 0.35 -1 1.15 0 1.40 -0.85 2.35 -2.10 2.35 -0.65 0 -0.90 0.40 -0.90 1.30 0 0.85 -0.30 1.40 -1 1.55 -0.55 0.15 -1 0.70 -1 1.20 0 0.75 -0.35 0.95 -1.55 0.95 l-1.50 0 1.10 -1.60z"/>
  <path d="M441 755 c0 -0.25 -0.30 -0.50 -0.70 -0.50 -0.40 0 -1.05 -0.30 -1.40 -0.65 -0.35 -0.35 -1.05 -0.80 -1.50 -1 -0.50 -0.15 -0.90 -0.80 -0.90 -1.35 0 -0.80 -0.35 -1 -1.50 -1 -1.35 0 -1.50 -0.15 -1.50 -1.45 l0 -1.50 5.50 3.60 c3 2 5.45 3.75 5.50 4 0 0.20 -0.80 0.35 -1.75 0.35 -0.95 0 -1.75 -0.20 -1.75 -0.50z"/>
  <path d="M732.50 753.25 c0 -2.55 1.15 -5.75 2.10 -5.75 1.10 0 1.10 0.40 0.10 4.10 -0.85 3 -2.20 4 -2.20 1.65z"/>
  <path d="M171 749.90 c0 -0.65 0.25 -3.55 0.60 -6.50 0.50 -4.70 0.70 -5.40 1.50 -5.40 0.50 0 0.90 0.15 0.90 0.40 0 0.65 -1 9.30 -1.30 11 -0.30 1.85 -1.70 2.25 -1.70 0.50z"/>
  <path d="M287 749.20 c0 -0.70 0.15 -1.20 0.40 -1.10 3.65 1.75 4 2.40 1.35 2.40 -1.55 0 -1.75 -0.15 -1.75 -1.30z"/>
  <path d="M734.50 745.65 c0 -2.40 0.55 -3.65 1.55 -3.65 1.10 0 1.15 0.45 0.35 3.05 -0.65 2.25 -1.90 2.65 -1.90 0.60z"/>
  <path d="M279 746.05 c0 -0.25 -0.65 -0.55 -1.50 -0.70 -1.05 -0.25 -1.50 -0.60 -1.50 -1.35 0 -0.80 -0.35 -1 -1.75 -1 -1.55 0 -1.75 -0.15 -1.75 -1.25 0 -0.70 0.10 -1.25 0.20 -1.25 0.65 0 9.80 5.25 9.80 5.60 0 0.20 -0.80 0.40 -1.75 0.40 -0.95 0 -1.75 -0.20 -1.75 -0.45z"/>
  <path d="M428 745.25 c0 -1.10 -0.20 -1.25 -1.75 -1.25 -1.60 0 -1.75 -0.10 -1.75 -1.55 l0 -1.55 2.65 1.90 c1.40 1 3.05 2.30 3.60 2.80 0.95 0.90 0.95 0.90 -0.90 0.90 -1.65 0 -1.85 -0.15 -1.85 -1.25z"/>
  <path d="M736 740.30 c0 -0.70 0.75 -4.25 1.70 -7.90 2 -7.80 5.30 -22.90 5.30 -24.35 0 -0.60 -0.40 -1.05 -1 -1.15 -1 -0.15 -0.95 -0.25 0.45 -1.90 l1.50 -1.75 0.05 1.60 c0 0.85 0.25 1.65 0.60 1.75 0.65 0.25 -0.35 6.30 -2.90 17.65 -2.80 12.20 -4.25 17.25 -5 17.25 -0.40 0 -0.70 -0.55 -0.70 -1.20z"/>
  <path d="M268 739.75 c0 -0.45 -0.45 -0.75 -1.25 -0.75 -0.80 0 -1.25 -0.30 -1.25 -0.75 0 -0.40 -0.45 -0.75 -0.95 -0.75 -1.50 0 -2.55 -0.55 -2.55 -1.30 0 -0.40 -0.50 -0.70 -1.25 -0.70 -0.80 0 -1.25 -0.30 -1.25 -0.75 0 -0.45 -0.45 -0.75 -1.25 -0.75 -1.05 0 -1.25 -0.25 -1.25 -1.45 l0 -1.45 7.25 4.35 c4 2.35 7.25 4.45 7.25 4.65 0 0.25 -0.80 0.40 -1.75 0.40 -1.20 0 -1.75 -0.25 -1.75 -0.75z"/>
  <path d="M418 738.25 c0 -0.40 -0.45 -0.75 -1 -0.75 -0.55 0 -1 -0.20 -1 -0.50 0 -0.25 -0.35 -0.50 -0.75 -0.50 -0.40 0 -0.75 -0.45 -0.75 -1 0 -0.75 -0.35 -1 -1.25 -1 -0.80 0 -1.25 -0.30 -1.25 -0.75 0 -0.40 -0.45 -0.75 -1 -0.75 -0.80 0 -1 -0.35 -1 -1.55 0 -1.20 0.15 -1.45 0.65 -1.10 0.30 0.30 2.90 2.25 5.75 4.35 2.80 2.10 5.10 3.95 5.10 4.10 0 0.10 -0.80 0.20 -1.75 0.20 -1.20 0 -1.75 -0.25 -1.75 -0.75z"/>
  <path d="M172.50 735.90 c0 -4 2.85 -23.30 5.50 -37.40 1.10 -5.90 2.35 -12.95 2.85 -15.60 0.70 -4.25 0.95 -4.90 1.75 -4.90 0.90 0 0.95 0.25 0.65 2.15 -0.40 2.60 -4.70 26.25 -5 27.60 -0.30 1.20 -1.85 12.05 -3 20.50 -1.20 9.10 -1.25 9.25 -2 9.25 -0.50 0 -0.75 -0.55 -0.75 -1.60z"/>
  <path d="M290.40 734.85 c-1.60 -0.85 -2.90 -1.75 -2.90 -1.95 0 -0.20 0.80 -0.40 1.75 -0.40 1.20 0 1.75 0.25 1.75 0.75 0 0.50 0.50 0.75 1.50 0.75 1.25 0 1.50 0.20 1.50 1.25 0 1.55 -0.10 1.55 -3.60 -0.40z"/>
  <path d="M280.65 729.70 c-2.15 -1.05 -2.10 -1.70 0.10 -1.70 1.55 0 1.75 0.15 1.75 1.25 0 0.70 -0.05 1.25 -0.10 1.25 -0.10 0 -0.90 -0.40 -1.75 -0.80z"/>
  <path d="M405.50 728.75 c0 -0.40 -0.45 -0.75 -1 -0.75 -0.55 0 -1 -0.35 -1 -0.75 0 -0.40 -0.45 -0.75 -1 -0.75 -0.65 0 -1 -0.35 -1 -1 0 -0.75 -0.35 -1 -1.25 -1 -0.70 0 -1.25 -0.20 -1.25 -0.50 0 -0.25 -0.35 -0.50 -0.75 -0.50 -0.40 0 -0.75 -0.45 -0.75 -1 0 -0.75 -0.35 -1 -1.25 -1 -1.05 0 -1.25 -0.25 -1.25 -1.55 0 -1.35 0.10 -1.45 0.90 -0.85 3.70 2.65 12.70 9.65 12.90 9.95 0.15 0.25 -0.55 0.45 -1.50 0.45 -1.25 0 -1.80 -0.20 -1.80 -0.75z"/>
  <path d="M247.50 726.75 c0 -1.50 0.15 -1.50 2.05 -0.40 1.90 1.15 1.85 1.65 -0.30 1.65 -1.55 0 -1.75 -0.15 -1.75 -1.25z"/>
  <path d="M243.50 724 l0 -1.50 1.75 1.10 c2.20 1.45 2.20 1.90 0 1.90 -1.60 0 -1.75 -0.10 -1.75 -1.50z"/>
  <path d="M269.65 723.60 c-1.75 -1 -3.15 -2 -3.15 -2.20 0 -0.20 0.80 -0.40 1.75 -0.40 1.40 0 1.75 0.20 1.75 1 0 0.80 0.35 1 1.75 1 1.55 0 1.75 0.15 1.75 1.25 0 0.70 -0.15 1.25 -0.35 1.25 -0.25 -0.05 -1.80 -0.85 -3.50 -1.90z"/>
  <path d="M239 721.75 c0 -0.45 -0.45 -0.75 -1.25 -0.75 -1.05 0 -1.25 -0.25 -1.25 -1.50 l0 -1.45 3 1.85 c1.65 1 3 2 3 2.25 0 0.20 -0.80 0.35 -1.75 0.35 -1.20 0 -1.75 -0.25 -1.75 -0.75z"/>
  <path d="M261.90 719.10 c-1.85 -1.10 -1.75 -1.60 0.35 -1.60 1.55 0 1.75 0.15 1.75 1.25 0 1.45 -0.30 1.50 -2.10 0.35z"/>
  <path d="M256 715.40 c-10.50 -6.70 -15 -9.70 -15 -10 0 -0.25 0.80 -0.40 1.75 -0.40 0.95 0 1.75 0.25 1.75 0.50 0 0.30 0.35 0.50 0.75 0.50 0.40 0 0.75 0.25 0.75 0.50 0 0.30 0.35 0.50 0.75 0.50 0.40 0 0.75 0.25 0.75 0.50 0 0.30 0.35 0.50 0.75 0.50 0.40 0 0.75 0.45 0.75 1 0 0.75 0.35 1 1.30 1 1.80 0 3.20 0.85 3.20 2 0 0.80 0.35 1 1.75 1 1.40 0 1.75 0.20 1.75 1 0 0.80 0.35 1 1.50 1 1.25 0 1.50 0.20 1.50 1.25 0 0.70 -0.15 1.25 -0.35 1.25 -0.25 0 -1.85 -0.95 -3.65 -2.10z"/>
  <path d="M390 715.95 l0 -1.50 1.50 1.05 c2.20 1.55 2.25 2 0.30 2 -1.65 0 -1.80 -0.10 -1.80 -1.55z"/>
  <path d="M735.50 714.50 c1.55 -2.20 2 -2.25 2 -0.30 0 1.65 -0.10 1.80 -1.55 1.80 l-1.50 0 1.05 -1.50z"/>
  <path d="M224.20 712.25 c-0.20 -0.40 -0.60 -0.75 -1 -0.75 -0.40 0 -0.70 -0.35 -0.70 -0.75 0 -0.40 -0.45 -0.75 -1 -0.75 -0.55 0 -1 -0.20 -1 -0.50 0 -0.25 -0.35 -0.50 -0.75 -0.50 -0.40 0 -0.75 -0.20 -0.75 -0.50 0 -0.25 -0.35 -0.50 -0.75 -0.50 -0.40 0 -0.75 -0.35 -0.75 -0.75 0 -0.40 -0.45 -0.75 -1 -0.75 -0.55 0 -1 -0.20 -1 -0.50 0 -0.25 -0.35 -0.50 -0.75 -0.50 -0.40 0 -0.75 -0.35 -0.75 -0.75 0 -0.40 -0.45 -0.75 -1 -0.75 -0.55 0 -1 -0.35 -1 -0.75 0 -0.40 -0.45 -0.75 -1 -0.75 -0.80 0 -1 -0.35 -1 -1.55 l0 -1.55 2.15 1.60 c1.15 0.85 5.20 3.75 8.95 6.40 3.80 2.65 6.90 5 6.90 5.25 0 0.70 -3.55 0.35 -3.80 -0.40z"/>
  <path d="M384.15 712 c-0.15 -0.55 -0.70 -1 -1.20 -1 -0.65 0 -0.95 -0.35 -0.95 -1.20 0 -1.05 -0.30 -1.25 -1.60 -1.40 -1.25 -0.10 -1.70 -0.40 -1.80 -1.25 -0.10 -0.75 -0.55 -1.15 -1.50 -1.25 -1.05 -0.10 -1.40 -0.45 -1.50 -1.50 -0.15 -1.20 -0.40 -1.40 -1.65 -1.40 -1.30 0 -1.45 -0.15 -1.45 -1.55 0 -1.35 0.10 -1.45 0.90 -0.85 1.05 0.75 10.90 8.90 13.30 11 l1.55 1.35 -1.90 0.05 c-1.55 0 -2 -0.20 -2.20 -1z"/>
  <path d="M232.25 699.40 c-7.25 -5.15 -17.75 -13.05 -23.50 -17.65 -2.75 -2.20 -5.75 -4.55 -6.65 -5.15 -2.10 -1.55 -2.75 -2.85 -2.35 -4.90 0.35 -1.90 1.75 -2.40 1.75 -0.55 0 1.90 0.60 3.35 1.30 3.35 0.40 0 0.70 0.25 0.70 0.50 0 0.30 0.35 0.50 0.75 0.50 0.40 0 0.75 0.45 0.75 0.95 0 0.70 0.40 1.05 1.40 1.15 0.95 0.10 1.40 0.45 1.50 1.30 0.15 0.80 0.50 1.10 1.40 1.10 0.65 0 1.20 0.20 1.20 0.45 0 0.25 0.45 0.55 1.05 0.70 0.55 0.15 1.15 0.75 1.30 1.30 0.15 0.60 0.70 1.05 1.20 1.05 0.55 0 0.95 0.25 0.95 0.50 0 0.30 0.35 0.50 0.75 0.50 0.40 0 1 0.45 1.35 1 0.35 0.55 0.90 1 1.25 1 0.35 0 0.65 0.45 0.65 1 0 0.75 0.35 1 1.25 1 0.70 0 1.25 0.25 1.25 0.50 0 0.30 0.35 0.50 0.75 0.50 0.40 0 0.75 0.35 0.75 0.75 0 0.40 0.45 0.75 1 0.75 0.55 0 1.15 0.35 1.30 0.75 0.20 0.40 0.60 0.75 1 0.75 0.40 0 0.70 0.20 0.70 0.45 0 0.25 0.45 0.55 1 0.70 0.55 0.15 1 0.60 1 1.05 0 0.45 0.40 0.80 1 0.80 0.55 0 1.45 0.45 2 1 0.55 0.55 1.25 1 1.50 1 0.30 0 0.50 0.25 0.50 0.50 0 0.30 0.35 0.50 0.75 0.50 0.40 0 0.75 0.35 0.75 0.75 0 0.40 0.45 0.75 1 0.75 0.80 0 1 0.35 1 1.50 0 0.85 -0.05 1.50 -0.10 1.45 -0.10 0 -2.40 -1.60 -5.15 -3.55z"/>
  <path d="M193.50 698.50 c0 -1.85 1.20 -5.50 1.80 -5.50 0.75 0 0.85 1.15 0.40 4.15 -0.25 1.35 -0.55 1.85 -1.25 1.85 -0.55 0 -0.95 -0.20 -0.95 -0.50z"/>
  <path d="M366.50 696.45 l0 -1.50 1.50 1.05 c2.20 1.55 2.25 2 0.30 2 -1.65 0 -1.80 -0.10 -1.80 -1.55z"/>
  <path d="M195 690.60 c0 -0.50 0.30 -1.30 0.65 -1.80 0.60 -0.80 0.70 -0.80 1.55 0.15 0.55 0.60 0.70 1.05 0.40 1.05 -0.35 0 -0.60 0.35 -0.60 0.75 0 0.40 -0.45 0.75 -1 0.75 -0.65 0 -1 -0.35 -1 -0.90z"/>
  <path d="M357.10 689.35 c-0.60 -0.65 -1.10 -1.45 -1.10 -1.75 0 -0.35 -0.40 -0.60 -0.90 -0.60 -1 0 -4.60 -3.45 -4.60 -4.40 0 -0.35 -0.40 -0.60 -0.90 -0.60 -1.10 0 -3.60 -2.50 -3.60 -3.60 0 -0.55 -0.50 -0.90 -1.35 -1 -0.85 -0.10 -1.60 -0.60 -1.90 -1.25 -0.25 -0.65 -0.75 -1.15 -1.10 -1.15 -0.35 0 -0.65 -0.45 -0.65 -1 0 -0.70 -0.35 -1 -1.15 -1 -1.55 0 -3.35 -2 -3.35 -3.70 0 -1.70 0.15 -1.60 6.05 3.75 2.30 2.10 7.50 6.80 11.60 10.45 4.05 3.65 7.35 6.70 7.35 6.80 0 0.10 -0.75 0.20 -1.65 0.20 -1.10 0 -2.05 -0.40 -2.75 -1.15z"/>
  <path d="M366.80 677.85 c-3 -2.50 -8.20 -7.20 -11.55 -10.35 -3.30 -3.15 -8.15 -7.65 -10.75 -9.95 -5.55 -4.95 -31.85 -30.40 -37.70 -36.50 -2.25 -2.30 -5.80 -5.90 -8 -8 -7.95 -7.70 -20.60 -21.65 -29.40 -32.55 -1.20 -1.45 -2.95 -3.60 -3.90 -4.80 -20.25 -24.65 -32.50 -41.20 -43.30 -58.60 -4.40 -7.15 -5.65 -9.05 -12.80 -20.10 -3.60 -5.55 -11.10 -18.45 -13.40 -22.95 l-1.10 -2.20 2.95 -3 c3.15 -3.25 12.85 -11.50 17.50 -14.90 1.60 -1.20 4.95 -3.85 7.50 -5.90 2.50 -2.10 5.85 -4.70 7.40 -5.80 1.55 -1.10 3.55 -2.65 4.40 -3.45 0.90 -0.75 2.15 -1.75 2.85 -2.20 0.70 -0.45 2.60 -1.85 4.25 -3.10 8.35 -6.45 30.60 -20.35 31.35 -19.60 0.20 0.20 1.15 5.10 2.10 10.85 1 5.80 2.90 16.15 4.25 23 1.40 6.90 2.75 13.85 3.05 15.50 0.75 3.95 5.30 22.70 6.45 26.50 0.50 1.65 1.30 4.45 1.80 6.25 1.45 5.30 7.10 23.40 11.50 36.75 5.15 15.50 9.90 27.90 17.65 45.50 0.95 2.20 2.60 6.15 3.60 8.75 3.50 8.85 17 36.85 23.40 48.50 4.30 7.90 8.80 16.15 11.95 22 1 1.80 3 5.20 4.45 7.65 2.55 4.10 9.70 16.80 9.70 17.20 0 0.60 -1.40 -0.40 -6.20 -4.50z"/>
  <path d="M201 666.90 c0 -0.35 0.80 -3.50 1.80 -7 1.30 -4.55 2.05 -6.40 2.60 -6.40 0.60 0 0.70 0.50 0.45 2.35 -0.15 1.30 -0.50 2.45 -0.80 2.55 -0.30 0.10 -0.55 0.75 -0.55 1.45 0 0.65 -0.40 2.70 -0.85 4.45 -0.65 2.40 -1.10 3.20 -1.75 3.20 -0.50 0 -0.90 -0.25 -0.90 -0.60z"/>
  <path d="M113.60 664.65 c-2.20 -7.35 -5.40 -25.25 -8.35 -46.30 -1.50 -10.60 -1.45 -9.85 -0.35 -9.85 0.70 0 1 1 1.75 6.65 1.90 13.60 3.55 23.45 5.95 35.35 3.10 15.10 3.25 16 2.30 16 -0.40 0 -1 -0.85 -1.30 -1.85z"/>
  <path d="M330.05 664.80 c-1.20 -1.25 -1.60 -2.05 -1.45 -3.10 l0.15 -1.40 3.25 3.05 3.25 3.10 -1.80 0.05 c-1.35 0 -2.10 -0.40 -3.40 -1.70z"/>
  <path d="M186.25 663 c-3.40 -2.20 -37.70 -36.60 -44.85 -44.90 -4.10 -4.80 -8.15 -9.40 -8.95 -10.25 -1.65 -1.80 -9.95 -11.55 -12.20 -14.35 -0.80 -1.05 -3.30 -4 -5.50 -6.55 -2.15 -2.60 -5.15 -6.10 -6.60 -7.80 -4.10 -4.85 -4.15 -4.45 2.65 -13.45 3.30 -4.25 7.25 -9.50 8.85 -11.60 4.65 -6.15 13.40 -17.05 15.95 -19.85 1.25 -1.40 4.30 -5.05 6.75 -8.10 4.05 -5.10 12.45 -14.15 24.15 -26.15 2.60 -2.65 7.75 -7.90 11.40 -11.70 3.90 -4 7 -6.80 7.55 -6.80 0.70 0 2.10 2 5.35 7.90 7.95 14.30 14.30 24.70 21.25 34.85 2.40 3.60 6.65 9.75 9.30 13.70 2.70 3.95 5.95 8.45 7.20 10 4.10 5 4.35 3.45 -2.95 18.20 -8.15 16.50 -9.85 20 -11.40 24.20 -0.70 1.85 -1.80 4.50 -2.45 5.90 -5.80 12.30 -17.15 44 -21.30 59.45 -1.10 4.15 -2.15 7.70 -2.35 7.90 -0.20 0.20 -1.05 -0.05 -1.85 -0.60z"/>
  <path d="M322.60 657.90 c-0.35 -0.35 -0.60 -0.90 -0.60 -1.25 0 -0.35 -0.35 -0.65 -0.75 -0.65 -0.50 0 -0.75 -0.50 -0.75 -1.55 0 -1.80 -0.05 -1.80 3.95 1.90 l2.30 2.15 -1.75 0 c-1 0 -2.05 -0.25 -2.40 -0.60z"/>
  <path d="M205.50 650.90 c0 -0.35 0.70 -2.85 1.60 -5.50 1.65 -5.10 2.90 -6.45 2.90 -3.15 0 0.95 -0.20 1.75 -0.45 1.75 -0.25 0 -0.60 1 -0.75 2.25 -0.20 1.25 -0.55 2.25 -0.85 2.25 -0.25 0 -0.45 0.70 -0.45 1.50 0 1.15 -0.20 1.50 -1 1.50 -0.55 0 -1 -0.30 -1 -0.60z"/>
  <path d="M313.80 649.55 c-0.50 -0.55 -0.80 -1.55 -0.70 -2.35 l0.15 -1.35 2.50 2.30 2.50 2.30 -1.80 0.05 c-1.15 0 -2.10 -0.35 -2.65 -0.95z"/>
  <path d="M210.50 635.40 c5.95 -17.30 14.50 -38.40 15.50 -38.40 0.25 0 0.50 0.80 0.50 1.75 0 1.20 -0.25 1.75 -0.75 1.75 -0.50 0 -0.75 0.50 -0.75 1.70 0 0.95 -0.35 2.05 -0.75 2.50 -0.40 0.40 -0.75 1.20 -0.75 1.75 0 0.60 -0.20 1.05 -0.45 1.05 -0.25 0 -0.55 0.90 -0.75 2 -0.20 1.30 -0.55 2 -1.05 2 -0.50 0 -0.75 0.55 -0.75 1.75 0 0.95 -0.20 1.75 -0.50 1.75 -0.25 0 -0.50 0.55 -0.50 1.25 0 0.70 -0.20 1.25 -0.50 1.25 -0.25 0 -0.50 0.40 -0.50 0.90 0 1 -2.55 8.25 -3 8.60 -0.20 0.15 -0.50 1.10 -0.70 2.15 -0.20 1 -0.55 1.85 -0.80 1.85 -0.30 0 -0.50 0.40 -0.50 0.85 0 0.45 -0.50 2.35 -1.10 4.25 -0.90 2.85 -1.25 3.40 -2.20 3.40 l-1.15 0 1.45 -4.10z"/>
  <path d="M298.15 633.85 c-1.20 -1.20 -2.15 -2.40 -2.15 -2.70 0 -0.30 -0.45 -0.65 -1 -0.80 -0.80 -0.20 -1 -0.70 -1 -2.15 l0 -1.90 3.55 3.45 c1.95 1.95 3.95 4.10 4.50 4.90 l1 1.35 -1.40 0 c-1 0 -2 -0.65 -3.50 -2.15z"/>
  <path d="M136 632.70 c0 -1.95 0.45 -1.90 2 0.30 l1.05 1.50 -1.50 0 c-1.45 0 -1.55 -0.15 -1.55 -1.80z"/>
  <path d="M287.60 622.85 c-0.70 -0.70 -1.10 -1.80 -1.10 -2.85 l0 -1.70 1.55 1.50 c0.85 0.80 2 2.05 2.55 2.85 l0.95 1.35 -1.45 0 c-0.85 0 -1.85 -0.45 -2.50 -1.15z"/>
  <path d="M125.60 622.90 c-0.35 -0.35 -0.60 -1.40 -0.60 -2.35 0 -1.70 0 -1.70 1.05 -0.75 0.60 0.50 1.50 1.55 2.05 2.35 l0.95 1.35 -1.40 0 c-0.80 0 -1.70 -0.25 -2.05 -0.60z"/>
  <path d="M283 616.20 c0 -1.95 0.45 -1.90 2 0.30 l1.05 1.50 -1.50 0 c-1.45 0 -1.55 -0.15 -1.55 -1.80z"/>
  <path d="M277.85 612.10 c-0.80 -0.80 -1.35 -1.95 -1.35 -2.75 0 -1.10 -0.25 -1.35 -1.15 -1.35 -1.35 0 -7.85 -6.85 -7.85 -8.20 0 -0.45 -0.30 -0.80 -0.65 -0.80 -1.15 0 -3.35 -2.75 -3.35 -4.15 0 -1.10 -0.25 -1.35 -1.15 -1.35 -1.30 0 -2.85 -1.40 -2.85 -2.55 0 -0.40 -0.50 -0.95 -1.10 -1.20 -0.65 -0.30 -1.20 -0.95 -1.30 -1.50 -0.10 -0.55 -0.65 -1.25 -1.25 -1.50 -0.60 -0.30 -1.15 -0.95 -1.25 -1.50 -0.10 -0.55 -0.60 -1.25 -1.20 -1.50 -0.60 -0.30 -1.30 -0.95 -1.60 -1.50 -0.30 -0.55 -0.95 -1.30 -1.40 -1.65 -0.50 -0.35 -0.90 -1.10 -0.90 -1.65 0 -0.50 -0.35 -0.95 -0.75 -0.95 -0.45 0 -0.95 -0.40 -1.10 -0.85 -0.20 -0.50 -0.75 -1.20 -1.25 -1.55 -0.50 -0.35 -0.90 -1.10 -0.90 -1.65 0 -0.50 -0.35 -0.95 -0.75 -0.95 -0.40 0 -0.75 -0.40 -0.75 -0.95 0 -0.50 -0.45 -1.05 -1 -1.20 -0.70 -0.15 -1 -0.70 -1 -1.55 0 -0.80 -0.30 -1.30 -0.75 -1.30 -0.40 0 -0.75 0.45 -0.75 1 0 0.55 -0.85 2.65 -1.85 4.75 -1.50 3 -2.10 3.75 -3 3.75 -1 0 -1.05 -0.15 -0.65 -1.20 0.85 -2.30 3.90 -8.05 4.90 -9.30 1.25 -1.55 1.40 -1.40 6.55 5 6.55 8.25 16.10 19.55 21.55 25.55 6.95 7.70 12.60 14 13.45 15.10 0.60 0.75 0.55 0.85 -0.80 0.85 -0.95 0 -1.95 -0.50 -2.80 -1.40z"/>
  <path d="M103.80 606.90 c-0.55 -2.10 -0.35 -2.90 0.70 -2.90 0.85 0 1 0.35 1 2 0 2.25 -1.15 2.85 -1.70 0.90z"/>
  <path d="M227.15 593.40 c0.95 -2.30 1.85 -2.40 1.85 -0.20 0 1.60 -0.15 1.80 -1.25 1.80 -1.20 0 -1.25 -0.05 -0.60 -1.60z"/>
  <path d="M228.85 589.65 c1.05 -2.95 5.15 -11.15 5.60 -11.15 1 0 0.55 2.95 -0.80 5.75 -0.75 1.50 -1.65 2.75 -2 2.75 -0.40 0 -0.65 0.65 -0.65 1.75 0 1.55 -0.15 1.75 -1.25 1.75 -0.95 0 -1.15 -0.20 -0.90 -0.85z"/>
  <path d="M760.65 421.15 c-1.15 -3.80 -2.50 -8.30 -3.05 -10 l-1 -3.15 1.20 0 c1.05 0 1.20 0.25 1.20 1.75 0 0.95 0.25 1.75 0.50 1.75 0.30 0 0.50 0.70 0.50 1.50 0 0.85 0.20 1.50 0.40 1.50 0.55 0 3.60 10.45 3.60 12.20 0 0.75 -0.30 1.30 -0.65 1.30 -0.45 0 -1.40 -2.50 -2.70 -6.85z"/>
  <path d="M773.50 423.75 c0 -1.10 0.20 -1.25 1.75 -1.25 2.15 0 2.20 0.50 0.30 1.65 -1.90 1.10 -2.05 1.10 -2.05 -0.40z"/>
  <path d="M778 421.25 c0 -1 0.25 -1.25 1.25 -1.25 0.75 0 1.25 -0.30 1.25 -0.70 0 -0.35 0.75 -1 1.65 -1.35 0.85 -0.35 1.90 -0.95 2.25 -1.30 0.35 -0.35 1.20 -0.65 1.90 -0.65 0.70 0 1.20 -0.30 1.20 -0.70 0 -0.40 0.35 -0.85 0.80 -1 1.15 -0.45 3.70 -0.35 3.70 0.10 0 0.35 -13.10 8.10 -13.70 8.10 -0.15 0 -0.30 -0.55 -0.30 -1.25z"/>
  <path d="M793.50 412.30 c0 -1.30 0.80 -1.80 3.05 -1.80 2 0 1.80 0.60 -0.50 1.90 -2.40 1.35 -2.55 1.35 -2.55 -0.10z"/>
  <path d="M740.35 408.45 c-1.30 -1.70 -1.30 -1.70 -0.25 -1.85 0.60 -0.10 0.85 -0.35 0.55 -0.50 -0.70 -0.50 -4.15 -10.45 -4.15 -12.15 0 -0.80 0.25 -1.45 0.55 -1.45 0.65 0 1.40 1.80 4.20 10 1.60 4.75 2 6.50 1.50 6.50 -0.35 0 -0.75 0.25 -0.85 0.60 -0.10 0.30 -0.80 -0.20 -1.55 -1.15z"/>
  <path d="M755.65 405.40 c-0.30 -0.90 -1.80 -5.20 -3.35 -9.50 -2.70 -7.75 -2.75 -7.90 -1.65 -7.90 1 0 1.30 0.50 2.25 3.40 0.60 1.90 1.10 3.80 1.10 4.25 0 0.45 0.20 0.85 0.40 0.85 0.45 0 2.10 4.85 2.10 6.15 0 0.50 0.25 0.85 0.50 0.85 0.30 0 0.50 0.80 0.50 1.75 0 2.25 -1.15 2.35 -1.85 0.15z"/>
  <path d="M727 394.45 c-5.75 -5.75 -12.65 -12.10 -16.85 -15.40 -3.95 -3.15 -7.15 -5.75 -7.15 -5.85 0 -0.10 0.80 -0.20 1.75 -0.20 1.20 0 1.75 0.25 1.75 0.75 0 0.40 0.45 0.75 1 0.75 0.65 0 1 0.35 1 1 0 0.75 0.35 1 1.30 1 0.85 0 1.40 0.30 1.55 1 0.15 0.55 0.70 1 1.25 1 0.55 0 1.10 0.40 1.25 0.95 0.15 0.55 0.75 1.05 1.35 1.15 0.75 0.10 1.10 0.55 1.20 1.55 0.15 1.10 0.40 1.35 1.55 1.35 1.75 0 2.55 0.85 2.55 2.60 0 1.25 0.20 1.40 1.65 1.40 1.40 0 2.30 0.65 6.25 4.65 3.55 3.55 4.60 4.95 4.60 6 0 1.05 0.25 1.35 1.15 1.35 1.50 0 2.95 1.75 2.75 3.40 -0.15 1.25 -1 0.50 -9.90 -8.45z"/>
  <path d="M835.50 388.25 c0 -1.10 0.20 -1.25 1.75 -1.25 2.15 0 2.20 0.50 0.30 1.65 -1.90 1.10 -2.05 1.10 -2.05 -0.40z"/>
  <path d="M748.70 385.75 c-0.35 -0.95 -0.70 -1.85 -0.70 -2 0 -0.60 -6.30 -16 -11.25 -27.50 -8 -18.50 -12.65 -28.25 -21.65 -45.45 -4.55 -8.65 -5.60 -11 -5.05 -11.35 1 -0.65 1.35 -0.55 1.60 0.45 0.20 0.70 0.25 0.75 0.30 0.05 0.05 -1 1.50 -1.45 4.45 -1.45 1.75 0 2.10 0.15 2.10 1 0 0.90 -0.35 1 -3 1 -1.65 0 -3 0.15 -3 0.30 0 0.20 1.10 2.25 2.45 4.65 3.35 6 11.05 21.50 11.05 22.30 0 0.35 0.15 0.75 0.40 0.85 0.55 0.20 6.60 13.25 6.60 14.20 0 0.40 0.35 1.10 0.75 1.50 0.40 0.45 0.75 1.20 0.75 1.75 0 0.55 0.35 1.35 0.75 1.75 0.40 0.45 0.75 1.20 0.75 1.75 0 0.55 0.35 1.35 0.75 1.75 0.40 0.45 0.75 1.55 0.75 2.50 0 1.10 0.25 1.70 0.70 1.70 0.75 0 1.30 1.05 1.30 2.55 0 0.50 0.20 0.95 0.45 0.95 0.60 0 2.05 4 2.05 5.65 0 0.85 0.25 1.35 0.75 1.35 0.45 0 0.75 0.45 0.75 1.25 0 0.70 0.25 1.25 0.50 1.25 0.30 0 0.50 0.45 0.50 1.05 0 0.55 0.35 1.35 0.75 1.75 0.40 0.45 0.75 1.30 0.75 2 0 0.65 0.20 1.20 0.40 1.20 0.50 0 2.10 4.35 2.10 5.65 0 0.45 0.20 0.85 0.40 0.85 0.25 0 0.70 0.85 1 1.95 1.25 4.05 0.30 6.30 -1.20 2.80z"/>
  <path d="M733 385.75 c0 -0.70 -0.20 -1.25 -0.50 -1.25 -0.25 0 -0.50 -0.80 -0.50 -1.75 0 -0.95 0.20 -1.75 0.45 -1.75 0.60 0 0.75 0.25 2 3.40 l1.05 2.60 -1.25 0 c-1 0 -1.25 -0.25 -1.25 -1.25z"/>
  <path d="M840 385.85 c0 -1.25 0.80 -1.85 2.55 -1.85 0.50 0 0.95 -0.35 0.95 -0.75 0 -0.50 0.55 -0.75 1.75 -0.75 1.40 0 1.75 -0.20 1.75 -1 0 -0.75 0.35 -1 1.25 -1 0.75 0 1.25 -0.30 1.25 -0.70 0 -0.75 1.05 -1.30 2.55 -1.30 0.50 0 0.95 -0.35 0.95 -0.75 0 -0.50 0.55 -0.75 1.75 -0.75 1.40 0 1.75 -0.20 1.75 -1 0 -0.80 0.35 -1 1.75 -1 1.40 0 1.75 -0.20 1.75 -1 0 -0.55 0.35 -1 0.75 -1 0.40 0 0.75 -0.20 0.75 -0.50 0 -0.25 0.80 -0.50 1.75 -0.50 2 0 2.20 0.45 0.65 1.45 -2.45 1.55 -22.60 13.15 -23.25 13.40 -0.45 0.15 -0.65 -0.15 -0.65 -1z"/>
  <path d="M730.50 379.25 c0 -0.70 -0.20 -1.25 -0.50 -1.25 -0.25 0 -0.50 -0.45 -0.50 -1.05 0 -0.55 -0.35 -1.35 -0.75 -1.75 -0.40 -0.45 -0.90 -1.65 -1.05 -2.75 -0.20 -1.05 -0.50 -1.95 -0.75 -1.95 -0.25 0 -0.45 -0.80 -0.45 -1.80 0 -1.15 0.20 -1.70 0.60 -1.60 0.55 0.20 1.65 2.70 5.05 11.30 l0.85 2.10 -1.25 0 c-1 0 -1.25 -0.25 -1.25 -1.25z"/>
  <path d="M697.75 369.40 c-5.75 -4.30 -15.60 -10.80 -22.10 -14.45 -3.10 -1.75 -5.65 -3.35 -5.65 -3.55 0 -0.45 2.55 -0.55 3.70 -0.10 0.45 0.15 0.80 0.75 0.80 1.25 0 0.75 0.35 0.95 1.75 0.95 1.40 0 1.75 0.20 1.75 1 0 0.80 0.35 1 1.75 1 1.20 0 1.75 0.25 1.75 0.75 0 0.45 0.45 0.75 1.25 0.75 0.70 0 1.25 0.20 1.25 0.45 0 0.25 0.55 0.60 1.25 0.75 0.70 0.20 1.25 0.55 1.25 0.80 0 0.30 0.35 0.50 0.75 0.50 0.40 0 0.75 0.25 0.75 0.50 0 0.30 0.35 0.50 0.75 0.50 0.40 0 0.75 0.25 0.75 0.50 0 0.30 0.35 0.50 0.75 0.50 0.40 0 0.75 0.25 0.75 0.50 0 0.30 0.35 0.50 0.75 0.50 0.40 0 0.75 0.35 0.75 0.75 0 0.40 0.45 0.75 1 0.75 0.75 0 1 0.35 1 1.25 0 1.10 0.20 1.25 1.75 1.25 0.95 0 1.75 0.25 1.75 0.50 0 0.30 0.35 0.50 0.75 0.50 0.40 0 0.75 0.45 0.75 1 0 0.75 0.35 1 1.25 1 1.05 0 1.25 0.25 1.25 1.50 0 0.85 -0.05 1.50 -0.10 1.50 -0.10 -0.05 -1.95 -1.40 -4.15 -3.10z"/>
  <path d="M432.85 368 c0.15 -0.55 1.40 -2.25 2.75 -3.85 1.40 -1.60 3 -3.45 3.60 -4.15 0.60 -0.70 3.25 -3.85 5.85 -7 10.15 -12.15 32.30 -34.85 45.70 -46.75 2.75 -2.45 6.60 -5.95 8.50 -7.75 4.30 -4 17.25 -14.85 21.75 -18.25 17.50 -13.15 22.25 -16.60 28.75 -21 4.15 -2.80 9.65 -6.55 12.25 -8.35 2.60 -1.80 7.55 -5 11 -7.15 3.45 -2.15 7.75 -4.85 9.60 -6.05 1.85 -1.20 3.45 -2.20 3.60 -2.20 0.15 0 3.95 -2.10 8.40 -4.70 14 -8.05 29.05 -15.90 36.10 -18.80 l4 -1.65 2.65 2.95 c1.45 1.60 3.50 4.10 4.55 5.45 7.05 9.30 11.30 15.10 14 19 1.70 2.50 4.15 6 5.45 7.85 5.75 8.05 9.90 14.45 15.40 23.65 2.15 3.60 4.75 7.75 5.75 9.25 1.05 1.50 2.35 3.75 3 5 0.60 1.25 1.50 2.65 1.90 3.15 0.70 0.80 0.70 0.95 0.10 1.35 -0.40 0.30 -1.50 0.50 -2.35 0.50 -0.90 0 -5.95 0.55 -11.25 1.25 -5.30 0.65 -11.55 1.45 -13.90 1.70 -17.10 2 -41.25 6.10 -53 9 -3.15 0.75 -6.85 1.65 -8.25 1.95 -22.15 4.95 -50.70 13.35 -72.25 21.25 -25.75 9.45 -23.60 8.55 -41.50 16.95 -2.90 1.35 -6.80 3.20 -8.75 4.05 -11.45 5.25 -28.05 14.35 -37.65 20.65 -3.10 2.05 -5.70 3.70 -5.80 3.70 -0.10 0 -0.10 -0.45 0.05 -1z"/>
  <path d="M724.50 363.75 c0 -1.20 -0.25 -1.75 -0.75 -1.75 -0.50 0 -0.75 -0.55 -0.75 -1.75 0 -1.20 -0.25 -1.75 -0.75 -1.75 -0.55 0 -0.75 -0.55 -0.75 -1.80 0 -2.75 0.95 -1.85 3 2.85 2.70 6.30 2.65 5.95 1.25 5.95 -1.10 0 -1.25 -0.20 -1.25 -1.75z"/>
  <path d="M887 358.75 c0 -1.10 0.20 -1.25 1.75 -1.25 2.15 0 2.20 0.50 0.30 1.65 -1.90 1.10 -2.05 1.10 -2.05 -0.40z"/>
  <path d="M891.50 356.25 c0 -1.10 0.20 -1.25 1.75 -1.25 2.15 0 2.20 0.50 0.30 1.65 -1.90 1.10 -2.05 1.10 -2.05 -0.40z"/>
  <path d="M896 353.75 c0 -1 0.25 -1.25 1.25 -1.25 0.80 0 1.25 -0.30 1.25 -0.75 0 -0.45 0.45 -0.75 1.25 -0.75 0.75 0 1.25 -0.30 1.25 -0.70 0 -0.75 1.05 -1.30 2.55 -1.30 0.50 0 0.95 -0.30 0.95 -0.70 0 -0.40 0.35 -0.85 0.80 -1 1.10 -0.45 3.70 -0.35 3.70 0.10 0 0.35 -12.15 7.60 -12.75 7.60 -0.15 0 -0.25 -0.55 -0.25 -1.25z"/>
  <path d="M718.60 351.75 c-0.35 -0.70 -0.60 -1.70 -0.60 -2.25 0 -0.50 -0.20 -1 -0.45 -1.10 -0.75 -0.25 -6.55 -12.35 -6.55 -13.65 0 -0.80 -0.30 -1.25 -0.75 -1.25 -0.50 0 -0.75 -0.55 -0.75 -1.75 0 -0.95 0.25 -1.75 0.55 -1.75 0.45 0 9.80 18.50 10.90 21.60 0.45 1.25 0.40 1.40 -0.65 1.40 -0.75 0 -1.35 -0.45 -1.70 -1.25z"/>
  <path d="M663.55 348.75 c-7.35 -3.60 -17.25 -7.50 -28.05 -11 -14.50 -4.70 -25.40 -7.25 -38.50 -8.95 -9.40 -1.25 -9.50 -1.30 -9.50 -2.05 0 -1.05 2.50 -0.95 10.60 0.25 11.45 1.70 20.50 3.50 27.65 5.55 12.20 3.50 34.30 11.45 34.65 12.50 0.10 0.25 0.50 0.45 0.90 0.45 0.35 0 2.35 0.85 4.45 1.85 3.05 1.50 3.75 2.10 3.75 3 0 0.65 -0.10 1.15 -0.20 1.15 -0.05 0 -2.65 -1.25 -5.75 -2.75z"/>
  <path d="M910 345.80 c0 -1.20 0.80 -1.80 2.55 -1.80 0.50 0 0.95 -0.30 0.95 -0.70 0 -0.75 1.05 -1.30 2.55 -1.30 0.50 0 0.95 -0.35 0.95 -0.75 0 -0.50 0.55 -0.75 1.75 -0.75 1.40 0 1.75 -0.20 1.75 -1 0 -0.80 0.35 -1 1.75 -1 0.95 0 1.75 0.20 1.75 0.40 0 0.35 -13.05 8.10 -13.65 8.10 -0.20 0 -0.35 -0.55 -0.35 -1.20z"/>
  <path d="M915.40 331.15 c-0.55 -0.15 -0.90 -0.70 -0.90 -1.45 l0 -1.20 2.35 0.90 c2.85 1.05 3.45 2.10 1.05 2.05 -0.90 -0.05 -2.05 -0.15 -2.50 -0.30z"/>
  <path d="M909.15 328.90 c-1.15 -0.40 -1.65 -0.85 -1.65 -1.55 0 -0.80 0.25 -0.95 1.45 -0.70 2.30 0.45 5.05 1.75 5.05 2.30 0 0.70 -2.70 0.60 -4.85 -0.05z"/>
  <path d="M705.60 324.75 c-0.90 -1.80 -1.60 -3.60 -1.60 -3.95 0 -0.40 -0.20 -0.80 -0.45 -0.90 -0.65 -0.25 -4.55 -8.25 -4.55 -9.40 0 -0.55 -0.30 -1 -0.65 -1 -0.75 0 -3.35 -5.05 -3.35 -6.50 0 -0.80 -0.35 -1 -1.75 -1 -1.15 0 -1.75 -0.25 -1.75 -0.70 0 -0.90 2.25 -1.45 3.45 -0.85 0.80 0.45 5.80 9.50 11.30 20.50 3.40 6.80 3.45 7.05 2.10 7.05 -0.90 0 -1.45 -0.70 -2.75 -3.25z"/>
  <path d="M579.40 327.15 c-0.50 -0.10 -0.90 -0.55 -0.90 -0.95 0 -0.55 0.85 -0.70 4 -0.70 3.65 0 4 0.10 4 1 0 0.90 -0.30 1 -3.10 0.95 -1.75 -0.05 -3.55 -0.15 -4 -0.30z"/>
  <path d="M561 326.45 c0 -1.05 2.45 -1.45 8.70 -1.45 6.40 0 6.80 0.05 6.80 0.95 0 0.95 -0.40 1 -7.75 0.95 -4.25 0 -7.75 -0.25 -7.75 -0.45z"/>
  <path d="M900.40 326.15 c-1.10 -0.30 -1.20 -2.15 -0.15 -2.15 1.25 0 4.25 1.40 4.25 1.95 0 0.55 -2.45 0.65 -4.10 0.20z"/>
  <path d="M895 323.50 c0 -1.10 1 -1.30 2.55 -0.50 1.50 0.80 1.15 1.50 -0.80 1.50 -1.40 0 -1.75 -0.20 -1.75 -1z"/>
  <path d="M889.40 322.65 c-1 -0.25 -1.25 -2.15 -0.35 -2.15 1.45 0 4.45 1.25 4.45 1.85 0 0.65 -2.20 0.80 -4.10 0.30z"/>
  <path d="M881.90 320.35 c-1.05 -0.30 -1.90 -0.70 -1.90 -0.95 0 -0.20 -0.80 -0.40 -1.75 -0.40 -1.45 0 -1.75 -0.20 -1.75 -1.05 0 -1.25 0.50 -1.20 6.65 0.55 2.40 0.70 3.85 1.35 3.85 1.80 0 0.80 -2.30 0.85 -5.10 0.05z"/>
  <path d="M930.40 319.95 c-0.60 -0.35 -0.90 -1.10 -0.90 -2.45 0 -1.10 0.20 -2 0.40 -2 0.45 0 2.60 3.80 2.60 4.55 0 0.60 -1.05 0.55 -2.10 -0.10z"/>
  <path d="M589.50 318.30 c0 -0.45 1.50 -1.05 4.25 -1.75 5.10 -1.30 5.25 -1.30 5.25 -0.15 0 0.75 -0.75 1.10 -3.60 1.75 -4.40 1.05 -5.90 1.10 -5.90 0.15z"/>
  <path d="M602 315.30 c0 -0.65 1.40 -1.30 2.90 -1.30 0.30 0 0.60 0.45 0.60 1 0 0.80 -0.35 1 -1.75 1 -1.15 0 -1.75 -0.25 -1.75 -0.70z"/>
  <path d="M606.50 314.30 c0 -0.80 2.35 -1.35 16.10 -4.05 13.25 -2.55 13.40 -2.55 13.40 -1.30 0 0.80 -0.30 1.05 -1.30 1.05 -0.70 0 -6.90 1.15 -13.75 2.50 -13.60 2.75 -14.45 2.85 -14.45 1.80z"/>
  <path d="M859 313.50 c0 -1.05 0.50 -1.20 2.40 -0.70 1.80 0.50 1.35 1.70 -0.65 1.70 -1.40 0 -1.75 -0.20 -1.75 -1z"/>
  <path d="M911.40 313.45 c-1.45 -0.80 -1.05 -1.45 0.85 -1.45 1.40 0 1.75 0.20 1.75 1 0 1.10 -1.20 1.30 -2.60 0.45z"/>
  <path d="M849.25 312.05 c-0.55 -0.20 -3.40 -0.80 -6.35 -1.30 -4.60 -0.75 -5.40 -1 -5.40 -1.80 0 -1.15 -0.50 -1.15 6.20 0.05 7.75 1.45 9.80 2 9.80 2.80 0 0.75 -2.55 0.90 -4.25 0.25z"/>
  <path d="M901.65 310.40 c-2.05 -0.65 -2.20 -1.90 -0.25 -1.90 2.35 0 3.60 0.55 3.60 1.55 0 1.05 -0.85 1.15 -3.35 0.35z"/>
  <path d="M638 308.30 c0 -0.35 0.50 -0.80 1.15 -1 2.05 -0.55 2.85 -0.35 2.85 0.70 0 0.85 -0.35 1 -2 1 -1.35 0 -2 -0.20 -2 -0.70z"/>
  <path d="M888.15 306.35 c-4.55 -1.30 -7.15 -2.25 -7.15 -2.70 0 -1.05 2.25 -0.75 9.35 1.20 5.30 1.50 6.65 2.10 6.65 2.75 0 1.25 -0.65 1.15 -8.85 -1.25z"/>
  <path d="M645 307.25 c0 -0.75 0.30 -0.85 8.35 -2 6.35 -0.95 6.15 -0.95 6.15 0.15 0 0.75 -0.95 1 -6.60 1.75 -7.95 1.05 -7.90 1.05 -7.90 0.10z"/>
  <path d="M820 306 c0 -1.05 0.80 -1.25 2.90 -0.70 1.95 0.55 1.35 1.70 -0.90 1.70 -1.65 0 -2 -0.15 -2 -1z"/>
  <path d="M660 305.30 c0 -0.65 1.40 -1.30 2.90 -1.30 0.30 0 0.60 0.45 0.60 1 0 0.80 -0.35 1 -1.75 1 -1.15 0 -1.75 -0.25 -1.75 -0.70z"/>
  <path d="M667.50 304.30 c0 -0.65 1.40 -1.30 2.90 -1.30 0.30 0 0.60 0.45 0.60 1 0 0.80 -0.35 1 -1.75 1 -1.15 0 -1.75 -0.25 -1.75 -0.70z"/>
  <path d="M807 304 c0 -1.05 0.50 -1.20 2.40 -0.70 1.80 0.50 1.35 1.70 -0.65 1.70 -1.40 0 -1.75 -0.20 -1.75 -1z"/>
  <path d="M674.50 303.35 c0 -0.85 0.80 -1.10 7 -1.85 2.35 -0.30 5.10 -0.65 6.15 -0.80 1.60 -0.25 1.85 -0.15 1.85 0.65 0 0.85 -0.60 1.05 -4.60 1.55 -10.10 1.30 -10.40 1.30 -10.40 0.45z"/>
  <path d="M799.50 303 c0 -1.05 0.80 -1.25 2.90 -0.70 1.95 0.55 1.35 1.70 -0.90 1.70 -1.65 0 -2 -0.15 -2 -1z"/>
  <path d="M795.50 302.50 c0 -1.05 0.50 -1.20 2.40 -0.70 1.80 0.50 1.35 1.70 -0.65 1.70 -1.40 0 -1.75 -0.20 -1.75 -1z"/>
  <path d="M875.40 302.90 c-2.10 -0.55 -2.60 -1.90 -0.70 -1.90 2.60 0 4.30 0.60 4.30 1.55 0 1.05 -0.70 1.10 -3.60 0.35z"/>
  <path d="M785.50 301.50 c0 -1.05 0.80 -1.25 2.90 -0.70 1.95 0.55 1.35 1.70 -0.90 1.70 -1.65 0 -2 -0.15 -2 -1z"/>
  <path d="M780 301 c0 -1.05 0.50 -1.20 2.40 -0.70 1.80 0.50 1.35 1.70 -0.65 1.70 -1.40 0 -1.75 -0.20 -1.75 -1z"/>
  <path d="M869.75 301.50 c-0.60 -0.20 -4 -1.10 -7.65 -2 -4.45 -1.10 -6.60 -1.85 -6.60 -2.30 0 -1.10 2.15 -0.85 9.70 1.05 3.85 0.95 7.05 1.75 7.15 1.75 0.05 0 0.15 0.45 0.15 1 0 1.05 -1 1.25 -2.75 0.50z"/>
  <path d="M731.50 299.25 c0 -0.90 2.90 -1.50 5.25 -1.05 1.05 0.20 1.75 0.65 1.75 1.05 0 0.60 -0.75 0.75 -3.50 0.75 -2.75 0 -3.50 -0.15 -3.50 -0.75z"/>
  <path d="M917 297.50 c0 -1.15 -0.20 -1.50 -1 -1.50 -0.80 0 -1 -0.35 -1 -1.50 0 -1.15 -0.20 -1.50 -1 -1.50 -0.65 0 -1 -0.35 -1 -1 0 -0.55 -0.35 -1 -0.75 -1 -0.55 0 -0.75 -0.55 -0.75 -1.80 0 -2.40 0.50 -1.95 4.45 3.80 3.90 5.70 4 6 2.35 6 -1.10 0 -1.30 -0.20 -1.30 -1.50z"/>
  <path d="M850.75 297 c-3.75 -0.80 -14 -2.60 -22.70 -4 -4.75 -0.80 -8.85 -1.60 -9.10 -1.85 -0.20 -0.20 -0.75 -2.85 -1.20 -5.90 -0.40 -3 -1.35 -8.25 -2 -11.55 -1.50 -7.25 -1.50 -7.20 -0.35 -7.20 0.70 0 1.10 1.15 2.20 7.15 0.75 3.90 1.60 8.90 1.95 11.10 0.30 2.20 0.85 4.25 1.15 4.60 0.30 0.30 5.30 1.35 11.05 2.35 20.60 3.50 22.75 3.95 22.75 4.90 0 1 -0.55 1.05 -3.75 0.40z"/>
  <path d="M795.25 288.25 c-21.55 -2.05 -29.35 -2.35 -61.60 -2.15 l-31.55 0.15 -1.20 -1.75 c-0.65 -0.95 -3.20 -5.10 -5.65 -9.25 -2.40 -4.10 -6.90 -11.15 -9.95 -15.65 -3.05 -4.50 -7.90 -11.80 -10.80 -16.25 -2.90 -4.45 -7.20 -10.70 -9.55 -13.85 -2.35 -3.15 -5.70 -7.75 -7.45 -10.25 -1.80 -2.45 -4.85 -6.60 -6.80 -9.20 -2 -2.60 -3.50 -5 -3.35 -5.35 0.10 -0.35 3.40 -2 7.30 -3.75 3.90 -1.70 7.80 -3.35 8.60 -3.75 2.20 -0.95 11.95 -4.70 20 -7.70 12.65 -4.70 29.30 -10 44 -14 1.95 -0.55 5.40 -1.60 7.75 -2.45 5.20 -1.80 23.60 -6.90 31.70 -8.80 4.25 -1.05 6.15 -1.30 6.70 -0.90 0.45 0.25 1.45 2.25 2.15 4.45 2.05 6 6.25 19.50 7.40 23.70 3.50 12.80 5.10 18.90 6.25 23.75 0.75 3.05 2.20 8.90 3.30 13 4.35 16.70 7.50 30.30 8.75 38 0.45 2.75 1.35 7.95 2 11.50 0.65 3.60 1.25 7.50 1.35 8.75 0.20 2.75 0.55 2.65 -9.35 1.75z"/>
  <path d="M906.50 282.20 c0 -1.95 0.45 -1.90 2 0.30 l1.05 1.50 -1.50 0 c-1.45 0 -1.55 -0.15 -1.55 -1.80z"/>
  <path d="M901.50 276.75 c0 -0.40 -0.20 -0.75 -0.50 -0.75 -0.25 0 -0.50 -0.45 -0.50 -1 0 -0.55 -0.35 -1 -0.75 -1 -0.40 0 -0.75 -0.45 -0.75 -1 0 -0.55 -0.35 -1 -0.75 -1 -0.40 0 -0.75 -0.45 -0.75 -1 0 -0.55 -0.35 -1 -0.75 -1 -0.50 0 -0.75 -0.50 -0.75 -1.50 0 -1.25 -0.20 -1.50 -1.25 -1.50 -1 0 -1.25 -0.25 -1.25 -1.25 0 -0.90 -0.25 -1.25 -1 -1.25 -0.80 0 -1 -0.35 -1 -1.85 0 -1.65 0.10 -1.75 0.70 -1.15 1.35 1.35 8.25 10.15 10.30 13.10 l2.05 2.90 -1.50 0 c-1.05 0 -1.55 -0.25 -1.55 -0.75z"/>
  <path d="M813.80 263.90 c-0.50 -1.90 -0.35 -2.40 0.70 -2.40 0.80 0 1 0.35 1 1.75 0 2 -1.20 2.45 -1.70 0.65z"/>
  <path d="M811.55 253 c-0.70 -3.35 -0.70 -3.50 0.40 -3.50 0.90 0 1.55 1.95 1.55 4.90 0 2.20 -1.40 1.15 -1.95 -1.40z"/>
  <path d="M810.50 248.80 c0 -0.10 -0.65 -3.15 -1.50 -6.80 -1.75 -7.75 -1.80 -8 -0.60 -8 0.70 0 1.05 0.65 1.50 2.90 0.30 1.55 0.90 4.40 1.35 6.35 0.95 4.45 0.95 5.75 0 5.75 -0.40 0 -0.75 -0.10 -0.75 -0.20z"/>
  <path d="M867.65 237.25 c-0.35 -0.40 -0.65 -1.45 -0.65 -2.30 0 -1.60 0 -1.60 1.05 -0.65 0.60 0.50 1.50 1.55 2.05 2.35 l0.95 1.35 -1.40 0 c-0.75 -0.05 -1.70 -0.35 -2 -0.75z"/>
  <path d="M805.80 227.75 c-1 -4.05 -1 -4.25 0.10 -4.25 0.70 0 1.05 0.65 1.50 2.55 0.80 3.35 0.75 4.95 -0.10 4.95 -0.40 0 -1 -1.20 -1.50 -3.25z"/>
  <path d="M804.05 220.80 c-0.75 -3 -0.70 -3.30 0.40 -3.30 0.95 0 1.55 1.70 1.55 4.30 0 2.05 -1.35 1.35 -1.95 -1z"/>
  <path d="M848.85 218.60 c-1.55 -1.60 -2.85 -3.25 -2.85 -3.75 0 -0.55 -0.40 -0.85 -1.15 -0.85 -1.55 0 -2.35 -0.90 -2.35 -2.60 0 -1.25 -0.15 -1.40 -1.75 -1.40 -1.60 0 -1.75 -0.10 -1.75 -1.50 0 -1.40 -0.15 -1.50 -1.75 -1.50 -1.55 0 -1.75 -0.15 -1.75 -1.25 0 -1.05 -0.25 -1.25 -1.55 -1.25 -1.10 0 -1.60 -0.25 -1.80 -0.95 -0.15 -0.55 -0.75 -1.05 -1.35 -1.15 -0.65 -0.10 -1.10 -0.55 -1.20 -1.25 -0.15 -0.85 -0.50 -1.15 -1.40 -1.15 -0.85 0 -1.20 -0.25 -1.20 -1 0 -0.75 -0.35 -1 -1.25 -1 -0.80 0 -1.25 -0.30 -1.25 -0.75 0 -0.45 -0.45 -0.75 -1.05 -0.75 -0.60 0 -1.15 -0.40 -1.30 -1 -0.15 -0.55 -0.70 -1 -1.25 -1 -0.55 0 -1.10 -0.45 -1.25 -1 -0.15 -0.55 -0.70 -1 -1.20 -1 -0.60 0 -0.95 -0.35 -0.95 -0.95 0 -0.70 -0.40 -1.05 -1.35 -1.15 -1 -0.10 -1.45 -0.45 -1.55 -1.25 -0.15 -0.85 -0.50 -1.15 -1.40 -1.15 -0.70 0 -1.35 -0.35 -1.50 -0.75 -0.20 -0.40 -0.65 -0.75 -1 -0.75 -0.40 0 -0.85 -0.35 -1 -0.75 -0.20 -0.40 -0.60 -0.75 -1 -0.75 -0.40 0 -0.70 -0.20 -0.70 -0.45 0 -0.25 -0.45 -0.55 -1 -0.70 -0.55 -0.15 -1 -0.60 -1 -1.05 0 -0.45 -0.40 -0.80 -1 -0.80 -0.55 0 -1 -0.20 -1 -0.50 0 -0.25 -0.35 -0.50 -0.75 -0.50 -0.45 0 -0.90 -0.35 -1.05 -0.75 -0.20 -0.40 -0.60 -0.75 -1 -0.75 -0.40 0 -0.70 -0.20 -0.70 -0.50 0 -0.25 -0.30 -0.50 -0.70 -0.50 -0.35 0 -1.25 -0.55 -2 -1.25 -0.75 -0.70 -1.55 -1.25 -1.80 -1.25 -0.20 0 -0.50 -0.20 -0.60 -0.45 -0.05 -0.20 -0.65 -0.60 -1.25 -0.75 -0.95 -0.30 -1.15 -0.20 -1.15 0.65 0 1.75 -1.30 1.15 -1.90 -0.90 -0.70 -2.30 -0.70 -2.60 -0.15 -3.50 0.80 -1.25 14.25 8.25 32.85 23.15 11.15 8.95 25.80 21.50 29.20 25 l2.20 2.30 -1.75 0 c-1.45 0 -2.20 -0.45 -4.60 -2.90z"/>
  <path d="M802 212.20 c0 -0.65 -6.15 -22.50 -7.75 -27.45 -2 -6.30 -2.05 -6.75 -0.85 -6.75 0.70 0 1.20 1 2.25 4.45 0.75 2.40 1.35 4.90 1.35 5.45 0 0.55 0.20 1.10 0.45 1.20 0.50 0.20 6.05 20.40 6.05 22.15 0 0.80 -0.30 1.25 -0.75 1.25 -0.40 0 -0.75 -0.10 -0.75 -0.30z"/>
 </g>
 <g fill="#9ab195">
  <path d="M536.75 1016.65 c-16.50 -0.50 -35.80 -2.15 -46.50 -3.85 -4.30 -0.70 -18.10 -3.10 -24.50 -4.30 -9.45 -1.80 -24.95 -5.45 -34 -8.10 -3.85 -1.10 -8.10 -2.35 -9.50 -2.70 -4.90 -1.35 -15.15 -4.90 -27.70 -9.55 -14.55 -5.40 -19.65 -7.60 -19.40 -8.30 0.05 -0.25 3.85 -1.75 8.35 -3.35 27.60 -9.70 49.05 -18.20 66.60 -26.30 3.20 -1.50 6.20 -2.70 6.60 -2.70 0.40 0 2.25 1.40 4.15 3.15 4.90 4.50 18.05 15.40 31.55 26.30 4.10 3.25 10.95 8.40 16.55 12.35 2.30 1.60 5 3.55 6 4.30 3.15 2.30 12 8.35 20.05 13.70 11.80 7.85 13 8.70 13 9.25 0 0.40 -1.40 0.45 -11.25 0.10z m2.90 -3.25 c-0.90 -0.65 -3.90 -2.65 -6.75 -4.55 -2.85 -1.85 -8.05 -5.40 -11.65 -7.85 -3.55 -2.50 -7.30 -5.05 -8.25 -5.75 -1.50 -1 -5.40 -3.85 -14.70 -10.60 -7.65 -5.55 -38.25 -30.95 -40.35 -33.50 l-1.15 -1.40 -11.55 5.05 c-6.30 2.80 -13.85 6.05 -16.75 7.20 -2.90 1.15 -5.90 2.40 -6.75 2.75 -6.60 2.80 -24.20 9.40 -38.45 14.35 l-3 1.05 2.65 1.15 c1.45 0.65 8.05 3.20 14.70 5.65 27.35 10.05 47.75 15.55 78.60 21.05 3.30 0.60 7.65 1.40 9.65 1.75 5.65 1.15 22.55 3.15 31.10 3.75 11.10 0.75 12.15 0.80 18.45 0.90 l5.75 0.10 -1.55 -1.10z"/>
  <path d="M564.50 1010.20 c-2.90 -1.80 -6.25 -3.85 -7.50 -4.50 -4.50 -2.45 -17 -10.20 -25.50 -15.85 -4.50 -3 -15.85 -11.30 -24.35 -17.85 -1.95 -1.50 -5.30 -4 -7.40 -5.50 -2.10 -1.50 -4.65 -3.45 -5.65 -4.30 -1 -0.85 -3.90 -3.20 -6.40 -5.25 -8 -6.50 -17.95 -15.10 -17.95 -15.55 0 -0.25 4.30 -2.65 9.50 -5.35 10.55 -5.40 17.10 -8.90 21.25 -11.30 1.50 -0.90 5.45 -3.15 8.75 -5.05 17.35 -9.80 41.80 -25.25 56.30 -35.55 6.35 -4.55 7.55 -5.15 8.20 -4.15 0.30 0.50 6.40 5.10 13.45 10.15 4.45 3.20 23.65 15.90 28.15 18.65 5.70 3.45 12.75 7.50 16.15 9.30 1.80 0.95 5.65 3.05 8.60 4.60 3 1.60 5.50 3.10 5.70 3.35 0.15 0.25 -0.05 0.75 -0.40 1.15 -0.35 0.35 -2 2.50 -3.65 4.75 -8.70 11.90 -14.35 19.10 -20.80 26.55 -3.90 4.55 -7.50 8.65 -7.90 9.20 -2.80 3.30 -12.75 14.65 -15.50 17.55 -4.40 4.70 -27.45 28.25 -27.65 28.25 -0.10 0 -2.50 -1.50 -5.40 -3.30z"/>
  <path d="M348.45 967.60 c-4.55 -2.40 -9.85 -5.25 -11.75 -6.40 -1.90 -1.10 -5.25 -3 -7.45 -4.20 -13.75 -7.50 -46.45 -30.40 -60.35 -42.35 -1.50 -1.30 -5.65 -4.85 -9.15 -7.90 -14.10 -12.10 -31.40 -29.30 -41.20 -40.80 -14.65 -17.25 -17.55 -20.85 -17.55 -21.55 0 -0.75 0.90 -0.40 4.10 1.55 7 4.25 22.75 11.60 35.90 16.75 4 1.60 9.05 3.60 11.25 4.50 6.30 2.65 25.70 9.05 34.75 11.55 4.55 1.25 10.30 2.80 12.75 3.50 7.45 2.05 26.45 5.60 35.50 6.70 14.95 1.75 18.15 2.05 27.40 2.60 11.25 0.65 12.35 0.80 12.35 1.70 0 0.95 -2.90 0.95 -17 0 -22.50 -1.50 -39.60 -4.15 -60.25 -9.30 -9 -2.25 -26.45 -7.25 -29.75 -8.55 -0.70 -0.25 -4.60 -1.70 -8.75 -3.15 -13.65 -4.85 -32.95 -12.85 -42.80 -17.80 -3.85 -1.90 -6.95 -3.35 -6.95 -3.20 0 0.15 1.50 2 3.30 4.15 1.80 2.10 4.80 5.65 6.65 7.85 1.85 2.20 3.75 4.30 4.20 4.70 0.50 0.35 0.85 1.10 0.85 1.60 0 0.55 0.30 0.95 0.65 0.95 1.20 0 4.35 3.70 4.35 5.15 0 1.05 0.25 1.35 1.15 1.35 0.75 0.05 4.50 3.40 12.10 10.75 6 5.90 11.10 10.75 11.25 10.75 0.55 0 3.50 3.30 3.50 3.90 0 0.35 0.45 0.60 0.95 0.60 0.50 0 1.65 0.80 2.50 1.75 0.85 0.95 1.65 1.75 1.80 1.75 0.70 0 5.25 4.20 5.25 4.85 0 0.35 0.35 0.65 0.75 0.65 0.85 0 8.25 5.90 8.25 6.55 0 0.25 0.30 0.45 0.65 0.45 0.35 0 1.50 0.75 2.50 1.70 1.05 0.95 2.20 1.85 2.60 2 0.40 0.15 0.75 0.50 0.75 0.80 0 0.25 0.35 0.50 0.75 0.50 0.40 0 1 0.45 1.35 1 0.35 0.55 0.95 1 1.30 1 0.35 0 0.75 0.35 0.90 0.75 0.20 0.40 0.50 0.75 0.70 0.75 0.45 0 8 5.30 8.50 5.95 0.15 0.15 0.90 0.65 1.65 1.05 0.80 0.40 2 1.25 2.65 1.85 0.70 0.65 1.50 1.15 1.75 1.15 0.25 0 1 0.50 1.65 1.15 0.65 0.60 2 1.55 3.05 2.10 1 0.55 2 1.25 2.10 1.60 0.15 0.35 0.55 0.65 0.95 0.65 0.40 0 0.70 0.25 0.70 0.50 0 0.30 0.35 0.50 0.75 0.50 0.40 0 1.15 0.40 1.65 0.90 0.45 0.45 1.50 1.15 2.25 1.45 0.75 0.35 1.35 0.85 1.35 1.10 0 0.25 0.55 0.60 1.25 0.75 0.70 0.20 1.25 0.55 1.25 0.80 0 0.30 0.25 0.50 0.60 0.50 0.30 0 2.15 1 4.10 2.20 1.95 1.20 5.60 3.25 8.05 4.55 2.50 1.30 5.05 2.75 5.75 3.25 1.15 0.75 12.55 6.80 17.25 9.15 l1.95 1 8.55 -2.85 c16.30 -5.50 45.50 -16.10 49.50 -18.05 0.85 -0.40 2.95 -1.30 4.75 -1.95 1.80 -0.65 6.35 -2.60 10.10 -4.25 3.75 -1.70 6.95 -3.05 7.15 -3.05 0.15 0 1.55 -0.60 3.05 -1.30 2.95 -1.40 3.60 -2.70 1.30 -2.70 -1.10 0 -2.65 -1.30 -7.75 -6.40 -4.35 -4.35 -6.35 -6.70 -6.35 -7.50 0 -0.75 -0.30 -1.10 -0.95 -1.10 -1.40 0 -12.05 -11.40 -12.05 -12.85 0 -0.80 -0.30 -1.15 -1 -1.15 -1.30 0 -8.45 -8.35 -8.50 -9.85 0 -0.75 -0.30 -1.15 -0.90 -1.15 -1.15 0 -2.10 -0.95 -2.10 -2.10 0 -2.20 2.10 -0.50 8.30 6.75 7.60 8.80 23.25 25.40 30.60 32.45 2.80 2.70 5.10 5 5.10 5.10 0 0.25 -4.80 2.55 -9.50 4.55 -1.80 0.75 -5.50 2.30 -8.25 3.50 -13.80 5.90 -19.90 8.30 -42.75 16.50 -10 3.65 -28.35 9.80 -28.90 9.70 -0.20 0 -4.10 -2 -8.65 -4.35z"/>
  <path d="M450.40 923.60 c-15.50 -15 -25.85 -26.55 -41.25 -45.90 -8.20 -10.35 -20.40 -28.55 -31.65 -47.20 -5.80 -9.60 -20.30 -38.25 -23.30 -46 -1.20 -3.15 -2.45 -6.25 -2.70 -6.90 -0.65 -1.55 -0.65 -1.60 0.55 -1.60 0.90 0 11.05 2.90 19.20 5.45 0.85 0.25 4 1.20 7 2.05 3.05 0.85 6.50 1.90 7.75 2.35 4.55 1.50 20.60 5 32.75 7.10 3.30 0.60 7.90 1.40 10.25 1.80 4.45 0.80 19.45 2.95 23.75 3.45 21.15 2.40 32.30 2.95 53.35 2.65 34.55 -0.55 59.05 -3.35 94.90 -11 11.65 -2.50 41.75 -12.75 55 -18.75 6.40 -2.85 19.30 -9.35 23.40 -11.70 2.30 -1.30 4.40 -2.40 4.70 -2.40 0.25 0 -0.65 1.40 -2.05 3.15 -1.45 1.70 -3.80 4.55 -5.25 6.35 -1.45 1.80 -4.40 5.05 -6.50 7.20 -2.10 2.20 -6.50 6.80 -9.70 10.25 -3.20 3.45 -7.10 7.45 -8.60 8.95 -21.50 21.20 -26.60 26.05 -34.25 32.60 -3 2.60 -7 6.10 -8.90 7.85 -8.60 8 -32.80 27.25 -47.35 37.60 -4.10 2.95 -32.95 22.35 -37.25 25.05 -4.35 2.75 -22.10 13.15 -24.40 14.30 -1.40 0.75 -3.50 1.95 -4.60 2.70 -2.25 1.50 -16.70 9.30 -23.80 12.80 -2.60 1.30 -6.20 3.20 -8.05 4.25 -1.80 1.10 -3.55 1.95 -3.85 1.95 -0.25 0 -4.40 -3.80 -9.15 -8.40z"/>
  <path d="M379.50 893.50 c0 -0.95 0.35 -1 9.50 -1 9.15 0 9.50 0.05 9.50 1 0 0.95 -0.35 1 -9.50 1 -9.15 0 -9.50 -0.05 -9.50 -1z"/>
  <path d="M727.35 816.15 c-1.80 -0.30 -2.15 -1.15 -1.15 -3.05 2.55 -4.95 10.30 -25.50 15.65 -41.60 5.50 -16.50 7.85 -24.75 12.15 -42.75 2.25 -9.40 6 -31.70 6 -35.75 0 -1.05 0.25 -2.10 0.50 -2.25 0.30 -0.20 2.50 0.85 4.90 2.30 2.40 1.45 7.40 4.35 11.10 6.45 3.70 2.10 9.70 5.55 13.35 7.65 3.60 2.10 6.65 3.85 6.80 3.85 0.15 0 4.35 2.40 9.40 5.30 5.05 2.95 14.50 8.40 20.95 12.10 6.45 3.70 14.70 8.45 18.25 10.50 22.40 13 38.40 22.20 44.25 25.60 5.90 3.35 21.65 12.65 30.90 18.25 1.70 1.05 3.05 2.15 2.95 2.40 -0.30 1 -18.05 6.40 -36.85 11.30 -38.35 9.95 -75.15 16.20 -108.50 18.55 -9.70 0.65 -9.50 0.65 -9.50 -0.45 0 -0.85 0.55 -0.95 5.40 -1.25 4.80 -0.35 14.65 -1.20 22.85 -2.10 4.10 -0.40 20.75 -2.60 24.75 -3.25 15.95 -2.55 45.25 -8.55 55.65 -11.50 1.05 -0.30 6.65 -1.70 12.45 -3.20 11.50 -2.95 28.90 -8.30 28.60 -8.80 -0.10 -0.20 -2.60 -1.75 -5.55 -3.50 -3 -1.70 -7.85 -4.65 -10.90 -6.50 -3 -1.80 -9.10 -5.35 -13.50 -7.85 -9.50 -5.35 -13.05 -7.40 -28.95 -16.70 -12.50 -7.35 -38.60 -22.40 -59.80 -34.50 -15.45 -8.85 -21.70 -12.55 -21.90 -13 -0.10 -0.25 -0.45 -0.40 -0.75 -0.40 -0.35 0 -3.75 -1.80 -7.60 -3.95 -3.85 -2.20 -7.05 -3.90 -7.10 -3.90 -0.05 0.05 -0.30 2 -0.65 4.35 -4.35 33.30 -16.15 75 -31.15 110.65 l-2.30 5.35 2.25 0 c1.85 0 2.20 0.15 2.20 1 0 0.85 -0.30 1 -1.85 0.95 -1.05 -0.05 -2.55 -0.20 -3.30 -0.30z"/>
  <path d="M745.50 815.50 c0 -0.95 0.35 -1 6 -1 4.80 0 6 0.15 6 0.70 0 1 -1.60 1.30 -7.10 1.30 -4.55 0 -4.90 -0.05 -4.90 -1z"/>
  <path d="M758.50 815 c0 -0.95 0.35 -1 4.50 -1 3.50 0 4.50 0.15 4.50 0.70 0 0.90 -1.60 1.30 -5.60 1.30 -3.05 0 -3.40 -0.10 -3.40 -1z"/>
  <path d="M335.65 583.35 c-3.80 -8.50 -9.65 -22.25 -9.65 -22.65 0 -0.10 -1.65 -4.55 -3.70 -9.85 -12.65 -32.70 -19.50 -55.35 -27 -89.10 -3.05 -13.75 -4.25 -20.05 -6.05 -32 -0.70 -4.65 -1.60 -10.65 -2 -13.25 -1.60 -10.40 -4.10 -34.80 -5.05 -49.60 -0.30 -5.10 -0.30 -5.40 0.65 -5.40 0.85 0 1 0.65 1.55 9.15 0.75 10.45 2.70 30.40 3.85 38.85 3.50 25.80 6.70 42.95 12.05 65 6.80 27.85 12.85 46.60 26.60 82.25 2.65 6.90 8.50 20.85 8.90 21.25 0.15 0.10 0.10 -2.40 -0.10 -5.65 -0.30 -5.20 -0.25 -5.85 0.45 -5.85 0.95 0 1.10 0.70 1.85 9.75 0.35 3.60 0.90 8.20 1.30 10.25 1.40 7.35 0.75 6.85 -3.65 -3.15z"/>
  <path d="M335 560.25 c0 -4.55 0.15 -5.75 0.70 -5.75 1 0 1.30 1.60 1.30 6.90 0 4.25 -0.05 4.60 -1 4.60 -0.95 0 -1 -0.35 -1 -5.75z"/>
  <path d="M102.25 554.90 c-0.95 -2.40 1.40 -41.20 3.50 -58.15 2.05 -16.40 6.05 -38.25 9.85 -53.75 2.10 -8.60 8.75 -30.50 11.30 -37.25 0.80 -2.20 3.20 -8.50 5.25 -14 2.05 -5.50 4.70 -12.55 5.85 -15.65 1.20 -3.20 2.40 -5.55 2.70 -5.45 0.30 0.10 0.95 1.65 1.45 3.40 1.85 6.40 10 31.35 12.35 37.70 5.85 15.90 11 27.95 20.05 46.70 2.45 5.05 4.45 9.55 4.45 10 0 0.45 -4.20 4.85 -9.40 9.80 -10.30 9.95 -13.10 12.85 -24.85 25.95 -16.15 18.05 -23.70 27.15 -34.75 41.80 -8.15 10.80 -7.35 9.90 -7.75 8.90z"/>
  <path d="M334.50 541.25 c0 -11.40 0.05 -11.75 1 -11.75 0.95 0 1 0.35 1 11.75 0 11.40 -0.05 11.75 -1 11.75 -0.95 0 -1 -0.35 -1 -11.75z"/>
  <path d="M335 522.25 c0 -5.40 0.05 -5.75 1 -5.75 0.95 0 1 0.35 1 4.65 0 5.25 -0.30 6.85 -1.30 6.85 -0.55 0 -0.70 -1.20 -0.70 -5.75z"/>
  <path d="M335.50 513.15 c0 -3.90 2.25 -29.90 3.25 -37.40 2.60 -19.85 3.45 -25.95 5 -34.75 0.40 -2.35 1.10 -6.40 1.55 -9 2.15 -12.80 6.25 -31.90 9.50 -44.75 4.30 -16.90 11.85 -42.50 15.90 -53.75 9.75 -27.35 12.50 -34.25 22.30 -55.75 3.70 -8.15 13.10 -27.30 14 -28.50 0.20 -0.25 2.35 -4.30 4.75 -9 2.45 -4.65 5.80 -10.85 7.50 -13.75 5.30 -9.10 12.50 -21.20 13.40 -22.55 l0.85 -1.30 -4.35 -1.30 c-8.60 -2.55 -27.35 -7.30 -35.10 -8.85 -2.65 -0.55 -7.40 -1.55 -10.55 -2.30 -17.05 -3.80 -68.15 -12.20 -74.20 -12.20 -0.70 0 -4.25 11.10 -6.50 20.50 -0.40 1.80 -1.35 5.75 -2.05 8.75 -0.70 3.05 -2.05 8.65 -3 12.50 -6.25 25.80 -9.25 43.45 -11.95 70.75 -1.60 15.85 -1.95 22.80 -2.15 45.65 -0.20 19.30 -0.35 23.35 -0.90 23.35 -0.40 0 -0.85 -0.75 -1 -1.65 -0.50 -2.60 0.05 -43.85 0.70 -51.85 2.20 -28.05 5.40 -51.25 10.05 -72.75 3.60 -16.65 10.85 -45.75 13.45 -54 1.15 -3.70 0.95 -3.70 12.40 -2.25 8.50 1 9.45 1.15 20.65 2.95 13.10 2.10 16.10 2.60 21.10 3.60 2.85 0.55 7.75 1.45 10.90 1.95 4.85 0.85 15.15 2.95 24.50 5.05 5.15 1.15 20.75 4.95 27.25 6.65 10.35 2.75 13.75 3.85 13.75 4.45 0 0.55 -3.60 6.80 -8.25 14.35 -7.35 11.90 -11.20 18.90 -23.25 42.25 -8.85 17.10 -19.60 42.05 -28.95 67.25 -7.90 21.20 -18.70 57.45 -22.55 75.75 -4.10 19.40 -5.25 25.30 -7 35.50 -3.05 17.85 -6.40 42.80 -7.50 55.50 -0.30 3.60 -0.75 8.70 -1 11.40 -0.30 2.70 -0.50 6.05 -0.50 7.50 0 3.30 -0.45 4.85 -1.30 4.85 -0.50 0 -0.70 -0.75 -0.70 -2.85z"/>
  <path d="M355 465.65 c0 -4.50 6.90 -42.95 10.55 -58.90 6.95 -30.25 10.05 -41.35 18.65 -66.50 5.40 -15.80 6.55 -18.80 15.20 -40 5.25 -12.90 14.85 -33.45 20.20 -43.25 1.25 -2.35 2.90 -5.50 3.65 -7 6.30 -12.60 25.25 -44 26.60 -44 0.30 0 1.10 0.20 1.75 0.50 0.65 0.25 3.95 1.45 7.40 2.70 24.55 8.80 55.50 23.70 79.15 38.15 1.55 0.95 2.85 2 2.85 2.35 0 0.30 -1.65 1.70 -3.60 3.05 -16.60 11.50 -45.30 34.80 -60.40 48.95 -8.35 7.85 -28.35 28.15 -33.75 34.25 -3.05 3.45 -6.75 7.60 -8.25 9.25 -3.40 3.70 -7.65 8.80 -16.80 20.30 -10.50 13.10 -13.90 17.80 -27.50 37.55 -8.25 12.05 -20.25 33.25 -29.80 52.85 -3 6.10 -5.55 11.10 -5.70 11.10 -0.10 0 -0.20 -0.60 -0.20 -1.35z"/>
  <path d="M186 452.90 c-2.90 -6.05 -11.25 -25 -12.50 -28.40 -0.35 -0.95 -1.40 -3.55 -2.30 -5.75 -5.80 -14.05 -10.95 -28.50 -14.70 -41 -2.75 -9.10 -5.50 -20 -5.50 -21.60 0 -1.20 2.80 -2.05 32.50 -10.25 14.30 -3.90 45.85 -11.05 60.75 -13.65 18.45 -3.30 23.25 -4.10 23.50 -3.85 0.15 0.15 0.25 4.10 0.25 8.85 0 9.10 1.15 33.70 2 43.25 0.30 3.15 0.75 8.25 1.05 11.25 0.25 3.05 0.55 5.85 0.70 6.25 0.20 0.75 -1.35 1.90 -7 5.10 -4 2.25 -13 8.35 -27.15 18.25 -17.75 12.50 -27.40 19.90 -39.50 30.50 -4.45 3.95 -8.35 7.15 -8.60 7.15 -0.30 0 -1.85 -2.75 -3.50 -6.10z"/>
  <path d="M156.75 338.45 c2.30 -7.75 30.10 -51.40 43.45 -68.25 1.15 -1.45 3.05 -3.90 4.30 -5.50 4.15 -5.40 14.65 -17.40 23.60 -27.05 10.25 -11 20.95 -21.30 31.40 -30.25 11.90 -10.15 30 -24.40 31 -24.40 0.25 0 0.50 0.35 0.50 0.75 0 0.75 -0.25 1.80 -3.55 14 -0.85 3.30 -1.75 6.80 -1.95 7.75 -0.25 0.95 -1.30 5.60 -2.40 10.25 -1.80 7.45 -3.50 15.70 -6.30 30.05 -3.10 15.85 -6.45 43.55 -7.60 62.95 -0.15 3.05 -0.55 5.75 -0.80 6.10 -0.25 0.30 -1.85 0.70 -3.55 0.90 -4.80 0.50 -22.60 3.50 -31.10 5.25 -24.50 5 -40 8.45 -48.50 10.75 -1.65 0.45 -6.70 1.80 -11.25 3 -4.55 1.25 -9.80 2.70 -11.75 3.30 -5.90 1.75 -5.90 1.75 -5.50 0.40z m14.50 -5.25 c18.95 -5.10 32.85 -8.35 52.25 -12.20 18.25 -3.65 31.15 -5.95 36.50 -6.55 2.60 -0.30 5.25 -0.75 5.85 -0.95 1.15 -0.45 1 0.80 2.15 -16.25 0.55 -7.80 0.80 -10.10 2.55 -24.75 1.75 -14.75 4.70 -31.80 8.75 -50.50 2.70 -12.45 7.10 -30 8.25 -32.90 0.60 -1.45 0.55 -1.45 -6.05 3.60 -15.40 11.75 -33.60 27.80 -45.45 40 -2.30 2.35 -4.35 4.30 -4.60 4.30 -0.25 0 -0.45 0.25 -0.45 0.60 0 0.80 -3.55 4.40 -4.35 4.40 -0.35 0 -0.65 0.40 -0.65 0.90 0 0.45 -1.35 2.15 -3 3.80 -1.65 1.60 -3 3.10 -3 3.30 0 0.20 -0.80 1.10 -1.75 1.95 -0.95 0.85 -1.75 1.70 -1.75 1.90 0 0.20 -1.50 2.10 -3.30 4.15 -1.80 2.05 -4.65 5.50 -6.35 7.65 -1.70 2.10 -3.25 3.85 -3.45 3.85 -0.20 0 -0.40 0.25 -0.40 0.50 0 0.30 -2.10 3.25 -4.65 6.65 -6.30 8.15 -21.90 31.55 -28.20 42.10 -5.05 8.55 -9.65 16.80 -9.65 17.40 0 0.20 0.50 0.10 1.15 -0.15 0.60 -0.30 4.95 -1.50 9.60 -2.80z"/>
  <path d="M548.95 238.85 c-2.30 -1.45 -5.10 -3.25 -6.20 -3.95 -7.50 -4.90 -38.60 -21.10 -49.50 -25.80 -1.90 -0.85 -6.40 -2.80 -10 -4.35 -6.55 -2.85 -11.90 -5 -20.85 -8.45 -2.70 -1.05 -4.90 -2.10 -4.90 -2.35 0 -1.20 12.40 -18.35 23.20 -32.15 4.45 -5.65 20.45 -25.10 24.55 -29.80 4.50 -5.15 10.35 -11.45 23.55 -25.45 l4.05 -4.30 3.95 3.50 c6.75 5.90 12.80 11.80 31.70 30.75 20.90 20.85 39.45 41 50.85 55.15 2.70 3.35 5.30 6.50 5.75 7.05 0.50 0.50 0.75 1.15 0.60 1.40 -0.15 0.25 -4.25 2.45 -9.10 4.90 -15.75 7.95 -27.25 14.30 -42.35 23.40 -6.25 3.75 -9.15 5.60 -18.05 11.45 -1.40 0.90 -2.65 1.65 -2.80 1.65 -0.15 0 -2.15 -1.20 -4.45 -2.65z"/>
  <path d="M638.05 193.10 c-0.50 -0.45 -4.80 -5.35 -9.55 -10.85 -18.95 -22 -23.20 -26.80 -30.55 -34.55 -4.25 -4.40 -10.60 -11.10 -14.20 -14.85 -6.40 -6.75 -19.75 -19.65 -29.65 -28.75 -2.80 -2.60 -5.10 -4.90 -5.10 -5.15 0 -0.70 21.15 -0.55 32.20 0.30 26.95 2.05 54.65 6.65 79.55 13.30 31.90 8.55 49.95 15.10 77.40 28.25 14.30 6.85 22.35 11.05 22.35 11.65 0 0.20 -3.30 1.25 -7.35 2.30 -10.55 2.70 -34.30 9.30 -43.25 12 -8.45 2.55 -36.25 12.85 -48.65 18.05 -22.05 9.15 -22.15 9.20 -23.20 8.30z"/>
  <path d="M442.25 189.65 c-0.55 -0.15 -2.70 -0.80 -4.75 -1.50 -2.05 -0.70 -4.40 -1.45 -5.25 -1.65 -23.45 -6.15 -39.45 -9.90 -55.40 -13 -4.20 -0.80 -9.15 -1.80 -11.10 -2.20 -10.20 -2.20 -39.90 -6.80 -43.85 -6.80 -2 0 -2.75 -0.60 -1.75 -1.40 0.70 -0.55 7.95 -4.80 15.85 -9.25 10.15 -5.75 28.35 -14.80 38.35 -19.10 16.15 -6.90 38.45 -14.95 50.15 -18.05 11.50 -3.05 20.20 -5.30 26 -6.70 3.45 -0.85 7.50 -1.85 9 -2.25 7.15 -1.95 28.80 -5.50 40.75 -6.70 17.20 -1.75 16.75 -1.75 16.75 -1.10 0 0.20 -1.75 2.20 -3.85 4.35 -9.05 9.25 -25.40 27.90 -35.45 40.45 -7.55 9.40 -20.30 26.50 -27.65 37.15 -3.10 4.45 -5.90 8.05 -6.20 8.05 -0.35 -0.05 -1.05 -0.20 -1.60 -0.30z m1.45 -2.45 c0.45 -0.15 0.80 -0.60 0.80 -1 0 -0.40 0.25 -0.70 0.50 -0.70 0.30 0 0.50 -0.35 0.50 -0.75 0 -0.40 0.40 -1.15 0.90 -1.65 0.45 -0.50 1.20 -1.50 1.60 -2.30 0.40 -0.75 1.15 -1.90 1.75 -2.50 0.55 -0.65 1.30 -1.70 1.70 -2.35 1.05 -1.85 6.15 -8.95 7.40 -10.30 0.65 -0.65 1.15 -1.35 1.15 -1.50 0 -0.55 9.65 -13.15 10.10 -13.15 0.20 0 0.40 -0.30 0.40 -0.65 0 -0.35 0.80 -1.50 1.75 -2.55 0.95 -1.05 1.75 -2 1.75 -2.15 0 -0.80 19.35 -23.65 20.05 -23.65 0.25 0 0.45 -0.25 0.45 -0.55 0 -0.30 2.75 -3.55 6.15 -7.30 10.30 -11.40 10.95 -12.15 10.25 -12.15 -3.60 0 -26.95 3.25 -39.65 5.50 -15 2.65 -56.05 13.65 -66.95 18 -1.40 0.55 -6.25 2.35 -10.80 4.05 -19.70 7.25 -37.75 15.85 -60.25 28.55 -8.15 4.60 -8.50 4.90 -6.40 4.90 1.60 0 15 1.90 22.65 3.20 9.40 1.60 16.45 2.90 19.75 3.60 1.95 0.40 6.30 1.30 9.75 2 15.60 3.15 21.65 4.50 34.50 7.70 14.25 3.55 22.80 5.85 26.25 7.20 2.30 0.85 2.85 0.90 3.95 0.50z"/>
 </g>
 <g fill="#a86652">
  <path d="M779.50 951.10 c0 -0.25 0.55 -2.10 1.30 -4.15 2.70 -7.85 8.20 -28.45 11.45 -42.70 1.25 -5.50 2.90 -12.80 3.70 -16.25 0.80 -3.45 1.70 -7.70 2.05 -9.50 0.30 -1.80 1.10 -5.95 1.80 -9.25 1.85 -9.45 4.05 -23.70 5.50 -35.90 0.65 -5.60 1.05 -7.50 1.65 -7.80 0.45 -0.25 4.30 -0.95 8.55 -1.55 11.45 -1.60 29.65 -4.75 37.50 -6.50 2.35 -0.55 8.10 -1.80 12.75 -2.80 13.95 -2.95 35.35 -8.65 53.95 -14.25 5.45 -1.65 10 -2.90 10.15 -2.80 0.65 0.65 -15.35 25.50 -21 32.65 -1.15 1.45 -3.65 4.80 -5.60 7.45 -1.90 2.70 -4.15 5.75 -5 6.80 -4.50 5.80 -10.90 13.70 -13.15 16.20 -0.70 0.85 -1.95 2.25 -2.70 3.15 -3.35 4.10 -14.65 16.30 -22.15 23.85 -13.10 13.25 -31.95 29.55 -47.05 40.80 -11.95 8.85 -32.30 22.95 -33.15 22.95 -0.30 0 -0.55 -0.20 -0.55 -0.40z"/>
  <path d="M644 909.80 c-12.35 -6.40 -18.20 -9.70 -28.55 -16.10 -12.30 -7.65 -30.90 -21.30 -30.90 -22.70 0 -0.40 1.75 -2.10 3.85 -3.80 23.25 -18.35 34.95 -28.35 51.85 -44.45 10 -9.55 32.95 -32.70 38.85 -39.25 2.65 -2.90 7.30 -8.05 10.45 -11.50 3.15 -3.45 6.60 -7.40 7.70 -8.75 1.10 -1.35 4.80 -5.85 8.25 -10 12.10 -14.45 21.35 -26.45 33.50 -43.45 3.70 -5.20 6.80 -9.15 6.90 -8.80 0.55 1.65 -4.95 26.65 -10.15 46.25 -4.25 15.90 -11.40 36.90 -18.15 53 -1.95 4.70 -4.70 11.30 -6.10 14.75 -4.75 11.45 -17.75 36.95 -25.75 50.50 -1.90 3.15 -4.10 7 -5 8.50 -6.25 10.90 -24.20 38.50 -26.05 40.05 -0.90 0.75 -1.60 0.45 -10.70 -4.25z"/>
  <path d="M380.75 879.15 c-7.15 -0.15 -22.25 -1.10 -27.25 -1.65 -18.80 -2.15 -32.05 -4.15 -42.90 -6.50 -21.50 -4.65 -42.60 -11.10 -61.85 -18.85 -9.15 -3.65 -36.90 -17 -43.50 -20.90 -2.55 -1.50 -4.85 -2.75 -5 -2.75 -0.15 0 -0.90 -0.40 -1.65 -0.95 -0.75 -0.50 -3.80 -2.45 -6.85 -4.35 -3 -1.90 -6.20 -4.10 -7.10 -4.90 l-1.65 -1.40 0 -7.10 c0.05 -29 2.30 -61.25 5.75 -83.05 2.40 -15.10 3.50 -21.35 4.80 -28.15 2.20 -11.70 1.95 -11.25 4.95 -8.40 6.80 6.50 31.35 23.90 50.50 35.85 2.35 1.45 6.05 3.80 8.25 5.25 10.90 7.05 43.20 24.05 53.50 28.20 1.95 0.75 6.65 2.75 10.50 4.35 3.85 1.65 8.05 3.35 9.30 3.85 1.25 0.45 2.65 1.10 3.05 1.45 0.45 0.30 1.60 2.85 2.65 5.60 9.40 25.20 23.10 52.35 39.80 78.75 2.70 4.25 6.10 9.35 7.55 11.35 1.45 2 3.85 5.35 5.35 7.50 1.50 2.15 3.20 4.40 3.75 5 0.50 0.65 0.85 1.25 0.75 1.35 -0.35 0.35 -7 0.60 -12.70 0.45z"/>
  <path d="M167.85 796.40 c-14.90 -24.15 -29.15 -54.05 -40.25 -84.40 -7.85 -21.50 -15.95 -52.85 -19.35 -74.75 -3.90 -25.30 -5.90 -42.25 -5.15 -43.40 0.30 -0.45 0.60 -0.35 1.10 0.30 9.20 12 36.90 43 51.05 57.10 7.30 7.30 22.35 21.45 26.90 25.30 l1.45 1.20 -1.60 8.50 c-0.85 4.70 -2.30 12.65 -3.25 17.75 -2.85 15.45 -5.25 34.35 -6.75 53 -0.30 3.70 -0.65 7.80 -0.75 9.05 -0.35 2.90 -1.75 27 -1.75 29.60 0 2.10 -0.65 2.40 -1.65 0.75z"/>
  <path d="M483.75 787.65 c-25.80 -1.55 -54.35 -5.80 -86.65 -12.90 -17.75 -3.90 -53.75 -15.60 -68.45 -22.25 -5.95 -2.75 -9.75 -4.40 -14.65 -6.45 -2.60 -1.10 -7.50 -3.35 -10.90 -5 -3.35 -1.70 -6.25 -3.05 -6.40 -3.05 -0.35 0 -17.75 -9.25 -24.70 -13.15 -6.15 -3.45 -10 -5.75 -15.50 -9.25 -1.50 -0.95 -3.55 -2.25 -4.50 -2.85 -4.50 -2.85 -14.15 -9.40 -18.10 -12.30 -2.35 -1.75 -6.50 -4.75 -9.15 -6.70 -2.70 -1.90 -6.20 -4.50 -7.75 -5.75 -1.60 -1.25 -4.05 -3.15 -5.50 -4.25 -5 -3.85 -9.25 -7.25 -10.65 -8.60 -1.75 -1.55 -1.75 -1.50 1.45 -13.15 7.40 -26.95 18.55 -56.05 32.75 -85.35 3.95 -8.20 5.05 -10.15 5.90 -10.15 0.65 0 2.40 1.80 5.40 5.65 8.25 10.55 23.35 28.05 34.40 39.85 1.95 2.05 4.50 4.90 5.70 6.25 18.15 20.65 72.75 71.55 100.55 93.65 2.05 1.65 5.80 4.65 8.30 6.65 2.50 2.05 7.25 5.75 10.50 8.20 3.25 2.50 8.85 6.75 12.45 9.45 22.05 16.75 29.85 21.65 52 32.55 9 4.45 19.70 8.80 27.50 11.25 7.25 2.25 18.60 5.40 21.90 6 1.85 0.40 3.35 0.85 3.35 1 0 0.85 -28.25 1.30 -39.25 0.65z"/>
  <path d="M763.60 429.85 c-0.25 -0.30 -1.10 -2.75 -1.80 -5.35 -3.40 -12.10 -13.05 -39.80 -18.40 -52.75 -10.35 -25.20 -23.10 -52.65 -30.35 -65.45 -1.70 -3.05 -3 -5.85 -2.95 -6.25 0.25 -1.15 4.70 -1.40 25.90 -1.50 29.30 -0.10 56.40 1.95 83.25 6.25 5.95 0.95 28.55 5.05 31.75 5.75 7.15 1.55 22.20 5.30 28.25 7 15.15 4.35 48.20 15.25 51.10 16.85 1.05 0.60 0.15 1.20 -12.10 8.10 -5.50 3.10 -13.05 7.35 -16.75 9.50 -3.70 2.15 -11.25 6.40 -16.75 9.50 -5.50 3.15 -12.80 7.30 -16.25 9.25 -3.45 2 -13.20 7.60 -21.75 12.50 -8.50 4.85 -18.85 10.85 -23 13.20 -4.10 2.40 -12.45 7.20 -18.50 10.65 -6.05 3.40 -14.95 8.50 -19.75 11.25 -4.80 2.75 -11.45 6.55 -14.75 8.40 -3.30 1.85 -6.15 3.45 -6.30 3.55 -0.20 0.10 -0.55 -0.10 -0.85 -0.45z"/>
  <path d="M742.20 410.60 c-2.10 -2.60 -8.35 -9.60 -13.70 -15.25 -9.70 -10.35 -33.60 -29.10 -48 -37.70 -8.15 -4.85 -23.70 -12.45 -31.30 -15.35 -25.50 -9.55 -45.95 -14.05 -69.90 -15.35 -6.05 -0.30 -12.50 -0.45 -14.40 -0.35 -3.45 0.25 -4.70 -0.15 -3.05 -1 3.50 -1.80 33.20 -9.50 51.15 -13.30 18 -3.80 23.80 -4.70 65.75 -10.35 4.15 -0.55 9.55 -1.15 12.05 -1.30 l4.55 -0.30 3.55 6.70 c5.80 11.10 14.95 29.70 22.15 45.05 3.95 8.50 14.50 34.85 18.70 46.65 1.55 4.40 3.30 9.30 3.85 10.90 0.60 1.55 0.95 3 0.80 3.15 -0.15 0.15 -1.15 -0.85 -2.20 -2.20z"/>
  <path d="M915.25 314.80 c-31.35 -10.65 -55.85 -16.85 -87.50 -22.05 -4.40 -0.75 -8.25 -1.60 -8.55 -1.90 -0.35 -0.35 -0.95 -3.20 -1.45 -6.35 -0.75 -5.20 -5.30 -27.70 -7.70 -38.50 -0.55 -2.35 -1.35 -5.95 -1.75 -8 -2.75 -12.55 -9.95 -40.45 -13.20 -51 -0.55 -1.80 -1.95 -6.25 -3.10 -9.90 -1.15 -3.70 -1.95 -6.85 -1.80 -7 0.75 -0.70 17.30 11.30 34.10 24.70 15.70 12.60 22.30 18.40 34.75 30.75 17.75 17.55 30.75 32.15 42 47.20 2.05 2.75 4.80 6.35 6.05 8 8.90 11.70 25.40 37.35 25.40 39.50 0 0.40 0 0.40 -17.25 -5.45z"/>
 </g>
 <g fill="#465563">
  <path d="M531.75 1015.95 c-17.45 -0.75 -37.50 -2.75 -47.35 -4.70 -2 -0.35 -6.35 -1.15 -9.65 -1.75 -30.50 -5.45 -51.20 -11 -77.75 -20.75 -13.20 -4.85 -21.50 -8.25 -21.50 -8.75 0 -0.20 2.10 -1.05 4.65 -1.90 9.90 -3.25 32.50 -11.60 40.10 -14.85 0.85 -0.35 3.85 -1.60 6.75 -2.75 4.05 -1.65 18.20 -7.85 29.35 -12.80 0.35 -0.20 2.05 1.05 3.75 2.65 5.70 5.40 32.85 27.80 39.70 32.80 9.30 6.75 13.20 9.60 14.70 10.60 0.95 0.70 4.70 3.25 8.25 5.75 7.15 4.90 13.90 9.45 19.85 13.25 2.15 1.40 3.90 2.75 3.90 3.05 0 0.70 -2.50 0.70 -14.75 0.15z"/>
  <path d="M352.50 969.25 c-2.35 -1.25 -6.50 -3.40 -9.25 -4.80 -2.75 -1.40 -5.55 -2.95 -6.25 -3.45 -0.70 -0.45 -3.25 -1.95 -5.75 -3.25 -6.85 -3.65 -18.60 -11.05 -28.95 -18.25 -23.80 -16.60 -39.30 -29.30 -60.40 -49.55 -11.45 -11 -20 -20.35 -33.65 -36.70 -3 -3.55 -5.75 -6.90 -6.15 -7.40 -1.45 -1.65 -0.15 -1.45 3.25 0.55 11.80 6.90 35.80 17.40 55.40 24.35 4.15 1.45 8.05 2.90 8.75 3.15 3.25 1.25 20.75 6.30 29.75 8.55 28.25 7.05 54.50 10.10 89 10.25 l16 0.10 4 4.75 c7.45 8.90 15.95 18.10 26.90 29.10 5.95 6.05 10.85 11.05 10.85 11.15 0 0.20 -6.30 3.20 -6.75 3.20 -0.20 0 -3.40 1.35 -7.15 3.05 -3.75 1.65 -8.30 3.60 -10.10 4.25 -1.80 0.65 -3.90 1.55 -4.75 1.90 -2.20 1.05 -6.35 2.70 -11.75 4.65 -24.45 8.95 -46.75 16.65 -48.05 16.65 -0.40 0 -2.60 -1.05 -4.95 -2.25z"/>
  <path d="M729 816.15 c-3.50 -0.35 -3.65 -0.70 -1.90 -4.55 5.10 -11.25 12.45 -31.35 18.70 -51.10 6.25 -19.75 12.20 -46.65 14.25 -64.15 0.35 -2.95 0.85 -5.35 1.10 -5.35 0.25 0 1.05 0.40 1.75 0.95 0.75 0.50 5.05 3 9.60 5.55 4.55 2.55 10.05 5.70 12.25 7 2.20 1.30 9.50 5.55 16.25 9.40 20.55 11.70 47.10 27 59.80 34.50 15.90 9.30 19.45 11.35 28.95 16.70 4.40 2.50 10.50 6.05 13.50 7.90 3.05 1.80 8.70 5.20 12.65 7.50 3.90 2.30 7.10 4.35 7.10 4.55 0 0.25 -0.95 0.65 -2.10 1 -1.20 0.30 -5.95 1.75 -10.60 3.25 -4.60 1.50 -12.50 3.75 -17.50 5 -4.95 1.25 -10.60 2.70 -12.55 3.25 -13.55 3.70 -43.50 9.85 -60.50 12.40 -29.50 4.45 -75.25 7.55 -90.75 6.20z"/>
  <path d="M338 588.15 c-3.25 -7.20 -10.40 -24.25 -12.60 -29.90 -10.65 -27.60 -15.55 -41.95 -21.35 -62 -4.35 -15.15 -10.85 -43.65 -13.25 -58.25 -4 -24.55 -6.25 -43.40 -8.05 -67.75 -0.75 -10.25 -1.15 -51.10 -0.55 -54.90 0.15 -0.85 0.55 -5.55 0.80 -10.35 1.75 -29.25 5.95 -56.60 13.25 -86.75 0.95 -3.85 2.30 -9.45 3 -12.50 0.70 -3 1.65 -6.95 2.05 -8.75 0.90 -3.70 2.60 -9.70 4.55 -16.10 l1.35 -4.40 2.10 0 c7.45 0 56.20 7.90 75.70 12.20 3.15 0.75 7.95 1.75 10.60 2.30 7.60 1.55 30.45 7.35 37.85 9.65 1.25 0.40 2.35 0.95 2.45 1.25 0.05 0.25 -1.05 2.50 -2.55 4.95 -3.25 5.30 -11.40 19.05 -14.20 23.90 -1.10 1.95 -3.85 7.10 -6.15 11.50 -2.30 4.40 -4.30 8.25 -4.50 8.50 -0.90 1.25 -10.30 20.35 -14 28.50 -9.80 21.50 -12.55 28.40 -22.30 55.75 -4.05 11.25 -11.60 36.85 -15.90 53.75 -3.25 12.85 -7.35 31.95 -9.50 44.75 -0.45 2.60 -1.15 6.65 -1.55 9 -1.55 8.80 -2.50 15.45 -5 34.70 -0.90 7 -2.55 25.30 -3.20 36.30 -1.65 26.25 -0.90 55.55 1.95 73.40 0.30 1.80 0.45 3.35 0.30 3.45 -0.10 0.15 -0.70 -0.85 -1.30 -2.20z"/>
  <path d="M157.20 338.35 c0.15 -0.60 1.65 -3.70 3.35 -6.85 10.45 -19.50 30.35 -49.45 44.85 -67.50 21.80 -27.05 47 -51.65 74.60 -72.80 9.30 -7.15 10.05 -7.70 10.50 -7.70 0.35 0 -0.30 2.70 -2.30 9.75 -6.50 22.95 -13.40 57.35 -16.15 80.75 -1.75 14.65 -2 16.95 -2.55 24.75 -1.15 17.05 -1 15.80 -2.15 16.25 -0.60 0.20 -3.25 0.65 -5.85 0.95 -7.45 0.80 -38.80 6.75 -55.50 10.50 -13.85 3.10 -37.70 9.30 -45.90 11.95 l-3.20 1 0.30 -1.05z"/>
  <path d="M441.75 189.15 c-0.55 -0.10 -2.25 -0.60 -3.75 -1.15 -4.70 -1.55 -11.70 -3.45 -26 -7 -12.85 -3.20 -18.95 -4.55 -34.50 -7.70 -3.45 -0.70 -7.80 -1.60 -9.75 -2 -3.30 -0.70 -10.35 -2 -19.75 -3.60 -6.05 -1.05 -20.15 -3.05 -24.10 -3.45 -1.90 -0.20 -3.40 -0.50 -3.40 -0.70 0 -0.60 9.30 -6 24 -13.95 15.85 -8.50 31.70 -15.70 47.50 -21.55 4.55 -1.70 9.40 -3.50 10.80 -4.05 10.95 -4.35 52.05 -15.40 66.95 -18 17.55 -3.10 46.75 -6.70 46.75 -5.85 0 0.15 -1.85 2.15 -4.10 4.45 -4.15 4.15 -15.70 17.05 -24.20 26.90 -9.90 11.50 -27.45 34.40 -36.70 47.90 -7.70 11.20 -6.90 10.40 -9.75 9.75z"/>
 </g>
</svg>