<?xml version="1.0" encoding="utf-8"?>
<!DOCTYPE svg PUBLIC "-//W3C//DTD SVG 1.0//EN" "http://www.w3.org/TR/2001/REC-SVG-20010904/DTD/svg10.dtd">
<svg version="1.0" xmlns="http://www.w3.org/2000/svg" width="561px" height="519px" viewBox="0 0 561 519" preserveAspectRatio="xMidYMid meet">
 <g fill="#40515c">
  <path d="M285.5 495.3 c-15.2 -1.4 -39.2 -6.8 -54.7 -12.3 -10.6 -3.8 -11.8 -4.4 -11.8 -6.6 0 -2.2 -0.4 -2.4 -5.2 -2.4 -4 0 -6.5 -0.8 -11.7 -3.7 -23.6 -13.1 -47.9 -32.4 -60.2 -47.9 -3.8 -4.8 -4.9 -7 -4.9 -9.8 0 -3.4 0.2 -3.6 3.3 -3.6 1.8 0 3.7 0.4 4.3 0.9 1.9 1.9 22.2 9.9 33.9 13.4 6.6 2 17.2 4.5 23.5 5.6 12.1 2 34 3.8 34 2.7 0 -0.3 -2.4 -3.9 -5.4 -7.9 -12.3 -16.7 -22.6 -36.4 -22.6 -43.5 l0 -4.4 3.8 0.5 c2 0.2 9.8 2 17.2 4 22.8 5.9 31.3 7.1 52.5 7.1 20.7 0 29.2 -1 45.5 -5.4 11.2 -3 27.8 -8.8 32.8 -11.4 1.7 -0.9 4.7 -1.6 6.7 -1.6 3.3 0 3.5 0.2 3.5 3.3 0 2.7 -1.6 4.9 -10 13.9 -9.3 9.9 -27.5 26.1 -39.4 35.1 -2.7 2 -4.4 3.7 -3.8 3.7 0.6 0 5.3 2.8 10.5 6.3 5.2 3.4 13.1 8.2 17.6 10.7 7.8 4.3 8.1 4.6 8.1 8.1 0 3 -1.2 5.2 -7 12.5 -3.9 4.9 -11.8 14.1 -17.6 20.6 -9 10.1 -10.9 11.8 -13.5 11.8 -1.6 0 -4.1 -0.7 -5.4 -1.6 -2.4 -1.6 -2.5 -1.5 -2.5 0.5 0 2 -0.5 2.1 -8.7 1.9 -4.9 -0.1 -10.6 -0.3 -12.8 -0.5z"/>
  <path d="M385 398.5 c0 -2 0.8 -5.2 1.9 -7.3 3.2 -6.5 12.1 -35.8 12.1 -40.1 0 -0.6 -1.3 -1.1 -3 -1.1 -2.8 0 -3 -0.3 -3 -3.6 0 -3.6 0 -3.6 4 -3.2 3.5 0.3 4 0.1 4 -1.7 0.1 -8.7 3.2 -8.6 20.2 1.2 7.3 4.2 18 10.3 23.8 13.6 5.8 3.3 16.9 9.7 24.8 14.3 7.8 4.6 14.7 8.4 15.2 8.4 0.6 0 1 1.6 1 3.5 0 1.9 0.5 3.5 1 3.5 0.6 0 1 1.6 1 3.5 0 3.3 -0.2 3.5 -3.5 3.5 -3.1 0 -3.5 -0.3 -3.5 -2.6 0 -2.1 -0.4 -2.5 -1.7 -1.9 -3.5 1.4 -21.4 5.6 -33.9 7.9 -16.4 3.1 -28.3 4.4 -46.1 5.1 l-14.3 0.5 0 -3.5z"/>
  <path d="M213 329.5 c0 -3.3 0.2 -3.5 3.5 -3.5 3.3 0 3.5 0.2 3.5 3.5 0 3.3 -0.2 3.5 -3.5 3.5 -3.3 0 -3.5 -0.2 -3.5 -3.5z"/>
  <path d="M197.7 284.8 c-9.8 -23.1 -16.9 -47.5 -20.4 -70.3 -1 -6.8 -2.2 -11.5 -2.9 -11.5 -1.8 0 -18.1 11.2 -28.9 19.9 -5.7 4.6 -11 8 -12.2 8.1 -1.7 0 -2.3 0.6 -2.3 2.1 0 1.3 -5.1 7.4 -14.1 16.7 -7.8 8.1 -16.2 17.5 -18.7 21 -4.1 5.5 -5 6.2 -8 6.2 l-3.5 0 0.6 -12.8 c1.2 -23 4.5 -41.7 10.7 -59.5 6.3 -18.2 7.5 -20.7 10.5 -20.7 2.3 0 2.5 -0.3 2.5 -4.5 0 -3.6 0.3 -4.5 1.8 -4.5 1.4 0 1.7 -0.7 1.4 -4.2 -0.3 -3.7 0.5 -5.6 5 -13.1 12.7 -20.9 31.4 -42.7 48.5 -56.4 7.5 -6 9.8 -7.3 12.7 -7.3 2.2 0 3.6 0.5 3.7 1.3 0.1 0.6 0.4 -0.1 0.8 -1.8 0.5 -2.6 1.1 -3 4.4 -3.3 3.5 -0.3 3.7 -0.5 3.7 -3.6 0 -3.1 0.5 -3.6 9.2 -8.4 21.6 -11.9 44.9 -19.4 69.8 -22.6 15.3 -1.9 19 -2 19 -0.3 0 0.8 1.7 1.2 5 1.2 4.1 0 5 -0.3 5 -1.7 0 -1.6 1 -1.8 7.8 -1.8 11.1 0 28.1 1.8 39.7 4.1 13.4 2.7 37.9 10.9 49.3 16.5 9.2 4.6 9.2 4.6 9.2 8.4 0 3.6 -0.2 3.8 -3.7 4.4 -11.1 2 -48.5 14.8 -51.8 17.8 -0.5 0.4 -2.4 0.8 -4.2 0.8 -2 0 -3.3 0.5 -3.3 1.3 0 0.6 -4.2 3.3 -9.3 5.9 -5 2.6 -12.8 7 -17.2 9.8 -5.4 3.4 -9 5 -11.2 5 -2.8 0 -3.3 0.4 -3.3 2.3 0 1.6 -2.4 4 -9.2 9.2 -27.4 20.8 -60.8 59.6 -73.3 85.2 -3.7 7.7 -4.2 8.2 -7.2 8.3 -2.5 0 -3.2 -0.5 -3.5 -2.2 -0.2 -1.3 -1.2 7.1 -2.2 18.5 -1.7 17.7 -1.8 22.3 -0.8 31 1.7 14.3 1.8 13.7 -2.2 13.7 -3.3 0 -3.5 -0.2 -6.9 -8.2z m-23.8 -115 c-0.1 -6.8 -0.4 -11.3 -0.6 -10 -0.3 1.4 -1.2 2.2 -2.6 2.3 -2.2 0.2 -2.2 0.2 0.1 0.6 2.1 0.4 2.2 0.9 2.2 9.9 0 5.2 0.2 9.4 0.5 9.4 0.3 0 0.4 -5.5 0.4 -12.2z m84.1 -66.8 c0 -0.5 -0.9 -1 -2 -1 -1.1 0 -2 0.5 -2 1 0 0.6 0.9 1 2 1 1.1 0 2 -0.4 2 -1z"/>
 </g>
 <g fill="#a36250">
  <path d="M321 491.6 c0 -2.9 1.5 -5.1 10.1 -14.8 5.5 -6.2 12.6 -14.8 15.7 -19 4.7 -6.4 6.2 -7.7 8.5 -7.8 1.7 0 2.7 -0.5 2.7 -1.5 0 -1.1 -1.1 -1.5 -4.2 -1.5 -4.8 0 -16.4 -6.1 -27.5 -14.4 -5.9 -4.5 -6.8 -5.6 -7.1 -8.7 -0.3 -3.5 0.1 -3.9 14 -15.7 13.9 -11.6 25.1 -22.7 36.9 -36.2 8.7 -10.1 18.3 -22.1 21.4 -26.7 2.3 -3.7 3.3 -4.3 6.1 -4.3 3 0 3.4 0.3 3.4 2.8 0 7 -9.8 41.6 -15.5 54.6 l-1.7 3.9 19.5 -0.7 c15.6 -0.6 19.6 -0.5 20 0.6 0.4 0.9 0.6 0.8 0.6 -0.3 0.1 -1.2 1.8 -2 5.9 -2.8 3.1 -0.6 10.3 -2 15.8 -3.1 5.6 -1.2 16.4 -3.8 24 -6 7.6 -2.2 15.1 -4 16.6 -4 4.6 0 3.7 4.6 -2.8 14.7 -14 21.7 -37.4 45.5 -58.4 59.4 -6.2 4.2 -8.1 5 -11.2 4.7 -2.6 -0.2 -3.8 0.1 -3.8 0.9 0 0.8 -1.2 1.3 -3 1.3 -2.7 0 -3 0.3 -3 3 0 3.5 0.3 3.3 -21.9 12.2 -16.9 6.7 -44.2 12.8 -57.5 12.8 -3.4 0 -3.6 -0.2 -3.6 -3.4z"/>
  <path d="M208.5 429.9 c-20.8 -1.9 -44 -8.4 -63.7 -17.7 -5.7 -2.6 -12 -6.3 -14.1 -8.1 l-3.7 -3.3 -0.2 -9.7 c-0.1 -5.3 -0.3 -7.5 -0.5 -4.8 -0.4 4.6 -0.5 4.7 -3.8 4.7 -3.2 0 -3.6 -0.4 -8.9 -9.7 -13.9 -24.5 -22.8 -53.9 -25.2 -83 -0.6 -8.1 -0.6 -8.3 1.5 -8.3 2.1 0 2.1 -0.1 0.7 -2.2 -3.2 -4.5 -2.1 -7.9 5.6 -17.8 3.9 -5.1 12.5 -14.8 19.1 -21.6 9.8 -10.2 12.4 -12.4 14.8 -12.4 2.5 0 2.9 -0.4 2.9 -3 0 -2.5 1.3 -4 9.2 -10.3 14 -11.1 27.4 -19.7 30.9 -19.7 1.6 0 2.9 0.3 2.9 0.8 0 3.7 3.8 22.6 7 34.7 4 15.7 8.3 28.2 14.5 42.5 5.7 13.3 21.8 45.4 23.2 46.3 2 1.3 1.7 7.5 -0.4 7.9 -2.3 0.4 19.7 18.9 32.8 27.4 9.3 6.2 25.2 14 33.7 16.6 3.8 1.2 4.2 1.6 4.2 4.5 l0 3.3 -15.6 0 c-11.2 0 -19.1 -0.6 -27.7 -2 -10.7 -1.9 -35.3 -7.7 -39.9 -9.5 -1.6 -0.6 -1.7 -0.4 -0.7 2.6 2.4 7.3 12 25.9 18.3 35.4 5.1 7.8 6.6 10.8 6.6 13.8 l0 3.7 -7.2 -0.1 c-4 -0.1 -11.3 -0.5 -16.3 -1z m-73.3 -98.4 c-0.2 -1.9 -1 -3.5 -1.6 -3.5 -0.8 0 -1.1 1.2 -0.8 3.5 0.2 1.9 1 3.5 1.6 3.5 0.8 0 1.1 -1.2 0.8 -3.5z m21.7 -57.2 c-0.7 -1 -1.5 -2 -1.6 -2.2 -0.2 -0.2 -0.3 0.5 -0.3 1.7 0 1.4 0.6 2.2 1.6 2.2 1.4 0 1.5 -0.3 0.3 -1.7z"/>
  <path d="M401.6 211.2 l-1.8 -5.7 -3.6 0.3 c-3.4 0.3 -4.4 -0.3 -12.1 -7.4 -18.3 -16.6 -40.8 -27.6 -61.4 -29.9 -11.6 -1.3 -11.7 -1.3 -11.7 -4.5 l0 -2.9 -9.7 3.5 c-20.2 7.2 -29.3 11.3 -40.4 18 -3.2 1.9 -7 3.4 -8.8 3.4 -2.9 0 -3.1 -0.2 -3.1 -3.7 0 -3.4 1.1 -5 9.4 -14.3 10.1 -11.4 23.9 -23.8 38.9 -34.9 19 -14.1 41.9 -27.1 47.7 -27.1 1.6 0 3 -0.4 3 -1 0 -3.3 45.5 -18.9 59.9 -20.6 5.6 -0.6 6.3 -0.5 6.7 1.3 0.4 1.5 1.2 1.8 3.9 1.5 2.8 -0.3 4.6 0.4 10.2 4.4 18.6 13.2 39.4 34.3 51 51.5 8.6 12.7 9.5 15.1 8.7 22.5 -0.7 7.4 -0.8 7.5 -18.4 17.4 -5.2 2.9 -14.7 8.3 -21 12 -31.8 18.5 -38.6 22 -42.1 22 -3.5 0 -3.6 -0.2 -5.3 -5.8z m-23.6 -61.2 c0 -0.5 -0.9 -1 -2 -1 -1 0 -2.4 -0.8 -2.9 -1.7 -0.9 -1.6 -1 -1.6 -1.1 0.4 0 1.6 0.7 2.3 2.8 2.6 1.5 0.2 2.8 0.5 3 0.6 0.1 0 0.2 -0.3 0.2 -0.9z m52 -0.2 c0 -1 -1.5 -1.2 -5.2 -0.8 l-5.3 0.4 5 0.7 c2.8 0.3 5.1 0.7 5.3 0.7 0.1 0.1 0.2 -0.4 0.2 -1z m-26.2 -1.5 c-4.3 -0.2 -11.3 -0.2 -15.5 0 -4.3 0.1 -0.8 0.3 7.7 0.3 8.5 0 12 -0.2 7.8 -0.3z"/>
 </g>
 <g fill="#bfb1ac">
  <path d="M298.7 495 c-0.4 -1.7 0 -2 2.6 -2 l3.1 0 -2.4 -1.7 c-10.9 -7.3 -24 -17 -31.8 -23.5 -10 -8.4 -8.8 -8.1 -17.4 -4.4 -3.6 1.5 -3.8 1.5 -3.8 -0.1 -0.1 -1.3 -0.5 -1.1 -1.5 0.9 -1.5 2.7 -4.3 4 -18.8 8.8 -3.8 1.2 -6.6 2.4 -6.4 2.6 0.2 0.3 6.2 2.5 13.2 5 12.1 4.2 35.4 9.6 47.5 10.9 10.5 1.1 12 1.5 12 3.2 0 1.4 -1.1 1.5 -7.9 0.9 -17.7 -1.4 -39.3 -6.2 -57.6 -12.7 -9.2 -3.3 -11.5 -4.5 -11.5 -6 0 -1.5 -0.7 -1.9 -4 -1.9 -4.6 0 -9 -1.8 -9 -3.7 0 -0.7 -0.9 -1.3 -2 -1.3 -2.4 0 -7 -2.1 -7 -3.2 0 -0.4 -0.7 -0.8 -1.5 -0.8 -0.8 0 -1.5 -0.4 -1.5 -0.9 0 -0.5 -1.1 -1.2 -2.5 -1.5 -1.4 -0.4 -2.5 -1.1 -2.5 -1.6 0 -0.6 -0.7 -1 -1.5 -1 -0.8 0 -1.5 -0.4 -1.5 -1 0 -0.5 -0.7 -1 -1.5 -1 -0.8 0 -1.5 -0.4 -1.5 -1 0 -0.5 -0.7 -1 -1.5 -1 -0.8 0 -1.5 -0.7 -1.5 -1.5 0 -0.8 -0.9 -1.5 -2 -1.5 -1.1 0 -2 -0.6 -2 -1.4 0 -0.8 -1 -1.6 -2.2 -1.8 -1.5 -0.2 -2.4 -1.1 -2.6 -2.5 -0.3 -1.7 -1 -2.3 -2.8 -2.3 -1.7 0 -2.4 -0.5 -2.4 -2 0 -1.5 -0.7 -2 -2.5 -2 -2.8 0 -3.9 -1.6 -3.3 -4.9 0.3 -1.8 1.7 -1 10.3 6.1 15.3 12.4 39.7 27.8 44.3 27.8 2.6 0 20.5 -6.3 32.9 -11.6 l9.2 -3.9 -2.5 -2.6 c-1.4 -1.5 -2.6 -3.1 -2.6 -3.6 -0.1 -1.6 -3.7 -5.5 -4.7 -4.9 -0.5 0.4 -2.9 -1.6 -5.3 -4.4 l-4.3 -5 -6.5 0 c-7.9 0 -11 -0.8 -11 -2.6 0 -0.8 -0.7 -1.4 -1.5 -1.4 -0.8 0 -1.5 0.7 -1.5 1.5 0 0.9 -0.9 1.5 -2.4 1.5 -5.6 0 -27 -4.3 -38.1 -7.7 -11.6 -3.5 -31.7 -11.4 -34.2 -13.5 -2.7 -2.2 -1 0.9 3.2 6.2 4.1 5 4.3 5.5 2.4 5.8 -3 0.5 -4.9 -0.5 -4.9 -2.7 0 -1 -0.9 -2.1 -2 -2.4 -1.1 -0.3 -2 -1.2 -2 -2.1 0 -0.9 -0.4 -1.6 -1 -1.6 -0.5 0 -1 -1.7 -1 -3.7 -0.1 -3.3 -0.6 -4.2 -4.1 -6.6 -4 -2.8 -5.9 -6 -5.9 -10.2 0 -1.9 -0.6 -2.4 -3.2 -2.7 -2.7 -0.2 -3.7 -1 -5.3 -4.3 -1.1 -2.1 -2.6 -4.5 -3.2 -5.3 -0.7 -0.7 -1.6 -2.4 -1.9 -3.8 -0.3 -1.3 -1 -2.4 -1.4 -2.4 -2 0 -13.7 -29.9 -17.4 -44.6 -5 -20 -7.2 -42.6 -4.3 -43.7 1 -0.4 1 -0.7 0 -1.8 -1.8 -1.8 -1.6 -6.5 0.3 -9.4 1 -1.5 1.2 -2.5 0.5 -2.5 -0.6 0 -1 -1.6 -1 -3.7 l0.2 -3.8 0.6 3.4 0.6 3.3 3.5 -4.8 c4.7 -6.7 21.1 -24.6 21.8 -23.9 0.8 0.7 9.2 -7.6 8.7 -8.5 -0.3 -0.4 0.4 -1.5 1.5 -2.5 1.9 -1.7 1.9 -1.8 -1.4 -8.4 -4 -8 -10.1 -23.1 -13.1 -32.6 l-2.3 -7 -2.2 5 c-6.4 14.7 -12.6 36.9 -14.5 52 -1 8.5 -1.6 10.5 -3.1 10.5 -1.8 0 -1.8 -2.9 0.1 -15.5 2.1 -14.2 3.9 -21.5 8.4 -34.5 6.4 -18.5 7.6 -21 10.6 -21 2 0 2.5 -0.5 2.5 -2.5 0 -1.4 0.5 -2.5 1 -2.5 0.6 0 1 -2.2 1 -4.9 0 -5.9 0.7 -8.1 2.6 -8.1 0.8 0 1.4 -0.9 1.4 -2 0 -2.3 2 -7 3.1 -7 0.4 0 0.9 -1 1.3 -2.3 0.3 -1.3 1.7 -3.6 3.1 -5.1 1.4 -1.5 2.5 -3.1 2.5 -3.7 0 -0.5 0.7 -1.2 1.5 -1.5 0.8 -0.4 1.5 -1.2 1.5 -2 0 -0.8 0.7 -1.4 1.5 -1.4 0.8 0 1.5 -0.9 1.5 -2 0 -1 0.6 -2.3 1.3 -2.7 0.8 -0.4 1.6 -1.6 2 -2.5 0.3 -1 1.3 -1.8 2.2 -1.8 0.8 0 1.5 -0.8 1.5 -1.9 0 -2.6 2.4 -4.3 5.4 -3.9 2.5 0.3 2.4 0.5 -3.5 7.8 -10.7 13.3 -25.9 36.3 -24.8 37.5 0.2 0.2 6.1 -1.2 13 -3 7 -1.9 18.7 -4.6 26.2 -6.1 l13.5 -2.7 0.7 -3.3 c0.3 -2 1.2 -3.4 2 -3.4 0.8 0 1.5 -0.4 1.5 -1 0 -0.5 -0.7 -1 -1.6 -1 -1.3 0 -1.5 -0.8 -0.9 -5.2 1.5 -11.3 4.6 -27.9 7 -37.3 1.4 -5.4 2.3 -10 2.1 -10.3 -0.3 -0.2 -4.2 2.6 -8.8 6.2 -7.3 5.8 -8.3 6.3 -8.6 4.5 -0.5 -3.1 0.5 -4.9 2.8 -4.9 1.1 0 2 -0.7 2 -1.5 0 -0.8 0.9 -1.5 2 -1.5 1.1 0 2 -0.7 2 -1.5 0 -0.9 0.9 -1.5 2.5 -1.5 1.8 0 2.5 -0.5 2.5 -2 0 -1.7 0.7 -2 4 -2 2.9 0 4 -0.4 4 -1.5 0 -1 1.1 -1.5 3.5 -1.5 3.3 0 3.5 -0.2 3.5 -3.4 0 -3.5 1.3 -4.6 5.1 -4.6 1 0 1.9 -0.6 1.9 -1.4 0 -1.7 2.2 -2.6 6.1 -2.6 2.2 0 2.9 -0.5 2.9 -1.9 0 -1.4 2.3 -2.9 9.6 -6 5.2 -2.2 10.4 -4.1 11.4 -4.1 1 0 2 -0.4 2.2 -0.9 0.2 -0.5 5.3 -2.3 11.3 -3.9 18 -5.1 39.5 -8.1 45.6 -6.5 4.7 1.3 11.9 0.5 11.9 -1.3 0 -2.3 6.3 -1.8 7.8 0.6 1.1 1.8 1 2 -1.5 2 -2.6 0 -2.5 0.3 3.2 6 3.3 3.3 5.4 6 4.8 6 -0.7 0 1.6 2.8 5 6.3 3.4 3.4 6.5 5.8 6.8 5.4 0.8 -1.1 9.9 9.1 9.6 10.6 -0.1 0.7 0.3 1.1 1 1 0.6 -0.2 3.3 2.2 5.9 5.2 3 3.6 5.1 5.2 5.8 4.7 4.2 -3.2 41 -15.8 51.9 -17.8 2 -0.3 3.7 -1 3.7 -1.4 0 -1.7 -19 -10.1 -33.5 -14.9 -13 -4.3 -25.1 -7.3 -39.7 -9.6 -4.9 -0.8 -5.2 -3.5 -0.5 -3.5 5.8 0 24.7 3.8 36.4 7.4 13.6 4.1 25.3 8.6 25.3 9.8 0 0.4 0.9 0.8 2 0.8 2.2 0 7 2 7 3 0 0.3 1.6 1.2 3.5 1.9 2.9 1 3.5 1.7 3.5 4.2 0 2.6 0.3 2.9 3.4 2.9 2.5 0 3.6 0.5 4 1.8 0.5 1.4 1.4 1.7 4 1.4 4.1 -0.5 8 1.8 20.3 12.1 11.9 10 15.5 14.1 15.1 17.4 -0.3 2.5 -0.6 2.3 -7.7 -4.3 -8.2 -7.6 -16.9 -14.8 -23.5 -19.3 l-4.3 -3 2.3 7.9 c2.2 7.8 8.2 32.9 10.4 44.2 l1.1 5.7 5.7 1.1 c16.4 3.1 35.3 8.3 45.5 12.5 1.7 0.7 1.7 0.4 -0.4 -3.6 -3.6 -7.2 -11.5 -18.4 -19.5 -27.7 -7.5 -8.7 -7.5 -8.7 -4.7 -9 2.3 -0.3 3.7 0.6 8 5.5 2.9 3.2 5.3 6.3 5.3 6.9 0 0.7 0.7 1.4 1.5 1.8 0.8 0.3 1.5 1.2 1.5 2.1 0 0.8 0.4 1.5 0.9 1.5 1.1 0 7.1 9.1 10.6 16 2.3 4.6 2.6 6 2 11.2 -0.7 5.8 -0.8 5.9 -6.4 9.6 -3.1 2.1 -10.3 6.4 -16.1 9.7 -12 6.6 -11.9 6.6 -33.5 19 -21 12.1 -23.9 13.5 -27.4 13.5 -2.6 0 -3.1 -0.5 -4.3 -4.2 -1.2 -3.6 -1.9 -4.4 -4.4 -4.6 -3.1 -0.4 -9.4 -5.7 -9.4 -7.9 0 -0.7 -0.8 -1.3 -1.8 -1.3 -1 0 -3.4 -1.6 -5.3 -3.6 -3.9 -4.1 -16.8 -12.9 -24.6 -16.8 -13 -6.5 -26.7 -10.2 -41.3 -11.3 -7.9 -0.5 -9 -0.8 -9 -2.4 0 -1.1 -0.2 -1.9 -0.5 -1.9 -1.1 0 -22.6 8 -28 10.5 -3.3 1.5 -10.2 5.2 -15.4 8.2 -9.1 5.3 -9.6 5.5 -14.7 4.9 -5.3 -0.6 -5.4 -0.6 -5.4 1.9 0 1.4 -0.7 2.8 -1.5 3.1 -0.8 0.4 -1.5 1.3 -1.5 2 0 0.8 -0.7 1.7 -1.5 2 -0.8 0.4 -1.5 1.3 -1.5 2 0 0.8 -0.7 1.7 -1.5 2 -0.8 0.4 -1.5 1.2 -1.5 2 0 0.8 -0.4 1.4 -1 1.4 -0.5 0 -1 0.7 -1 1.5 0 0.8 -0.4 1.5 -1 1.5 -0.5 0 -1 0.7 -1 1.5 0 0.8 -0.3 1.5 -0.7 1.5 -0.5 0 -1.6 2 -2.6 4.5 -1.1 2.5 -2.5 4.5 -3.3 4.5 -0.8 0 -1.4 0.9 -1.4 2 0 2.4 -2.1 7 -3.2 7 -0.4 0 -0.8 1.4 -0.8 3 0 2.8 -0.2 3 -3.9 3 l-3.9 0 -0.7 8.5 c-0.6 7.4 -1 8.5 -2.6 8.5 -2.3 0 -2.2 1.5 -0.3 -16.6 3.1 -29.9 10.1 -56.5 22.6 -85.9 5.1 -12.1 15.6 -32.1 21.2 -40.7 l1.7 -2.7 -6.5 -2 c-13 -4 -54.2 -11 -55.5 -9.4 -2.1 2.5 -11.1 45 -11.1 52.7 0 4.6 -1.1 7.6 -2.6 7.6 -0.8 0 -1.4 0.9 -1.4 2 0 1.1 0.7 2 1.5 2 1.3 0 1.5 2.1 1.5 12.5 0 10.4 -0.2 12.5 -1.5 12.5 -0.8 0 -1.5 0.9 -1.5 2 0 1.1 0.7 2 1.5 2 0.8 0 1.6 1.3 1.9 3.3 5 35.8 9.3 55 16.9 75.2 4 10.8 11.6 27.9 10.1 23 -0.9 -3.3 -1.7 -27.9 -1 -31.8 0.4 -2.3 1.3 -3.7 2.1 -3.7 1.2 0 1.5 2.1 1.5 11.3 0 6.1 0.3 15.6 0.7 21 0.5 8.6 0.4 9.7 -1 9.7 -1 0 -1.7 0.3 -1.7 0.6 0 1.3 12.2 24.7 15.6 30.1 2.6 4.1 3.5 6.5 3.3 9.2 -0.2 3.9 0.8 7.1 2.2 7.1 1.1 0 22.2 16.9 22.7 18.2 0.2 0.4 0.8 0.8 1.4 0.8 0.5 0 4.2 2 8.1 4.3 8.6 5.2 21.3 11 29.3 13.5 5.5 1.6 5.9 2 6.2 5 0.3 2.6 0.8 3.2 2.8 3.2 3 0 3.2 2.6 0.2 3.4 -4.6 1.2 -10.8 0.7 -10.8 -0.9 0 -1.1 -1.2 -1.5 -5 -1.5 -3.9 0 -5 0.3 -5 1.6 0 1.4 -0.9 1.6 -5.5 1.2 -3 -0.3 -5.7 -0.7 -6 -1 -0.3 -0.3 -0.3 -1.7 0.1 -3.2 l0.6 -2.6 11.7 0 11.6 -0.1 -6.5 -2.3 c-17.8 -6.5 -33.9 -16 -51 -30.1 -30.4 -25.2 -44.8 -39.1 -64.9 -62.8 -4.6 -5.4 -8.7 -9.5 -9.1 -9 -1.8 1.8 -10.9 23.5 -14.3 33.8 -5.9 18.1 -6.2 16.2 4 23.8 19.2 14.2 45.8 28.7 64.4 35.1 9.5 3.2 25.5 7.1 37.4 9.1 15.3 2.6 14.5 2.3 14.5 5.7 l0 3.1 -6.2 -0.7 c-8.1 -0.9 -27.7 -5.1 -37.9 -8 -5.8 -1.7 -7.9 -2 -7.9 -1 0 2.4 10.9 22.9 16.9 31.9 3.3 5 8.7 12.4 12 16.5 3.3 4.1 5.7 7.9 5.4 8.5 -0.4 0.5 -0.2 0.6 0.2 0.2 0.5 -0.4 4.5 2.8 8.9 7.2 l8.1 7.9 13.5 -7.5 c21 -11.7 37.9 -23.5 56.9 -39.5 5.7 -4.8 10.7 -8.6 11 -8.3 0.7 0.8 15.1 -13.7 14.6 -14.6 -0.3 -0.4 1.6 -3 4.1 -5.8 4.9 -5.5 5 -6 0.2 -3.5 -9.3 4.8 -37.3 13.3 -50.5 15.3 -10.1 1.6 -11.3 1.5 -11.3 -0.9 0 -1.6 0.7 -2 3.8 -2 8.7 0 35 -7.3 50.7 -14.1 9.5 -4.1 15.5 -5 15.5 -2.4 0 0.8 0.5 1.5 1 1.5 0.6 0 1 -0.9 1 -2 0 -1.1 0.9 -2.5 2 -3.2 1.1 -0.7 2 -1.7 2 -2.3 0 -0.5 1.7 -2.9 3.8 -5.2 2 -2.2 4.2 -4.8 4.7 -5.6 0.6 -0.8 2.8 -4.2 5 -7.5 3.5 -5.3 4.4 -6.1 7.3 -6.1 2.5 -0.1 3.2 -0.5 3.2 -2.1 0 -1.6 0.7 -2 3 -2 3 0 9.9 2.4 11 3.8 0.3 0.4 2.4 1.6 4.8 2.6 2.3 1.1 4.2 2.2 4.2 2.6 0 0.5 1.1 1.1 2.5 1.4 1.4 0.4 2.5 1.1 2.5 1.6 0 0.6 0.6 1 1.4 1 0.8 0 2.1 0.6 2.8 1.3 0.7 0.7 2.8 1.9 4.6 2.6 1.7 0.7 3.2 2 3.2 2.7 0 0.8 0.9 1.4 1.9 1.4 3 0 5.1 1.1 5.1 2.6 0 0.8 0.9 1.4 1.9 1.4 3 0 5.1 1.1 5.1 2.6 0 0.8 1 1.4 2.4 1.4 1.4 0 3.1 0.6 3.8 1.4 0.8 0.7 2.4 1.7 3.6 2 1.2 0.4 2.2 1.1 2.2 1.5 0 0.4 1.6 1.3 3.5 2 1.9 0.7 3.5 1.6 3.5 2.1 0 0.4 1.1 1.1 2.5 1.4 1.4 0.4 2.5 1.3 2.5 2.1 0 0.9 0.9 1.5 2.1 1.5 2.6 0 4.9 2.3 4.9 4.9 0 1.3 0.6 2.1 1.6 2.1 1.4 0 1.6 0.8 1.2 4.5 -0.6 5 -9 19.5 -11.4 19.5 -0.8 0 -1.4 0.9 -1.4 2 0 1.1 -0.7 2.3 -1.5 2.6 -0.8 0.4 -1.5 1.2 -1.5 2 0 0.7 -0.8 1.9 -1.7 2.6 -1 0.7 -2.3 2.2 -2.9 3.3 -0.6 1.1 -2 2.1 -3.2 2.3 -1.4 0.2 -2.2 1.2 -2.4 3 -0.2 1.6 -1.2 3.1 -2.5 3.7 -1.3 0.5 -2.3 1.5 -2.3 2.2 0 0.8 -1.4 1.3 -3.7 1.3 l-3.7 0 6 -6.2 c12.2 -12.6 32.1 -40 27.8 -38.4 -5 1.9 -27.1 7.8 -35.9 9.6 -5.5 1.1 -12.6 2.5 -15.7 3.1 -5 1 -5.8 1.5 -6.2 3.8 -0.3 1.4 -1.7 8.9 -3.1 16.6 -1.4 7.7 -4 19.6 -5.9 26.5 -1.9 6.9 -3.3 12.6 -3.2 12.7 0.7 0.7 16.4 -10.7 25.1 -18.2 9.7 -8.4 10 -8.6 10.3 -6 0.3 2.6 -3 7.5 -5 7.5 -0.5 0 -2.2 1.6 -3.9 3.5 -1.7 1.9 -3.7 3.5 -4.4 3.5 -0.7 0 -1.5 0.7 -1.9 1.5 -0.3 0.8 -1.2 1.5 -2 1.5 -0.7 0 -1.6 0.7 -2 1.5 -0.3 0.8 -1.2 1.5 -2.1 1.5 -0.8 0 -1.5 0.5 -1.5 1 0 0.6 -0.7 1 -1.5 1 -0.8 0 -1.5 0.4 -1.5 0.8 0 2.8 -11.9 5.8 -12.1 3 0 -0.7 -0.5 -0.1 -1.1 1.5 -0.7 1.9 -1.7 2.7 -3.4 2.7 -1.9 0 -2.4 0.5 -2.4 2.5 0 2.9 -1.2 3.6 -18.7 10.6 -21.4 8.6 -37.9 12.6 -55.5 13.6 l-10.8 0.6 0 -3.9 c0 -4.6 1 -6.2 10.1 -16.4 7.8 -8.8 19.9 -23.9 19.9 -24.8 0 -0.4 -3.7 -2.7 -8.1 -5.2 -4.5 -2.5 -12.3 -7.2 -17.4 -10.6 l-9.2 -6.1 -12 7.6 c-6.7 4.2 -17.5 10.5 -24.2 14.1 -6.6 3.6 -12.1 6.7 -12.1 7 0 0.6 21.5 17.5 28.5 22.4 2.8 2 8.2 5.5 12.1 8 l7.2 4.4 2.1 -2.1 2.1 -2.1 0 3.7 c0 3.7 0 3.7 -4.3 3.7 -2.4 0 -4.8 -0.5 -5.5 -1.2 -0.9 -0.9 -1.2 -0.7 -1.2 1 0 1.9 -0.5 2.2 -4.4 2.2 -3.5 0 -4.5 -0.4 -4.9 -2z m43.8 -5.6 c17.2 -2.9 30.8 -7.3 54 -17.4 l5 -2.1 -11.5 -3.8 c-6.3 -2.1 -16.6 -5.9 -22.8 -8.5 -6.2 -2.7 -11.4 -4.7 -11.6 -4.5 -0.1 0.2 -3 4 -6.3 8.4 -3.3 4.4 -10.4 12.9 -15.7 18.8 -5.3 6 -9.6 11 -9.6 11.1 0 0.5 9.6 -0.5 18.5 -2z m68.8 -43.1 c4.5 -17.4 8.7 -36.7 8.7 -40.4 0 -1.4 -0.7 -1.9 -2.5 -1.9 -1.6 0 -2.5 -0.6 -2.5 -1.5 0 -0.8 -0.4 -1.5 -1 -1.5 -0.5 0 -1 -0.6 -1 -1.4 0 -1.5 2 -2.1 11 -3.1 6.5 -0.8 27.6 -4.7 37.5 -7 12.4 -2.8 25.3 -7.5 20.7 -7.5 -0.6 0 -7.6 -3.8 -15.4 -8.3 -13.8 -8.1 -33.2 -19.3 -52.5 -30.3 l-9.2 -5.2 -0.5 2.7 c-0.3 1.4 -0.8 4.4 -1.2 6.6 -1.8 11.5 -9.7 39 -13.2 46 -0.8 1.7 -2.4 3.9 -3.5 5 -2 1.9 -2 2 -0.3 2.3 1 0.2 2.2 -0.2 2.7 -1 0.6 -0.9 3.7 -1.4 9.9 -1.6 7.7 -0.3 9 -0.2 9 1.2 0 1 0.9 1.6 2.5 1.6 3.1 0 3.3 2.5 0.3 3.4 -1.3 0.3 -7.5 0.6 -13.9 0.6 l-11.6 0 -6.8 12.8 c-3.7 7 -9 16 -11.7 20 -2.7 3.9 -5.1 7.9 -5.4 8.7 -0.7 1.6 6.3 5.1 19.8 10 7.9 2.9 22.6 7.4 24.4 7.4 0.6 0.1 3.2 -7.9 5.7 -17.6z m-147.5 10 c-1 -0.2 -2.6 -0.2 -3.5 0 -1 0.3 -0.2 0.5 1.7 0.5 1.9 0 2.7 -0.2 1.8 -0.5z m95 -18 c12.8 -18.9 24.1 -41.9 30.5 -61.8 3.9 -12.1 9 -32.5 8.2 -32.5 -0.1 0 -1.5 1.9 -3 4.3 -3.1 4.6 -12.7 16.6 -21.4 26.7 -11.8 13.5 -23 24.6 -36.8 36.2 -12 10.1 -14.1 12.3 -13.1 13.5 3.2 3.8 27.6 19.3 30.5 19.3 0.7 0 3 -2.6 5.1 -5.7z m-123.8 -9.3 c0 -1.1 -0.4 -2 -1 -2 -0.5 0 -1 0.9 -1 2 0 1.1 0.5 2 1 2 0.6 0 1 -0.9 1 -2z m-6.4 -2.7 c-0.3 -0.7 -2.8 -4.6 -5.5 -8.7 -6.4 -9.4 -14.1 -24 -17.7 -33.5 l-2.9 -7.4 -7.5 -3.4 c-13.2 -6 -34.2 -18.1 -46.4 -26.9 -6.5 -4.6 -12.1 -8.3 -12.3 -8.1 -0.8 0.9 -4.2 19.5 -4.8 26.7 -0.9 11.7 -1.4 14 -3 14 -0.8 0 -1.5 0.5 -1.5 1 0 0.6 0.7 1 1.5 1 1.2 0 1.5 1.6 1.5 8.4 l0 8.4 3.7 3.3 c2.1 1.8 8.4 5.5 14.1 8.1 19.9 9.4 43.4 15.9 63.7 17.6 13.5 1.1 17.6 1 17.1 -0.5z m-103.6 -62.8 c0.6 -5.5 2 -14.7 3.1 -20.4 l1.9 -10.4 -13.3 -13.1 c-7.4 -7.2 -16.2 -16.2 -19.5 -20.1 l-6.1 -7 0.5 5.5 c3 28.8 11.7 56.8 25.2 80.5 l5.7 10 0.7 -7.5 c0.4 -4.1 1.2 -12 1.8 -17.5z m91.6 -34.9 c-5.7 -8.5 -22.9 -45.2 -29.3 -62.6 -5.5 -15.2 -14.3 -51.2 -14.3 -59.2 0 -1.1 -17.8 10.9 -27.8 18.9 -7 5.6 -9.2 7.9 -8.7 9.1 3.6 9.4 26.1 41.1 42 59.3 5 5.6 9 10.6 9 11.1 0 0.4 0.5 0.8 1 0.8 1.7 0.1 7.5 6.3 6.8 7.3 -0.3 0.6 -0.1 0.7 0.5 0.3 0.6 -0.4 4.1 2.1 7.9 5.7 5.8 5.4 14.3 12.6 15 12.7 0.1 0 -0.8 -1.5 -2.1 -3.4z m-83.8 -6.3 c0.5 -1.6 2.9 -8.2 5.2 -14.7 2.3 -6.6 6.4 -16.7 9.1 -22.6 2.7 -5.9 4.9 -11.3 4.9 -12.1 0 -0.8 -3.2 -5.9 -7.1 -11.4 -3.8 -5.5 -8.6 -12.9 -10.6 -16.4 l-3.6 -6.5 -12.1 12.5 c-10.1 10.4 -23 25.7 -25.9 30.6 -0.5 0.7 2.9 5.5 8.5 12 10.3 12 28.7 31.3 29.8 31.3 0.4 0 1.2 -1.2 1.8 -2.7z m0.2 -89.3 c0 -1.1 -0.4 -2 -1 -2 -0.5 0 -1 0.9 -1 2 0 1.1 0.5 2 1 2 0.6 0 1 -0.9 1 -2z m95.1 -30.6 c9 -13.5 27.5 -35.8 28.8 -34.9 0.4 0.2 3.7 -3 7.5 -7.1 3.8 -4.1 7.6 -7.4 8.5 -7.4 1.2 0 1.3 -0.2 0.3 -0.9 -1.4 -0.9 7.3 -9 20.1 -18.5 l6.8 -5.1 -2.3 -1.9 c-2.7 -2.3 -35.2 -18.2 -38.8 -19 -2.3 -0.6 -3 0.3 -10.4 13.9 -5 9 -8.6 14.5 -9.5 14.5 -1.1 0 -1.2 0.3 -0.4 0.8 0.8 0.5 -0.5 4.6 -4.4 13.7 -6.8 16.1 -10.2 26.1 -14.7 43.5 -2.7 10.5 -6.6 30.9 -6.6 34.9 0 0.3 2.3 -3.9 5.1 -9.4 2.8 -5.4 7.3 -13.1 10 -17.1z m-83.1 15.5 c9.6 -7.7 24.6 -17.9 26.1 -17.9 0.4 0 0.5 -2.2 0.2 -5 -0.5 -4.2 -0.3 -5 1.1 -5 0.9 0 1.6 -0.4 1.6 -1 0 -0.5 -0.6 -1 -1.4 -1 -1.9 0 -2.6 -3.2 -2.6 -13.2 0 -7.2 0.3 -8.8 1.5 -8.8 0.8 0 1.5 -0.8 1.5 -1.9 0 -1.4 -0.6 -1.7 -2.5 -1.3 -1.4 0.2 -2.5 1 -2.5 1.8 0 0.7 -1.6 1.6 -3.7 1.9 -11 1.8 -25.1 4.9 -37 8.2 l-13.4 3.8 0.7 3 c1 4.7 9.2 27 13.6 37.3 3.6 8.2 4.3 9.1 5.7 7.9 0.9 -0.7 5.9 -4.7 11.1 -8.8z m276 -11.6 c7.4 -4.2 18.7 -10.6 25 -14.3 6.3 -3.7 15.8 -9.1 21 -12 14 -7.9 18.5 -11.1 16.9 -12 -0.8 -0.5 -6.4 -2.4 -12.5 -4.4 -24.2 -7.9 -47.9 -11.6 -74.1 -11.6 l-16.3 0 4.6 9.2 c4.5 8.9 16.9 40 19.5 48.6 0.7 2.3 1.5 4.2 1.8 4.2 0.3 0 6.6 -3.4 14.1 -7.7z m-28.4 -13 c-3.6 -9.6 -16.1 -36.9 -17.9 -39.2 -1.3 -1.5 -9 -1.1 -24.2 1.4 -11.4 1.9 -36.6 7.7 -36.1 8.3 0.3 0.2 4 0.8 8.3 1.3 23.5 2.6 45.1 12.8 64.3 30.2 4.6 4.2 8.5 7.5 8.7 7.4 0.1 -0.2 -1.3 -4.4 -3.1 -9.4z m-124.5 -19.3 c23.2 -11.8 53.5 -20.8 85.2 -25.2 9.5 -1.3 15.7 -2.6 15.7 -3.2 0 -2.1 -13.9 -23.3 -21.9 -33.3 l-2.5 -3.1 -8 4 c-25.1 12.6 -57.1 37.2 -75.3 57.8 -4.8 5.5 -9 10.5 -9.2 11.2 -0.2 0.6 1.6 -0.1 4 -1.6 2.4 -1.5 7.8 -4.4 12 -6.6z m129.9 -27.6 c0 -1.5 1.4 -1.6 14.1 -1 13.3 0.7 14.1 0.7 13.5 -1.1 -0.3 -1 -1 -4.5 -1.6 -7.8 -1.3 -7.4 -9.3 -39.5 -11.3 -45 -1.3 -3.7 -1.6 -4 -4.8 -3.6 -7.8 0.8 -44.7 12.8 -53.9 17.6 l-2.9 1.5 7.6 10.8 c4.2 5.9 10 14.5 13 19.1 l5.2 8.4 9.1 -0.2 c7.6 -0.2 9 0 9 1.3 0 0.9 0.7 1.6 1.5 1.6 0.8 0 1.5 -0.7 1.5 -1.6z m-84.9 -26.6 c3.5 -2.2 11.2 -6.7 17.1 -9.8 l10.7 -5.6 -6.4 -7.3 c-3.5 -4 -6.3 -7.6 -6.2 -8 0.1 -0.3 -0.1 -0.6 -0.5 -0.6 -0.4 0 -5.9 -5.2 -12.3 -11.5 -8.1 -8.1 -11.1 -11.7 -10.2 -12.3 0.8 -0.6 0.7 -0.7 -0.4 -0.4 -0.9 0.3 -3.2 -0.8 -5.3 -2.5 l-3.7 -3.1 -3.2 2.9 c-2.5 2.3 -4 2.9 -6.5 2.6 l-3.3 -0.3 2.6 -3.5 2.7 -3.6 -4.3 0.6 c-28.4 3.8 -42.5 7.3 -58.9 14.2 -12.9 5.5 -29.1 14.4 -28.4 15.5 0.3 0.5 2 0.9 3.9 0.9 5.7 0 26.4 3.9 40.4 7.6 7.4 1.9 13.7 3.1 14.1 2.7 0.4 -0.4 2.4 -3.3 4.5 -6.3 2.1 -3 7.3 -9.7 11.4 -14.9 7.5 -9.3 7.6 -9.4 8.2 -6.5 0.6 2.8 0.7 2.8 0.8 0.3 0.1 -3.4 3.2 -6.1 6.6 -5.7 2.6 0.3 2.6 0.4 -3 6.8 -7 7.9 -22.9 28.9 -22.4 29.4 0.2 0.2 3.9 1.8 8.2 3.6 4.3 1.8 8.1 3.9 8.4 4.6 0.3 0.8 0.9 1.1 1.4 0.9 1.2 -0.8 8.6 3.2 9.3 5 0.4 1 1.3 1.4 2.4 1.1 1.2 -0.4 4 0.8 7.8 3.3 3.2 2.2 6.4 4 7 4 0.6 0.1 4 -1.8 7.5 -4.1z"/>
  <path d="M87 261 c0 -4.3 0.3 -5 2 -5 1.5 0 2 0.7 2 2.8 0 4.2 -1.1 7.2 -2.6 7.2 -1 0 -1.4 -1.4 -1.4 -5z"/>
  <path d="M316.8 56.3 c-1 -0.2 -1.8 -1.1 -1.8 -1.9 0 -1 1.4 -1.4 5.5 -1.4 4.8 0 5.5 0.2 5.5 2 0 1.7 -0.6 2 -3.7 1.9 -2.1 -0.1 -4.6 -0.3 -5.5 -0.6z"/>
 </g>
 <g fill="#f7f2ee">
  <path d="M0 259.5 l0 -259.5 280.5 0 280.5 0 0 259.5 0 259.5 -280.5 0 -280.5 0 0 -259.5z m305 233.7 c0 -0.4 -1.5 -1.6 -3.2 -2.7 -6.5 -3.8 -26.5 -18.5 -33.3 -24.4 -3.8 -3.4 -7.5 -6.1 -8 -6.1 -0.6 0 -4.4 1.6 -8.5 3.6 -4.1 2 -12.6 5.3 -18.8 7.4 -6.3 2.1 -11.6 4 -11.8 4.3 -0.7 0.6 21.1 8.3 30.4 10.6 11.4 2.9 30 6.1 41 7 5.3 0.5 10.3 0.9 11 1 0.6 0 1.2 -0.3 1.2 -0.7z m15.3 -6.9 c12.8 -13.5 29.7 -34.1 29.7 -36.2 0 -0.5 -3.3 -2.8 -7.2 -5 -4 -2.2 -11.8 -6.9 -17.3 -10.6 -11.4 -7.5 -9.3 -7.6 -22.5 1 -4.7 3.1 -14.7 9 -22.2 13.1 -7.6 4.2 -13.8 7.9 -13.8 8.3 0 1 16.7 14.4 25.5 20.6 12.3 8.6 21 14.4 21.7 14.4 0.4 0.1 3.1 -2.5 6.1 -5.6z m28 2.7 c13 -2.7 20.4 -5 35 -10.9 12.7 -5.1 18.7 -7.8 18.7 -8.5 0 -0.2 -5.2 -2.1 -11.6 -4.1 -6.3 -2 -16.7 -5.8 -23 -8.5 l-11.5 -4.8 -2.7 3.5 c-9.3 12.1 -15.5 19.5 -22.4 26.8 -4.3 4.6 -7.8 8.6 -7.8 9 0 1.2 14.8 -0.3 25.3 -2.5z m-124.7 -20.4 c10.7 -3.6 32.4 -12.5 32.4 -13.3 0 -0.2 -2.4 -2.6 -5.2 -5.2 -2.9 -2.7 -7.3 -7.3 -9.7 -10.4 l-4.4 -5.5 -10.6 -0.1 c-25.1 -0.4 -56.4 -7.8 -78.3 -18.6 -3.9 -1.9 -7.5 -3.5 -8 -3.5 -3.2 0 16.7 21 30.7 32.2 5.5 4.5 13.7 10.5 18.2 13.5 8.1 5.3 23.3 14.2 24.4 14.3 0.3 0 5 -1.5 10.5 -3.4z m183.8 -5.3 c6.6 -22.7 14.2 -58.1 12.7 -59.3 -0.3 -0.3 -8.3 -0.4 -17.8 -0.2 l-17.1 0.3 -5.8 11.2 c-3.3 6.2 -9 15.9 -12.7 21.6 -3.8 5.7 -6.5 10.7 -6 11.2 1.9 1.8 18.7 8.6 31.3 12.5 7.4 2.4 13.8 4.3 14.2 4.4 0.4 0 0.9 -0.8 1.2 -1.7z m17.4 -7.6 c14.1 -9.7 33.2 -27.7 44.6 -42.1 7.3 -9.1 16.6 -23 16.6 -24.8 0 -0.4 -1.9 0 -4.2 0.8 -7.3 2.6 -29.7 8.2 -41.3 10.4 -6 1.2 -11.7 2.3 -12.5 2.6 -1.2 0.3 -2.2 4 -3.9 14.1 -1.3 7.5 -3.9 19.5 -5.7 26.7 -5.1 19.6 -5 19.1 -3 18.3 1 -0.4 5.2 -3.1 9.4 -6z m-150.3 -9.3 c18.2 -10 38.4 -23.6 54.5 -36.8 9.6 -7.9 39.6 -37.3 38.8 -38.1 -0.3 -0.3 -3.6 0.9 -7.4 2.6 -3.8 1.7 -12.1 4.9 -18.4 6.9 -38.6 12.7 -78.7 12.8 -122.3 0.3 -4.9 -1.4 -9.1 -2.3 -9.3 -2 -0.8 0.8 6 14.9 12.2 25.3 3.1 5.2 8.9 13.7 12.9 19 7.2 9.5 25.1 29.4 26.3 29.4 0.4 0 6.1 -3 12.7 -6.6z m83.2 -5.6 c4.7 -6.7 15.8 -25.8 21.2 -36.5 5.3 -10.6 14.1 -36.5 17.2 -50.2 2.6 -12 2.5 -13.4 -0.9 -8 -10.9 17 -39.6 48.3 -60.5 65.8 -9.7 8.1 -13.4 11.8 -12.7 12.6 3 3.6 29.3 20.4 32.1 20.5 0.3 0 1.9 -1.9 3.6 -4.2z m-127.7 -13.3 c0 -0.2 -3.2 -5.3 -7.1 -11.2 -7.3 -11 -15.6 -27.3 -18 -35.2 -1.3 -4.3 -1.5 -4.5 -11.5 -9.2 -14.7 -6.8 -32.1 -17 -45.4 -26.5 -7.5 -5.4 -11.7 -7.8 -12.1 -7.1 -2.5 4.5 -5.9 30.5 -6.2 47.6 l-0.2 12.3 3.7 3.2 c10.4 9 43.6 21.1 68.3 25 8.6 1.3 28.5 2.1 28.5 1.1z m182.5 -29.5 c11.6 -1 38.2 -5.3 48.6 -8 9.1 -2.3 21.9 -6.3 21.9 -6.9 0 -0.3 -1.7 -1.5 -3.8 -2.7 -2 -1.1 -15.6 -8.9 -30.2 -17.4 -33.8 -19.6 -43.3 -25 -44.2 -25 -0.5 0 -0.8 1.2 -0.8 2.6 0 7.4 -8.3 39.1 -13.5 51.5 -1.4 3.2 -2.5 6.1 -2.5 6.4 0 0.8 10.6 0.6 24.5 -0.5z m-286.9 -34.4 c0.8 -7.6 2.3 -17.8 3.3 -22.7 l1.8 -8.7 -10.8 -10.1 c-5.9 -5.6 -14.8 -14.7 -19.6 -20.2 -8.7 -9.9 -8.8 -9.9 -9.1 -6.8 -0.5 4.2 2.4 22.2 5.5 34.4 3.6 14.4 11.4 34.3 18.5 47 8.4 15.2 8.3 15 8.6 7.4 0.1 -3.5 0.9 -12.6 1.8 -20.3z m164.9 20.5 c-0.6 -0.5 -4.1 -1.8 -8 -3.1 -8 -2.5 -23.4 -10 -31.9 -15.4 -12.5 -8.1 -52 -41.9 -65.1 -55.7 -3.8 -4.1 -11.7 -13 -17.4 -19.8 -9.4 -11.2 -10.6 -12.2 -11.7 -10.6 -2.1 2.9 -13 29.3 -15.8 38.3 -4 12.7 -4 12.7 6.1 20.1 25.1 18.5 53.2 32.6 77.8 38.9 12.4 3.2 31.6 6.9 39.5 7.5 9.8 0.8 27.4 0.7 26.5 -0.2z m-72.8 -55.2 c-6 -9.4 -19.4 -36.8 -26.2 -53.4 -7.2 -17.8 -13.9 -42.1 -16.5 -59.8 -0.8 -4.8 -1.7 -9 -2.1 -9.3 -2.1 -1.3 -36.9 24.5 -36.9 27.4 0 5.1 24.2 40.4 39.5 57.7 11.6 13 44.2 44 45.3 43 0.2 -0.2 -1.2 -2.7 -3.1 -5.6z m-84.3 -6.5 c3.9 -12 10.6 -29.7 14.8 -38.8 l5.1 -10.8 -8 -11.7 c-4.4 -6.4 -9.5 -14.3 -11.3 -17.5 l-3.4 -6 -11.4 12 c-9.3 9.7 -17.8 19.6 -27.4 32 -1.5 2 37.1 44.9 39.6 44.1 0.6 -0.2 1.5 -1.7 2 -3.3z m71.2 -36.5 c-3.1 -27 2.7 -75.8 12.8 -107.8 7.7 -24.3 21.4 -54.1 31.9 -69.4 1.1 -1.7 1.6 -3.2 1.1 -3.7 -2.5 -2.5 -49.3 -12 -58.8 -12 l-3.3 0 -3.1 12.8 c-9.9 40.2 -11.3 70.1 -5.1 106.7 2.3 13.4 7.7 35.9 10.8 45 2.9 8.3 13.5 34.5 14 34.5 0.2 0 0 -2.7 -0.3 -6.1z m-96.5 -32.4 c6.4 -7.2 13.5 -14.7 15.8 -16.8 l4.2 -3.8 -4.9 -10.7 c-5.3 -11.4 -9.4 -22.1 -12.2 -31.1 l-1.7 -5.6 -2.2 5 c-4.1 9.2 -10.2 27.9 -12.2 37.2 -2.3 11.2 -4.9 32.7 -4.9 40.8 l0.1 6 3.2 -4 c1.8 -2.2 8.4 -9.8 14.8 -17z m105.9 -24.1 c0 -0.9 2.5 -6.3 5.5 -11.9 15.2 -28.3 46.9 -64 75.2 -84.8 l6.3 -4.5 -4.8 -3.1 c-4.4 -2.8 -22.4 -11.6 -34.4 -16.9 l-4.8 -2.1 -3.6 6.2 c-8 13.7 -17.5 32.9 -22.8 46.2 -6.7 16.8 -14.1 43.2 -16.1 57.2 -0.8 5.6 -1.7 11.3 -2.1 12.8 -0.4 1.5 -0.2 2.5 0.5 2.5 0.6 0 1.1 -0.7 1.1 -1.6z m-70.6 -9.9 c5.8 -4.6 13.9 -10.6 18 -13.2 4.1 -2.6 8.1 -5.2 9 -5.8 1.3 -0.9 1.4 -3.3 0.8 -17.2 -0.4 -8.9 -1.1 -16.5 -1.5 -16.9 -1.7 -1.8 -28.8 3.6 -48.7 9.7 -5.3 1.6 -7 2.5 -7 3.9 0 4.5 16.8 48 18.5 48 0.2 0 5.1 -3.8 10.9 -8.5z m287.1 -18 c21.6 -12.4 21.5 -12.4 33.5 -19 13.6 -7.6 22.2 -13.4 21.5 -14.5 -0.3 -0.5 -3 -1.6 -6.1 -2.5 -3.5 -1 -5.2 -2 -4.8 -2.7 0.4 -0.7 0.3 -0.8 -0.5 -0.4 -0.6 0.4 -4.2 -0.1 -7.9 -1.3 -19.7 -5.9 -40.6 -9 -65.4 -9.8 -14.8 -0.4 -19.8 -0.3 -19.8 0.6 0 0.6 2 5.1 4.4 10 4.9 9.6 11.8 26.9 17.3 42.8 l3.5 10.2 4.1 -2.1 c2.3 -1.1 11.4 -6.2 20.2 -11.3z m-33 3.6 c-0.3 -0.5 -2 -5.2 -3.9 -10.3 -1.8 -5.1 -6.8 -16.9 -11.2 -26.2 l-7.8 -16.8 -6.1 0.6 c-15.7 1.7 -54.1 9.3 -58.3 11.6 -0.8 0.4 2.8 1 8 1.4 26.5 1.8 49.4 12.4 71.3 33 7.9 7.5 9.1 8.4 8 6.7z m-138.2 -25.5 c25.4 -14.9 63.1 -26.8 97.9 -30.7 5.9 -0.7 11.3 -1.6 11.9 -1.9 1.4 -0.9 -0.5 -4.6 -8.4 -16.5 -7.9 -12 -15 -21.4 -16.1 -21.5 -0.5 0 -5.7 2.5 -11.5 5.6 -30 16.1 -61.1 41.4 -80.2 65.2 -2.2 2.9 -3.8 5.2 -3.4 5.2 0.3 0 4.7 -2.4 9.8 -5.4z m-122.3 -13.4 c9.1 -2.3 19.4 -4.6 23 -5.2 11.7 -1.9 10.6 -0.9 11.3 -10.2 0.8 -10.7 4.1 -29.3 7.6 -43.5 1.6 -6.2 2.7 -11.3 2.5 -11.3 -0.2 0 -4.1 2.9 -8.6 6.4 -17.9 13.8 -40.1 39.4 -51.4 59.1 -5.2 9 -5.8 11.3 -2.6 9.6 0.9 -0.5 9.1 -2.7 18.2 -4.9z m347.1 -8.9 c-7.6 -15.1 -28.2 -38.9 -47.4 -55 -9.2 -7.7 -16.6 -12.8 -17.3 -12 -0.3 0.2 0.8 5.1 2.4 10.8 3.4 12 8.8 35.2 9.7 42.1 0.8 5.3 0.3 4.9 12 7.3 12.6 2.5 29.5 7.1 36 9.9 3.3 1.4 6.3 2.5 6.8 2.6 0.4 0 -0.6 -2.6 -2.2 -5.7z m-58.5 -15 c-1 -7.9 -7.3 -34.7 -10.7 -45.5 l-3.1 -10 -4.1 0.5 c-13 1.8 -56.3 17 -56.1 19.7 0.1 0.8 4.8 8.3 10.5 16.6 5.7 8.2 11.3 16.7 12.4 18.8 l2 3.8 12.5 -0.4 c6.9 -0.3 16.3 -0.1 21 0.2 4.7 0.4 10.2 0.7 12.4 0.8 l3.9 0.2 -0.7 -4.7z m-109.7 -23.7 c4.7 -3 12.3 -7.2 16.9 -9.5 4.5 -2.3 8.2 -4.4 8.2 -4.7 0 -3 -43.7 -46.7 -45.6 -45.6 -4.2 2.4 -33.5 38.8 -33.8 42 -0.1 0.8 1.4 2 3.4 2.7 6.3 2.2 26.5 12.3 33.1 16.4 3.5 2.3 7 4.1 7.8 4.1 0.8 0 5.3 -2.4 10 -5.4z m43 -21.6 c11.9 -5 29.6 -10.7 40.4 -13 3.1 -0.7 5.7 -1.6 5.7 -2 0 -0.9 -14.9 -8.2 -24 -11.8 -10.7 -4.2 -31 -9.9 -41.8 -11.7 -7.8 -1.3 -36.2 -3.5 -36.2 -2.8 0 0.2 7.5 7.8 16.8 17.1 9.2 9.2 19 19.5 21.7 23 2.8 3.4 5.1 6.2 5.3 6.2 0.1 0 5.6 -2.2 12.1 -5z m-98.6 -5.5 c6.6 -9.6 12.4 -16.8 21.5 -26.5 3.4 -3.7 6.2 -7 6.2 -7.4 0 -0.5 -3 -0.5 -6.7 -0.2 -19.5 2 -39.6 6.9 -56.1 13.8 -9.6 4 -30.2 14.8 -30.2 15.9 0 0.3 4.8 1.1 10.7 1.8 11.4 1.4 37.1 7 43.8 9.5 2.2 0.8 4.2 1.5 4.5 1.5 0.3 0 3.1 -3.8 6.3 -8.4z"/>
 </g>
</svg>