<?xml version="1.0" encoding="utf-8"?>
<!DOCTYPE svg PUBLIC "-//W3C//DTD SVG 1.0//EN" "http://www.w3.org/TR/2001/REC-SVG-20010904/DTD/svg10.dtd">
<svg version="1.0" xmlns="http://www.w3.org/2000/svg" width="1050px" height="1041px" viewBox="0 0 1050 1041" preserveAspectRatio="xMidYMid meet">
 <g fill="#90aa8e">
  <path d="M535 994.3 c-21.3 -1.6 -58.6 -8.2 -83 -14.8 -12.8 -3.5 -43.8 -14 -52.2 -17.7 -6.4 -2.9 -6.8 -3.3 -6.8 -6.3 0 -2.2 0.6 -3.5 1.8 -4 0.9 -0.4 8.5 -3.1 16.8 -6 15.5 -5.5 43.2 -16.5 54.2 -21.6 3.8 -1.8 7.9 -2.9 10.6 -2.9 3.7 0 5 0.7 9.7 4.8 3 2.6 11.6 9.7 19 15.9 12.9 10.6 19.7 15.5 51.7 37.6 12.4 8.6 13.2 9.3 13.2 12.4 l0 3.3 -15.2 -0.2 c-8.4 -0.1 -17.3 -0.3 -19.8 -0.5z"/>
  <path d="M578 986.8 c-21.7 -11.9 -43.6 -26.8 -69.9 -47.7 -16.2 -12.8 -21.1 -17.9 -21.1 -21.8 0 -3 0.5 -3.5 6.3 -6.4 16.7 -8.4 48.4 -26.7 62.2 -35.9 3.9 -2.6 9.3 -6.2 12 -8 2.8 -1.8 8.6 -5.7 13 -8.7 4.9 -3.3 9.1 -5.3 10.8 -5.3 2 0 8.3 3.8 21.2 12.8 21.6 15 34.2 22.8 45.9 28.5 8.2 4 8.6 4.3 8.6 7.5 0 2.5 -1.9 5.9 -8.7 15 -4.7 6.4 -8.9 11.9 -9.2 12.2 -0.3 0.3 -4.2 4.8 -8.6 10 -12.8 15.3 -23.1 26.7 -35.9 39.8 -14.3 14.5 -14.7 14.6 -26.6 8z"/>
  <path d="M364.5 945.7 c-46.1 -24.3 -94.3 -62.4 -129.4 -102.2 -13.2 -14.9 -16.1 -19.1 -16.1 -23.2 0 -3 0.2 -3.3 3.1 -3.3 1.9 0 7.2 2.2 13.3 5.4 11.8 6.4 42 19.1 55.6 23.5 46.8 15.1 81.9 20.7 120.3 19.3 l14.7 -0.5 3.8 4.3 c6.7 7.8 18.5 20.3 28.9 30.8 9 9 10.3 10.8 10.3 13.7 0 3.1 -0.4 3.6 -5.7 6 -27.9 13 -78.2 31.5 -85.6 31.5 -1.9 0 -7.2 -2.1 -13.2 -5.3z"/>
  <path d="M793 928.1 c0 -1.6 1.2 -6.9 2.6 -11.7 9.2 -31.8 19.7 -81.2 22.5 -105.7 0.7 -6.1 1.7 -11 2.3 -11.2 0.6 -0.1 9.9 -1.7 20.6 -3.4 22.7 -3.6 54.8 -11.1 81 -18.8 10.2 -3.1 20.4 -5.7 22.8 -6 4.2 -0.5 4.2 -0.5 4.2 2.6 0 5 -6.7 16.7 -20.4 35.6 -33.5 46.4 -70.6 82.4 -117.7 114.3 -8.4 5.7 -11.4 7.2 -14.3 7.2 -3.3 0 -3.6 -0.2 -3.6 -2.9z"/>
  <path d="M467.9 903.6 c-13.6 -12.1 -38.7 -41.2 -52.3 -60.9 -23.3 -33.7 -46.6 -78.5 -46.6 -89.6 l0 -3.4 5.3 0.6 c2.9 0.4 8.6 1.8 12.7 3.2 13 4.5 49 13.3 63 15.4 43.4 6.6 65.5 7.6 102.2 4.7 54.3 -4.2 88.3 -13.2 132.9 -35.1 7.7 -3.8 12.4 -5.5 15 -5.5 3.8 0 3.9 0.1 3.9 3.4 0 3 -1.4 5 -10.3 14.8 -18 19.6 -42.7 44 -56.3 55.5 -2.7 2.3 -6.2 5.3 -7.9 6.8 -9.3 8.2 -20.9 17.8 -27.5 22.8 -4.1 3.1 -10 7.6 -13 10 -10.2 8.1 -44.5 30.8 -58.4 38.7 -1.7 0.9 -8.3 4.6 -14.6 8.2 -17.9 10.2 -33.7 17.8 -36.8 17.8 -2.2 0 -5 -1.9 -11.3 -7.4z"/>
  <path d="M740.3 796.3 c-2.6 -1 -1.2 -7.2 4.5 -20.3 6.3 -14.6 15.2 -40.6 20.1 -59 3.1 -11.6 7.9 -37.1 8.8 -46.7 0.9 -8.8 -0.7 -9.4 50.3 20.2 7.4 4.3 21.2 12.2 30.5 17.5 25.6 14.6 73 42.1 81.3 47.1 6.4 3.9 7.2 4.7 7.2 7.4 0 3.1 0 3.1 -13.7 7.3 -47.5 14.6 -96.3 23.3 -147.3 26.2 -17.3 1 -39.6 1.2 -41.7 0.3z"/>
  <path d="M181.3 767.8 c-18.4 -31.8 -37.7 -78.8 -46.3 -112.9 -5.4 -21.5 -12 -64.7 -12 -78.9 l0 -7 3.3 0 c2.8 0.1 3.9 1 8 6.5 12.1 16 50.8 56.6 68.9 72.1 3.1 2.7 6 6 6.4 7.2 0.4 1.3 -0.4 7.6 -1.6 14 -3.7 18.9 -4.9 26.1 -6.5 36.5 -1.8 11.6 -4.1 37.4 -5 54.7 -0.3 6.9 -0.8 14.2 -1.1 16.3 -0.5 3.4 -0.8 3.7 -3.8 3.7 -3.1 0 -3.6 -0.6 -10.3 -12.2z"/>
  <path d="M534 764.5 l0 -3.5 5 0 5 0 0 3.5 0 3.5 -5 0 -5 0 0 -3.5z"/>
  <path d="M759 680 c0 -3.9 0.1 -4 3.5 -4 3.4 0 3.5 0.1 3.5 4 0 3.9 -0.1 4 -3.5 4 -3.4 0 -3.5 -0.1 -3.5 -4z"/>
  <path d="M352.6 563.2 c-33.8 -75.7 -52.6 -162.1 -52.6 -241.3 0 -34.1 2.6 -65 8.1 -94.4 2.2 -12.2 11.8 -52.9 15.1 -64.4 l2.2 -7.4 8.5 0.6 c21.9 1.5 78 11.8 108.6 19.9 l16 4.3 0.3 4.3 c0.3 4 -0.5 5.8 -9.2 20 -9 15 -25 45.4 -31 59.2 -1.6 3.6 -4.7 10.6 -6.9 15.5 -7.6 17.3 -17.4 44.8 -24.2 68 -19.3 65.8 -30.3 146.1 -26.5 194.5 0.7 8.5 1.4 18.8 1.7 22.8 l0.5 7.2 -3.3 0 c-3.3 0 -3.5 -0.3 -7.3 -8.8z"/>
  <path d="M122.4 534.9 c-1.8 -2.9 2 -51.3 6 -77.9 4.6 -30.1 12.4 -58.6 24.8 -91 l6.3 -16.5 3.6 -0.3 c3.4 -0.3 3.5 -0.2 4.7 4.5 4.7 17.8 17.4 51.4 28.3 74.6 10.6 22.6 10.7 22.2 -1.3 33.5 -12.7 12.1 -37.5 39.6 -52.6 58.5 -11.6 14.4 -12.9 15.7 -15.8 15.7 -1.8 0 -3.6 -0.5 -4 -1.1z"/>
  <path d="M373 446.1 c0 -4.5 4.6 -32.8 8.4 -51.6 11.8 -58.3 32.6 -115.5 61.9 -170 8.5 -15.9 19 -33.8 21.6 -36.9 2.5 -2.9 10.2 -1.5 26.3 4.9 15.6 6.2 52.1 23.9 63.3 30.7 6.7 4.1 7 4.5 7.3 8.4 0.3 4 0.2 4.2 -7.5 9.9 -15.4 11.5 -36.5 28.5 -48.3 38.9 -15 13.3 -45.5 45.4 -59.9 63.1 -13.1 16.2 -29.8 39.1 -36.4 50.2 -1.8 3 -5.2 8.7 -7.7 12.7 -2.5 4 -8.5 15.2 -13.5 24.9 -8.9 17.4 -9.1 17.7 -12.2 17.7 -3 0 -3.3 -0.3 -3.3 -2.9z"/>
  <path d="M208.2 440.8 c-1.9 -2.4 -9.2 -17.8 -13.3 -28 -16 -40 -23.9 -64.4 -23.9 -73.8 l0 -5.7 5.8 -1.6 c17.5 -5.1 33.2 -9.2 52.3 -13.6 21.9 -5.1 54.4 -11.1 59.7 -11.1 2.8 0 3 0.2 3.6 5.3 0.3 2.8 0.6 11.3 0.6 18.7 0 7.4 0.4 18.5 1 24.5 0.5 6.1 1.2 14.6 1.5 19 l0.7 8 -18.3 12 c-25.4 16.7 -39.2 27.1 -56.7 42.8 -5.6 4.9 -10.7 6.3 -13 3.5z"/>
  <path d="M774.5 404.8 c-10.3 -33.2 -22.9 -64.4 -39.6 -98.1 -7.2 -14.4 -10.9 -23 -10.9 -25.1 0 -3.3 0.1 -3.3 5.3 -4 9.2 -1.1 47.6 -0.6 65.7 0.9 53.5 4.3 100.2 14.4 144.8 31.3 l9.2 3.5 0 3.7 c0 4.1 -0.5 4.4 -20.5 15 -1.6 0.8 -5.7 3.1 -9 5.1 -3.3 2 -10.7 6.2 -16.5 9.4 -5.8 3.2 -17.9 10.2 -27 15.5 -9.1 5.3 -19.2 11.2 -22.5 13 -3.3 1.9 -9.1 5.2 -13 7.5 -3.8 2.3 -11.3 6.5 -16.5 9.5 -5.2 2.9 -11.7 6.7 -14.5 8.5 -10.7 6.9 -24.7 13.5 -28.4 13.5 l-3.7 0 -2.9 -9.2z"/>
  <path d="M177.2 318.8 c0.4 -4.1 2 -8 7.2 -17.2 23.1 -41.3 57.2 -82.7 95.6 -115.7 21.7 -18.6 27.7 -22.9 31.7 -22.9 l3.5 0 -0.4 5.8 c-0.3 3.1 -2.3 12.9 -4.6 21.7 -7.6 30 -12.7 59.4 -15.2 88.5 -1.6 17.8 -2 21 -2.9 21 -6.2 0 -80.3 15.5 -95.5 20 -7.4 2.2 -14.9 4 -16.6 4 l-3.2 0 0.4 -5.2z"/>
  <path d="M562.4 222.6 c-7.7 -5.1 -18 -10.7 -37.4 -20.4 -20.9 -10.4 -26.1 -12.7 -40.2 -17.8 -10.7 -3.9 -10.8 -3.9 -10.8 -7.2 0 -3.7 3.6 -9.5 16.4 -26.2 13.9 -18.2 37.1 -45.4 51.5 -60.3 5.8 -5.9 7 -6.7 10.3 -6.7 4.8 0 7 1.9 36 31 25.9 26 38.6 39.7 50.1 54 6.7 8.3 7.7 10 7.7 13.5 0 4 -0.1 4.1 -6.7 7.4 -10.8 5.2 -27.4 14.5 -46 25.7 -20.1 12.2 -22.2 12.7 -30.9 7z"/>
  <path d="M650.5 176.3 c-18.9 -23.1 -46.2 -52.6 -69.2 -74.8 -14.6 -14 -15.3 -14.9 -15.3 -18.6 l0 -3.9 12.3 0 c42.5 0 96.2 9.6 139.4 24.9 17.5 6.2 25.8 9.8 46.1 20 l16.2 8.1 0 3.5 c0 3.2 -0.3 3.5 -4.2 4.5 -42.1 11 -69.3 20 -101.5 33.9 -16.9 7.3 -19.6 7.6 -23.8 2.4z"/>
  <path d="M450.3 172.9 c-18.5 -6.3 -73.5 -17.9 -106.5 -22.5 -4.6 -0.6 -4.8 -0.7 -4.8 -3.9 0 -3.1 0.6 -3.7 8.3 -8.5 12.7 -8 46.4 -24.1 64.6 -31 35.1 -13.2 85.2 -24.5 117.4 -26.6 l10.7 -0.6 0 3.2 c0 2.6 -1.5 4.9 -8.7 12.8 -13.6 15 -14.4 15.9 -26.2 30 -9.3 11.2 -19.8 24.9 -27.1 35.6 -10.2 14.9 -9.9 14.6 -14.9 14.5 -2.5 -0.1 -8.3 -1.4 -12.8 -3z"/>
 </g>
 <g fill="#d6ad52">
  <path d="M605 989.8 c0 -4.2 0.5 -4.9 9.2 -14.4 15.3 -16.6 28.7 -32 44.2 -51.2 l14.9 -18.2 4.4 0 c3.2 0 7.9 1.5 16.8 5.5 20.5 9.1 28.9 12.4 48.5 19.1 26.8 9.1 26 8.8 26 12.8 0 1.9 -0.8 4 -1.8 4.9 -4.5 4.1 -41.6 19.2 -66.3 27 -26.3 8.3 -65.6 16.6 -87.1 18.3 l-8.8 0.7 0 -4.5z"/>
  <path d="M746 925.6 c-27.9 -9.4 -33 -11.3 -49.9 -18.5 -18.3 -7.9 -18.3 -7.6 -2.8 -31.3 12.3 -18.8 29.7 -48.9 36.7 -63.5 l4.5 -9.3 20 0 c11 0 28.4 -0.3 38.8 -0.7 l18.7 -0.6 0 5.1 c0 6.1 -2.4 23.6 -5.1 38.2 -5.1 26.5 -20.4 85.4 -23.1 88.8 -2.3 2.8 -10.4 1 -37.8 -8.2z"/>
  <path d="M654.5 886.6 c-13.4 -6.6 -37.9 -22.3 -47.3 -30.3 -5.1 -4.4 -5.3 -4.7 -5 -9.1 0.3 -5.1 1.2 -5.9 24.9 -25.2 18.3 -14.9 49.8 -45.4 68.6 -66.3 6 -6.6 12.6 -14.1 14.9 -16.6 7 -7.8 29.8 -36.8 40.8 -51.8 6.2 -8.6 7 -9.3 10.2 -9.3 l3.4 0 0 6.3 c0 6.7 -5.2 31.9 -9.6 46.7 -14.1 47.1 -29.8 82.8 -53.9 122.7 -6.9 11.4 -15.4 24.9 -18.9 29.8 -6.2 8.8 -6.4 9 -10.7 9.3 -3.7 0.2 -6.5 -0.8 -17.4 -6.2z"/>
  <path d="M377.7 857.9 c-18.9 -1.5 -51.1 -7 -65.2 -11 -40 -11.4 -88.6 -32.6 -105.4 -45.9 l-5.1 -4 0 -20.3 c0 -21.2 0.9 -35.8 3.6 -56.7 2 -16.1 7 -47.4 8.4 -52.2 1.9 -6.6 4.9 -5.6 22.4 7.6 34.5 25.9 70.5 46.8 106.1 61.8 7.7 3.2 14.5 6.4 15.2 7.1 0.6 0.7 3.2 6.6 5.8 13.1 9 23.4 29.3 60.6 47 86 5.8 8.3 7.2 13.7 3.9 15 -2.1 0.8 -24.5 0.5 -36.7 -0.5z"/>
  <path d="M494.5 768 c-20.5 -1.7 -63.9 -8.6 -80 -12.6 -13.4 -3.4 -43.7 -12.7 -55.4 -17.1 -12.9 -4.8 -45.1 -19.7 -59.1 -27.3 -10.5 -5.7 -24.4 -13.9 -36 -21.2 -6.5 -4.1 -31.1 -22.3 -38.7 -28.7 l-6.5 -5.4 0.5 -6.1 c0.6 -8 7.2 -30.4 15.1 -51.9 6 -16.1 21.5 -51.6 23.9 -54.5 0.6 -0.7 2.5 -1.2 4.6 -1 3.1 0.3 4.4 1.4 10.6 8.9 20.4 24.9 26.4 31.7 46.4 52.4 42.9 44.2 100.1 93.8 135.1 117.2 25 16.7 40.7 24.6 66.5 33.5 12.7 4.5 18.1 6.8 18.3 8 0.2 0.9 -0.5 1.8 -1.5 2.1 -1.7 0.4 -1.7 0.5 0 0.6 0.9 0 1.7 0.7 1.7 1.5 0 0.9 -1.8 1.5 -5.2 2 -6.7 0.8 -28.6 0.5 -40.3 -0.4z"/>
  <path d="M378.3 653.4 c-29.8 -25.3 -75.2 -71.6 -97.5 -99.4 -22.9 -28.6 -40.5 -54.3 -59.6 -87.1 -8.4 -14.3 -8.4 -15.4 1 -24.5 7.3 -7 13.5 -12.1 29.8 -24.5 25.2 -19.1 36.2 -25.9 41.8 -25.9 4.7 0 4.4 -0.6 6.6 13.5 7.5 48.5 18.6 87.2 40.9 143.5 7 17.6 30.3 64.7 43.7 88.4 6.3 11.2 9 17 9 19.3 0 3.2 -0.1 3.3 -3.9 3.3 -3.5 0 -5 -0.9 -11.8 -6.6z"/>
  <path d="M195.5 634.8 c-20.2 -18.6 -28.9 -27.9 -56.5 -60.7 -12.9 -15.3 -13 -15.4 -13 -20.4 0 -4.8 0.4 -5.7 8.8 -16.6 15.4 -20.4 28.9 -36.1 49.4 -57.3 19.1 -19.9 20.1 -20.8 23.8 -20.8 3.7 0 3.8 0.1 7.6 7.7 2.2 4.3 12.1 20.2 22.1 35.3 12.6 19 18.3 28.4 18.3 30.3 0 1.5 -2.3 7.8 -5.1 14 -18.3 40.3 -31 72.6 -35.7 90.6 l-1.7 6.6 -4 0.2 c-3.8 0.3 -4.6 -0.3 -14 -8.9z"/>
  <path d="M747.8 385 c-24.7 -27.1 -60.4 -50.5 -94.8 -62 -21.5 -7.2 -49.1 -11.9 -70.2 -12 -2.6 0 -2.8 -0.3 -2.8 -3.9 l0 -3.9 8.6 -2.6 c15.5 -4.9 35.3 -9.3 65.4 -14.5 14.8 -2.6 51 -7.1 56.9 -7.1 5.2 0 4.6 -0.7 13.1 15.5 11.5 22 29.8 63.4 36.6 82.9 1.3 3.8 2.4 8.9 2.4 11.3 l0 4.3 -3.9 0 c-3.7 0 -4.5 -0.6 -11.3 -8z"/>
  <path d="M452 347.7 c0 -4.1 2.3 -7.4 15 -21.7 17.9 -20.2 32.3 -34.2 58.6 -56.7 17.3 -14.8 42.5 -32.8 72.9 -51.8 16.8 -10.6 46.7 -25.5 52.3 -26.2 4.6 -0.5 4.9 -0.4 8.2 3.4 9.7 10.9 26.3 34.3 39.2 55.1 7.6 12.4 8.8 15 8.8 18.8 0 2.4 -0.4 4.4 -0.9 4.4 -2.9 0 -43 5.5 -55.6 7.6 -45.3 7.6 -103.8 25.5 -142.1 43.5 -5.6 2.6 -11.8 5.5 -13.8 6.3 -3.7 1.5 -25.8 13.9 -32.8 18.3 -2.1 1.2 -5.1 2.3 -6.8 2.3 -2.7 0 -3 -0.3 -3 -3.3z"/>
  <path d="M926.2 299.5 c-28.5 -10 -52.3 -16.2 -80.2 -20.8 l-13.5 -2.3 -2.3 -11.9 c-5.6 -29.6 -16.6 -75 -23.3 -96.3 -1.6 -5.1 -2.9 -11 -2.9 -13.2 0 -4 0 -4 3.9 -4 3.2 0 5.7 1.2 12.8 5.9 32 21.5 76.5 64 100.9 96.6 18.7 24.9 28.4 41.1 28.4 47.6 l0 3.9 -4.2 -0.1 c-2.4 0 -11.1 -2.4 -19.6 -5.4z"/>
  <path d="M801.5 271.8 c-3.8 -0.5 -24.3 -1 -45.5 -1.2 -21.2 -0.2 -38.8 -0.5 -39.2 -0.5 -0.4 -0.1 -2 -2.2 -3.5 -4.8 -6 -10.5 -34.5 -52.7 -45.4 -67.4 -5.3 -7.2 -6.2 -11.4 -3.1 -14.1 3.6 -3.2 36.1 -15.8 56.2 -21.8 5.8 -1.8 16.8 -5.2 24.5 -7.6 22 -6.8 36.5 -10.4 42.7 -10.4 l5.7 0 2.6 8.3 c11.5 35.8 27.5 104.1 27.5 116.9 l0 3.8 -7.7 -0.1 c-4.3 -0.1 -10.9 -0.6 -14.8 -1.1z"/>
 </g>
 <g fill="#dbd8b8">
  <path d="M553 994 c0 -1.8 0.7 -2 7.3 -2 5.9 -0.1 6.9 -0.3 5.6 -1.3 -1 -0.7 -11.5 -7.9 -23.5 -16.2 -21.5 -14.8 -37 -26.7 -55.4 -42.4 -5.2 -4.5 -10 -8.1 -10.7 -8.1 -0.7 0 -4.1 1.3 -7.5 2.9 -10.1 4.7 -37.5 15.7 -51.2 20.5 -12.5 4.5 -12.6 4.5 -12.6 2.2 0 -1.9 1.1 -2.6 8.3 -5.1 4.5 -1.5 13.4 -5 19.8 -7.7 6.5 -2.6 12.6 -4.8 13.8 -4.8 1.2 0 2.1 -0.4 2.1 -0.9 0 -0.5 2.8 -1.9 6.3 -3.2 3.4 -1.2 8.9 -3.5 12.2 -5.1 6.3 -2.9 12.3 -3.6 14.3 -1.6 0.7 0.7 1.2 2.5 1.2 4 0 2.5 0.3 2.8 3.5 2.8 1.8 0 3.8 0.6 4.2 1.3 0.4 0.6 1.7 1.7 2.8 2.3 1.1 0.6 2.4 2 3 3.2 0.5 1.2 1.7 2.2 2.7 2.2 0.9 0 2.3 0.8 3 1.8 0.7 1 2.1 2.1 3.1 2.5 1.1 0.4 2.1 1.6 2.4 2.7 0.3 1.1 1.4 2 2.4 2 1 0 2.4 0.9 3.1 2 0.7 1.1 1.8 2 2.5 2 0.7 0 1.8 0.9 2.5 2 0.7 1.1 1.9 2 2.6 2 0.7 0 1.5 0.7 1.8 1.5 0.4 0.8 1.2 1.5 2 1.5 0.8 0 1.4 0.5 1.4 1 0 0.6 0.7 1 1.5 1 0.8 0 1.5 0.5 1.5 1 0 0.6 0.7 1 1.5 1 0.8 0 1.5 0.5 1.5 1 0 0.6 0.7 1 1.5 1 0.8 0 1.5 0.5 1.5 1 0 0.6 0.6 1 1.4 1 0.7 0 2.5 1.1 4 2.5 1.5 1.4 3.1 2.5 3.5 2.5 0.4 0 2 1.1 3.5 2.5 1.5 1.4 3.1 2.5 3.7 2.5 0.5 0 0.9 0.9 0.9 2 0 1.6 0.7 2 3 2 1.8 0 3.3 0.6 3.6 1.5 0.4 0.8 1.2 1.5 2 1.5 0.8 0 1.4 0.5 1.4 1 0 0.6 0.7 1 1.5 1 0.8 0 1.5 0.5 1.5 1 0 0.6 0.7 1 1.5 1 1 0 1.5 1.1 1.5 3.5 0 2.8 -0.4 3.5 -2 3.5 -1.1 0 -2 0.7 -2 1.5 0 1.2 -1.3 1.5 -5.5 1.5 -4.8 0 -5.5 -0.2 -5.5 -2z"/>
  <path d="M608.5 995.4 c-1.1 -0.3 -3 -0.7 -4.2 -1 -1.8 -0.3 -2.3 -1.1 -2.3 -3.7 0 -4.8 0.2 -5 25 -32.2 7.6 -8.2 10.2 -11.3 15 -17.5 1.9 -2.5 4.5 -5.6 5.6 -7 4.9 -5.7 11.8 -14 17.5 -21 3.4 -4.1 6.8 -7.9 7.7 -8.4 0.8 -0.5 4 -0.6 7.1 -0.2 5.3 0.6 5.5 0.6 3.4 -0.9 -1.9 -1.3 -2.3 -2.6 -2.3 -6.8 0 -4.4 0.6 -6 3.6 -10.2 1.9 -2.8 4.2 -6.3 5.1 -8 l1.5 -3 -2.7 3 c-1.5 1.7 -5 6.1 -7.8 9.9 l-5 6.8 -4.6 -0.4 c-9.4 -1 -48.3 -22.5 -59.9 -33.3 -2.1 -1.8 -5 -4.4 -6.7 -5.6 -4.1 -3.2 -4.5 -3.8 -4.5 -8.5 0 -3.8 0.5 -4.6 8.3 -11.8 4.5 -4.3 12.5 -11 17.8 -15 10.9 -8.1 59.9 -55.2 63.3 -60.8 2.2 -3.7 9.5 -12 11.9 -13.5 3.3 -2.1 15.1 -16.1 23.1 -27.3 4.9 -6.9 10.9 -14.5 13.3 -17 2.3 -2.4 4.3 -4.7 4.3 -5.1 0 -0.4 1.2 -2 2.8 -3.7 1.5 -1.6 3.8 -4.8 5.2 -7.2 4.1 -7 9.9 -12 13.9 -12 l3.4 0 -0.7 8.3 c-0.6 8.2 -2.9 22 -4.7 28.8 -0.5 2 -0.9 5 -0.9 6.8 0 1.7 -1.6 7.7 -3.6 13.3 -7.5 21.4 -16.4 48 -16.4 48.9 0 0.5 -2.9 6.9 -6.4 14.2 -10.2 21.2 -13.7 28.9 -13.2 29.5 0.3 0.2 1.9 -2.4 3.6 -5.9 7 -14.5 7.9 -15.7 11.8 -16.3 2.1 -0.3 19.9 -0.6 39.7 -0.8 l36 -0.3 0.4 4.5 c0.9 11.6 -3.6 42.7 -8.9 61.5 -3.8 13.6 -8.4 33.7 -10.5 45.5 -1.5 8.2 -6.2 20.8 -8.5 22.7 -3.1 2.5 -12.9 1.5 -26 -2.7 -26.8 -8.7 -40.5 -13.3 -41.5 -14 -1.3 -0.9 -5.5 -2 -5.5 -1.4 0 1.1 14.2 6.8 32 12.7 10.7 3.6 21.7 7.5 24.3 8.7 4.6 2 4.8 2.3 4.5 5.7 -0.3 3.4 -0.7 3.8 -10.8 9.2 -5.8 3.1 -13.4 6.8 -17 8.2 -7.7 3.1 -15 6.1 -24.4 10 -3.7 1.6 -10.9 4 -16 5.3 -5 1.4 -14 4.1 -20 6 -6 2 -11.9 3.6 -13.1 3.6 -1.2 0 -5.7 0.9 -10.1 2 -4.3 1.1 -10.6 2.5 -13.9 3 -3.3 0.5 -9.1 1.6 -13 2.4 -7.6 1.6 -22.8 2.8 -26 2z m25 -8 c42.2 -7 78.2 -17.8 117.5 -35.4 6.3 -2.8 12.4 -5.9 13.4 -7 1.9 -1.8 1.8 -1.9 -1.8 -3.4 -2.1 -0.9 -12.2 -4.5 -22.6 -8 -19.6 -6.7 -28 -10 -48.5 -19.1 -6.8 -3 -13 -5.5 -13.8 -5.5 -0.8 0 -8.1 8.2 -16.3 18.2 -15.5 19.2 -28.9 34.6 -44.2 51.2 -5.1 5.5 -9.2 10.6 -9.2 11.2 0 1.6 5.6 1.1 25.5 -2.2z m147.3 -56.6 c2.9 -3.7 18.6 -64.6 23.6 -91.8 2.6 -14.5 5.1 -32.8 4.5 -33.5 -0.2 -0.2 -16.4 -0.1 -36 0.2 l-35.5 0.6 -4.4 9.1 c-7.1 14.7 -24.5 44.8 -36.8 63.5 -9.6 14.7 -11.1 17.6 -10 18.8 1.4 1.3 15.1 7.5 28.8 13 8.8 3.6 61.1 21.1 63.1 21.2 0.9 0.1 2.1 -0.5 2.7 -1.1z m-77.3 -18.4 c-11.4 -5.1 -17.5 -7.4 -17.5 -6.9 0 0.3 1 1 2.3 1.5 1.2 0.5 6.3 2.7 11.2 4.9 5 2.2 9.7 4 10.5 4 0.8 0 -2.1 -1.5 -6.5 -3.5z m-23.9 -31.9 c3.5 -4.9 12 -18.4 18.9 -29.8 24.1 -39.9 39.8 -75.5 53.9 -122.7 2.8 -9.4 9.2 -38.1 9.9 -44.8 0.5 -4.3 0.4 -4.1 -10.1 10 -15 20.1 -31.4 40.9 -38.6 48.9 -2.3 2.5 -8.9 10 -14.9 16.6 -18.7 20.9 -50.2 51.3 -68.6 66.3 -17.5 14.2 -24.2 20.1 -24.9 21.8 -0.8 2.2 6.5 8.4 23.7 20 14.3 9.6 40.3 23.5 43 23 0.8 -0.2 4.2 -4.3 7.7 -9.3z m25.2 -26.2 c6.4 -10.4 17.1 -30.5 15.4 -28.8 -0.6 0.6 -2.8 4.2 -5 8 -6.2 11.2 -8.3 14.8 -10.2 17.5 -2.1 3.1 -7.2 13 -6.6 13 0.2 0 3.1 -4.4 6.4 -9.7z"/>
  <path d="M535 992.9 c0 -2 0.4 -2.1 5.8 -1.6 3.1 0.4 5.8 0.6 6 0.7 0.1 0 0.2 0.7 0.2 1.5 0 1.2 -1.3 1.5 -6 1.5 -5.4 0 -6 -0.2 -6 -2.1z"/>
  <path d="M516 992.9 c-10.8 -1.3 -51.4 -9.5 -63.8 -13 -14.7 -4.2 -35.6 -11 -36.2 -11.9 -0.3 -0.4 -2.2 -1 -4.2 -1.4 -2.1 -0.4 -3.8 -1.1 -3.8 -1.6 0 -0.6 -1 -1 -2.2 -1 -2.8 0 -11 -3.7 -12 -5.3 -0.4 -0.7 -0.8 -2.6 -0.8 -4.3 0 -3.4 1.6 -4.4 7.3 -4.4 4 0 3.4 2.4 -1 4 l-3.8 1.3 7 3.3 c8.2 3.8 38.9 14.2 52.5 17.9 14.2 3.8 50.2 11.2 61 12.4 14.7 1.8 16 2.1 16 3.6 0 1.7 -3.8 1.8 -16 0.4z"/>
  <path d="M581.5 989.5 c-2.2 -1.3 -4.5 -2.8 -5.1 -3.3 -0.6 -0.5 -2 -1.3 -3.2 -1.6 -1.2 -0.4 -2.2 -1.1 -2.2 -1.5 0 -0.4 -1.6 -1.3 -3.5 -2 -1.9 -0.7 -3.5 -1.7 -3.5 -2.2 0 -0.5 -0.7 -0.9 -1.5 -0.9 -0.8 0 -1.5 -0.4 -1.5 -0.8 0 -0.4 -1.5 -1.3 -3.3 -2 -1.8 -0.7 -4.2 -2 -5.3 -3 -1 -0.9 -3.1 -2.3 -4.6 -2.9 -1.6 -0.7 -2.8 -1.7 -2.8 -2.3 0 -0.5 -0.5 -1 -1 -1 -1.4 0 -11 -7.2 -11 -8.2 0 -0.4 -0.7 -0.8 -1.5 -0.8 -0.9 0 -1.8 -0.7 -2.1 -1.5 -0.4 -0.8 -1.3 -1.5 -2 -1.5 -0.8 0 -1.7 -0.7 -2 -1.5 -0.4 -0.8 -1.3 -1.5 -2 -1.5 -0.8 0 -1.7 -0.7 -2 -1.5 -0.4 -0.8 -1.2 -1.5 -2 -1.5 -0.8 0 -1.4 -0.4 -1.4 -1 0 -0.5 -0.7 -1 -1.5 -1 -0.9 0 -1.8 -0.7 -2.1 -1.5 -0.4 -0.8 -1.2 -1.5 -2 -1.5 -0.8 0 -1.9 -0.9 -2.6 -2 -0.7 -1.1 -1.7 -2 -2.2 -2 -1.6 0 -9.6 -7.1 -9.6 -8.6 0 -0.8 -0.7 -1.4 -1.6 -1.4 -0.8 0 -3.5 -1.9 -6 -4.2 -3.5 -3.3 -4.4 -4.8 -4.4 -7.5 0 -3.1 0.4 -3.5 9 -7.8 4.9 -2.5 9.9 -4.5 11 -4.5 1.1 0 2 -0.6 2 -1.3 0 -1.6 13 -8.7 15.9 -8.7 1.2 0 2.1 -0.6 2.1 -1.4 0 -0.8 1.6 -2 3.5 -2.7 1.9 -0.7 3.5 -1.7 3.5 -2.1 0 -0.4 1.1 -0.8 2.5 -0.8 1.5 0 2.5 -0.6 2.5 -1.5 0 -0.8 1.1 -1.7 2.5 -2.1 1.4 -0.3 2.5 -1 2.5 -1.5 0 -0.5 0.7 -0.9 1.5 -0.9 0.8 0 1.5 -0.4 1.5 -0.8 0 -0.5 1.7 -1.7 3.7 -2.8 2.1 -1 4.6 -2.7 5.7 -3.6 1.1 -1 2.3 -1.8 2.7 -1.8 0.5 0 2 -1.1 3.5 -2.5 1.5 -1.4 3.1 -2.5 3.6 -2.5 0.5 0 1.8 -0.8 2.9 -1.9 1.1 -1 3.7 -2.7 5.9 -3.7 2.2 -1 4 -2.2 4 -2.6 0 -0.5 0.7 -0.8 1.5 -0.8 0.8 0 1.5 -0.4 1.5 -1 0 -0.5 0.5 -1 1 -1 0.6 0 1.9 -0.9 3 -2 2.5 -2.5 10.7 -2.9 11.6 -0.5 0.4 0.8 1.2 1.5 2 1.5 0.8 0 1.4 0.7 1.4 1.5 0 0.8 0.9 1.5 2 1.5 1.1 0 2 0.5 2 1 0 0.6 0.7 1 1.5 1 0.8 0 1.5 0.3 1.5 0.8 0 0.4 1.3 1.3 2.9 2 1.6 0.7 4.1 2.4 5.5 3.7 1.5 1.4 2.9 2.5 3.2 2.5 0.4 0 14.5 9.1 15.4 10 0.3 0.3 2.2 1.3 4.2 2.4 2 1 4.5 2.6 5.5 3.5 1 0.9 3 2.2 4.6 2.8 1.9 0.9 2.7 2 2.7 3.7 0 3.2 -0.6 3 -13.4 -4.9 -7.9 -4.8 -40.8 -27.2 -45.2 -30.6 -0.6 -0.5 -4.1 1.2 -9 4.5 -4.3 2.9 -10.1 6.8 -12.9 8.6 -2.7 1.8 -8.1 5.4 -12 8 -13.9 9.3 -45.5 27.5 -62.4 36 l-6.4 3.2 3.9 4 c5.1 5.2 24.2 20.5 42.7 34 14.5 10.7 30.1 20.7 45.1 28.8 l7.8 4.2 8.5 -8.3 c9.4 -9.3 27.5 -29.3 39.8 -43.9 4.4 -5.2 8.3 -9.7 8.6 -10 1.3 -1.1 18 -24.2 17.7 -24.5 -0.2 -0.1 -2 -1 -4 -2 -4.9 -2.2 -4.8 -3.5 0.2 -3.5 2.9 0 4 0.4 4 1.5 0 0.8 0.9 1.5 2 1.5 1.6 0 2 0.7 2 3.4 0 1.9 -0.4 3.6 -0.8 3.8 -0.4 0.2 -2.3 2.4 -4.2 5.1 -1.8 2.6 -3.7 4.7 -4.2 4.7 -0.4 0 -0.8 0.7 -0.8 1.5 0 0.9 -0.7 1.8 -1.5 2.1 -0.8 0.4 -1.5 1.3 -1.5 2 0 0.8 -0.7 1.7 -1.5 2 -0.8 0.4 -1.5 1.2 -1.5 2 0 0.7 -2 3.5 -4.5 6.1 -2.5 2.5 -4.5 5 -4.5 5.4 0 0.4 -1.3 1.9 -3 3.2 -1.6 1.4 -3 3 -3 3.6 0 0.5 -1.1 1.8 -2.3 2.8 -1.3 1 -2.6 2.3 -2.8 2.9 -1 2.7 -14.5 16.4 -16.1 16.4 -1.2 0 -1.8 0.7 -1.8 2.1 0 1.2 -4.1 6.2 -10.7 13 -9.8 9.9 -11.1 10.9 -14.3 10.8 -1.9 0 -5.3 -1.1 -7.5 -2.4z"/>
  <path d="M368.3 948.3 c-3.4 -1.7 -5.3 -3.4 -5.3 -4.5 0 -1.3 -0.8 -1.8 -2.9 -1.8 -3.9 0 -6.1 -0.9 -6.1 -2.6 0 -0.8 -1 -1.4 -2.4 -1.4 -1.4 0 -3.1 -0.6 -3.8 -1.4 -0.8 -0.7 -2.4 -1.7 -3.6 -2 -1.2 -0.4 -2.2 -1.4 -2.2 -2.2 0 -0.8 -1 -1.4 -2.5 -1.4 -1.4 0 -2.5 -0.4 -2.5 -1 0 -0.5 -0.7 -1 -1.5 -1 -0.8 0 -2.4 -0.9 -3.5 -2 -1.1 -1.1 -2.4 -2 -3 -2 -0.5 0 -1 -0.4 -1 -1 0 -0.5 -0.7 -1 -1.5 -1 -0.8 0 -1.5 -0.4 -1.5 -1 0 -0.5 -0.7 -1 -1.5 -1 -0.8 0 -1.5 -0.9 -1.5 -2 0 -1.6 -0.7 -2 -3 -2 -1.8 0 -3.3 -0.6 -3.6 -1.5 -0.4 -0.8 -1.2 -1.5 -2 -1.5 -0.8 0 -1.4 -0.7 -1.4 -1.5 0 -0.8 -0.9 -1.5 -2 -1.5 -1.1 0 -2 -0.7 -2 -1.5 0 -0.8 -0.9 -1.5 -2 -1.5 -1.1 0 -2 -0.7 -2 -1.5 0 -0.8 -0.9 -1.5 -2 -1.5 -1.1 0 -2.3 -0.7 -2.6 -1.5 -0.4 -0.8 -1.2 -1.5 -2 -1.5 -0.7 0 -1.7 -0.6 -2.1 -1.3 -0.4 -0.8 -1.6 -1.7 -2.6 -2 -1.1 -0.4 -2.1 -1.6 -2.4 -2.7 -0.3 -1.1 -1.3 -2 -2.3 -2 -2.1 0 -5 -3.1 -5 -5.3 0 -1 -1 -1.7 -2.7 -1.9 -1.7 -0.2 -3.2 -1.2 -3.8 -2.5 -0.5 -1.3 -1.7 -2.3 -2.6 -2.3 -2.2 0 -5.9 -4.2 -5.9 -6.8 0 -1.7 -0.6 -2.2 -2.7 -2.2 -3.9 0 -23.3 -19.3 -23.3 -23.1 0 -2.3 -0.5 -2.8 -2.7 -3.1 -2.3 -0.2 -2.9 -0.8 -3.1 -3.5 -0.3 -2.7 -0.8 -3.3 -2.6 -3.3 -2.8 0 -5.6 -2.9 -5.6 -5.8 0 -1.5 -0.6 -2.2 -2 -2.2 -1.3 0 -2 -0.7 -2 -2 0 -1.1 -0.7 -2 -1.5 -2 -0.8 0 -1.5 -0.7 -1.5 -1.5 0 -0.8 -0.5 -1.5 -1.1 -1.5 -0.6 0 -0.9 -1.6 -0.7 -3.7 0.3 -3.4 0.6 -3.8 3.2 -4.1 3.5 -0.4 10.6 2.6 10.6 4.5 0 0.7 1.1 1.3 2.4 1.3 1.4 0 3.1 0.7 4 1.5 0.8 0.8 2.2 1.5 3 1.5 0.9 0 1.6 0.5 1.6 1 0 0.6 0.9 1 2 1 1.1 0 2 0.5 2 1 0 0.6 0.8 1 1.9 1 2.5 0 12.1 4.1 12.1 5.1 0 0.5 1.1 0.9 2.5 0.9 1.4 0 2.5 0.5 2.5 1 0 0.6 1.1 1 2.5 1 1.4 0 2.5 0.5 2.5 1 0 0.6 0.7 1 1.5 1 0.9 0 6 1.5 11.3 3.4 5.3 1.8 14.1 4.6 19.5 6.1 5.3 1.5 9.7 3.2 9.7 3.6 0 0.5 1.1 0.9 2.4 0.9 1.4 0 8 1.3 14.8 3 12.3 3 29.8 6 35.1 6 2 0 2.7 0.5 2.7 2 0 2.5 -0.3 2.5 -16.1 0 -19.6 -3 -39.5 -7.9 -64.9 -16.1 -13.7 -4.4 -43.8 -17.2 -55.9 -23.6 l-10.4 -5.6 1.9 3.1 c1 1.7 5.6 7.6 10.2 12.9 36.1 42 90.7 85.4 136.4 108.4 l7.8 3.9 8.7 -2.9 c26.5 -8.8 58.7 -21.2 70.6 -27.2 7.6 -3.9 8.7 -4.1 8.7 -1.6 0 2.7 -5.3 5.7 -10 5.7 -1.8 0 -3 0.5 -3 1.3 0 1.6 -4.1 3.7 -7 3.7 -1.1 0 -2 0.4 -2 0.9 0 1 -7.8 4.1 -10.2 4.1 -0.9 0 -1.8 0.4 -2 0.9 -0.4 1.1 -31.3 12.1 -33.8 12.1 -1 0 -2 0.5 -2.2 1 -0.2 0.6 -2.1 1.3 -4.3 1.7 -2.2 0.3 -4.3 1.1 -4.7 1.7 -0.4 0.5 -3.5 1.1 -7 1.3 -5.2 0.2 -7.2 -0.2 -11.5 -2.4z"/>
  <path d="M793 927.3 c0 -2.7 0.9 -7.7 2.1 -11.3 2.9 -9.2 15.4 -60.4 17.8 -73 1.1 -5.8 2.8 -16.9 3.8 -24.7 1.5 -12.4 2 -14.3 3.5 -14.3 1 0 1.8 0.6 1.8 1.4 0 3.5 -3.4 27.3 -5.5 39.1 -2.3 12.4 -14.3 62.5 -18.4 76.8 -1.1 3.7 -1.7 6.7 -1.4 6.7 1.1 0 21.6 -14.2 33.8 -23.4 10.2 -7.7 16.5 -13 38.9 -32.9 l3.1 -2.7 0.3 2.5 c0.4 3.2 -6.1 10.5 -9.5 10.5 -1.6 0 -2.3 0.6 -2.3 1.8 0 2.4 -3.1 5.2 -5.8 5.2 -1.4 0 -2.2 0.7 -2.4 2.3 -0.2 1.7 -1.1 2.3 -3.5 2.5 -2.6 0.3 -3.2 0.8 -3.5 3 -0.2 1.9 -1 2.8 -2.4 3 -1.2 0.2 -2.4 1.2 -2.7 2.3 -0.3 1 -1.2 1.9 -2 1.9 -0.8 0 -1.7 0.7 -2.1 1.5 -0.3 0.8 -1.2 1.5 -2 1.5 -0.7 0 -1.6 0.7 -2 1.5 -0.3 0.8 -1.2 1.5 -2 1.5 -0.7 0 -1.6 0.7 -2 1.5 -0.3 0.8 -1.2 1.5 -2 1.5 -0.7 0 -1.6 0.7 -2 1.5 -0.3 0.8 -1.2 1.5 -2.1 1.5 -0.8 0 -1.5 0.5 -1.5 1 0 0.6 -0.7 1 -1.5 1 -0.8 0 -1.5 0.4 -1.5 0.8 0 0.9 -10.5 8.6 -15.5 11.4 -1.6 0.9 -4.5 1.7 -6.2 1.8 -3.3 0 -3.3 0 -3.3 -4.7z"/>
  <path d="M455.5 902.5 c-9.9 -9.9 -21.7 -22.4 -28.5 -30.2 l-3.5 -4 -15 0.4 c-16.7 0.4 -21.5 -0.1 -21.5 -2.2 0 -1.3 3.2 -1.5 20.5 -1.5 19.4 0 20.5 0.1 20.5 1.9 0 1 0.9 2.1 2 2.4 1.2 0.3 2 1.4 2 2.6 0 1.2 0.5 2.1 1.1 2.1 0.6 0 3.3 2.1 6 4.7 4 3.7 4.9 5.3 4.9 8 0 2.9 0.3 3.3 2.8 3.3 2 0 4.7 2 11 8.3 7.2 7.2 8.3 8.7 8 11.3 -0.3 2.8 -0.5 2.7 -10.3 -7.1z"/>
  <path d="M474.7 910.3 c-0.4 -0.3 -0.7 -1.9 -0.7 -3.6 l0 -2.9 2.7 2 2.7 2 11.1 -5.5 c6 -3.1 16.2 -8.5 22.5 -12.1 6.3 -3.6 12.9 -7.3 14.6 -8.2 13.9 -7.9 48.2 -30.6 58.4 -38.7 3 -2.4 8.9 -6.9 13 -10 6.6 -5 18.2 -14.6 27.5 -22.8 1.7 -1.5 5.2 -4.5 7.9 -6.8 18.4 -15.6 67.8 -65.9 66.2 -67.4 -0.3 -0.3 -7.6 2.8 -16.3 7 -35.1 16.8 -57.2 23.7 -92.3 29.1 -27.5 4.2 -28 4.2 -28 1.7 0 -1.7 0.6 -2.1 3.1 -2.1 3 0 7.7 -0.6 26.9 -3.6 28.7 -4.5 59.5 -14.6 87.2 -28.5 4.3 -2.1 9.1 -3.9 10.8 -3.9 1.9 0 3 -0.5 3 -1.4 0 -1.7 2.2 -2.6 6.6 -2.6 3.2 0 3.4 0.2 3.4 3.5 0 1.9 -0.4 3.5 -1 3.5 -0.5 0 -1 0.7 -1 1.5 0 0.8 -0.7 1.5 -1.5 1.5 -0.8 0 -1.5 0.7 -1.5 1.7 0 0.9 -1.8 3.4 -4 5.5 -2.2 2.2 -4 4.3 -4 4.6 0 0.4 -3.5 4.2 -7.9 8.5 -4.8 4.8 -8.6 7.7 -10 7.7 -1.5 0 -2.1 0.6 -2.1 2.1 0 2.9 -5.4 7.9 -8.5 7.9 -2 0 -2.5 0.5 -2.5 2.5 0 2.7 -7.4 11.5 -9.7 11.5 -0.7 0 -1.3 0.7 -1.3 1.5 0 0.9 -0.9 1.5 -2.5 1.5 -1.5 0 -2.5 0.6 -2.5 1.5 0 1.9 -3.1 5.5 -4.7 5.5 -0.7 0 -1.3 0.5 -1.3 1 0 0.6 -0.6 1 -1.4 1 -0.7 0 -1.6 0.9 -1.9 2 -0.3 1.2 -1.4 2 -2.6 2 -1.2 0 -2.1 0.5 -2.1 1 0 1.7 -6.2 8 -7.9 8 -0.9 0 -2.1 1 -2.6 2.2 -0.6 1.2 -1.9 2.6 -3 3.2 -1.1 0.6 -2.6 1.9 -3.3 2.9 -0.7 0.9 -2.2 1.7 -3.3 1.7 -1 0 -1.9 0.6 -1.9 1.4 0 1.8 -13.5 11.6 -16 11.6 -1.4 0 -2 0.7 -2 2.1 0 1.2 -0.8 2.3 -1.9 2.6 -1.1 0.3 -2.2 1.1 -2.5 1.9 -0.3 0.8 -1.2 1.4 -2 1.4 -0.7 0 -1.6 0.7 -2 1.5 -0.3 0.8 -1.7 1.5 -3.1 1.5 -1.6 0 -2.5 0.6 -2.5 1.5 0 0.9 -1.2 2.1 -2.7 2.8 -1.6 0.6 -3.2 1.7 -3.6 2.4 -0.4 0.7 -1.5 1.3 -2.2 1.3 -0.8 0 -1.5 0.5 -1.5 1 0 0.6 -0.4 1 -0.9 1 -0.6 0 -2.1 1 -3.5 2.3 -1.4 1.3 -4.2 3.2 -6.3 4.3 -2 1 -4.6 2.7 -5.8 3.7 -1.1 1 -3 2 -4.2 2.3 -1.3 0.4 -2.3 1 -2.3 1.4 0 0.5 -1 1.2 -2.2 1.6 -1.2 0.3 -3.1 1.5 -4.2 2.6 -1.2 1.1 -3.3 2.2 -4.8 2.5 -1.6 0.3 -2.8 1 -2.8 1.4 0 0.5 -1.7 1.7 -3.7 2.7 -2.1 0.9 -4 2 -4.3 2.3 -1.2 1.3 -13.5 8.1 -25.6 14.3 -9.6 4.8 -14.2 6.6 -17.1 6.6 -2.2 0 -4.3 -0.3 -4.6 -0.7z"/>
  <path d="M465.4 901.6 c-0.3 -0.8 -0.4 -2.4 -0.2 -3.6 0.3 -2 0.5 -2 4.3 1.4 l4 3.5 -3.8 0.1 c-2.4 0 -4 -0.5 -4.3 -1.4z"/>
  <path d="M451.2 887.7 c-1.8 -1.8 -3.2 -4 -3.2 -4.8 0 -0.8 -1 -1.9 -2.2 -2.4 -1.3 -0.6 -2.4 -1.9 -2.6 -3 -0.2 -1.1 -1.3 -2.5 -2.5 -3 -1.3 -0.6 -2.3 -2.1 -2.5 -3.7 -0.2 -1.9 -0.9 -2.8 -2.1 -2.8 -1.8 0 -5.1 -2.9 -5.1 -4.6 0 -0.5 -0.9 -1.5 -2 -2.2 -1.1 -0.7 -2 -1.8 -2 -2.6 0 -0.8 -0.7 -1.6 -1.5 -2 -0.8 -0.3 -1.5 -1.5 -1.5 -2.6 0 -1.1 -0.7 -2 -1.5 -2 -0.9 0 -2.1 -1.2 -2.8 -2.7 -0.6 -1.5 -2.1 -3.7 -3.2 -4.9 -1.2 -1.2 -2.7 -3.5 -3.5 -5 -0.8 -1.5 -2.5 -3.9 -3.7 -5.2 -1.3 -1.4 -2.3 -3.6 -2.3 -4.8 0 -1.5 -0.6 -2.4 -1.5 -2.4 -0.8 0 -1.7 -1.1 -2.1 -2.5 -0.3 -1.4 -1 -2.5 -1.5 -2.5 -0.5 0 -0.9 -0.7 -0.9 -1.5 0 -0.8 -0.4 -1.5 -0.9 -1.5 -0.5 0 -1.5 -1.6 -2.2 -3.5 -0.7 -1.9 -1.7 -3.5 -2.1 -3.5 -0.4 0 -0.8 -1.1 -0.8 -2.5 0 -1.5 -0.6 -2.5 -1.4 -2.5 -1.5 0 -2.6 -2.1 -2.6 -5.1 0 -1 -0.6 -1.9 -1.3 -1.9 -0.8 0 -2.2 -1.9 -3.3 -4.2 -1 -2.4 -2.1 -4.5 -2.5 -4.8 -1.3 -1 -4.9 -9 -4.9 -11 0 -1.1 -0.4 -2 -0.8 -2 -1.1 0 -4.2 -6.6 -4.2 -9 0 -1.1 -0.4 -2 -1 -2 -0.5 0 -1 -1.1 -1 -2.5 0 -1.4 -0.4 -2.5 -1 -2.5 -1.3 0 -2.4 -6.4 -1.6 -9.6 0.7 -2.6 0.9 -2.6 5.9 -2 2.9 0.3 8.6 1.7 12.7 3.1 11.9 4.1 48.5 13.2 60 14.9 5.8 0.9 17.4 2.3 25.8 3.3 13.4 1.5 15.2 1.9 15.2 3.5 0 2.2 -0.3 2.2 -16 0.3 -31.9 -3.9 -59.2 -9.6 -86 -18 -14.7 -4.6 -15.3 -4.7 -14.5 -2.7 0.4 0.9 1.3 3.7 2.2 6.2 2.7 8 16 34.1 25.5 50 15.8 26.4 26.7 41.3 46.7 64.3 4.7 5.4 9.7 11.2 11 12.8 l2.4 2.9 -3 0 c-2 0 -3.9 -1 -6.1 -3.3z"/>
  <path d="M372.8 867.3 c-1 -0.2 -1.8 -1.1 -1.8 -1.9 0 -1 1.4 -1.4 5.5 -1.4 4.8 0 5.5 0.2 5.5 2 0 1.7 -0.6 2 -3.7 1.9 -2.1 -0.1 -4.6 -0.3 -5.5 -0.6z"/>
  <path d="M387.5 860.4 c-19.2 -1.5 -62.1 -8 -75.5 -11.4 -4.1 -1.1 -11.3 -3.3 -15.9 -5 -4.6 -1.6 -9 -3 -9.7 -3 -0.8 0 -3.3 -0.9 -5.7 -1.9 -14.8 -6.7 -39 -17.1 -43.2 -18.6 -10.1 -3.6 -29.5 -14.8 -34 -19.5 l-3 -3.1 0.1 -28.7 c0.1 -28.3 0.2 -29.7 4.4 -58.7 0.5 -3.3 1.4 -8.7 2 -12 0.5 -3.3 1.6 -11.2 2.4 -17.5 0.7 -6.3 2.1 -13.2 3 -15.3 1.6 -3.9 1.6 -3.9 6.5 -3.5 l4.9 0.3 -3 -2.6 -3.1 -2.5 0.5 -8.5 c0.5 -6.4 1.9 -12.6 6.1 -25.9 3.1 -9.6 5.8 -18.4 6.2 -19.5 0.3 -1.1 -1.9 3.1 -5 9.4 -3.1 6.4 -6.5 15.2 -7.7 20 -3.2 13.2 -3.1 13.1 -7.8 13.1 -3.7 0 -4.8 -0.7 -12.1 -7.5 -4.4 -4.1 -10.6 -9.4 -13.7 -11.6 -3.1 -2.3 -7.4 -5.8 -9.4 -7.7 -3.5 -3.3 -3.8 -3.4 -3.8 -1.4 0 1.3 0.6 2.2 1.6 2.2 2.5 0 4.6 2.8 4.2 5.7 -0.3 2.5 -0.8 2.2 -8.8 -6.2 -16.8 -17.5 -16 -16.5 -12.1 -16.5 2.4 0 3.1 0.4 3.1 2 0 1.2 0.7 2 1.7 2 0.9 0 3.3 1.5 5.2 3.3 1.9 1.7 2.9 2.3 2.1 1.2 -0.8 -1.1 -1.8 -2.2 -2.1 -2.5 -0.3 -0.3 -2.1 -2.7 -3.9 -5.5 -1.9 -2.7 -7 -8.8 -11.4 -13.5 -10.4 -10.9 -17.8 -19.5 -22.7 -26.4 -3.3 -4.6 -3.9 -6.2 -3.9 -10.4 0 -4.4 0.5 -5.6 4.8 -11 2.6 -3.4 6.3 -8.4 8.2 -11.2 1.9 -2.8 4 -5.7 4.5 -6.3 3.2 -3.8 14.4 -17.9 16.5 -20.8 1.4 -1.9 8.8 -9.7 16.5 -17.4 7.7 -7.7 17.4 -17.8 21.5 -22.4 l7.4 -8.3 4.8 0.5 4.8 0.6 0 -4.8 c0 -4.6 0.3 -5 6.7 -11.2 3.8 -3.6 9.1 -8.1 11.8 -9.9 5.8 -3.9 4.7 -3.1 14.9 -11.2 4.3 -3.5 9.1 -7.2 10.6 -8.3 4.6 -3.5 12.7 -10.8 9.3 -8.6 -1.7 1.1 -3.4 2.1 -3.7 2.1 -0.4 0 -1.6 0.9 -2.8 2 -1.2 1.1 -2.7 2 -3.4 2 -0.6 0 -1.4 0.7 -1.8 1.5 -0.3 0.8 -1.2 1.5 -2 1.5 -0.7 0 -1.6 0.7 -2 1.5 -0.3 0.8 -1.2 1.5 -2.1 1.5 -0.8 0 -1.5 0.5 -1.5 1 0 0.6 -0.6 1 -1.3 1 -0.7 0 -1.8 0.9 -2.5 2 -0.7 1.1 -1.8 2 -2.5 2 -0.7 0 -1.8 0.9 -2.5 2 -0.7 1.1 -2.3 2 -3.6 2 -1.8 0 -2.6 0.6 -2.8 2.1 -0.2 1.2 -1.2 2.7 -2.2 3.3 -1.1 0.6 -3.3 2.6 -4.9 4.4 -1.6 1.7 -3.7 3.2 -4.7 3.2 -1 0 -2 0.9 -2.3 2 -0.4 1.6 -1.4 2 -5.1 2 -3.3 0 -4.6 -0.4 -4.6 -1.4 0 -0.8 -0.4 -1.6 -0.9 -1.8 -1.2 -0.4 -6.1 -10.3 -6.1 -12.3 0 -0.8 -0.4 -1.5 -1 -1.5 -0.5 0 -1 -1.1 -1 -2.5 0 -1.4 -0.4 -2.5 -0.9 -2.5 -1 0 -5.1 -10.4 -5.1 -13.1 0 -1 -0.4 -1.9 -0.9 -1.9 -1 0 -4.1 -8.4 -4.1 -11.2 0 -1 -0.4 -1.8 -1 -1.8 -0.5 0 -1 -1.1 -1 -2.5 0 -1.4 -0.4 -2.5 -1 -2.5 -0.5 0 -1.2 -1.7 -1.6 -3.7 -0.4 -2.1 -1 -4 -1.5 -4.3 -1.2 -0.8 -8.6 -23.8 -10.3 -32.2 -2 -9.8 -2 -12.8 -0.1 -12.8 0.8 0 1.5 -0.4 1.5 -0.9 0 -0.5 1.7 -1.3 3.7 -1.9 2.1 -0.5 9.7 -2.6 16.8 -4.6 32 -8.9 84 -19.6 95 -19.6 l4.5 0 0 10 c0 8.2 -0.3 10 -1.5 10 -0.8 0 -1.5 -0.6 -1.6 -1.2 -0.1 -0.7 -0.3 -4.4 -0.5 -8.2 -0.2 -3.8 -0.6 -7.1 -0.7 -7.2 -1.3 -1.4 -65.3 12.1 -90.2 18.9 -23.3 6.4 -24.5 6.9 -24.5 9.8 0 11.2 32.3 95.9 37.9 99.3 0.5 0.3 3.3 -1.5 6.3 -4.2 16.7 -14.9 30.1 -25.1 55.8 -42.1 l18.5 -12.3 -0.3 -4.9 c-0.3 -4.4 -0.1 -4.9 1.7 -4.9 1.9 0 2.1 0.6 2.1 5.5 0 3 -0.4 5.5 -1 5.5 -0.5 0 -1 0.9 -1 2 0 1.5 -0.7 2 -2.5 2 -1.6 0 -2.5 0.6 -2.5 1.5 0 0.8 -0.7 1.5 -1.5 1.5 -0.8 0 -1.5 0.5 -1.5 1 0 0.6 -0.7 1 -1.5 1 -0.8 0 -1.5 0.5 -1.5 1 0 0.6 -0.7 1 -1.5 1 -0.8 0 -1.5 0.5 -1.5 1 0 0.6 -0.5 1 -1 1 -0.6 0 -1.9 0.9 -3 2 -1.1 1.1 -1.8 2 -1.6 2 0.2 0 3.7 -1.8 7.9 -4 8.9 -4.8 14.8 -5.4 17.1 -1.7 1.4 2 3.3 10.7 5.7 25.2 4.6 28.5 9.3 49.6 14.3 64.5 6.2 18.5 13.7 39.4 15.7 43.8 1.1 2.6 3.1 7.9 4.4 11.7 3.9 12.1 7.6 21.8 9.9 26.5 1.2 2.5 4.8 9.5 7.8 15.5 3.1 6.1 8.9 17.8 12.9 26 4 8.3 8.7 17.3 10.4 20 9.7 15.3 16.5 30.4 16.5 36.8 0 2.4 -0.4 2.7 -3.4 2.7 -1.9 0 -4.1 -0.6 -4.8 -1.3 -1.7 -1.6 -6.5 -4.7 -7.4 -4.7 -0.8 0 4.2 4.6 10.9 10.2 2.9 2.3 5.4 4.5 5.7 4.8 0.3 0.3 2.5 2.1 5 4 2.5 1.9 4.7 3.7 5 4 0.3 0.3 5.2 4.4 11 9 5.8 4.6 10.7 8.8 10.8 9.2 0.2 0.4 1 0.8 1.7 0.8 0.7 0 1.5 0.3 1.7 0.8 1 2.4 16.8 13.7 29.8 21.3 4.1 2.4 11.5 7.1 16.5 10.4 10.9 7.2 21.5 11.9 39.5 17.5 7.4 2.3 16.5 5.6 20.3 7.3 6.5 3 6.7 3.3 6.7 6.8 l0 3.6 -8.2 0.9 c-11.3 1.2 -45.8 0.8 -53.8 -0.6 -15.8 -2.7 -31.3 -5 -40.5 -6 -15.6 -1.7 -31.1 -5.5 -53.9 -13 -11.6 -3.8 -23.8 -7.6 -27.2 -8.4 -3.4 -0.9 -7.7 -2.3 -9.8 -3.1 -5.1 -2.2 -4.5 -0.8 0.8 1.5 2.4 1.1 4.8 2.5 5.4 3.2 0.5 0.7 2.7 5.8 4.7 11.3 2.1 5.5 5 11.9 6.5 14.2 1.6 2.2 4.8 8.3 7.3 13.5 2.4 5.1 6.6 13.8 9.3 19.3 2.6 5.5 8.8 15.9 13.8 23.3 14.5 21.2 17.4 26.3 17.5 30.3 0.1 3 -0.3 3.8 -2.1 4.2 -3.2 0.8 -22.3 1.5 -28.3 1.1z m24.3 -5.2 c0.9 -0.6 -0.2 -2.9 -4.3 -8.8 -17.7 -25.4 -38 -62.6 -47 -86 -2.6 -6.5 -5.2 -12.4 -5.8 -13.1 -0.7 -0.7 -7.5 -3.9 -15.2 -7.1 -39.3 -16.5 -83 -42.8 -120.2 -72.4 -1.6 -1.3 -2.8 3.2 -6.3 24.7 -5.9 36.4 -8 58.4 -8 84.2 l0 17.3 5.1 4 c16.8 13.3 65.4 34.5 105.4 45.9 14.1 4 46.3 9.5 65.2 11 13.4 1.1 29.5 1.2 31.1 0.3z m123.2 -90.2 c3.6 -0.4 5.7 -0.8 4.7 -0.8 -3.8 -0.4 -37.6 -12.6 -47.4 -17.2 -27.7 -13.1 -56 -32.7 -97.8 -67.9 -35.1 -29.6 -85.4 -78.7 -106.1 -103.6 -3.2 -3.8 -7.4 -8.8 -9.3 -11 -2 -2.3 -6.5 -7.6 -10 -11.9 -5.3 -6.5 -6.5 -7.6 -7.6 -6.5 -2.4 2.5 -17.6 37 -24.1 54.6 -6 16.3 -13.5 40.6 -14.9 48.4 -0.6 3.5 -0.5 3.8 5.8 9 7.6 6.4 32.3 24.6 38.7 28.7 24.1 15.1 41.8 24.8 66.6 36.2 22.8 10.5 32.1 14.1 55.9 21.4 23.6 7.2 34.9 10 53 13 45.1 7.5 72.9 9.8 92.5 7.6z m-201.9 -35.6 c-3.5 -1.9 -10.8 -5.5 -16.3 -8 -5.4 -2.4 -11.8 -5.6 -14 -7 -2.3 -1.5 -5.8 -3.3 -7.7 -4 -3.5 -1.4 -3.6 -1.4 -1.2 0.3 6 4.4 26.1 14.9 38.1 19.9 8 3.3 8.4 2.9 1.1 -1.2z m-78.1 -43.7 c-8.1 -6.5 -22.4 -16.7 -22.9 -16.2 -0.3 0.4 0.2 1.1 1.2 1.6 0.9 0.6 2.5 1.8 3.5 2.7 1.6 1.7 4.3 3.6 14.6 10.4 4.2 2.8 6.3 3.7 3.6 1.5z m133.5 -33.7 c-1.4 -2.8 -6 -11 -10.2 -18.3 -11 -19.2 -32.8 -63.7 -40 -81.7 -12.7 -32 -22.9 -61.9 -28.8 -84.3 -3.6 -13.8 -10.4 -47.1 -12.5 -61.9 -1.7 -11.6 -2 -11.9 -7.2 -8.9 -15.6 8.7 -55.4 38.8 -66.7 50.4 l-5.4 5.6 6.3 10.8 c11.6 19.8 17.2 28.7 28.3 44.8 23.6 34.2 35.1 48.3 69.8 85.5 18.7 20 65.1 63 68 63 0.5 0 -0.2 -2.3 -1.6 -5z m-176.3 -18.2 c4.9 -18.7 16.7 -48.4 38.3 -96.4 l2.3 -5.1 -18.1 -27.4 c-10 -15.1 -19.9 -30.9 -22.1 -35.2 -2.1 -4.2 -4.2 -7.7 -4.6 -7.7 -1.5 0 -40.7 41.4 -51.2 54 -15.8 19.1 -27.8 35.4 -27.8 37.7 0 2.9 36.3 45.7 51.9 61.3 12.6 12.5 27.5 25.9 28.6 25.6 0.5 -0.1 1.8 -3.2 2.7 -6.8z m141.3 -0.9 c-2.8 -2.8 -6.3 -6 -8 -7.1 -1.6 -1.1 0.3 1.2 4.4 5.1 8.6 8.2 10.8 9.5 3.6 2z m-38.4 -37.6 c-3.7 -4.9 -18.5 -20 -15.5 -15.8 2.5 3.5 16.4 18.5 17.2 18.5 0.2 0 -0.6 -1.2 -1.7 -2.7z m-58.2 -52.7 c1.6 -1.5 3.1 -1.8 7 -1.4 l5 0.5 -2.9 -4.1 c-1.7 -2.3 -4.4 -6.1 -6.2 -8.6 -6.1 -8.8 -16 -22 -16.4 -22 -0.5 0 6.9 12.1 10.6 17.1 3.9 5.5 3.9 9 -0.5 20 -4 10.2 -4.5 12.8 -1 5.4 1.3 -2.8 3.3 -5.9 4.4 -6.9z m-24.2 -52.3 c-2.8 -5.1 -15.1 -25.3 -15.3 -25.3 -0.3 0 0.3 1.7 1.1 3.8 1.6 3.7 13.4 22.2 14.2 22.2 0.2 0 0.2 -0.3 0 -0.7z"/>
  <path d="M882.8 858.3 c1.1 -1.6 3.5 -4.1 5.2 -5.8 3 -2.8 18.1 -20.5 26.1 -30.5 10.8 -13.7 25.6 -35.5 30.4 -44.9 1.6 -3.3 1.6 -3.4 -0.1 -2.6 -9.6 4 -71.6 19.9 -89.9 23 -11.1 1.9 -10.5 1.9 -10.5 -0.4 0 -1.5 1 -2 5.3 -2.5 8 -1 58.5 -13.2 73.7 -17.8 7.4 -2.2 15.1 -4.5 17.1 -5.1 1.9 -0.5 4.7 -0.7 6.2 -0.3 2.2 0.5 2.7 1.2 2.7 3.7 0 3.3 -4.8 13.3 -8.1 16.8 -1 1.1 -1.9 2.5 -1.9 3.1 0 0.5 -0.7 1 -1.5 1 -0.9 0 -1.5 0.9 -1.5 2.5 0 1.4 -0.7 2.8 -1.5 3.1 -0.8 0.4 -1.5 1.2 -1.5 2 0 0.8 -0.4 1.4 -0.9 1.4 -0.5 0 -1.1 0.9 -1.4 2 -0.3 1.1 -1.2 2 -2.1 2 -0.9 0 -1.6 0.8 -1.6 2 0 1.1 -0.4 2 -1 2 -0.5 0 -1 0.7 -1 1.5 0 0.8 -0.4 1.5 -1 1.5 -0.5 0 -1 0.7 -1 1.5 0 0.9 -0.7 1.8 -1.5 2.1 -0.8 0.4 -1.5 1.2 -1.5 2 0 0.7 -0.8 1.9 -1.8 2.6 -1 0.7 -2.1 2.1 -2.5 3.1 -0.3 0.9 -1.3 1.7 -2.1 1.7 -0.8 0 -1.6 1 -1.8 2.3 -0.2 1.2 -1.3 2.6 -2.5 3.2 -1.2 0.5 -2.3 1.9 -2.5 3 -0.2 1.1 -1.3 2.4 -2.5 3 -1.3 0.5 -2.3 1.7 -2.3 2.5 0 2.3 -2 4 -4.7 4 -1.8 0 -2.3 0.6 -2.3 2.6 0 3.8 -7.5 11.4 -11.2 11.4 l-2.9 0 1.9 -2.7z"/>
  <path d="M823 800.1 c0 -1.5 0.6 -2.1 2.4 -2.1 1.2 0 5.1 -0.3 8.5 -0.6 5.1 -0.6 6.1 -0.4 6.1 0.8 0 1.8 -1.9 2.4 -10.7 3.4 -6 0.6 -6.3 0.5 -6.3 -1.5z"/>
  <path d="M739 792.7 c0 -3 1.7 -8.1 5.5 -17 3 -7 5.5 -13.1 5.5 -13.7 0 -0.5 0.5 -1 1 -1 0.6 0 1 -0.7 1 -1.7 0 -2.6 3.3 -12.3 4.2 -12.3 0.4 0 0.8 -1 0.8 -2.1 0 -3.1 2.2 -9.9 3.2 -9.9 0.4 0 0.8 -1 0.8 -2.3 0 -1.3 1.5 -8.3 3.4 -15.6 1.9 -7.2 4.7 -20.2 6.2 -28.9 1.4 -8.6 2.9 -15.8 3.3 -16 0.4 -0.1 0.5 -2 0.3 -4.2 -0.4 -3.9 -0.3 -4 2.7 -4 2.6 0 8 2.7 10.1 5.1 0.3 0.3 2 1.1 3.8 1.8 1.7 0.8 3.2 2 3.2 2.7 0 0.8 0.9 1.4 2 1.4 2.3 0 7 2 7 3.1 0 0.4 1.1 1 2.5 1.3 1.4 0.4 2.5 1.1 2.5 1.6 0 0.6 0.7 1 1.5 1 0.8 0 1.5 0.4 1.5 0.9 0 0.5 1.1 1.2 2.5 1.5 1.4 0.4 2.5 1.3 2.5 2.1 0 0.8 0.9 1.5 2 1.5 2.9 0 7 2.1 7 3.7 0 0.7 1.1 1.3 2.5 1.3 1.6 0 2.5 0.6 2.5 1.5 0 0.9 0.9 1.5 2.4 1.5 1.4 0 3.1 0.6 3.8 1.3 0.7 0.7 2.8 1.9 4.6 2.6 1.7 0.7 3.2 2 3.2 2.7 0 0.8 0.9 1.4 1.9 1.4 3 0 5.1 1.1 5.1 2.6 0 0.8 0.9 1.4 2 1.4 2.9 0 7 2.1 7 3.7 0 0.7 0.9 1.3 1.9 1.3 3 0 5.1 1.1 5.1 2.6 0 0.8 0.9 1.4 2.1 1.4 2.7 0 7.9 3.1 7.9 4.7 0 0.7 0.9 1.3 1.9 1.3 3 0 5.1 1.1 5.1 2.6 0 0.8 1 1.4 2.5 1.4 1.6 0 2.5 0.6 2.5 1.5 0 0.8 0.9 1.5 1.9 1.5 3 0 5.1 1.1 5.1 2.6 0 0.8 0.9 1.4 2 1.4 2.9 0 7 2.1 7 3.7 0 0.7 1 1.3 2.1 1.3 2.3 0 11.9 4.9 11.9 6.1 0 0.4 1.1 1 2.5 1.3 1.4 0.4 2.5 1.3 2.5 2.1 0 0.9 1 1.5 2.5 1.5 1.4 0 2.5 0.5 2.5 1 0 0.6 0.6 1 1.4 1 0.8 0 2.1 0.6 2.8 1.4 0.8 0.7 2.4 1.7 3.6 2 1.2 0.4 2.2 1.2 2.2 1.7 0 0.5 0.7 0.9 1.5 0.9 1.1 0 1.5 1.1 1.5 4.3 l0 4.2 -8.2 2.4 c-48.4 14 -68.6 18.4 -105.3 23.1 -19.3 2.4 -22.5 2.5 -22.5 0.5 0 -1.6 0.6 -1.7 20 -4 30.7 -3.6 72.4 -12.7 103.8 -22.7 l10.2 -3.3 -7.2 -4.4 c-8.3 -5 -55.8 -32.6 -81.3 -47.1 -9.3 -5.3 -23.1 -13.2 -30.5 -17.5 -7.4 -4.3 -20.2 -11.7 -28.5 -16.5 l-15 -8.6 -0.7 5 c-1.5 12.2 -6.1 36 -8.9 46.6 -4.9 18.4 -13.8 44.4 -20.1 58.9 -5.8 13.4 -6 15 -2 15.1 0.6 0 1.2 0.7 1.2 1.5 0 1.1 -1.1 1.5 -4 1.5 l-4 0 0 -4.3z"/>
  <path d="M766 795.6 c0 -1.7 3.1 -2.6 9.3 -2.6 4 0 4.7 0.3 4.7 2 0 1.8 -0.7 2 -7 2 -5.3 0 -7 -0.3 -7 -1.4z"/>
  <path d="M786 794.6 c0 -1.5 3 -2.6 7.3 -2.6 2 0 2.7 0.5 2.7 2 0 1.7 -0.7 2 -5 2 -3.6 0 -5 -0.4 -5 -1.4z"/>
  <path d="M797 793.6 c0 -0.7 1 -1.6 2.3 -2 4.1 -1.1 5.7 -0.7 5.7 1.4 0 1.7 -0.7 2 -4 2 -2.7 0 -4 -0.4 -4 -1.4z"/>
  <path d="M185.2 775.3 c-0.9 -2.1 -2.3 -4.4 -2.9 -5.1 -0.7 -0.7 -1.3 -2.4 -1.3 -3.8 0 -1.4 -0.6 -2.4 -1.4 -2.4 -1.5 0 -2.6 -2.1 -2.6 -5.1 0 -1 -0.6 -1.9 -1.3 -1.9 -1.4 0 -5.7 -8 -5.7 -10.5 0 -0.8 -0.4 -1.5 -0.8 -1.5 -1.1 0 -5.2 -8.6 -5.2 -11 0 -1.1 -0.4 -2 -0.9 -2 -1 0 -8.1 -16.8 -8.1 -19.2 0 -1 -0.4 -1.8 -0.9 -1.8 -1 0 -6.1 -13.3 -6.1 -16 0 -1 -0.4 -2 -0.9 -2.2 -1.2 -0.4 -9.1 -24.8 -9.1 -28 0 -1.4 -0.4 -2.8 -0.9 -3 -2 -0.7 -8.7 -34.3 -12.1 -60.8 -2.1 -16.5 -2.5 -23 -1.2 -23 0.4 0 0.6 -1.8 0.4 -4 -0.4 -4 -0.4 -4 3.1 -4 3 0 4 0.7 7.6 5.3 2.2 3 4.1 6.1 4.1 7 0 1 0.6 1.7 1.3 1.7 2.1 0 5.7 4.4 5.7 6.8 0 1.5 0.6 2.2 1.8 2.2 2.8 0 4.2 2.1 4.2 5.9 l-0.1 3.6 -5 -5.5 c-2.8 -3 -8.7 -10 -13.1 -15.5 l-8.1 -10 0.7 9 c1.5 20 6.8 52.6 11.6 71.5 6.3 24.9 21.8 65.6 35 92.1 5.6 11.2 14.7 27.2 17.8 31.4 1.4 2 1.4 2 0.9 -0.2 -0.3 -1.3 -0.1 -2.3 0.4 -2.3 0.5 0 0.9 -0.7 0.9 -1.5 0 -0.8 0.7 -1.5 1.5 -1.5 1.1 0 1.5 1.1 1.5 3.9 0 4.2 -1.1 5.1 -6.1 5.1 -2.4 0 -3.2 -0.7 -4.7 -3.7z"/>
  <path d="M513.8 778.3 c-1 -0.2 -1.8 -1.1 -1.8 -1.9 0 -1.1 1.8 -1.4 8.5 -1.4 6.6 0 8.5 0.3 8.5 1.4 0 0.7 -1 1.6 -2.2 2 -2.6 0.6 -10.4 0.6 -13 -0.1z"/>
  <path d="M491.8 777.3 c-1 -0.2 -1.8 -1.1 -1.8 -1.9 0 -1 1.4 -1.4 5.5 -1.4 4.8 0 5.5 0.2 5.5 2 0 1.7 -0.6 2 -3.7 1.9 -2.1 -0.1 -4.6 -0.3 -5.5 -0.6z"/>
  <path d="M535 776 c0 -1.7 0.7 -2 5 -2 3.6 0 5 0.4 5 1.4 0 1.5 -3 2.6 -7.2 2.6 -2.1 0 -2.8 -0.5 -2.8 -2z"/>
  <path d="M548 775 c0 -1.8 0.7 -2 5.5 -2 4 0 5.5 0.4 5.5 1.4 0 1.6 -3 2.6 -7.7 2.6 -2.6 0 -3.3 -0.4 -3.3 -2z"/>
  <path d="M193 761.3 c0 -4.3 1.1 -7.3 2.6 -7.3 1 0 1.4 1.4 1.4 5 0 4.3 -0.3 5 -2 5 -1.5 0 -2 -0.7 -2 -2.7z"/>
  <path d="M194 745.3 c0 -5.3 1 -8.3 2.6 -8.3 1 0 1.4 1.6 1.4 6 0 5.3 -0.2 6 -2 6 -1.6 0 -2 -0.7 -2 -3.7z"/>
  <path d="M195 732.3 c0 -4.3 1.1 -7.3 2.6 -7.3 1 0 1.4 1.4 1.4 5 0 4.3 -0.3 5 -2 5 -1.5 0 -2 -0.7 -2 -2.7z"/>
  <path d="M196 722 c0 -5.4 4.2 -31.7 8.8 -55 1.1 -5.2 1.7 -9.9 1.4 -10.5 -0.2 -0.5 -5 -5 -10.5 -10 -10 -8.9 -10.1 -9 -7 -9.3 4 -0.4 10.3 4.8 10.3 8.5 0 1.9 0.5 2.3 2.8 2.3 2 0 3.8 1 5.7 3.1 2.6 3 2.7 3.5 2.2 10.3 -0.3 3.9 -1.5 11 -2.6 15.7 -2.4 9.9 -7.1 38.8 -7.1 43.7 0 2.5 -0.4 3.2 -2 3.2 -1.3 0 -2 -0.7 -2 -2z"/>
  <path d="M357 572 c0 -1.1 -0.4 -2 -1 -2 -1.2 0 -1.3 -6.7 -0.1 -7.4 0.5 -0.3 1.6 1.1 2.5 3.2 l1.7 3.7 -0.6 -5.5 c-0.3 -3 -0.8 -7.9 -1.1 -10.7 -0.6 -4.8 -0.5 -5.3 1.3 -5.3 1.8 0 2.1 1.1 3.1 10.8 1.7 15.7 1.8 15.2 -2.3 15.2 -2.8 0 -3.5 -0.4 -3.5 -2z"/>
  <path d="M349.2 556.5 c-0.7 -1.4 -1.2 -3.4 -1.2 -4.5 0 -1 -0.4 -2 -0.9 -2.2 -2.5 -0.9 -22.1 -56.8 -22.1 -63 0 -1.5 -0.4 -2.8 -0.8 -2.8 -1 0 -4.2 -11.9 -4.2 -15.4 0 -1.4 -0.4 -2.6 -0.9 -2.6 -0.5 0 -1.1 -1.2 -1.4 -2.7 -0.4 -1.6 -2 -8.6 -3.6 -15.8 -3.3 -14.7 -6.2 -30.7 -9.1 -50.8 -2.4 -16.6 -2.5 -19.7 -0.6 -19.7 1.5 0 2.1 2 3.1 11 6.1 52.5 23.5 115.7 45.9 167.3 1.6 3.7 1.6 3.7 -0.7 3.7 -1.6 0 -2.8 -0.9 -3.5 -2.5z"/>
  <path d="M357.7 540.8 c-0.8 -2.8 -0.8 -35.8 0 -38.6 0.3 -1.2 1.2 -2.2 1.9 -2.2 1.2 0 1.4 3.9 1.4 21.5 0 17.6 -0.2 21.5 -1.4 21.5 -0.7 0 -1.6 -1 -1.9 -2.2z"/>
  <path d="M122 533 c0 -4.4 2.3 -5.7 3.4 -1.8 0.7 2.7 -0.3 3.7 13.6 -13.7 6.1 -7.6 18 -21.5 26.3 -30.9 14.5 -16.2 15.2 -16.8 15.5 -13.8 0.4 3.5 -2.2 7.2 -5 7.2 -1.2 0 -1.8 0.8 -1.8 2.3 0 2.9 -4.9 7.7 -7.8 7.7 -1.7 0 -2.2 0.6 -2.2 2.8 0 2.9 -3.5 7.2 -5.8 7.2 -0.7 0 -1.2 0.9 -1.2 1.9 0 1.1 -1.3 3.1 -3 4.4 -1.6 1.4 -3 2.9 -3 3.2 0 1 -2.8 3.5 -3.9 3.5 -0.5 0 -1.1 1 -1.3 2.3 -0.2 1.4 -1.1 2.3 -2.5 2.5 -1.7 0.2 -2.3 1 -2.3 2.7 0 1.3 -0.6 2.8 -1.3 3.2 -0.8 0.4 -1.6 1.6 -2 2.6 -0.3 0.9 -1.3 1.7 -2.2 1.7 -0.9 0 -1.5 0.9 -1.5 2.1 0 1.2 -0.8 2.3 -2 2.6 -1.1 0.3 -2 1.4 -2 2.4 0 1.5 -0.7 1.9 -4 1.9 l-4 0 0 -4z"/>
  <path d="M122 516 c0 -7.3 0.2 -8 2 -8 1.8 0 2 0.7 2 5.8 0 7.1 -0.8 10.2 -2.6 10.2 -1.1 0 -1.4 -1.9 -1.4 -8z"/>
  <path d="M123 500 c0 -4.3 0.3 -5 2 -5 1.5 0 2 0.7 2 2.8 0 4.2 -1.1 7.2 -2.6 7.2 -1 0 -1.4 -1.4 -1.4 -5z"/>
  <path d="M124.4 485.3 c1.7 -22.6 11.3 -73.3 13.8 -73.3 0.5 0 0.8 -1.1 0.8 -2.4 0 -3.3 7.9 -29 9.1 -29.4 0.5 -0.2 0.9 -1.1 0.9 -2 0 -2.5 3.3 -11.2 4.2 -11.2 0.4 0 0.8 -0.8 0.8 -1.8 0 -2.7 3.1 -11.2 4 -11.2 0.5 0 1 -1.2 1.2 -2.7 0.3 -2.4 0.8 -2.8 3.9 -3.1 3.7 -0.3 3.7 -0.3 4.9 5 0.7 2.9 3 10.5 5.2 16.8 2.1 6.3 3.8 12.2 3.8 13.1 0 1 0.4 1.9 0.8 2.1 0.5 0.2 3 5.8 5.6 12.6 2.7 6.8 8.6 20.5 13.2 30.4 8.8 18.9 10.3 24.8 6.4 24.8 -1.3 0 -2 0.7 -2 1.8 0 1 -1.9 3.7 -4.3 6 -3.4 3.3 -5 4.2 -7.7 4.2 l-3.5 -0.1 7.8 -7.4 c4.2 -4 7.7 -7.8 7.7 -8.4 0 -0.6 -3.5 -8.6 -7.9 -17.8 -10.8 -23.1 -22.4 -53.7 -28.4 -74.7 -0.7 -2.7 -1.7 -4.5 -2 -3.9 -2.1 3.5 -14.4 37.8 -19.1 53.4 -6.9 23.1 -9.7 36.2 -13.1 61.4 -1.5 11 -2.9 21.5 -3.1 23.3 -0.3 2.1 -1 3.2 -2.1 3.2 -1.4 0 -1.5 -1.1 -0.9 -8.7z"/>
  <path d="M358 491.8 c0 -3.9 1.2 -6.8 2.6 -6.8 1 0 1.4 1.3 1.4 4.5 0 3.8 -0.3 4.5 -2 4.5 -1.4 0 -2 -0.7 -2 -2.2z"/>
  <path d="M359 480.3 c0 -4.3 1.1 -7.3 2.6 -7.3 1 0 1.4 1.4 1.4 5 0 4.3 -0.3 5 -2 5 -1.5 0 -2 -0.7 -2 -2.7z"/>
  <path d="M360 469.8 c0 -3.9 1.2 -6.8 2.6 -6.8 1 0 1.4 1.3 1.4 4.5 0 3.8 -0.3 4.5 -2 4.5 -1.4 0 -2 -0.7 -2 -2.2z"/>
  <path d="M361 460.5 c0 -3.6 4.4 -32.4 7.5 -49.5 4.7 -25.4 7.4 -36 9.1 -36 1.8 0 1.8 4 -0.1 11 -3.2 12 -12.5 66 -12.5 72.9 0 2.4 -0.4 3.1 -2 3.1 -1.1 0 -2 -0.7 -2 -1.5z"/>
  <path d="M373 445.2 c0 -7.6 6.3 -44.1 11.9 -69.3 3.5 -15.6 18.5 -64.9 20.1 -65.9 0.4 -0.3 1 -2.2 1.4 -4.2 0.4 -2.1 1.3 -4.4 2.1 -5.2 0.8 -0.8 1.5 -2.1 1.5 -3 0 -2.3 9 -25.1 10.1 -25.4 0.5 -0.2 0.9 -1.1 0.9 -2 -0.1 -2.9 15.2 -34.2 16.7 -34.2 0.7 0 1.3 -0.9 1.3 -2 0 -2.9 4.2 -11 5.7 -11 0.7 0 1.3 -0.9 1.3 -2 0 -2.3 4.8 -12.3 6.1 -12.8 0.5 -0.2 0.9 -1 0.9 -1.8 0 -0.8 0.5 -1.4 1 -1.4 0.6 0 1 -0.6 1 -1.4 0 -0.8 0.6 -2.1 1.4 -2.8 0.7 -0.8 1.7 -2.4 2 -3.6 0.4 -1.2 1.2 -2.2 1.7 -2.2 0.5 0 0.9 -0.6 0.9 -1.4 0 -0.8 0.6 -2.1 1.3 -2.8 0.6 -0.8 1.7 -2.3 2.3 -3.3 0.6 -1.1 2.4 -2.1 4.1 -2.3 3.2 -0.3 22.6 6.2 23.1 7.8 0.2 0.5 1.5 1 2.8 1 1.3 0 2.4 0.5 2.4 1 0 0.6 0.9 1 1.9 1 3 0 5.1 1.1 5.1 2.6 0 0.9 1.1 1.4 3 1.4 3.2 0 8 1.9 8 3.2 0 0.4 0.9 0.8 2 0.8 1.9 0 21.9 9.5 23 10.9 0.3 0.4 2.4 1.5 4.8 2.5 2.3 1.1 4.2 2.2 4.2 2.6 0 0.5 1.1 1.1 2.5 1.4 1.4 0.4 2.5 1.3 2.5 2.1 0 0.9 1 1.5 2.5 1.5 1.4 0 2.5 0.4 2.5 0.9 0 0.5 0.9 1.1 2 1.4 1.6 0.4 2 1.4 2 4.7 0 3.3 -0.4 4.3 -2 4.7 -1.1 0.3 -2 0.9 -2 1.4 0 0.5 -0.9 0.9 -2 0.9 -1.1 0 -2 0.7 -2 1.5 0 0.8 -0.9 1.5 -2 1.5 -1.2 0 -2 0.7 -2 1.6 0 0.9 -0.9 1.8 -2 2.1 -1.1 0.3 -2 0.9 -2 1.4 0 0.5 -0.8 0.9 -1.9 0.9 -1 0 -2.1 0.9 -2.4 2 -0.3 1.1 -1.4 2 -2.5 2 -1.1 0 -2.2 0.9 -2.5 2 -0.3 1.2 -1.4 2 -2.6 2 -1.2 0 -2.1 0.6 -2.1 1.5 0 0.9 -0.8 1.9 -1.7 2.2 -1 0.4 -2.4 1.5 -3.1 2.5 -0.7 1 -2.4 1.8 -3.7 1.8 -1.7 0 -2.5 0.6 -2.7 2.3 -0.2 1.4 -1.1 2.3 -2.4 2.5 -1.2 0.2 -2.4 1.2 -2.7 2.3 -0.3 1.3 -1.4 1.9 -3.1 1.9 -1.7 0 -2.6 0.6 -2.6 1.5 0 2.5 -5.1 7.5 -7.7 7.5 -1.5 0 -2.3 0.6 -2.3 1.8 0 0.9 -7.4 9 -16.5 18 -12.3 12.1 -17.1 16.2 -18.9 16.2 -2.1 0 -2.5 0.5 -2.8 3.8 -0.2 2.7 -0.9 4 -2.5 4.7 -1.3 0.5 -2.3 1.5 -2.3 2.2 0 2 -3.3 5.3 -5.2 5.3 -1.3 0 -1.8 0.8 -1.8 2.5 0 1.4 -0.7 2.8 -1.5 3.1 -0.8 0.4 -1.5 1.1 -1.5 1.8 0 1.3 -3.5 4.6 -5 4.6 -0.6 0 -1 0.9 -1 2 0 1.1 -0.7 2 -1.5 2 -0.9 0 -1.5 0.9 -1.5 2.1 0 1.2 -0.8 2.3 -2 2.6 -1.1 0.3 -2 1.4 -2 2.4 0 1.1 -0.7 2.2 -1.5 2.5 -0.8 0.4 -1.5 1.3 -1.5 2 0 0.8 -0.7 1.7 -1.5 2 -0.8 0.4 -1.5 1.2 -1.5 2 0 0.8 -0.3 1.4 -0.8 1.4 -0.4 0 -1.3 1.4 -2 3 -0.8 1.7 -2 3 -2.8 3 -0.8 0 -1.4 0.9 -1.4 2 0 1.1 -0.7 2.3 -1.5 2.6 -0.8 0.4 -1.5 1.2 -1.5 2 0 0.8 -0.4 1.4 -1 1.4 -0.5 0 -1 0.7 -1 1.5 0 0.8 -0.4 1.5 -1 1.5 -0.5 0 -1 0.7 -1 1.5 0 0.8 -0.4 1.5 -1 1.5 -0.5 0 -1 0.7 -1 1.5 0 0.8 -0.4 1.5 -1 1.5 -0.5 0 -1 0.7 -1 1.5 0 0.8 -0.4 1.5 -0.9 1.5 -0.5 0 -1.2 1.1 -1.5 2.5 -0.4 1.6 -1.3 2.5 -2.6 2.5 -1.6 0 -2 0.7 -2 3.5 0 1.9 -0.4 3.5 -1 3.5 -0.5 0 -1 0.6 -1 1.4 0 0.8 -0.3 1.6 -0.7 1.8 -0.5 0.2 -2.1 3.2 -3.8 6.7 -1.6 3.5 -3.4 6.9 -4 7.5 -0.5 0.6 -2.3 3.9 -3.9 7.4 -2.4 5 -3.4 6.2 -5.3 6.2 -1.3 0 -2.3 -0.3 -2.3 -0.7 0 -1 14.7 -28.2 19 -35.3 12.6 -20.7 26 -39.7 42.1 -59.5 14.4 -17.7 44.9 -49.8 59.9 -63.1 11.8 -10.4 32.9 -27.4 48.3 -38.9 4.3 -3.2 7.6 -6.3 7.4 -6.9 -1.5 -4.7 -71.6 -38.5 -86.8 -42 -3.2 -0.7 -3.7 -0.1 -11.6 12.9 -15.9 26.5 -32.6 60.3 -44 89 -18.6 47.2 -30.2 89.2 -37.3 136 -1.1 7.2 -2.3 14.4 -2.5 16 -0.5 2.7 -0.3 2.5 2 -1.5 1.5 -2.5 2.4 -3.7 2.1 -2.7 -0.3 1 -0.6 3.9 -0.6 6.3 0 4.4 0 4.4 -3.5 4.4 l-3.5 0 0 -4.8z"/>
  <path d="M775.2 408.2 c-1.2 -3.8 -2.2 -7.8 -2.2 -8.9 0 -1.2 -0.3 -2.3 -0.7 -2.5 -1 -0.4 -10.3 -27.7 -10.3 -30 0 -1 -0.4 -1.8 -1 -1.8 -0.5 0 -1.2 -1.7 -1.6 -3.7 -0.4 -2.1 -1.3 -4.4 -2.1 -5.1 -0.7 -0.7 -1.3 -2.4 -1.3 -3.8 0 -1.3 -0.4 -2.4 -1 -2.4 -0.5 0 -1 -1.1 -1 -2.5 0 -1.4 -0.4 -2.5 -0.9 -2.5 -1.3 0 -5.1 -9.8 -5.1 -13.1 0 -1.9 -0.5 -2.9 -1.5 -2.9 -0.9 0 -1.8 -1.2 -2.1 -3 -0.4 -1.6 -1 -3 -1.5 -3 -0.5 0 -0.9 -0.7 -0.9 -1.6 0 -0.8 -0.7 -2.2 -1.5 -3 -0.8 -0.9 -1.5 -2.6 -1.5 -4 0 -1.3 -0.4 -2.4 -1 -2.4 -0.5 0 -1 -1.6 -1 -3.5 0 -1.9 0.4 -3.5 0.8 -3.5 1.2 0 8.9 16 17.7 36.5 6.8 16 16.1 41.5 22.1 60.5 1.5 4.7 2.8 8.6 2.9 8.8 0.1 0.1 1.4 -0.2 2.9 -0.8 2.6 -0.9 2.7 -0.9 2.4 1.7 -0.3 2.5 -0.8 2.8 -4.3 3.1 l-4.1 0.3 -2.2 -6.9z"/>
  <path d="M787 409.1 c0 -0.5 3.3 -2.6 7.3 -4.6 3.9 -2.1 9.5 -5.2 12.2 -7 2.8 -1.8 9.3 -5.6 14.5 -8.5 5.2 -3 12.7 -7.2 16.5 -9.5 3.9 -2.3 9.7 -5.6 13 -7.5 3.3 -1.8 13.5 -7.8 22.7 -13.2 9.1 -5.4 16.9 -9.8 17.2 -9.8 0.3 0 0.6 1.1 0.6 2.5 0 1.4 -0.5 2.5 -1.1 2.5 -0.6 0 -1.7 0.7 -2.5 1.5 -0.9 0.8 -2.6 1.5 -4 1.5 -1.4 0 -2.4 0.6 -2.4 1.4 0 1.5 -2.1 2.6 -5.1 2.6 -1 0 -1.9 0.7 -1.9 1.5 0 0.8 -0.5 1.5 -1.1 1.5 -0.6 0 -1.7 0.7 -2.5 1.5 -0.9 0.8 -2.6 1.5 -4 1.5 -1.5 0 -2.4 0.6 -2.4 1.5 0 0.9 -0.9 1.5 -2.5 1.5 -1.4 0 -2.5 0.6 -2.5 1.3 0 1.8 -4.3 3.7 -8 3.7 -2.3 0 -3 0.5 -3 2 0 1.5 -0.7 2 -2.5 2 -1.5 0 -2.5 0.6 -2.5 1.5 0 0.8 -1.1 1.7 -2.5 2.1 -1.4 0.3 -2.5 1 -2.5 1.5 0 0.5 -1.1 0.9 -2.5 0.9 -1.4 0 -2.5 0.6 -2.5 1.3 0 0.8 -1.9 2.2 -4.2 3.3 -2.4 1 -4.9 2.4 -5.6 3.1 -0.7 0.7 -2.9 1.3 -4.8 1.3 -2.7 0 -3.4 0.4 -3.4 2 0 1.5 -0.9 2.2 -3 2.7 -1.6 0.3 -3 1.1 -3 1.9 0 0.7 -1 1.6 -2.2 2 -1.3 0.4 -2.5 1 -2.8 1.4 -0.3 0.4 -2.8 1.9 -5.7 3.4 -5.1 2.5 -11.3 3.5 -11.3 1.7z"/>
  <path d="M745.1 385.2 c-6.9 -7 -15.3 -15 -18.6 -17.9 -7 -5.9 -32.4 -24.3 -33.6 -24.3 -0.4 0 -3 -1.3 -5.6 -2.8 -8 -4.6 -23.2 -11.3 -32.8 -14.4 -14.3 -4.7 -38.8 -10.8 -45.2 -11.3 -3.2 -0.2 -12.2 -1 -20 -1.6 l-14.3 -1.2 0 -3.7 0 -3.7 9.8 -3.6 c12.6 -4.6 17.6 -6.1 29.2 -8.5 33.1 -7.2 80.4 -14.2 95.2 -14.2 6.1 0 6.8 0.2 8.8 2.8 4.4 5.7 7.5 11.1 12.5 22.2 2.9 6.3 7.7 16.2 10.7 22 3 5.8 6.5 13.7 7.8 17.5 1.3 3.9 3.9 10.6 5.8 15 8 18.8 9.2 22.6 9.9 31.6 l0.6 8.9 -3.8 0 c-3.6 0 -4.7 -0.8 -16.4 -12.8z m14.9 3.5 c0 -6.2 -24.6 -63.8 -39 -91.2 -7.2 -13.6 -8.4 -15.5 -10.1 -15.5 -3.5 0 -43.1 5.2 -53.9 7.1 -30.1 5.2 -49.9 9.6 -65.4 14.5 -8.7 2.7 -10.9 4.4 -5.8 4.4 21.1 0.1 48.7 4.8 70.2 12 34.4 11.5 70.1 34.9 94.8 62 7.2 7.9 9.2 9.3 9.2 6.7z"/>
  <path d="M301.2 363.8 c-1.6 -15.9 -1.5 -17.8 0.3 -17.8 1.6 0 2 1.8 3.5 16.8 1.3 13.3 1.3 13.2 -0.8 13.2 -1.7 0 -2 -1.5 -3 -12.2z"/>
  <path d="M377 372.8 c0 -3 1.3 -5.8 2.6 -5.8 0.9 0 1.4 1.2 1.4 3.5 0 2.8 -0.4 3.5 -2 3.5 -1.1 0 -2 -0.6 -2 -1.2z"/>
  <path d="M291.6 366.8 c-0.3 -1.3 -0.6 -4 -0.6 -6 0 -3.1 0.4 -3.8 2 -3.8 1.8 0 2 0.7 2 6 0 4.4 -0.4 6 -1.4 6 -0.7 0 -1.6 -1 -2 -2.2z"/>
  <path d="M379 364.6 c0 -4.1 12.6 -43.6 21.3 -67.1 9.7 -25.8 14.7 -35.3 14.7 -27.7 0 3.3 -3.8 13.2 -5.1 13.2 -0.5 0 -0.9 0.9 -0.9 2 0 2 -2 7.1 -3.1 8 -0.3 0.3 -0.9 2.2 -1.3 4.3 -0.4 2 -1.1 3.7 -1.5 3.7 -0.5 0 -1.1 1.8 -1.5 4 -0.3 2.2 -1.1 4 -1.6 4 -0.6 0 -1 1.4 -1 3 0 1.7 -0.4 3 -0.9 3 -0.5 0 -1.1 1.2 -1.3 2.8 -0.9 5 -11.1 36.7 -11.9 37 -0.5 0.2 -0.9 1.4 -0.9 2.7 0 5.1 -1.2 8.5 -3.1 8.5 -1.1 0 -1.9 -0.6 -1.9 -1.4z"/>
  <path d="M290.6 352.8 c-0.3 -1.3 -0.6 -4.7 -0.6 -7.5 0 -4.6 0.3 -5.3 2 -5.3 1.8 0 2 0.7 2 7.5 0 5.7 -0.3 7.5 -1.4 7.5 -0.7 0 -1.6 -1 -2 -2.2z"/>
  <path d="M449 350.6 c0 -3.8 2.5 -9.6 5.7 -13.1 1.7 -1.9 10.8 -12.4 17.8 -20.5 12.4 -14.3 24 -25.7 36.5 -36 4.4 -3.6 15.7 -13.7 18 -16 0.3 -0.3 3 -2.5 6 -5 3 -2.5 5.7 -4.7 6 -5 0.3 -0.3 2.8 -2 5.5 -3.8 7.6 -4.9 17.1 -11.5 20.1 -14 0.5 -0.5 2.1 -1.5 3.5 -2.2 6.8 -3.7 38 -25.2 34.4 -23.8 -3.2 1.2 -11.2 5.5 -12.3 6.6 -0.7 0.6 -2.7 1.2 -4.3 1.2 -2.1 0 -2.9 0.5 -2.9 1.8 0 2.5 -6.9 6.2 -11.4 6.2 -2 0 -3.6 -0.4 -3.6 -0.9 0 -0.5 -1.1 -1.2 -2.5 -1.5 -1.6 -0.4 -2.5 -1.3 -2.5 -2.6 0 -1.5 -0.7 -2 -2.5 -2 -3.3 0 -9.5 -3.1 -9.5 -4.7 0 -0.7 -0.8 -1.3 -1.7 -1.3 -1.5 0 -42.3 -19.9 -44.8 -21.9 -0.6 -0.4 -2.2 -1 -3.5 -1.3 -2 -0.5 -23.7 -8.6 -24.8 -9.3 -0.1 -0.1 -0.5 -2.5 -0.9 -5.4 -0.4 -3.5 -0.2 -5.1 0.6 -5.1 0.6 0 1.1 -0.7 1.1 -1.5 0 -0.8 0.5 -1.5 1 -1.5 0.6 0 1 -0.7 1 -1.5 0 -0.8 0.8 -2.3 1.8 -3.3 1 -1 2.1 -2.6 2.5 -3.5 0.3 -0.9 1.3 -1.7 2.2 -1.7 0.8 0 1.5 -0.9 1.5 -2 0 -1.1 0.5 -2 1 -2 0.6 0 1 -0.6 1 -1.4 0 -0.8 0.8 -2.1 1.8 -2.8 1 -0.7 2.1 -2.1 2.5 -3 0.3 -1 1.3 -1.8 2.2 -1.8 0.8 0 1.5 -0.9 1.5 -2 0 -1.1 0.6 -2 1.4 -2 0.8 0 1.6 -1 1.8 -2.3 0.2 -1.4 1.1 -2.3 2.5 -2.5 1.5 -0.2 2.3 -1.1 2.5 -3 0.2 -1.6 1.2 -3.1 2.5 -3.7 1.2 -0.5 2.3 -1.9 2.5 -3 0.2 -1.2 1.2 -2.1 2.6 -2.3 1.5 -0.2 2.2 -1 2.2 -2.6 0 -2.6 2.9 -5.6 5.3 -5.6 1.1 0 1.7 -0.8 1.7 -2.3 0 -2.7 4.8 -7.7 7.3 -7.7 1.1 0 1.7 -0.8 1.7 -2.3 0 -3.3 3.2 -5.9 6.6 -5.5 2.6 0.3 2.2 0.9 -9.7 14.3 -15.3 17.2 -24.2 27.9 -34.5 41.5 -8.7 11.3 -16.8 23 -16.2 23.4 0.1 0.1 5 1.9 10.8 4 14.1 5.2 19.5 7.6 40 17.8 19.2 9.6 27.3 14 36.7 19.9 3.4 2.1 6.7 3.9 7.3 3.9 0.6 0 8.9 -4.7 18.3 -10.4 18.6 -11.2 35.2 -20.5 46 -25.7 3.7 -1.8 6.7 -3.8 6.7 -4.4 0 -1.4 -14.5 -19.1 -26 -31.8 -12.1 -13.4 -58.6 -59.8 -62.3 -62.2 l-2.8 -1.8 -5 4.9 -4.9 4.8 0 -3.5 c0 -5 5.1 -9.9 10.4 -9.9 2.9 0 3.9 0.4 4.3 2 0.3 1.1 1.2 2 2 2 2.2 0 7.3 5.5 7.3 7.9 0 1.6 0.6 2.1 2.6 2.1 3.4 0 5.4 2.2 5.4 5.9 0 2.9 0.3 3.1 3.5 3.1 2.4 0 3.5 0.5 3.5 1.5 0 0.8 0.5 1.5 1 1.5 1.6 0 8 6.8 8 8.5 0 0.8 0.9 1.5 2 1.5 1.1 0 2 0.7 2 1.5 0 0.8 0.6 1.5 1.3 1.5 0.6 0 2.9 1.7 5 3.9 2.7 2.8 3.7 4.7 3.7 7 0 2.7 0.4 3.1 2.6 3.1 3.7 0 11.4 7.5 11.4 11.2 0 2.2 0.5 2.8 2.2 2.8 2 0 9.8 6.9 9.8 8.7 0 0.4 0.9 1.4 2 2.1 1.1 0.7 2 2.1 2 3.2 0 1.1 0.7 2 1.5 2 0.9 0 1.9 0.8 2.2 1.8 0.4 0.9 1.5 2.3 2.5 3 1 0.7 1.8 2.2 1.8 3.3 0 1 0.7 1.9 1.5 1.9 2 0 3.5 3.2 3.5 7.3 0 2.7 -0.5 3.6 -2.5 4.5 -1.4 0.7 -3.7 1.2 -5 1.2 -1.4 0 -2.5 0.6 -2.5 1.3 0 0.7 -2.8 2.7 -6.2 4.3 -3.5 1.6 -6.5 3.2 -6.8 3.5 -1.1 1.3 -7 3.9 -9 3.9 -1.1 0 -2 0.6 -2 1.3 0 0.7 -1.8 2.3 -4 3.6 -2.2 1.2 -4 2.5 -4 2.7 0 0.3 2.4 -0.8 5.3 -2.4 2.8 -1.6 7 -3.5 9.2 -4.2 2.2 -0.7 9.3 -3.9 15.7 -7.2 16.7 -8.2 20.6 -7.9 28.5 2.3 1.5 1.9 4.8 5.8 7.2 8.5 l4.4 4.9 -2.3 -4 c-1.3 -2.2 -3.8 -5.8 -5.6 -8 -1.7 -2.2 -3.6 -5 -4.3 -6.2 -1.6 -3.2 -1.3 -8.5 0.7 -10.8 2.8 -3.3 21.7 -11.9 31.7 -14.4 5.6 -1.5 23.9 -7.2 42.5 -13.3 20.4 -6.6 45.1 -12.8 51.6 -12.8 5 0 5.7 0.9 10.2 12.5 l3.1 8 0.3 -6.5 c0.3 -6.5 0.3 -6.5 3.5 -6.8 5.4 -0.5 17.8 6.8 34.2 20.3 4 3.3 8.9 7.2 10.8 8.7 9.3 7.1 16.2 13.6 32.8 30.3 19.8 20.1 24.8 25.7 35.1 39 3.8 5 7.9 10.1 9.1 11.5 1.3 1.4 2.3 3 2.3 3.7 0 0.6 0.3 1.3 0.8 1.5 0.4 0.2 2.9 3.7 5.6 7.8 2.7 4.1 5.7 8.4 6.7 9.5 3.3 3.7 7.9 14.3 7.9 18.2 0 6.1 -0.7 6.6 -9.6 6.1 -6.3 -0.3 -9.7 -1.2 -16.4 -4 -20.4 -8.8 -52.7 -17.4 -78 -20.8 -16.7 -2.3 -17.5 -2.9 -18.6 -12.7 -0.3 -3.2 -1.9 -11 -3.4 -17.3 -1.5 -6.3 -3.6 -15.1 -4.5 -19.5 -3 -14.4 -8.7 -37.8 -11.5 -48 -4.2 -15 -7.5 -21.4 -5.1 -10 1.3 6 8 31.9 10.8 41.5 1.3 4.7 2.9 10.8 3.5 13.5 0.5 2.8 1.4 6.8 1.9 9 1.4 6.4 3.9 26.6 3.9 31.8 0 3.5 -0.4 4.9 -1.6 5.4 -0.9 0.3 -8.7 0 -17.3 -0.6 -8.6 -0.7 -31.6 -1.5 -51.1 -1.6 -19.5 -0.2 -36.6 -0.4 -38 -0.4 -2.1 -0.1 -3.1 -1.2 -5.5 -5.8 -3.2 -6.2 -8.4 -14.3 -9.1 -14.3 -0.6 0 1.9 4.6 4.5 8.5 1.4 2.1 2.1 4.6 2.1 8.2 0 4.9 -0.1 5.2 -3.2 6.1 -1.8 0.6 -7.6 1.3 -12.8 1.7 -5.2 0.3 -15.8 1.7 -23.5 3 -7.7 1.2 -16.5 2.6 -19.5 3 -15.3 1.8 -77.8 18.5 -93.5 24.8 -4.9 2.1 -9.5 3.7 -10.2 3.7 -1.2 0 -7.5 2.6 -31.3 12.7 -19.1 8.1 -32.6 14.9 -46.5 23.7 -6.1 3.8 -10.8 5.7 -15.7 6.3 -3.8 0.5 -3.8 0.5 -3.8 -3.1z m26.2 -14.5 c7 -3.9 14.4 -7.9 16.4 -8.7 2 -0.8 8.2 -3.7 13.8 -6.3 38.3 -18 96.8 -35.9 142.1 -43.5 12.6 -2.1 52.7 -7.6 55.6 -7.6 2.1 0 0.4 -3.6 -7.9 -17.2 -12.8 -20.6 -29.5 -44.2 -39 -54.9 -2.8 -3.2 -3.7 -3.6 -6 -2.9 -4.9 1.4 -37.4 18.4 -48.7 25.5 -39.8 24.9 -58.3 38.7 -91.6 68.1 -16.9 15 -47.3 47.2 -53.5 56.8 l-1.8 2.9 3.9 -2.5 c2.2 -1.4 9.7 -5.7 16.7 -9.7z m471.3 -36.3 c-2.5 -8.3 -23.4 -38.8 -41.4 -60.3 -13.2 -15.8 -45.6 -47.2 -62.6 -60.9 -15.5 -12.4 -32.7 -24.6 -34.6 -24.6 -1.4 0 -1.2 1.1 2 11.2 6.7 21.3 17.7 66.7 23.3 96.3 l2.3 11.9 13.5 2.3 c27.9 4.6 51.7 10.8 80.2 20.8 8.4 2.9 15.9 5.4 16.6 5.4 0.9 0.1 1.1 -0.6 0.7 -2.1z m-125.5 -30.6 c0 -7.2 -14.7 -71 -22.4 -97.5 -6.8 -23 -7.5 -24.7 -10.4 -24.7 -3.5 0 -21.8 4.8 -39.7 10.4 -7.7 2.4 -18.7 5.8 -24.5 7.6 -20 6 -52.6 18.6 -56.2 21.8 -1.6 1.4 -1.5 1.7 1.5 5.8 13 17.8 40.7 58.7 47 69.7 1.5 2.6 3.1 4.7 3.5 4.7 0.4 0.1 18.3 0.3 39.7 0.6 21.5 0.2 41.9 0.8 45.5 1.3 8.9 1.1 16 1.3 16 0.3z"/>
  <path d="M895 347.2 c0 -0.8 12.1 -8.2 13.3 -8.2 0.4 0 0.7 1.1 0.7 2.4 0 2.4 -1.6 3.6 -5.1 3.6 -1 0 -1.9 0.7 -1.9 1.5 0 1 -1.1 1.5 -3.5 1.5 -1.9 0 -3.5 -0.4 -3.5 -0.8z"/>
  <path d="M299 331.5 c0 -8.8 0.1 -9.5 2 -9.5 1.9 0 2 0.7 2 9.5 0 8.8 -0.1 9.5 -2 9.5 -1.9 0 -2 -0.7 -2 -9.5z"/>
  <path d="M911 338.2 c0 -0.7 7.9 -5.7 14.5 -9.2 12.8 -6.8 20.5 -11.3 20.5 -12 0 -0.7 -11.7 -5.4 -26 -10.3 -25 -8.7 -64.8 -17.9 -91.5 -21.2 -16 -2.1 -17.5 -2.4 -17.5 -4.1 0 -1.8 0.7 -1.7 16 0.1 24.2 3 53.7 9.1 76 15.7 5.8 1.7 10.7 3.4 11 3.8 0.3 0.4 2.5 1 5 1.3 2.4 0.3 4.6 1.1 4.8 1.6 0.2 0.6 1.1 1.1 2.1 1.1 1.9 0 16.8 4.9 21.4 7 2.1 1.1 2.7 2 2.7 4.7 0 2.3 -0.5 3.3 -1.5 3.3 -0.8 0 -1.5 0.6 -1.5 1.3 0 0.8 -2.4 2.4 -5.2 3.8 -2.9 1.3 -5.5 2.7 -5.8 3 -1.1 1.4 -5 2.9 -7.4 2.9 -1.6 0 -2.6 0.6 -2.6 1.5 0 0.8 -0.7 1.5 -1.5 1.5 -0.8 0 -1.5 0.5 -1.5 1 0 0.6 -0.5 1 -1.1 1 -0.6 0 -1.7 0.7 -2.5 1.5 -1.6 1.5 -8.4 2.1 -8.4 0.7z"/>
  <path d="M177 317.5 c0 -1.9 0.5 -3.5 1 -3.5 0.6 0 1 -0.9 1 -2 0 -1.5 0.7 -2 2.5 -2 3 0 3 0 0.5 4.7 -1.1 2.1 -2 4.3 -2 5 0 0.7 -0.7 1.3 -1.5 1.3 -1 0 -1.5 -1.1 -1.5 -3.5z"/>
  <path d="M189 319.7 c0 -1 3.2 -2.4 11.3 -4.6 13.1 -3.6 13.7 -3.7 13.7 -1.3 0 1.4 -1.3 2.1 -5.1 3 -2.8 0.7 -6.1 1.2 -7.4 1.2 -1.3 0 -2.5 0.5 -2.7 1.1 -0.2 0.6 -2.5 1.3 -5.1 1.6 -3.8 0.5 -4.7 0.3 -4.7 -1z"/>
  <path d="M216 312.5 c0 -0.8 0.1 -1.5 0.3 -1.5 0.2 0 14.7 -2.9 32.3 -6.4 17.5 -3.5 34 -6.7 36.5 -7.1 4.4 -0.5 4.7 -0.8 5.3 -4 1 -5.3 3.6 -4.6 3.6 1 0 3.3 -0.4 4.5 -1.5 4.5 -0.8 0 -1.5 0.5 -1.5 1 0 0.6 -1.2 1 -2.7 1 -1.6 0 -17.4 2.9 -35.2 6.5 -17.8 3.6 -33.4 6.5 -34.7 6.5 -1.5 0 -2.4 -0.6 -2.4 -1.5z"/>
  <path d="M184 305 c0 -4.1 2 -8 4.2 -8 1.4 0 1.8 -0.8 1.8 -3.5 0 -1.9 0.5 -3.5 1 -3.5 0.6 0 1 -0.7 1 -1.5 0 -0.9 0.9 -1.5 2.5 -1.5 3 0 3.1 0.6 0.5 4.5 -1.2 1.7 -3.7 6 -5.7 9.8 -3.9 7.3 -5.3 8.3 -5.3 3.7z"/>
  <path d="M728.2 294.5 c-1.2 -2.5 -2.2 -5.2 -2.2 -6 0 -0.8 -0.4 -1.5 -1 -1.5 -1.5 0 -1.2 -7 0.4 -8.6 2.1 -2 13.6 -2 13.6 0.1 0 0.8 -0.1 1.5 -0.2 1.5 -4.9 0.5 -11.4 1.3 -11.5 1.4 -0.2 0.2 1.5 4 3.7 8.5 2.2 4.5 4 8.4 4 8.7 0 0.2 -1 0.4 -2.3 0.4 -1.7 0 -2.8 -1.1 -4.5 -4.5z"/>
  <path d="M300 291.5 c0 -4.8 0.2 -5.5 2 -5.5 1.6 0 2 0.7 2 3.3 0 4.7 -1 7.7 -2.6 7.7 -1 0 -1.4 -1.5 -1.4 -5.5z"/>
  <path d="M291 283.8 c0 -4.8 1 -7.8 2.6 -7.8 1 0 1.4 1.5 1.4 5.5 0 4.8 -0.2 5.5 -2 5.5 -1.6 0 -2 -0.7 -2 -3.2z"/>
  <path d="M197 282.5 c0 -1.9 0.5 -3.5 1 -3.5 0.6 0 1 -0.7 1 -1.5 0 -0.8 0.5 -1.5 1 -1.5 0.6 0 1 -0.7 1 -1.5 0 -0.9 0.9 -1.5 2.5 -1.5 2.2 0 2.5 -0.4 2.5 -3.5 0 -1.9 0.5 -3.5 1 -3.5 0.6 0 1 -0.7 1 -1.5 0 -0.8 0.5 -1.5 1 -1.5 0.6 0 1 -0.7 1 -1.6 0 -0.9 0.9 -1.8 2 -2.1 1.1 -0.3 2 -1.4 2 -2.4 0 -1 0.6 -2.2 1.3 -2.6 0.8 -0.4 1.6 -1.6 2 -2.5 0.3 -1 1.3 -1.8 2.2 -1.8 0.8 0 1.5 -0.9 1.5 -2 0 -1.1 0.7 -2 1.5 -2 0.8 0 1.5 -0.9 1.5 -2 0 -1.3 0.7 -2 2 -2 1.4 0 2 -0.7 2 -2.3 0 -2.9 1.8 -4.7 4.7 -4.7 1.9 0 2.3 -0.5 2.3 -2.8 0 -3.7 3 -6.4 6.5 -6 2.7 0.3 2.5 0.5 -5.2 9.3 -8.7 9.9 -27.5 34.4 -33.8 44.3 -2.2 3.4 -4.3 6.2 -4.7 6.2 -0.5 0 -0.8 -1.6 -0.8 -3.5z"/>
  <path d="M301 278.5 c0 -3.8 0.3 -4.5 2 -4.5 2.1 0 2.6 2.3 1.4 6.8 -1.1 4.1 -3.4 2.6 -3.4 -2.3z"/>
  <path d="M804.8 282.3 c-3.3 -0.8 -2 -3.3 1.7 -3.3 2.8 0 3.5 0.4 3.5 2 0 2 -1.4 2.3 -5.2 1.3z"/>
  <path d="M790.8 281.3 c-1 -0.2 -1.8 -1.1 -1.8 -1.9 0 -1 1.3 -1.4 4.5 -1.4 3.8 0 4.5 0.3 4.5 2 0 1.5 -0.6 2 -2.7 1.9 -1.6 -0.1 -3.6 -0.3 -4.5 -0.6z"/>
  <path d="M777.8 280.3 c-1 -0.2 -1.8 -1.1 -1.8 -1.9 0 -1 1.3 -1.4 5 -1.4 4.3 0 5 0.3 5 2 0 1.6 -0.6 2 -3.2 1.9 -1.8 -0.1 -4.1 -0.3 -5 -0.6z"/>
  <path d="M292 272.8 c0 -3.9 1.2 -6.8 2.6 -6.8 1 0 1.4 1.3 1.4 4.5 0 3.8 -0.3 4.5 -2 4.5 -1.4 0 -2 -0.7 -2 -2.2z"/>
  <path d="M302 270 c0 -5.5 5.1 -40.3 7.5 -51.4 6.9 -32 14.3 -60.6 15.6 -60.6 0.5 0 0.9 -0.7 0.9 -1.6 0 -1.9 1.8 -1.8 26.5 1.5 32.1 4.4 102.4 19.5 103.3 22.1 0.2 0.6 1.2 1 2.3 1 1.5 0 1.9 0.7 1.9 3.5 0 3.7 -1.8 8.5 -3.2 8.5 -0.4 0 -0.8 0.7 -0.8 1.5 0 0.8 -0.4 1.5 -1 1.5 -0.5 0 -1 0.7 -1 1.5 0 0.8 -0.7 1.5 -1.5 1.5 -0.9 0 -1.5 0.9 -1.5 2.5 0 1.6 -0.6 2.5 -1.5 2.5 -0.9 0 -1.5 0.9 -1.5 2.4 0 1.4 -0.7 3.1 -1.5 4 -0.8 0.8 -1.5 1.9 -1.5 2.5 0 0.6 -0.7 1.1 -1.5 1.1 -0.8 0 -1.5 0.9 -1.5 2 0 3.4 -3.2 9 -5.2 9 -1.4 0 -1.8 0.8 -1.8 3.5 0 1.9 -0.4 3.5 -1 3.5 -0.5 0 -1 0.7 -1 1.5 0 1.9 -9.9 21.9 -11.1 22.3 -0.5 0.2 -0.9 1.5 -0.9 2.8 0 1.3 -0.4 2.4 -1 2.4 -0.5 0 -1 0.9 -1 2 0 1.5 -0.7 2 -2.5 2 -2.1 0 -2.3 -0.3 -1.5 -2.2 0.6 -1.3 1.5 -3.6 2.1 -5.3 2.8 -7.2 20.9 -41.3 29.6 -55.7 5.2 -8.7 9.3 -16.4 9 -17.1 -1.6 -4.1 -83.2 -21.1 -121.2 -25.2 l-6.1 -0.7 -1.6 5.3 c-2.4 7.5 -11.4 45 -14.4 59.3 -1.3 6.6 -3.3 19 -4.4 27.5 -1.1 8.6 -2.3 17.1 -2.6 18.9 -0.7 4.2 -3.4 4.4 -3.4 0.2z"/>
  <path d="M293 264.3 c0 -2.3 5.2 -37 6.6 -43.8 2.4 -12.3 8.3 -37.2 10.5 -44.8 1.1 -3.8 1.9 -7.5 1.7 -8.4 -0.3 -1.7 -11.7 6.8 -28.3 21.2 -9.6 8.3 -10 8.5 -10.3 6 -0.4 -3.4 1.4 -5.5 4.9 -5.5 2.3 0 2.8 -0.5 3.1 -2.7 0.2 -2.3 0.8 -2.9 3.5 -3.1 2.6 -0.3 3.2 -0.8 3.5 -3 0.2 -2.1 0.9 -2.8 3.1 -3 1.9 -0.2 2.7 -0.9 2.7 -2.4 0 -1.1 0.8 -2.2 1.9 -2.5 1.1 -0.3 2.2 -1.1 2.5 -1.9 0.3 -0.8 1.5 -1.4 2.6 -1.4 1.1 0 2 -0.7 2 -1.5 0 -0.8 0.8 -1.5 1.8 -1.5 0.9 0 2.2 -1 2.7 -2.2 0.7 -1.7 2 -2.4 4.8 -2.6 l3.7 -0.3 0 4.1 c0 5 -1.9 13 -3.1 13 -0.5 0 -0.9 1 -0.9 2.3 0 1.2 -2.3 12.3 -5 24.7 -2.8 12.3 -6.3 30.8 -7.7 41.2 -2.3 16.6 -2.9 18.8 -4.5 18.8 -1 0 -1.8 -0.3 -1.8 -0.7z"/>
  <path d="M249 217.7 c0 -4 1.2 -5.1 5 -4.5 2 0.3 2 0.5 -1.4 4.3 l-3.5 4 -0.1 -3.8z"/>
  <path d="M261 205.2 c0 -3.7 2.8 -6.2 7 -6.2 l3.3 0 -2.4 2.6 c-1.3 1.4 -3.6 3.5 -5.1 4.6 l-2.8 1.9 0 -2.9z"/>
  <path d="M653.8 179.3 c-1 -0.2 -1.8 -1.1 -1.8 -1.9 0 -0.8 -0.7 -1.4 -1.5 -1.4 -0.9 0 -1.9 -0.8 -2.2 -1.7 -0.4 -1 -1.7 -2.6 -3 -3.6 -1.3 -1 -2.3 -2.7 -2.3 -3.8 0 -1 -0.6 -1.9 -1.3 -1.9 -1.6 0 -5.7 -4.1 -5.7 -5.7 0 -0.6 -0.7 -1.3 -1.5 -1.7 -0.9 -0.3 -1.5 -1.8 -1.5 -3.6 0 -2.5 -0.4 -3 -2.3 -3 -3.1 0 -6.7 -4.3 -6.7 -8.1 0 -1.8 0.4 -2.8 1 -2.4 0.9 0.5 18.4 20.7 29 33.3 l2.8 3.4 14.3 -6.2 c29.6 -12.7 48.5 -19.3 81.9 -28.5 11.3 -3.1 21.4 -6 22.5 -6.4 1.6 -0.7 -1.2 -2.4 -14.5 -9.1 -20.5 -10.3 -28.8 -13.9 -46.3 -20.1 -25.7 -9.1 -59.1 -17.1 -87.2 -20.9 -8.8 -1.2 -17.5 -2.4 -19.2 -2.6 -4.6 -0.7 -4.4 -3.4 0.1 -3.4 5.6 0 33.3 3.9 46.4 6.5 26.3 5.4 74.2 19.3 74.2 21.7 0 0.4 0.8 0.8 1.8 0.8 1 0 4.7 1.2 8.2 2.6 8.9 3.6 38.4 18.5 38.8 19.5 0.2 0.5 1 0.9 1.8 0.9 0.9 0 1.4 1.1 1.4 3.5 0 3.2 -0.3 3.5 -4.2 4.5 -5.9 1.6 -8.2 2.2 -25.8 7.3 -8.5 2.4 -18.9 5.3 -23 6.3 -4.1 1 -7.7 2.1 -8 2.5 -0.3 0.3 -7.2 3.1 -15.5 6.2 -8.2 3 -18.8 7.2 -23.5 9.2 -20.9 9 -21.7 9.3 -27.2 7.8z"/>
  <path d="M455 174.8 c-3 -1.2 -5.6 -2.5 -5.8 -2.9 -0.2 -0.5 -1.4 -0.9 -2.7 -0.9 -1.3 0 -9.7 -1.8 -18.7 -3.9 -31 -7.5 -50.7 -11.3 -86.5 -16.7 -3 -0.4 -3.3 -0.8 -3.3 -3.9 0 -2.4 0.5 -3.5 1.5 -3.5 0.8 0 1.5 -0.4 1.5 -1 0 -0.5 0.7 -1 1.5 -1 0.8 0 1.5 -0.4 1.5 -1 0 -0.5 1.1 -1.2 2.5 -1.6 1.4 -0.3 2.5 -1 2.5 -1.5 0 -0.5 1.1 -0.9 2.5 -0.9 1.5 0 2.5 -0.6 2.5 -1.4 0 -0.8 0.7 -1.7 1.6 -2 2.2 -0.8 7.4 -0.7 7.4 0.2 0 0.4 -3.9 3 -8.8 5.9 -13.6 8.1 -13.4 7.9 -7.6 8.7 33.5 4.7 83.2 15.1 106.3 22.3 l11.4 3.6 2.1 -2.8 c1.2 -1.6 3.9 -5.4 6.1 -8.5 15.5 -22.1 32.7 -43.9 47.9 -60.5 l4.5 -5 0.1 3.5 c0 3.7 -2.6 7 -5.5 7 -0.9 0 -1.5 0.9 -1.5 2.3 0 2.7 -1.7 4.7 -4.1 4.7 -1.2 0 -1.9 0.9 -2.1 2.8 -0.2 1.9 -0.9 2.8 -2.5 3 -1.6 0.2 -2.3 1 -2.3 2.6 0 2.7 -1.8 4.6 -4.2 4.6 -1.3 0 -1.8 0.8 -1.8 2.5 0 1.8 -0.5 2.5 -2 2.5 -1.5 0 -2 0.7 -2 2.5 0 1.4 -0.7 2.8 -1.5 3.1 -0.8 0.4 -1.5 1.3 -1.5 2 0 0.8 -0.7 1.7 -1.5 2 -0.8 0.4 -1.5 1.3 -1.5 2 0 0.8 -0.7 1.7 -1.5 2 -0.8 0.4 -1.5 1.2 -1.5 2 0 0.8 -0.4 1.4 -1 1.4 -0.5 0 -1 0.7 -1 1.5 0 0.8 -0.7 1.5 -1.5 1.5 -0.8 0 -1.5 0.9 -1.5 2 0 1.1 -0.6 2 -1.4 2 -0.8 0 -1.6 1 -1.8 2.3 -0.2 1.4 -1.1 2.3 -2.5 2.5 -1.8 0.3 -2.3 1 -2.3 3.3 0 1.6 -0.8 3.7 -1.8 4.7 -1 1 -2.1 2.6 -2.5 3.5 -0.3 0.9 -1.3 1.7 -2.2 1.7 -0.8 0 -1.5 0.7 -1.5 1.5 0 2.2 -5.3 1.8 -12 -0.7z"/>
  <path d="M613.7 135.2 c-2.8 -2.9 -3.7 -4.6 -3.7 -7.2 l0 -3.4 4.6 4.4 c2.5 2.5 5.5 5.7 6.5 7.3 l2 2.7 -2.8 0 c-2 0 -4 -1.1 -6.6 -3.8z"/>
  <path d="M365 129.7 c0 -1.8 1.6 -3 8.5 -6.5 4.7 -2.3 9.4 -4.2 10.5 -4.2 1.1 0 2 -0.4 2 -0.8 0 -1 6.5 -4.2 8.6 -4.2 0.9 0 2.2 -0.7 3 -1.5 0.8 -0.8 3.1 -1.7 5.2 -2.1 2 -0.4 3.9 -1 4.2 -1.4 0.7 -1 11.8 -5 14 -5 1 0 2 -0.4 2.2 -0.9 1.2 -3.4 70.3 -19.7 91.9 -21.7 5.9 -0.6 6.9 -0.5 6.9 0.9 0 1 -1.2 1.8 -3.2 2.1 -1.8 0.3 -8.2 1.3 -14.3 2.2 -11.7 1.7 -40.1 8.2 -60.7 13.8 -17.2 4.7 -42.1 14.3 -61.7 23.7 -9 4.4 -16.6 7.9 -16.8 7.9 -0.1 0 -0.3 -1 -0.3 -2.3z"/>
  <path d="M595.6 116.1 c-4.7 -4.8 -5.7 -6.3 -5.4 -8.6 l0.3 -2.9 6.3 5.8 c3.4 3.2 7.2 7.2 8.3 8.7 l2 2.9 -2.8 0 c-2.2 0 -4.3 -1.4 -8.7 -5.9z"/>
  <path d="M572.2 93.7 c-6.3 -6.4 -7.2 -7.7 -7.2 -11 0 -3.5 0.1 -3.7 3.4 -3.7 2.1 0 3.6 0.6 4 1.5 0.4 1 -0.1 1.5 -1.4 1.5 -1.1 0 -2 0.3 -2 0.7 0 0.4 3.9 4.7 8.7 9.5 l8.8 8.8 -3.5 0 c-3.1 0 -4.5 -1 -10.8 -7.3z"/>
  <path d="M527.8 93.3 c1.1 -1.6 3.1 -3.8 4.4 -5 l2.4 -2.3 -0.4 3.8 c-0.6 4.8 -1.8 6.2 -5.4 6.2 l-2.9 0 1.9 -2.7z"/>
  <path d="M524 82 c0 -1.8 0.7 -2 5.5 -2 4 0 5.5 0.4 5.5 1.4 0 1.6 -3 2.6 -7.7 2.6 -2.6 0 -3.3 -0.4 -3.3 -2z"/>
  <path d="M591.8 82.3 c-1 -0.2 -1.8 -1.1 -1.8 -1.9 0 -1.1 1.6 -1.4 7 -1.4 6.3 0 7 0.2 7 2 0 1.8 -0.6 2 -5.2 1.9 -2.9 -0.1 -6.1 -0.3 -7 -0.6z"/>
 </g>
 <g fill="#fafaee">
  <path d="M0 520.5 l0 -520.5 525 0 525 0 0 520.5 0 520.5 -525 0 -525 0 0 -520.5z m564.5 471.6 c1.9 -0.1 2.6 -0.4 1.9 -1.1 -1 -1 -13.1 -9.5 -34.1 -23.9 -7.2 -5 -18.2 -13.3 -24.5 -18.3 -6.2 -5.1 -13.6 -11.1 -16.3 -13.3 -2.7 -2.2 -7 -5.9 -9.6 -8.3 l-4.8 -4.4 -4.8 2.2 c-16.1 7.3 -60.5 24.6 -71 27.8 -2.9 0.8 -5.3 1.9 -5.3 2.3 0 2.1 23.9 11.2 49.8 19 34.5 10.4 92.8 19.8 113.2 18.2 1.4 -0.1 3.8 -0.2 5.5 -0.2z m67 -1.8 c3.9 -0.8 9.9 -1.8 13.4 -2.4 3.5 -0.5 8.8 -1.6 11.7 -2.5 5.3 -1.5 6.6 -1.8 13.4 -2.8 2 -0.3 7.8 -1.9 13 -3.6 5.2 -1.7 13.6 -4.2 18.6 -5.6 5.1 -1.3 12.3 -3.7 16 -5.3 9.4 -3.9 16.7 -6.9 24.4 -10 6.5 -2.6 25.7 -12.5 27.4 -14.1 1.2 -1.2 -6.3 -4.3 -28.4 -11.7 -10.7 -3.6 -22.4 -7.9 -26 -9.6 -3.6 -1.6 -6.9 -3.1 -7.5 -3.3 -1.4 -0.3 -13.9 -5.6 -20.5 -8.7 -6.5 -3 -10.1 -3.9 -11.6 -2.9 -0.6 0.4 -3.9 4.1 -7.3 8.2 -5.7 7.1 -12.6 15.3 -17.5 21 -1.1 1.4 -3.7 4.5 -5.6 7 -4.8 6.2 -7.4 9.3 -15 17.5 -17.6 19.3 -21.6 23.9 -23.3 26.6 -2 3.1 -2.3 2.9 4.8 4.2 3 0.6 12.2 -0.3 20 -2z m-31 -12.6 c21.4 -22 41.7 -45.4 54.5 -62.7 4.6 -6.3 8.9 -11.8 9.4 -12.1 0.9 -0.7 -0.8 -1.8 -9.4 -5.9 -9.7 -4.7 -31.1 -18.5 -62.4 -40.4 -0.9 -0.6 -8.4 3.8 -24.7 14.6 -12.9 8.5 -28.1 18.2 -33.9 21.5 -20 11.4 -28.5 16.1 -37 20.3 l-8.5 4.3 7.5 6.9 c12.5 11.5 52.7 41 69.7 51.1 8.7 5.2 17.4 10.3 19.3 11.5 1.9 1.1 3.7 2.1 4 2.1 0.3 0.1 5.5 -5 11.5 -11.2z m-215 -31.8 c40.8 -14.2 52.5 -18.7 70.8 -27.2 5.3 -2.5 9.7 -4.9 9.7 -5.2 0 -0.4 -7.7 -8.6 -17.1 -18.3 -9.4 -9.8 -18.7 -19.8 -20.8 -22.4 l-3.6 -4.7 -20.5 -0.1 c-40.9 -0.1 -63.7 -3.6 -104.7 -16.1 -26.6 -8.1 -51 -18 -68.6 -27.8 -4.3 -2.3 -8.1 -4 -8.4 -3.7 -1.6 1.6 24.9 31.9 40.8 46.8 25.8 23.9 54.5 46.3 77.9 60.7 11.3 7 35.5 20.1 37 20.1 0.9 0 4.3 -0.9 7.5 -2.1z m396.5 -14.2 c2 -1.6 6.1 -11.8 7.5 -18.6 0.2 -0.9 1.3 -6.1 2.5 -11.6 1.2 -5.5 2.4 -11.3 2.6 -13 0.6 -3.5 4.6 -19 7.4 -28.5 1.6 -5.5 4.4 -19 5.5 -26.5 1.3 -8.5 2.7 -27.5 2.2 -28.9 -0.6 -1.5 -2.1 -1.6 -13.4 -1 -7.1 0.3 -22.7 0.7 -34.8 0.9 -12.1 0.1 -22.7 0.3 -23.7 0.4 -0.9 0 -2.6 2 -3.8 4.4 -1.2 2.3 -3.9 7.4 -5.9 11.2 -2 3.9 -6.3 12 -9.5 18 -6.2 11.6 -16.7 28.7 -19.1 31.1 -0.8 0.8 -2.8 4.2 -4.6 7.7 -1.7 3.4 -4.9 8.7 -7 11.7 -4.4 6.4 -4.9 9.3 -1.6 11.4 1.8 1.1 15.7 7.1 35.2 15.1 1.7 0.7 8.6 3.1 15.5 5.3 6.9 2.3 17.9 5.9 24.5 8.1 12.5 4.1 18 4.9 20.5 2.8z m36.2 -17.5 c23.9 -17.4 39.3 -30.5 59.3 -50.6 23.2 -23.4 38.4 -41.8 56.8 -69.2 8 -11.8 12.2 -19.3 11.3 -20.1 -0.3 -0.3 -2.5 0.1 -4.8 1 -21 7.7 -83.9 22.5 -109.2 25.6 -4.3 0.5 -8.2 1.3 -8.7 1.8 -0.5 0.5 -2 9.2 -3.4 19.4 -1.3 10.2 -3.3 22.8 -4.4 28 -2.7 13.1 -14.5 61.1 -17 68.9 -1.2 3.6 -2.1 7.3 -2.1 8.3 0 1.6 0.2 1.6 3 0.2 1.7 -0.9 10.3 -6.9 19.2 -13.3z m-324.8 -12.8 c29.5 -15 75.8 -44 95.6 -59.9 3.6 -2.8 9 -7 12 -9.2 24.5 -18.1 84.3 -74.9 98.4 -93.5 1.6 -2.1 2.6 -3.8 2.3 -3.8 -0.4 0 -8.3 3.6 -17.6 8 -20.8 9.8 -33.1 14.7 -48.1 19.3 -17.5 5.4 -26.3 7.2 -55.7 11.6 -23.6 3.6 -77.9 4.8 -98.3 2.3 -5.8 -0.7 -12.5 -1.5 -15 -1.8 -5.4 -0.6 -22.1 -3 -30.5 -4.5 -8.1 -1.4 -38.9 -9.3 -50 -12.9 -11.6 -3.7 -14.5 -4.3 -14.5 -3 0 3.9 11.6 28.8 21.5 46 19.1 33.4 28.6 47 52.2 74.7 9.6 11.3 31.8 33.3 33.7 33.3 0.5 0 6.8 -3 14 -6.6z m183.5 -14.9 c2.1 -3.1 5.8 -7.8 8.1 -10.6 4.6 -5.3 6 -7.5 11.6 -18.4 2 -3.8 4.4 -8.1 5.4 -9.5 4.5 -6.4 15.8 -27.1 20.5 -37.5 1 -2.2 4.9 -10.4 8.7 -18.2 3.7 -7.9 6.8 -14.7 6.8 -15.2 0 -1 10.7 -32.9 15.9 -47.2 1.7 -4.7 3.3 -10.3 3.6 -12.5 0.3 -2.1 0.8 -5.5 1.2 -7.4 0.3 -1.9 0.7 -4.2 0.8 -5 0.1 -0.8 0.9 -5.1 1.8 -9.5 0.8 -4.4 1.8 -10.5 2.2 -13.5 l0.6 -5.5 -2.8 2.5 c-3.7 3.3 -4.7 4.6 -8.5 10.5 -1.8 2.8 -4.3 6 -5.5 7.3 -1.3 1.3 -2.3 2.6 -2.3 3 0 0.4 -2 2.8 -4.3 5.2 -2.4 2.5 -8.4 10.1 -13.3 17 -8 11.2 -19.8 25.2 -23.1 27.3 -2.4 1.5 -9.7 9.8 -11.9 13.5 -3.5 5.7 -52.4 52.8 -63.2 60.7 -5.2 3.9 -13.3 10.6 -17.9 15.1 -9.5 8.9 -9.8 10.2 -4.1 14.1 1.8 1.3 4.9 3.8 6.9 5.7 8.3 7.9 42 27.7 55.9 32.9 2.6 1 2.8 0.8 6.9 -4.8z m-265.1 -30 c1.7 -0.3 3.2 -0.9 3.1 -1.3 -0.1 -1.2 -7.9 -13.4 -17.5 -27.4 -5 -7.4 -11.2 -17.8 -13.8 -23.3 -2.7 -5.5 -6.9 -14.2 -9.3 -19.3 -2.5 -5.2 -5.7 -11.3 -7.3 -13.5 -1.5 -2.3 -4.4 -8.7 -6.5 -14.2 -2 -5.5 -4.1 -10.5 -4.6 -11.1 -1.2 -1.5 -18 -9.7 -24.9 -12.2 -11.3 -4.1 -26.7 -12.1 -45.2 -23.3 -5.3 -3.2 -9.9 -5.9 -10.2 -5.9 -0.5 0 -6.5 -3.8 -10.4 -6.8 -1.3 -0.9 -3.8 -2.6 -5.6 -3.7 -9.9 -6.2 -13.2 -8.4 -17.9 -11.7 -5.1 -3.7 -9.9 -7.4 -12.1 -9.3 -0.6 -0.5 -3 -2.7 -5.4 -4.7 -2.3 -2.1 -4.9 -3.8 -5.8 -3.8 -1.9 0 -4.4 5.8 -5 11.9 -0.3 2.5 -1.5 10.7 -2.6 18.1 -1.1 7.4 -2.4 16 -2.8 19 -0.5 3 -1.3 8.9 -2 13 -1.8 12.7 -2.5 24.6 -2.5 46.7 l0 21.2 3 3.1 c4.5 4.7 23.9 15.9 34 19.5 4.2 1.5 28.4 11.9 43.2 18.6 2.4 1 4.9 1.9 5.7 1.9 0.7 0 5.1 1.4 9.7 3 12.7 4.6 21.4 6.6 44.9 10.4 37.1 5.9 54.7 7.2 67.8 5.1z m386.7 -64.5 c5 -0.5 13.3 -1.5 18.5 -2.1 27.7 -3 49.8 -6.9 73 -12.8 23 -5.9 48.5 -13.2 49.5 -14.3 0.7 -0.6 -19.7 -13.1 -48.5 -29.5 -16.1 -9.1 -37.2 -21.3 -97 -55.8 -7.4 -4.2 -14.2 -8.4 -15.1 -9.1 -1.5 -1.3 -1.7 -0.9 -2.2 3.8 -3.8 33.5 -16.7 79.1 -31.6 112.1 -1.7 3.8 -3.1 7.6 -3.1 8.4 0 1.4 2.6 1.5 23.8 1 13 -0.4 27.8 -1.1 32.7 -1.7z m-604.6 -37 c2.1 -34 6.1 -65.6 10.5 -82.7 0.8 -3.2 1.8 -8.1 2.1 -10.8 l0.7 -5 -8.6 -7.5 c-17 -15 -55.1 -55.3 -67.6 -71.6 l-4.5 -5.9 -0.3 4.9 c-0.4 5.9 2.9 32.8 6.4 51.5 7.7 42.3 26.9 94.1 49.7 134.1 8.7 15.4 8.8 15.5 9.7 13.9 0.4 -0.8 1.3 -10.2 1.9 -20.9z m341.4 11.4 c4.2 -0.4 7.7 -1 7.7 -1.3 0 -1.3 -13.9 -7 -27 -11.1 -18 -5.6 -28.6 -10.3 -39.5 -17.5 -5 -3.3 -12.4 -8 -16.5 -10.4 -13 -7.6 -28.8 -18.9 -29.8 -21.3 -0.2 -0.5 -1 -0.8 -1.7 -0.8 -0.7 0 -1.5 -0.4 -1.7 -0.8 -0.1 -0.4 -5 -4.6 -10.8 -9.2 -5.8 -4.6 -10.7 -8.7 -11 -9 -0.3 -0.3 -2.5 -2.1 -5 -4 -2.5 -1.9 -4.7 -3.7 -5 -4 -0.3 -0.3 -2.9 -2.5 -5.9 -5 -3 -2.5 -8 -6.9 -11.1 -10 -8 -7.7 -20.8 -19.3 -25.3 -22.8 -7.8 -6.2 -53.5 -53 -59.2 -60.7 -7.2 -9.6 -7 -9.3 -9.8 -12.6 -1.2 -1.5 -5.3 -6.5 -9.2 -11.2 -8 -9.9 -11.4 -12 -14.6 -9.1 -1.1 1 -3.1 4.2 -4.5 7.1 -1.3 2.9 -4 8.8 -6 13 -2 4.3 -4.9 10.5 -6.4 13.8 -2.4 5.2 -9.3 26 -18.5 55.4 -1.4 4.6 -2.8 10.9 -3.1 14 l-0.6 5.6 5.3 4.6 c3 2.5 7.4 5.8 9.9 7.4 2.5 1.6 10.6 7.4 18 13 7.4 5.6 15.5 11.4 18 12.9 2.5 1.5 6.8 4.1 9.5 5.8 2.8 1.7 9.5 5.5 15 8.3 5.5 2.9 11.8 6.2 14 7.3 10.6 5.6 37.7 18.7 43 20.8 3.3 1.4 8.7 3.1 12 4 3.3 0.8 15.5 4.6 27.1 8.4 22.8 7.5 38.3 11.2 53.9 13 11.4 1.2 35.5 4.9 36.5 5.5 0.3 0.2 5.1 0.7 10.6 1.1 5.4 0.3 10.1 0.9 10.4 1.1 0.5 0.5 19 -0.2 31.3 -1.3z m-142.9 -109.1 c-1.4 -4.8 -9.3 -19.9 -14.9 -28.8 -1.7 -2.7 -6.4 -11.7 -10.4 -20 -4 -8.2 -9.8 -19.9 -12.9 -26 -3 -6 -6.6 -13 -7.8 -15.5 -2.3 -4.7 -6 -14.4 -9.9 -26.5 -1.3 -3.8 -3.3 -9.1 -4.4 -11.7 -2 -4.4 -9.5 -25.4 -15.7 -43.8 -4.9 -14.7 -11.6 -44.7 -14 -62.5 -0.3 -2.7 -0.8 -5.9 -1.1 -7 -0.3 -1.1 -1.1 -5.6 -2 -10 -1.4 -8 -3.4 -12.5 -5.4 -12.5 -0.6 0 -4.8 1.9 -9.2 4.2 -7.4 3.8 -11.4 6.6 -23.6 16.3 -6.6 5.3 -19.6 15.5 -20.6 16.3 -0.5 0.4 -3.2 2.3 -6 4.2 -8.1 5.5 -18.5 16 -18.5 18.7 0 2.4 1.4 5.4 4.1 8.8 2.1 2.6 14.6 23.7 15.6 26.1 0.8 2.3 4.4 7.5 16.1 23.3 14.4 19.6 18 24.6 20.3 28.7 4.8 8.2 15.3 21 24.7 29.8 4 3.8 20.3 21.6 25.7 28.2 4.5 5.4 17.7 18.3 22.7 22.2 1.8 1.4 8 7.3 13.8 13.1 5.8 5.9 12.5 12.2 15 14.1 2.5 1.9 5.6 4.5 7 5.8 1.4 1.3 4.1 3.3 6 4.5 1.9 1.2 4.1 2.7 4.8 3.4 2.1 2 2.1 1.7 0.6 -3.4z m-180.5 -16.5 c0.4 -1.3 1.8 -6.2 2.9 -10.9 1.2 -4.7 4.5 -13.7 7.5 -20 5.9 -12.5 8.2 -18.1 9.3 -21.9 0.4 -1.4 1.9 -5.2 3.4 -8.5 2.4 -5.3 5.5 -12.9 16.5 -40.8 l2.7 -6.8 -5.5 -8.2 c-3 -4.5 -7.1 -11.1 -9.2 -14.7 -2 -3.6 -5.9 -9.4 -8.5 -13 -8.9 -12.2 -15 -22.3 -16.6 -27.5 -0.8 -2.9 -2.2 -5.9 -3.2 -6.7 -3.9 -3.4 -4.9 -3 -12.4 5.5 -4 4.5 -13.6 14.5 -21.3 22.2 -7.7 7.7 -15.1 15.5 -16.5 17.4 -2.1 2.9 -13.3 17 -16.5 20.8 -0.5 0.6 -2.6 3.5 -4.5 6.3 -1.9 2.8 -5.6 7.8 -8.2 11.2 -2.7 3.3 -4.8 6.9 -4.8 8 0 3.5 10.5 16.8 26.6 33.8 4.4 4.7 9.5 10.7 11.4 13.5 7.2 10.4 12.3 15.9 20.7 22.2 4 3 10.9 8.7 15.3 12.8 4.4 4.1 8.4 7.5 9 7.5 0.6 0 1.4 -1 1.9 -2.2z m147.5 -81.8 c-1.5 -11.6 -2.1 -59.2 -0.9 -69.5 0.3 -2.7 1.4 -14 2.5 -25 5.7 -56.9 17.8 -107.5 40.5 -169.7 9.9 -27.2 35.2 -77.4 52.3 -104.2 1.8 -2.8 3.2 -5.3 3.2 -5.7 0 -4.1 -92.7 -23.5 -125.5 -26.2 -2.9 -0.2 -3.1 0 -5.7 8.3 -2.5 8 -9.5 36.7 -13.8 56.5 -2.4 11.1 -6.5 41.6 -8 59 -1.2 15.2 -1.7 61.1 -0.6 70.5 0.4 3.6 0.9 8.1 1.1 10 0.2 1.9 0.7 6.4 1 10 5.7 60.6 24.9 132.8 49.6 186.3 2.9 6.4 5.4 11.5 5.5 11.4 0.2 -0.1 -0.4 -5.4 -1.2 -11.7z m-223.4 -37.2 c9.7 -12.4 11.6 -14.7 25.5 -30.2 4.4 -4.9 9.5 -10.8 11.4 -13 1.9 -2.3 9.2 -9.7 16.3 -16.6 l12.9 -12.5 -8.1 -17.5 c-12.1 -25.9 -23.6 -56.2 -29.7 -78 l-1 -3.5 -1.7 4 c-4.3 9.9 -13.9 36.5 -17 47.2 -1.9 6.5 -4.2 14.1 -5 16.8 -4 12.5 -10.5 50.4 -12.6 72.5 -1.6 17.5 -2.4 43 -1.4 43 0.5 -0.1 5.2 -5.5 10.4 -12.2z m251.1 -96 c12.7 -23.9 26.6 -46.5 34.6 -56.8 0.6 -0.8 5.2 -6.9 10.3 -13.5 19.9 -26.2 30.8 -38.5 56 -63 21 -20.4 35.1 -32.4 60.5 -51.5 6.1 -4.5 11.1 -8.6 11.3 -9.1 0.9 -2.2 -38.7 -22.9 -64.8 -33.9 -18.2 -7.7 -25.7 -10.1 -26.8 -8.7 -2.7 3.4 -16 26.4 -24.5 42.2 -16.4 30.9 -26.5 54.3 -38.8 90 -12.8 37.3 -19.4 64 -26.4 106.5 -2.9 17.8 -3.1 21 -1 16.3 0.7 -1.7 5 -10.1 9.6 -18.5z m-162.6 3.6 c14.1 -12.3 24.3 -19.9 48.8 -36.4 l19.9 -13.4 -0.7 -6.6 c-1.4 -15 -2.5 -36.4 -2.5 -49.2 0 -11.6 -0.2 -13.8 -1.5 -13.8 -0.8 0 -9.3 1.3 -18.8 3 -25.5 4.4 -72.7 15.7 -90.7 21.7 -5.2 1.7 -5.5 2 -5.2 4.8 0.9 8.9 6.9 26.9 21.9 65.5 5.9 15.4 15 34 16.6 34 0.6 0 6.2 -4.4 12.2 -9.6z m566.5 -22.8 c5.2 -2.7 12.4 -6.7 16 -9.1 3.6 -2.3 9.7 -5.9 13.5 -8 3.9 -2.1 12.2 -6.8 18.5 -10.5 6.3 -3.7 16 -9.3 21.5 -12.5 5.5 -3.2 13.8 -8.1 18.5 -10.8 11.5 -6.8 37.9 -21.6 52.5 -29.5 6.6 -3.6 12.8 -7.2 13.8 -8 1.7 -1.5 1.7 -1.7 -0.7 -2.9 -3.6 -1.9 -25.9 -9.5 -41.6 -14.2 -46 -13.8 -97.6 -21.1 -149 -21.1 -13.5 0 -25.1 0.4 -25.9 0.9 -1.2 0.7 0.8 5.5 10.2 24.3 16.9 34.2 26.8 58.7 38.8 96.6 1.8 5.6 3.6 10.1 3.9 10 0.3 -0.2 4.8 -2.5 10 -5.2z m-29.5 -17.8 c-0.7 -6.2 -2.8 -12.2 -9.7 -28.3 -1.9 -4.4 -4.5 -11.1 -5.8 -15 -1.3 -3.8 -4.8 -11.7 -7.8 -17.5 -3 -5.8 -7.8 -15.7 -10.7 -22 -5 -11.1 -8.1 -16.5 -12.5 -22.2 -2.7 -3.4 -3.9 -3.5 -26 -0.8 -30.5 3.8 -71.3 11.2 -86.5 15.7 -9 2.7 -24.5 8.5 -24.5 9.3 0 0.6 5.7 1.2 34.3 3.5 6.4 0.5 30.9 6.6 45.2 11.3 9.6 3.1 24.8 9.8 32.8 14.4 2.6 1.5 5.2 2.8 5.6 2.8 1.2 0 26.6 18.4 33.6 24.3 3.3 2.9 11.7 10.9 18.6 17.9 6.9 7.1 12.9 12.8 13.3 12.8 0.4 0 0.5 -2.8 0.1 -6.2z m-302.5 -40.8 c0.7 0 3.5 -1.5 6.3 -3.4 12.7 -8.2 27 -15.6 46.7 -23.9 23.8 -10.1 30.1 -12.7 31.3 -12.7 0.7 0 5.3 -1.6 10.2 -3.7 15.3 -6.2 77.5 -22.8 93 -24.8 5.5 -0.7 4.9 -0.6 22.3 -3.4 6.8 -1.1 16.5 -2.3 21.5 -2.7 16.1 -1 18.4 -2.9 13.3 -10.4 -1.2 -1.9 -4.3 -7.3 -6.7 -12 -2.4 -4.7 -5 -9.1 -5.7 -9.8 -0.6 -0.8 -2.6 -3.5 -4.4 -6 -3.4 -5 -3.5 -5.1 -7.2 -9.7 -1.3 -1.6 -3.2 -4.5 -4.3 -6.3 -2.4 -3.9 -14.4 -18.3 -19.1 -22.9 -1.8 -1.8 -4 -3.3 -4.8 -3.3 -0.8 0 -6.7 2.6 -13.2 5.8 -6.4 3.3 -13.5 6.5 -15.7 7.2 -3.8 1.2 -15.4 6.9 -16.5 8 -2.4 2.6 -28.7 20.7 -34.9 24 -1.4 0.7 -3 1.7 -3.5 2.2 -3 2.5 -12.5 9.1 -20.1 14 -2.7 1.8 -5.2 3.5 -5.5 3.8 -0.3 0.3 -3 2.5 -6 5 -3 2.5 -5.7 4.7 -6 5 -2.3 2.3 -13.6 12.4 -18 16 -12.5 10.3 -24.1 21.7 -36.5 36 -7 8.1 -16.1 18.6 -17.8 20.5 -1.8 1.9 -5.7 8.8 -5.7 10 0 0.3 1.3 -0.1 3 -1 1.6 -0.8 3.4 -1.5 4 -1.5z m-263 -31.5 c6.9 -2 29.8 -7 51 -11.1 21.2 -4.2 39.6 -7.9 41 -8.3 2.5 -0.6 2.5 -0.9 3.7 -15.6 2.6 -32.1 11.9 -84.4 19.2 -108 1.2 -3.7 2.1 -7.3 2.1 -8.1 0 -1.5 -7.5 4.2 -23.9 18 -35.1 29.7 -62.4 60 -86.1 95.6 -10.2 15.2 -23 37.8 -23 40.5 0 1.1 0.6 1.5 1.8 1.1 0.9 -0.3 7.3 -2.2 14.2 -4.1z m752.5 -15.5 c0.6 -2 -4.3 -13 -7.4 -16.5 -1 -1.1 -4 -5.4 -6.7 -9.5 -2.7 -4.1 -5.2 -7.6 -5.6 -7.8 -0.5 -0.2 -0.8 -0.9 -0.8 -1.5 0 -0.7 -1 -2.3 -2.3 -3.7 -1.2 -1.4 -5.3 -6.5 -9.1 -11.5 -10.3 -13.3 -15.3 -18.9 -35.1 -39 -16.6 -16.7 -23.5 -23.2 -32.8 -30.3 -1.9 -1.5 -6.8 -5.4 -10.8 -8.7 -9.9 -8.1 -19.3 -14.6 -25.7 -17.9 -4.4 -2.2 -5.3 -2.4 -5.8 -1.2 -0.9 2.3 0.3 9 2.5 14.3 3.3 8.1 15.2 55.4 17.5 69.5 0.3 1.5 1.6 7.2 2.9 12.5 1.4 5.4 2.8 12.4 3.1 15.6 1.1 9.8 1.9 10.4 18.6 12.7 8.1 1.1 26.9 4.5 30 5.4 0.8 0.2 4.2 1.2 7.5 2 7.4 2 30.8 9.3 35.5 11.1 1.9 0.8 6.2 2.5 9.5 3.9 7.5 3.2 14.1 3.5 15 0.6z m-127 -30.1 c0.9 -1.3 -1.1 -18.7 -3.2 -28.9 -0.8 -4.1 -1.9 -9.3 -2.4 -11.5 -0.4 -2.2 -1.9 -7.8 -3.2 -12.5 -4 -13.6 -9.8 -36.9 -11.2 -44.3 -1.4 -7.7 -7 -23.4 -9.6 -26.8 l-1.7 -2.3 -14.4 3.3 c-7.8 1.8 -23.1 6.2 -33.8 9.7 -20.1 6.5 -38.2 12.1 -43.5 13.4 -10.1 2.6 -29.4 11.5 -31.9 14.7 -1.9 2.6 -1.4 4.2 3.8 10.8 1.8 2.2 4.3 5.8 5.6 8 1.4 2.2 6 9 10.3 15 4.3 6.1 9.2 13.6 10.8 16.7 1.6 3.1 3.3 5.9 3.8 6.3 1.5 0.9 10.2 14.3 13.6 20.8 2.4 4.7 3.4 5.7 5.5 5.7 22 0 81.4 1.3 87 1.9 11.2 1.2 13.8 1.2 14.5 0z m-243.4 -50.4 c2.9 -2 8.2 -5.2 11.8 -7.2 3.6 -2 10.4 -6 15.1 -8.8 9.9 -6 31 -17.5 35.8 -19.4 1.7 -0.8 3.2 -1.7 3.2 -2.1 0 -1 -16.3 -21.3 -23 -28.5 -16 -17.3 -23 -24.5 -39 -40.3 -16.7 -16.6 -28.3 -27.4 -29.9 -28 -1.4 -0.5 -37 39.6 -52.2 58.8 -12.8 16.2 -23.6 31.6 -22.8 32.4 0.2 0.3 5.1 2.2 10.9 4.4 14.6 5.6 24.6 10 38 16.7 14.9 7.4 36.4 19.2 41.5 22.7 2.2 1.5 4.3 2.8 4.6 2.8 0.4 0 3.1 -1.6 6 -3.5z m85.7 -45.9 c3.1 -1.3 9.5 -4.1 14.2 -6.1 14.6 -6.2 44.1 -17.1 53 -19.4 4.7 -1.3 13.9 -3.9 20.5 -5.8 6.6 -2 15.1 -4.4 18.8 -5.3 3.8 -1 7.1 -2.1 7.4 -2.4 1 -1 -41.5 -21.2 -55.7 -26.5 -34.8 -12.8 -75.9 -22.2 -114.9 -26.1 -11.7 -1.1 -39.1 -1.4 -39.1 -0.3 0 0.4 10.3 10.9 22.9 23.3 23.1 22.8 38.5 38.8 45 47 8 10 20.3 24 21.2 24 0.5 0 3.5 -1.1 6.7 -2.4z m-193.1 -9.5 c12.3 -18.6 35.4 -47.4 61.4 -76.5 l5.3 -5.9 -9.4 0.7 c-21 1.6 -47.6 6.8 -82.2 16.1 -30.8 8.3 -72.8 26.7 -98.9 43.4 l-6.3 3.9 3.5 0.6 c27 4.1 39.1 6.2 53.4 9.2 25.2 5.3 52.1 11.9 59.5 14.7 7.6 2.9 7.7 2.9 13.7 -6.2z"/>
 </g>
</svg>